<svg preserveAspectRatio="none" width="100%" height="100%" overflow="visible" style="display: block;" viewBox="0 0 36 36" fill="none" xmlns="http://www.w3.org/2000/svg">
<g id="Icon">
<path id="Vector" d="M7.5 7.5C7.49984 6.97214 7.63897 6.45358 7.90333 5.99669C8.16768 5.53979 8.54791 5.16074 9.00563 4.89779C9.46334 4.63485 9.98233 4.49734 10.5102 4.49913C11.038 4.50092 11.5561 4.64196 12.012 4.908L30.0075 15.405C30.4616 15.6685 30.8387 16.0466 31.1009 16.5015C31.3631 16.9564 31.5014 17.4721 31.5019 17.9972C31.5023 18.5223 31.3649 19.0383 31.1035 19.4936C30.8421 19.9489 30.4657 20.3277 30.012 20.592L12.012 31.092C11.5561 31.358 11.038 31.4991 10.5102 31.5009C9.98233 31.5027 9.46334 31.3651 9.00563 31.1022C8.54791 30.8393 8.16768 30.4602 7.90333 30.0033C7.63897 29.5464 7.49984 29.0279 7.5 28.5V7.5Z" fill="var(--fill-0, white)" stroke="var(--stroke-1, white)" stroke-width="3" stroke-linecap="round" stroke-linejoin="round"/>
</g>
</svg>
