<svg preserveAspectRatio="none" width="100%" height="100%" overflow="visible" style="display: block;" viewBox="0 0 24 24" fill="none" xmlns="http://www.w3.org/2000/svg">
<g id="icon">
<path id="Rectangle 138" d="M18 20C18 18.8954 18.8954 18 20 18C21.1046 18 22 18.8954 22 20C22 21.1046 21.1046 22 20 22C18.8954 22 18 21.1046 18 20Z" stroke="#08090D" stroke-width="2"/>
<path id="Rectangle 136" d="M10 12C10 10.8954 10.8954 10 12 10C13.1046 10 14 10.8954 14 12C14 13.1046 13.1046 14 12 14C10.8954 14 10 13.1046 10 12Z" stroke="#08090D" stroke-width="2"/>
<path id="Vector 458" d="M6 12H4C2.89543 12 2 12.8954 2 14V18C2 19.1046 2.89543 20 4 20H14.5" stroke="#08090D" stroke-width="2" stroke-linecap="round"/>
<path id="Vector 459" d="M18 12L20 12C21.1046 12 22 11.1046 22 10L22 6C22 4.89543 21.1046 4 20 4L10 4" stroke="#08090D" stroke-width="2" stroke-linecap="round"/>
<path id="Rectangle 137" d="M2 4C2 2.89543 2.89543 2 4 2C5.10457 2 6 2.89543 6 4C6 5.10457 5.10457 6 4 6C2.89543 6 2 5.10457 2 4Z" stroke="#08090D" stroke-width="2"/>
</g>
</svg>
