<svg preserveAspectRatio="none" width="100%" height="100%" overflow="visible" style="display: block;" viewBox="0 0 24 24" fill="none" xmlns="http://www.w3.org/2000/svg">
<g id="icon">
<g id="Vector">
<path d="M22 12C22 17.5228 17.5228 22 12 22C6.47715 22 2 17.5228 2 12C2 6.47715 6.47715 2 12 2C17.5228 2 22 6.47715 22 12Z" stroke="#08090D" stroke-width="2" stroke-linecap="round" stroke-linejoin="round"/>
<path d="M8 16L10 10L16 8L14 14L8 16Z" stroke="#08090D" stroke-width="2" stroke-linecap="round" stroke-linejoin="round"/>
</g>
<path id="Vector_2" d="M12 4V2M12 22V20M17.6569 6.34317L19.0711 4.92896M4.92893 19.0711L6.34314 17.6569M20 12H22M1.99998 12H3.99998M17.6568 17.6568L19.0711 19.071M4.92892 4.92891L6.34314 6.34312" stroke="#08090D" stroke-width="2" stroke-linecap="round" stroke-linejoin="round"/>
</g>
</svg>
