<svg preserveAspectRatio="none" width="100%" height="100%" overflow="visible" style="display: block;" viewBox="0 0 160 36" fill="none" xmlns="http://www.w3.org/2000/svg">
<g id="logo">
<g id="Vector">
<path d="M42.6747 27.2383H40.6978V26.4431H43.315V25.476H40.2934L39.597 26.024V27.5284L40.2934 28.2054H42.2703V29.0113H39.597V29.9676H42.6747L43.315 29.4196V27.9152L42.6747 27.2383Z" fill="var(--fill-0, white)"/>
<path d="M47.2915 25.4866H44.4721V29.9675H45.7189V28.7855H47.2915L48.2574 27.8613V26.314L47.2915 25.4866ZM47.0556 27.6357H45.6627V26.4H47.0556V27.6357Z" fill="var(--fill-0, white)"/>
<path d="M52.8511 28.635L53.57 27.8613V26.314L52.8511 25.4866H49.4027V29.9675H50.6496V28.721H51.5369L52.3344 29.9675H53.7273L52.8511 28.635ZM52.312 27.6787H50.6046V26.4429H52.312V27.6787Z" fill="var(--fill-0, white)"/>
<path d="M58.5126 26.4431V25.476H54.7272V29.9676H58.5126V28.9898H55.974V28.1946H58.0296V27.249H55.974V26.4431H58.5126Z" fill="var(--fill-0, white)"/>
<path d="M63.1405 25.4866H60.3885L59.6809 26.2495V29.9675H60.9277V28.6243H62.6013V29.9675H63.8482V26.271L63.1405 25.4866ZM62.6013 27.6357H60.9277V26.4644H62.6013V27.6357Z" fill="var(--fill-0, white)"/>
<path d="M68.4535 25.4866H64.9939V29.9675H68.4535L69.1611 29.183V26.271L68.4535 25.4866ZM67.9031 28.9896H66.2407V26.4429H67.9143L67.9031 28.9896Z" fill="var(--fill-0, white)"/>
<path d="M71.7066 25.476V26.4968H72.9759V29.9569H74.2115V26.4968H75.492V25.476H71.7066Z" fill="var(--fill-0, white)"/>
<path d="M109.212 25.476V26.4968H110.481V29.9569H111.717V26.4968H112.997V25.476H109.212Z" fill="var(--fill-0, white)"/>
<path d="M79.4908 25.476V27.1201H77.8284V25.476H76.5816V29.9569H77.8284V28.2698H79.4908V29.9569H80.7488V25.476H79.4908Z" fill="var(--fill-0, white)"/>
<path d="M85.68 26.4538V25.476H81.8947V29.9569H85.68V28.979H83.1415V28.1839H85.197V27.249H83.1415V26.4538H85.68Z" fill="var(--fill-0, white)"/>
<path d="M97.4405 26.4538V25.476H93.6552V29.9569H97.4405V28.979H94.902V28.1839H96.9576V27.249H94.902V26.4538H97.4405Z" fill="var(--fill-0, white)"/>
<path d="M92.2735 26.1316L91.6333 25.5191H88.2635V30H91.6333L92.2735 29.4627V28.227L91.9478 27.7972L92.2735 27.3351V26.1316ZM91.2064 29.1081H89.3418V28.2055H91.2064V29.1081ZM91.2064 27.3136H89.3418V26.4862H91.2064V27.3136Z" fill="var(--fill-0, white)"/>
<path d="M115.39 25.476H114.143V29.9569H115.39V25.476Z" fill="var(--fill-0, white)"/>
<path d="M120.333 26.4968V25.476H116.547V29.9569H117.783V28.3988H119.748V27.3672H117.783V26.4968H120.333Z" fill="var(--fill-0, white)"/>
<path d="M128.038 28.936V25.476H126.791V29.9569H130.104V28.936H128.038Z" fill="var(--fill-0, white)"/>
<path d="M102.091 25.476H99.339L98.6313 26.2497V29.9569H99.8444V28.6244H101.518V29.9569H102.765V26.2604L102.091 25.476ZM101.552 27.6251H99.8444V26.4646H101.518L101.552 27.6251Z" fill="var(--fill-0, white)"/>
<path d="M106.808 25.476V29.0112H105.146V25.476H103.899V29.1724L104.607 29.9569H107.359L108.055 29.1724V25.476H106.808Z" fill="var(--fill-0, white)"/>
<path d="M124.387 25.476V29.0112H122.725V25.476H121.478V29.1724L122.185 29.9569H124.926L125.634 29.1724V25.476H124.387Z" fill="var(--fill-0, white)"/>
<path d="M132.65 25.476V26.5076H133.919V29.9569H135.166V26.5076H136.435V25.476H132.65Z" fill="var(--fill-0, white)"/>
<path d="M140.446 25.476V27.1201H138.783V25.476H137.536V29.9569H138.783V28.2806H140.446V29.9569H141.692V25.476H140.446Z" fill="var(--fill-0, white)"/>
<path d="M144.096 25.476H142.849V29.9569H144.096V25.476Z" fill="var(--fill-0, white)"/>
<path d="M153.464 29.0113H151.802V26.4431H154.43V25.476H151.262L150.555 26.2712V29.1724L151.262 29.9569H154.003L154.711 29.1724V27.6358H153.464V29.0113Z" fill="var(--fill-0, white)"/>
<path d="M159.597 26.4431V25.476H156.575L155.868 26.024V27.5284L156.575 28.2053H158.541V29.0113H155.868V29.9569H158.946L159.597 29.4088V27.9152L158.946 27.2383H156.969V26.4431H159.597Z" fill="var(--fill-0, white)"/>
<path d="M148.151 28.2268L146.579 25.476H145.242V29.9569H146.489V27.2168L148.05 29.9569H149.398V25.476H148.151V28.2268Z" fill="var(--fill-0, white)"/>
<path d="M43.7064 19.5079L39.597 6.01217H43.2574L45.974 16.0396L48.7135 6.01217H52.4661L48.3337 19.5079H43.7064Z" fill="var(--fill-0, white)"/>
<path d="M57.6 6.01217V19.5079H54.1467V6.01217H57.6Z" fill="var(--fill-0, white)"/>
<path d="M119.09 15.7565L120.759 13.173V8.51313L119.09 6.01217H110.135V19.5079H113.588V15.7565H115.372L117.594 19.5079H121.531L119.09 15.7565ZM117.387 12.6185H113.473V8.90244H117.364L117.387 12.6185Z" fill="var(--fill-0, white)"/>
<path d="M67.3842 14.2815L62.9756 6H59.223V19.5076H62.7108V11.2497L67.0964 19.5076H70.895V6H67.3842V14.2815Z" fill="var(--fill-0, white)"/>
<path d="M80.6789 6V16.6527H76.0055V6H72.5177V17.1482L74.4976 19.5076H82.1983L84.1781 17.1482V6H80.6789Z" fill="var(--fill-0, white)"/>
<path d="M94.446 11.3087H88.9093V8.90207H96.2647V6H87.7927L85.8129 7.65158V12.1816L87.7927 14.1989H93.3064V16.6527H85.8129V19.5076H94.446L96.2647 17.856V13.3259L94.446 11.3087Z" fill="var(--fill-0, white)"/>
<path d="M106.843 6.01217H97.8992V19.5079H101.352V15.7565H106.809L108.478 13.173V8.51313L106.843 6.01217ZM105.139 12.6185H101.249V8.90244H105.139V12.6185Z" fill="var(--fill-0, white)"/>
<path d="M133.007 8.90207V6H122.383V19.5076H133.007V16.5701H125.882V14.1635H131.66V11.344H125.882V8.90207H133.007Z" fill="var(--fill-0, white)"/>
<path d="M144.311 6.01217H136.622L134.63 8.31258V19.5079H138.084V15.4734H142.757V19.5079H146.21V8.37157L144.311 6.01217ZM142.803 12.4179H138.13V8.87884H142.803V12.4179Z" fill="var(--fill-0, white)"/>
<path d="M157.617 6.01217H147.925V19.5079H157.617L159.597 17.1485V8.37157L157.617 6.01217ZM156.086 16.6295H151.482V8.94962H156.086V16.6295Z" fill="var(--fill-0, white)"/>
</g>
<path id="Vector_2" d="M30.6106 8.21839L30.1755 7.9727L16 0L0 8.9988V26.9988L16 36L32 27.0012V8.9988L30.6106 8.21839ZM4.16564 9.78161L7.30531 8.01606V11.5472L4.16564 9.78161ZM21.9159 13.1104L17.3869 15.6564V3.90686L21.9159 6.45283V13.1104ZM10.0816 6.45524L14.6106 3.90686V15.6588L10.0816 13.1128V6.45524ZM24.6947 11.5472V8.01606L27.8344 9.78161L24.6947 11.5472ZM2.77627 17.2196V12.1253L13.2188 18L8.69221 20.5484L2.77379 17.2196H2.77627ZM5.91595 22.1092L2.77627 23.8747V20.3436L5.91595 22.1116V22.1092ZM29.2213 25.438L15.9975 32.876L11.4685 30.33L29.2188 20.3436V25.438H29.2213ZM29.2213 17.2196L8.69221 28.7668L4.16316 26.2184L29.2188 12.1277V17.222L29.2213 17.2196Z" fill="var(--fill-0, white)"/>
</g>
</svg>
