<svg preserveAspectRatio="none" width="100%" height="100%" overflow="visible" style="display: block;" viewBox="0 0 136 36" fill="none" xmlns="http://www.w3.org/2000/svg">
<g id="Client Logo / Exact" clip-path="url(#clip0_0_432)">
<path id="Vector" d="M13.8245 26.6191C14.8356 27.5748 15.9304 28.4366 17.0957 29.1939H17.4955V26.6191H13.8245Z" fill="var(--fill-0, #BBBBBB)"/>
<path id="Vector_2" d="M10.9797 23.8905H4.07073C4.91841 24.7329 5.85698 25.4773 6.86896 26.1099H12.3788C11.8609 25.4043 11.3934 24.6626 10.9797 23.8905V23.8905Z" fill="var(--fill-0, #BBBBBB)"/>
<path id="Vector_3" d="M13.3381 26.0827H17.4955V23.8633H12.0256C12.2909 24.6979 12.7473 25.4582 13.3581 26.0827H13.3381Z" fill="var(--fill-0, #BBBBBB)"/>
<path id="Vector_4" d="M18.1018 26.6191V29.1939H18.5415C19.7317 28.4665 20.8339 27.6025 21.8261 26.6191H18.1018Z" fill="var(--fill-0, #BBBBBB)"/>
<path id="Vector_5" d="M12.8117 26.6191H7.70166C10.1101 27.9811 12.7738 28.8237 15.5233 29.0933C14.5007 28.411 13.5865 27.5768 12.8117 26.6191V26.6191Z" fill="var(--fill-0, #BBBBBB)"/>
<path id="Vector_6" d="M22.3458 26.0827C22.9401 25.4548 23.3784 24.6943 23.6249 23.8633H18.1018V26.0827H22.3458Z" fill="var(--fill-0, #BBBBBB)"/>
<path id="Vector_7" d="M20.1206 29.0933C22.9008 28.8298 25.5962 27.9872 28.0356 26.6191H22.8322C22.0608 27.5799 21.1461 28.4145 20.1206 29.0933V29.0933Z" fill="var(--fill-0, #BBBBBB)"/>
<path id="Vector_8" d="M23.2651 26.0827H28.9349C29.9248 25.4363 30.8487 24.6929 31.6931 23.8633H24.7042C24.2903 24.6442 23.8087 25.3869 23.2651 26.0827V26.0827Z" fill="var(--fill-0, #BBBBBB)"/>
<path id="Vector_9" d="M35.7705 14.6038C35.7705 6.55765 27.7756 6.10352e-06 17.8886 6.10352e-06C8.00157 6.10352e-06 7.32422e-06 6.56436 7.32422e-06 14.6038C0.0418988 17.8943 1.3368 21.0431 3.6177 23.401H32.2128C34.4608 21.0297 35.7403 17.8942 35.7972 14.6172L35.7705 14.6038Z" fill="var(--fill-0, #BBBBBB)"/>
<path id="Vector_10" d="M8.48126 7.36897H10.4533L6.86229 19.1969H4.72366L8.48126 7.36897Z" fill="var(--fill-0, white)"/>
<path id="Vector_11" d="M21.2998 15.6569V15.61C21.0272 15.9099 20.6959 16.1499 20.3267 16.3149C19.9575 16.4799 19.5585 16.5664 19.1546 16.5688C17.4956 16.5688 16.1831 15.0534 16.1831 13.1827C16.1831 11.312 17.5156 9.69601 19.1546 9.69601C19.8335 9.69707 20.4882 9.95014 20.9934 10.4068V10.4068L22.3259 8.43544C21.4548 7.66312 20.3354 7.23439 19.1745 7.22852C16.3363 7.22852 14.0178 9.91058 14.0178 13.1827C14.0178 16.4548 16.3363 19.0966 19.1745 19.0966C20.3998 19.1003 21.5773 18.6186 22.4524 17.7556L21.3198 15.6837L21.2998 15.6569Z" fill="var(--fill-0, white)"/>
<path id="Vector_12" d="M26.0168 16.2594V14.2411H29.4279V12.2228H26.0168V9.50055H29.4279V7.57617H23.7915V18.8945H29.4279V16.2594H26.0168Z" fill="var(--fill-0, white)"/>
<path id="Vector_13" d="M11.1061 9.89648L8.39453 19.1965H14.0776L11.1061 9.89648Z" fill="var(--fill-0, white)"/>
<path id="Vector_14" d="M69.2758 27.8535H41.2803V35.9936H69.2758V27.8535Z" fill="var(--fill-0, #F7F7F7)"/>
<path id="Vector_15" d="M90.5289 27.8535H67.8767V35.9936H90.5289V27.8535Z" fill="var(--fill-0, #EFEFEF)"/>
<path id="Vector_16" d="M113.255 27.8535H90.6023V35.9936H113.255V27.8535Z" fill="var(--fill-0, #E4E4E4)"/>
<path id="Vector_17" d="M136.007 27.8535H113.128V35.9936H136.007V27.8535Z" fill="var(--fill-0, #D9D9D9)"/>
<path id="Vector_18" d="M52.833 12.4716H51.3206C50.781 8.68989 48.6557 5.90725 46.3505 5.90725C43.5722 5.90725 41.287 9.54816 41.287 14.2954C41.287 18.9421 43.5722 22.6299 46.3505 22.6299C48.9355 22.6299 51.1741 19.4517 51.4206 15.1537H52.833V23.4882H55.418V5.55859H52.833V12.4716V12.4716ZM46.3971 19.2438C45.2312 19.2438 44.2518 17.0244 44.2518 14.2954C44.2518 11.5664 45.2312 9.347 46.3971 9.347C47.563 9.347 48.4958 11.5664 48.4958 14.2954C48.4958 17.0244 47.563 19.2438 46.3971 19.2438Z" fill="var(--fill-0, #BBBBBB)"/>
<path id="Vector_19" d="M56.4374 23.4882H59.0157V5.55858H56.4374V23.4882Z" fill="var(--fill-0, #BBBBBB)"/>
<path id="Vector_20" d="M74.9989 23.4882H78.2635V5.55858H74.9989V23.4882Z" fill="var(--fill-0, #BBBBBB)"/>
<path id="Vector_21" d="M67.1572 6.30859C63.9393 6.30859 61.261 9.89585 61.261 14.3548C61.261 18.8137 63.926 22.401 67.1572 22.401C70.3885 22.401 73.1001 18.8137 73.1001 14.3548C73.1001 9.89585 70.4351 6.30859 67.1572 6.30859ZM67.1572 19.4507C65.7448 19.4507 64.5256 17.124 64.5256 14.3481C64.5256 11.5721 65.7448 9.23875 67.1572 9.23875C68.5697 9.23875 69.8222 11.5185 69.8222 14.3481C69.8222 17.1777 68.603 19.4507 67.1572 19.4507Z" fill="var(--fill-0, #BBBBBB)"/>
<path id="Vector_22" d="M80.4087 22.4292H98.8236V19.8008H80.4087V22.4292Z" fill="var(--fill-0, #BBBBBB)"/>
<path id="Vector_23" d="M89.4697 10.6604C92.4878 15.5618 98.4373 15.1595 98.4373 15.1595V12.5848C91.1753 12.4305 91.1087 5.56445 91.1087 5.56445H87.6975C87.3111 12.6853 80.5354 12.4775 80.5354 12.4775V15.1595C87.1578 15.1595 89.4497 10.6604 89.4497 10.6604H89.4697Z" fill="var(--fill-0, #BBBBBB)"/>
<path id="Vector_24" d="M117.385 5.80667H114.76V14.7446H117.385V5.80667Z" fill="var(--fill-0, #BBBBBB)"/>
<path id="Vector_25" d="M107.305 11.9225C107.305 11.9225 107.651 14.799 113.594 14.799V12.117C113.594 12.117 109.69 12.07 109.304 8.88507C109.284 8.88325 109.266 8.87756 109.248 8.86836C109.231 8.85915 109.216 8.84659 109.204 8.83142H113.001V6.30358H109.057V4.79492H105.213V6.30358H101.116V8.83142H105.213C105.213 8.83142 104.773 12.117 100.876 12.117V14.799C100.876 14.799 105.846 15.4092 107.305 11.9225Z" fill="var(--fill-0, #BBBBBB)"/>
<path id="Vector_26" d="M102.888 21.8186C102.888 22.5293 102.934 23.8301 104.347 23.8301C105.759 23.8301 117.452 23.7296 117.452 23.7296V16.2131H102.888V21.8186ZM105.419 18.7879H114.78V21.014H105.406V18.7879H105.419Z" fill="var(--fill-0, #BBBBBB)"/>
<path id="Vector_27" d="M133.575 5.80667V12.8337H131.956V5.80667H129.537V19.4986H123.002V8.89103H127.825V6.26262H119.977V19.4986C119.977 20.1691 120.17 22.2276 121.629 22.2276C122.848 22.2276 127.819 22.174 129.531 22.174V23.8435H131.956V15.2073H133.575V23.8435H136.007V5.80667H133.575Z" fill="var(--fill-0, #BBBBBB)"/>
</g>
<defs>
<clipPath id="clip0_0_432">
<rect width="136" height="36" fill="white"/>
</clipPath>
</defs>
</svg>
