<svg preserveAspectRatio="none" width="100%" height="100%" overflow="visible" style="display: block;" viewBox="0 0 152 34" fill="none" xmlns="http://www.w3.org/2000/svg">
<g id="Client Logo / Exact" clip-path="url(#clip0_0_310)">
<path id="Vector" d="M48.674 8.20495L47.1994 8.13686L45.8382 8.19359C44.2046 8.19359 42.6379 8.84284 41.4828 9.99848C40.3277 11.1541 39.6788 12.7215 39.6788 14.3558C39.6788 15.9901 40.3277 17.5575 41.4828 18.7132C42.6379 19.8688 44.2046 20.518 45.8382 20.518L47.1994 20.5975L48.674 20.484C50.3016 20.484 51.8625 19.8371 53.0133 18.6858C54.1642 17.5344 54.8108 15.9728 54.8108 14.3445C54.8108 12.7162 54.1642 11.1545 53.0133 10.0032C51.8625 8.85177 50.3016 8.20495 48.674 8.20495V8.20495ZM48.1749 17.5674H47.1994H46.3373C45.4829 17.5674 44.6635 17.2279 44.0594 16.6234C43.4552 16.019 43.1158 15.1993 43.1158 14.3445C43.1158 13.4897 43.4552 12.6699 44.0594 12.0655C44.6635 11.461 45.4829 11.1215 46.3373 11.1215H47.1994H48.1749C49.0199 11.1446 49.8235 11.4923 50.4191 12.0924C51.0147 12.6925 51.3565 13.499 51.3737 14.3445C51.3305 15.1814 50.9803 15.9729 50.39 16.5676C49.7998 17.1623 49.0111 17.5183 48.1749 17.5674V17.5674Z" fill="var(--fill-0, #BBBBBB)"/>
<path id="Vector_2" d="M59.2347 8.33008H56.0359V26.2607H59.2347L59.2687 14.3561H62.4562V11.6211H59.2687L59.2347 8.33008Z" fill="var(--fill-0, #BBBBBB)"/>
<path id="Vector_3" d="M73.4932 13.0624C73.946 14.0168 74.6664 14.8188 75.5666 15.3709C76.4669 15.923 77.5082 16.2013 78.5637 16.1719H83.101V13.7546H78.7679C78.0061 13.7544 77.269 13.4841 76.6875 12.9917C76.1061 12.4993 75.7178 11.8167 75.5918 11.0651H82.8628V8.33008H64.2371V11.031H71.3834C71.2595 11.7836 70.8719 12.4676 70.2899 12.9604C69.708 13.4532 68.9697 13.7227 68.2073 13.7206H63.8855V16.1378H68.4228C69.4744 16.1688 70.5125 15.895 71.4121 15.3493C72.3117 14.8037 73.0344 14.0095 73.4932 13.0624Z" fill="var(--fill-0, #BBBBBB)"/>
<path id="Vector_4" d="M63.4316 19.678L71.9958 19.6666V26.2033H75.1379V19.6666L83.634 19.678V16.9316H63.4316V19.678Z" fill="var(--fill-0, #BBBBBB)"/>
<path id="Vector_5" d="M101.772 11.121H99.8776V8.32933H96.6334V16.7612H89.1242V11.087H95.3403V8.35204H86.2657V17.8393C86.2642 18.0594 86.3062 18.2775 86.3893 18.4812C86.4724 18.6849 86.595 18.8702 86.75 19.0263C86.905 19.1824 87.0894 19.3063 87.2924 19.3909C87.4955 19.4754 87.7132 19.5189 87.9331 19.5189H96.6561V25.7265H99.8776V13.856H101.738V25.6925H104.982V8.30664H101.738L101.772 11.121Z" fill="var(--fill-0, #BBBBBB)"/>
<path id="Vector_6" d="M127.147 8.01172H123.903L123.891 16.6592L127.147 16.6479V13.5384H130.573V10.8034H127.147V8.01172Z" fill="var(--fill-0, #BBBBBB)"/>
<path id="Vector_7" d="M125.513 17.3398H109.633V20.1089H124.3V25.6356H127.158V19.0535C127.163 18.8329 127.124 18.6136 127.044 18.4081C126.963 18.2026 126.843 18.0149 126.691 17.8558C126.538 17.6966 126.355 17.5691 126.153 17.4806C125.951 17.3921 125.734 17.3443 125.513 17.3398V17.3398Z" fill="var(--fill-0, #BBBBBB)"/>
<path id="Vector_8" d="M112.843 16.5468H118.254C119.323 16.5438 120.347 16.1168 121.102 15.3595C121.857 14.6021 122.281 13.5762 122.281 12.5067C122.282 11.9686 122.173 11.4359 121.963 10.9407H122.984V8.33048H117.165V6.78711H114.102V8.34184H108.011V10.9407H109.145C108.935 11.4359 108.827 11.9686 108.827 12.5067C108.827 13.5743 109.25 14.5985 110.002 15.3555C110.755 16.1125 111.776 16.5408 112.843 16.5468ZM113.41 10.9293H117.687C118.105 10.9293 118.506 11.0955 118.801 11.3913C119.097 11.6871 119.263 12.0883 119.263 12.5067C119.263 12.9251 119.097 13.3263 118.801 13.6221C118.506 13.918 118.105 14.0842 117.687 14.0842H113.41C112.992 14.0842 112.591 13.918 112.295 13.6221C112 13.3263 111.833 12.9251 111.833 12.5067C111.833 12.0883 112 11.6871 112.295 11.3913C112.591 11.0955 112.992 10.9293 113.41 10.9293Z" fill="var(--fill-0, #BBBBBB)"/>
<path id="Vector_9" d="M151.989 21.3797H149.72V9.73619C149.721 9.51616 149.679 9.29802 149.596 9.09431C149.513 8.8906 149.391 8.70537 149.236 8.54926C149.081 8.39314 148.896 8.26926 148.693 8.18471C148.49 8.10017 148.272 8.05664 148.052 8.05664H132.773V10.8029H146.827V21.3797H143.924V13.2996H140.85V21.4138H138.138V13.2996H135.076V21.4138H131.673V24.2168H152.057L151.989 21.3797Z" fill="var(--fill-0, #BBBBBB)"/>
<path id="Vector_10" d="M13.9977 22.7773C13.9977 23.2994 13.8389 23.3448 13.5894 23.3788V23.6966H13.9523V25.9663H14.1565V22.7773H13.9977Z" fill="var(--fill-0, white)"/>
<path id="Vector_11" d="M15.9373 22.7423C15.6197 22.7423 15.4496 23.253 15.4496 23.8772C15.4496 24.5013 15.6424 24.8985 15.926 24.8985C16.2095 24.8985 16.2209 24.7624 16.2776 24.524C16.2776 25.3411 16.1188 25.7156 15.9146 25.7156C15.7104 25.7156 15.6651 25.5114 15.6537 25.1936H15.4609C15.4609 25.5 15.563 26.0447 15.9146 26.0447C16.4477 26.0447 16.4704 24.5921 16.4704 24.2403C16.4704 23.8885 16.4478 22.7423 15.9373 22.7423ZM15.9373 24.5127C15.8012 24.5127 15.6197 24.4332 15.6197 23.8204C15.6197 23.3892 15.7331 23.1055 15.9146 23.1055C16.0961 23.1055 16.2209 23.4232 16.2209 23.7864C16.2663 24.4105 16.0734 24.5127 15.9373 24.5127Z" fill="var(--fill-0, white)"/>
<path id="Vector_12" d="M17.4119 22.834V23.2312H18.2059C17.8684 24.1044 17.6583 25.0217 17.582 25.9548H17.7976C17.8601 25.0049 18.0705 24.0706 18.4214 23.1858V22.834H17.4119Z" fill="var(--fill-0, white)"/>
<path id="Vector_13" d="M20.2478 24.2753C20.3272 24.2186 20.4406 24.0257 20.4406 23.6171C20.4406 23.2086 20.2592 22.7773 19.9642 22.7773C19.6693 22.7773 19.4765 23.3561 19.4765 23.8214H19.658C19.658 23.6058 19.658 23.1405 19.9529 23.1405C20.2478 23.1405 20.2365 23.4469 20.2365 23.6398C20.2365 24.0483 20.1003 24.1619 19.9529 24.1619H19.8508V24.5137H19.9416C20.0664 24.5137 20.2932 24.5137 20.2932 25.0924C20.2932 25.6712 20.1571 25.7052 19.9642 25.7052C19.7714 25.7052 19.6466 25.308 19.6353 25.0016H19.4425C19.4191 25.3279 19.4984 25.6533 19.6693 25.9322C19.7039 25.9741 19.7472 26.008 19.7961 26.0315C19.8451 26.0551 19.8986 26.0676 19.9529 26.0684C20.3385 26.0684 20.4974 25.5691 20.4974 25.047C20.4974 24.525 20.3953 24.3775 20.2478 24.2753Z" fill="var(--fill-0, white)"/>
<path id="Vector_14" d="M12.6591 16.8411C12.4694 16.585 12.367 16.2747 12.367 15.9559C12.367 15.6372 12.4694 15.3269 12.6591 15.0708L15.0979 11.3031L18.0812 15.6155C18.0812 15.6155 18.7958 16.4893 17.548 16.512L18.9206 18.532L20.2251 16.6709C20.3928 16.4028 20.4721 16.0887 20.4517 15.7731C20.4314 15.4575 20.3124 15.1562 20.1116 14.9119L15.0752 7.4219L10.0615 15.0708C9.89965 15.3953 9.83191 15.7587 9.86599 16.1197C9.90008 16.4808 10.0346 16.825 10.2543 17.1135L13.2717 21.7096H15.6991L12.6591 16.8411Z" fill="var(--fill-0, white)"/>
<path id="Vector_15" d="M18.7504 7.5354H16.4251L21.4842 15.0254C21.6457 15.2882 21.7312 15.5907 21.7312 15.8992C21.7312 16.2077 21.6457 16.5102 21.4842 16.773L19.4197 19.7463H18.2854L16.0167 16.5688C16.0167 16.5688 15.1887 15.729 16.5158 15.241L15.1093 13.2096L13.646 15.4793C13.5236 15.7398 13.4885 16.0329 13.5457 16.3149C13.6029 16.597 13.7495 16.8532 13.9636 17.0454L16.9242 21.755H20.5994L23.6054 17.2837C23.8485 16.9002 23.9775 16.4555 23.9775 16.0013C23.9775 15.5472 23.8485 15.1025 23.6054 14.719L18.7504 7.5354Z" fill="var(--fill-0, white)"/>
<path id="Vector_16" d="M16.9923 -1.38531e-06C13.627 -1.38531e-06 10.3374 0.99836 7.53927 2.86884C4.74118 4.73932 2.56031 7.39788 1.27249 10.5084C-0.0153305 13.6189 -0.352272 17.0416 0.304253 20.3437C0.960777 23.6457 2.58135 26.6789 4.96093 29.0596C7.34051 31.4402 10.3723 33.0615 13.6728 33.7183C16.9734 34.3751 20.3945 34.038 23.5036 32.7496C26.6126 31.4612 29.27 29.2794 31.1397 26.48C33.0093 23.6806 34.0072 20.3895 34.0072 17.0227C34.0072 12.508 32.2146 8.17821 29.0237 4.98584C25.8327 1.79346 21.5049 -1.38531e-06 16.9923 -1.38531e-06ZM16.9923 33.4326C13.7432 33.4348 10.5665 32.473 7.8639 30.6687C5.16132 28.8644 3.05431 26.2988 1.8094 23.2964C0.564483 20.2939 0.237618 16.9895 0.870101 13.8011C1.50258 10.6128 3.06598 7.6837 5.36262 5.38442C7.65926 3.08515 10.5859 1.51897 13.7724 0.884C16.9589 0.249025 20.2619 0.573771 23.2639 1.81718C26.2658 3.06059 28.8318 5.16679 30.6371 7.86936C32.4424 10.5719 33.406 13.7495 33.406 17C33.4075 19.1574 32.984 21.294 32.1598 23.2876C31.3356 25.2812 30.1268 27.0928 28.6025 28.6189C27.0782 30.1449 25.2683 31.3555 23.2761 32.1815C21.284 33.0074 19.1487 33.4326 16.9923 33.4326V33.4326Z" fill="var(--fill-0, #BBBBBB)"/>
<path id="Vector_17" d="M30.7516 15.1734C30.8328 15.1734 30.9107 15.1411 30.9682 15.0836C31.0256 15.0262 31.0579 14.9482 31.0579 14.867C31.0579 14.8267 31.05 14.7869 31.0346 14.7497C31.0192 14.7125 30.9966 14.6788 30.9682 14.6503C30.9397 14.6219 30.906 14.5993 30.8688 14.5839C30.8317 14.5685 30.7918 14.5605 30.7516 14.5605C30.7114 14.5605 30.6715 14.5685 30.6344 14.5839C30.5972 14.5993 30.5635 14.6219 30.535 14.6503C30.5066 14.6788 30.484 14.7125 30.4686 14.7497C30.4533 14.7869 30.4453 14.8267 30.4453 14.867C30.4453 14.9482 30.4776 15.0262 30.535 15.0836C30.5925 15.1411 30.6704 15.1734 30.7516 15.1734V15.1734Z" fill="var(--fill-0, #BBBBBB)"/>
<path id="Vector_18" d="M3.45971 10.9295C3.71576 11.1342 4.04145 11.2309 4.36764 11.1991C4.69383 11.1673 4.99478 11.0095 5.20655 10.7593L5.39943 10.5437L5.56954 10.3053C5.76871 10.0453 5.85983 9.71838 5.82391 9.39276C5.78798 9.06714 5.62779 8.768 5.37672 8.5577C5.12225 8.35217 4.79676 8.25589 4.47149 8.28992C4.14622 8.32395 3.84763 8.48553 3.64117 8.73928L3.437 8.96622L3.26689 9.18185C3.06495 9.44081 2.97207 9.76844 3.00809 10.0949C3.04412 10.4214 3.20617 10.7209 3.45971 10.9295V10.9295ZM3.79999 9.44288L3.90211 9.29534L4.02687 9.1478C4.13906 9.01752 4.29704 8.93544 4.4681 8.91854C4.63915 8.90163 4.81017 8.95122 4.94567 9.05703C5.06998 9.17016 5.14892 9.32465 5.16771 9.49171C5.18649 9.65877 5.14387 9.82697 5.04779 9.96489L4.92296 10.1351L4.80956 10.26C4.69736 10.3902 4.53939 10.4723 4.36833 10.4892C4.19728 10.5061 4.02626 10.4565 3.89076 10.3507C3.76371 10.2389 3.68369 10.0831 3.66685 9.91468C3.65002 9.74623 3.6976 9.57765 3.79999 9.44288V9.44288Z" fill="var(--fill-0, #BBBBBB)"/>
<path id="Vector_19" d="M7.81552 9.37383L5.95522 7.85314L6.36358 7.34246L5.93254 7.002L5.52418 7.50134L5.00239 7.09279L4.59403 7.59212L7.41851 9.87316L7.81552 9.37383Z" fill="var(--fill-0, #BBBBBB)"/>
<path id="Vector_20" d="M9.13136 4.01712C9.19382 4.15836 9.2017 4.31774 9.15351 4.46447C9.10532 4.6112 9.00451 4.73483 8.87049 4.81149L8.13314 5.27678L8.39402 5.69667L9.16542 5.20869C9.34843 5.0985 9.49662 4.93887 9.59294 4.74815C9.68926 4.55742 9.72978 4.34337 9.70988 4.13061C9.89016 4.24334 10.0984 4.30308 10.311 4.30308C10.5236 4.30308 10.732 4.24334 10.9123 4.13061L11.695 3.6426L11.4341 3.22271L10.6854 3.688C10.557 3.7725 10.4024 3.80757 10.2501 3.78671C10.0978 3.76584 9.9583 3.69044 9.85735 3.57451L11.0937 2.79146L10.7988 2.32617L7.61133 4.32351L7.90626 4.7888L9.13136 4.01712Z" fill="var(--fill-0, #BBBBBB)"/>
<path id="Vector_21" d="M8.71167 6.34341L10.1863 5.42419L10.8782 6.54768L11.4227 6.20723L10.7194 5.08373L12.1827 4.17585L11.8878 3.69922L8.41675 5.86678L8.71167 6.34341Z" fill="var(--fill-0, #BBBBBB)"/>
<path id="Vector_22" d="M14.8031 3.79118H16.5726V5.03952H17.2305V2.64497H17.6162V5.03952H18.2741V1.52148H17.6162V2.08891H17.2305V1.52148H16.5726V3.23511H15.0526V2.10027H16.289V1.5442H14.4741V3.47342C14.4771 3.55872 14.513 3.63956 14.5744 3.69885C14.6357 3.75813 14.7177 3.79123 14.8031 3.79118Z" fill="var(--fill-0, #BBBBBB)"/>
<path id="Vector_23" d="M24.0478 5.24359L24.286 4.65347L24.9326 4.91448L25.1368 4.4038L24.4902 4.14279L24.7058 3.62076L24.0932 3.37109L23.4353 4.99392L24.0478 5.24359Z" fill="var(--fill-0, #BBBBBB)"/>
<path id="Vector_24" d="M22.834 6.70791L23.3785 6.92354L23.8776 5.68656C23.8941 5.64484 23.9022 5.60026 23.9015 5.5554C23.9007 5.51054 23.8911 5.46628 23.8732 5.42515C23.8552 5.38402 23.8293 5.34684 23.797 5.31574C23.7647 5.28465 23.7266 5.26024 23.6848 5.24395L20.7128 4.04102L20.4973 4.55171L23.2537 5.68656L22.834 6.70791Z" fill="var(--fill-0, #BBBBBB)"/>
<path id="Vector_25" d="M21.3708 4.13118L22.3804 4.55107C22.5821 4.62997 22.8068 4.62664 23.0061 4.54178C23.2054 4.45692 23.3636 4.2973 23.4466 4.09713C23.4906 3.99694 23.5138 3.88879 23.5147 3.77934L23.7075 3.84747L23.9004 3.35946L22.7661 2.91688L22.8795 2.63317L22.3009 2.39486L22.1875 2.6899L21.0532 2.22461L20.8604 2.71262L21.0646 2.80339C20.9885 2.88057 20.9304 2.97356 20.8944 3.07574C20.8529 3.176 20.8324 3.28369 20.8341 3.39218C20.8358 3.50068 20.8597 3.60769 20.9044 3.70658C20.949 3.80547 21.0134 3.89417 21.0936 3.96719C21.1739 4.04022 21.2682 4.09603 21.3708 4.13118V4.13118ZM21.4843 3.30273C21.4993 3.26275 21.5221 3.22619 21.5516 3.19526C21.581 3.16434 21.6164 3.13969 21.6555 3.12274C21.6947 3.10579 21.7369 3.0969 21.7796 3.09663C21.8223 3.09636 21.8646 3.1047 21.904 3.12115L22.7093 3.45026C22.7854 3.48298 22.8464 3.54322 22.88 3.61896C22.9137 3.6947 22.9175 3.78034 22.8908 3.85879C22.8758 3.89877 22.8529 3.93533 22.8235 3.96626C22.794 3.99718 22.7587 4.02183 22.7195 4.03878C22.6804 4.05573 22.6381 4.06462 22.5955 4.06489C22.5528 4.06516 22.5105 4.05682 22.4711 4.04037L21.6657 3.71126C21.5878 3.68081 21.525 3.62082 21.491 3.54433C21.4571 3.46783 21.4546 3.38101 21.4843 3.30273V3.30273Z" fill="var(--fill-0, #BBBBBB)"/>
<path id="Vector_26" d="M27.7683 6.74099L29.4812 9.01068L27.7683 10.3044L27.4167 9.82777L28.7326 8.84046L28.3582 8.35249L27.0424 9.3398L26.7134 8.89719L28.0179 7.90988L27.6436 7.41054L26.3391 8.40922L25.9307 7.85315L25.477 8.20495L27.9385 11.4846L28.3922 11.1442L28.12 10.7697L30.003 9.35112C30.0388 9.3243 30.0689 9.29072 30.0916 9.25225C30.1144 9.21378 30.1293 9.17117 30.1357 9.12691C30.142 9.08265 30.1396 9.03758 30.1285 8.99427C30.1174 8.95096 30.0979 8.91027 30.0711 8.87451L28.2108 6.41187L27.7683 6.74099Z" fill="var(--fill-0, #BBBBBB)"/>
<path id="Vector_27" d="M3.45972 14.5935C3.45972 14.6748 3.49201 14.7527 3.54944 14.8102C3.60688 14.8677 3.68478 14.8999 3.76601 14.8999C3.84724 14.8999 3.92513 14.8677 3.98257 14.8102C4.04001 14.7527 4.07223 14.6748 4.07223 14.5935C4.07223 14.5123 4.04001 14.4343 3.98257 14.3768C3.92513 14.3194 3.84724 14.2871 3.76601 14.2871C3.68478 14.2871 3.60688 14.3194 3.54944 14.3768C3.49201 14.4343 3.45972 14.5123 3.45972 14.5935V14.5935Z" fill="var(--fill-0, #BBBBBB)"/>
<path id="Vector_28" d="M15.9373 23.1055C15.7558 23.1055 15.6424 23.3892 15.6424 23.8204C15.6424 24.4332 15.8239 24.5127 15.96 24.5127C16.0961 24.5127 16.2436 24.4105 16.2436 23.7864C16.2663 23.4232 16.1869 23.1055 15.9373 23.1055Z" fill="var(--fill-0, #BBBBBB)"/>
<path id="Vector_29" d="M16.9921 5.87891C14.7903 5.87667 12.6373 6.528 10.8056 7.75043C8.97389 8.97286 7.54586 10.7114 6.70222 12.7462C5.85858 14.7809 5.6373 17.0203 6.06631 19.1809C6.49531 21.3415 7.55533 23.3262 9.11225 24.8839C10.6692 26.4415 12.653 27.5021 14.8126 27.9313C16.9723 28.3605 19.2107 28.139 21.2445 27.295C23.2783 26.451 25.016 25.0223 26.2379 23.1898C27.4598 21.3572 28.1108 19.2033 28.1085 17.0004C28.1085 14.0508 26.9373 11.222 24.8526 9.13633C22.7678 7.05065 19.9404 5.87891 16.9921 5.87891ZM10.1861 17.1139C9.96642 16.8254 9.83189 16.4812 9.79781 16.1201C9.76372 15.7591 9.83147 15.3957 9.99332 15.0712L15.007 7.42232L20.0435 14.9123C20.2442 15.1567 20.3632 15.4579 20.3835 15.7735C20.4039 16.0892 20.3246 16.4032 20.1569 16.6713L18.8524 18.5324L17.4799 16.5124C18.7276 16.5124 18.013 15.6159 18.013 15.6159L15.0297 11.3035L12.5909 15.0712C12.4012 15.3273 12.2988 15.6376 12.2988 15.9564C12.2988 16.2751 12.4012 16.5854 12.5909 16.8415L15.6083 21.7327H13.1808L10.1861 17.1139ZM13.9068 25.9657V23.696H13.5438V23.3783C13.7933 23.3783 13.8954 23.2988 13.9521 22.7768H14.0996V25.9657H13.9068ZM15.8918 25.9657C15.5402 25.9657 15.4381 25.421 15.4381 25.1146H15.6309C15.6309 25.4323 15.733 25.6366 15.8918 25.6366C16.0507 25.6366 16.2095 25.2621 16.2548 24.445C16.1981 24.6833 16.0506 24.8195 15.9031 24.8195C15.7557 24.8195 15.4267 24.4337 15.4267 23.7981C15.4267 23.1626 15.5969 22.6633 15.9145 22.6633C16.4022 22.6633 16.4477 23.6279 16.4477 24.1386C16.4477 24.6493 16.4703 26.0224 15.9372 26.0224L15.8918 25.9657ZM17.7975 25.8976H17.582C17.6583 24.9645 17.8684 24.0472 18.2059 23.174H17.3665V22.7768H18.4214V23.1286C18.0802 24.0339 17.8849 24.9877 17.8429 25.9543L17.7975 25.8976ZM19.9073 25.9884C19.853 25.9876 19.7995 25.9751 19.7505 25.9515C19.7016 25.928 19.6583 25.8941 19.6238 25.8522C19.4529 25.5733 19.3735 25.2479 19.3969 24.9216H19.5897C19.5897 25.228 19.5897 25.6252 19.9187 25.6252C20.2477 25.6252 20.2476 25.3869 20.2476 25.0124C20.2476 24.6379 20.0208 24.4337 19.896 24.4337H19.8052V24.0819H19.9073C20.0548 24.0819 20.1909 23.9684 20.1909 23.5598C20.1909 23.3669 20.1909 23.0605 19.9073 23.0605C19.6238 23.0605 19.6238 23.5258 19.6124 23.7414H19.4309C19.4309 23.2761 19.5217 22.6973 19.9187 22.6973C20.3157 22.6973 20.3951 23.0491 20.3951 23.5371C20.3951 24.0251 20.2817 24.1386 20.2023 24.1954C20.3497 24.2975 20.4518 24.5131 20.4518 24.9444C20.4518 25.3756 20.3384 26.0452 19.9527 26.0452L19.9073 25.9884ZM23.662 17.1933L20.656 21.6646H17.0715L14.1109 16.955C13.8968 16.7628 13.7503 16.5067 13.693 16.2246C13.6358 15.9425 13.671 15.6495 13.7933 15.3889L15.2566 13.1192L16.6632 15.1506C15.336 15.6386 16.1641 16.4784 16.1641 16.4784L18.4327 19.656H19.5671L21.6315 16.6827C21.7931 16.4199 21.8786 16.1173 21.8786 15.8088C21.8786 15.5003 21.7931 15.1978 21.6315 14.935L16.5724 7.44501H18.8978L23.8094 14.5946C24.0565 14.9978 24.1785 15.4652 24.1604 15.9378C24.1422 16.4104 23.9846 16.867 23.7073 17.2501L23.662 17.1933Z" fill="var(--fill-0, #BBBBBB)"/>
<path id="Vector_30" d="M1.97376 18.9061C2.29137 18.9061 2.60896 18.9061 2.94926 18.9856C2.94926 19.1218 3.00599 19.2466 3.02867 19.3827C3.05136 19.5189 3.09675 19.7005 3.11944 19.8708C2.82451 20.0296 2.54091 20.1771 2.24598 20.3133C2.24598 20.4155 2.30271 20.5289 2.3254 20.6311C2.33164 20.7483 2.33164 20.8657 2.3254 20.9829C3.00599 20.5403 4.29916 19.8481 5.26334 19.3033C5.26334 19.3033 5.26334 19.2125 5.26334 19.1558C5.25761 19.1068 5.25761 19.0573 5.26334 19.0083C4.12901 18.8834 2.43886 18.6224 1.86035 18.543C1.8652 18.6034 1.8652 18.6641 1.86035 18.7245C1.96244 18.7926 1.96241 18.838 1.97376 18.9061ZM4.37853 19.1785C4.04957 19.3714 3.7206 19.553 3.36896 19.7346L3.23284 19.0309C3.62986 19.0763 4.0042 19.1104 4.37853 19.1785V19.1785Z" fill="var(--fill-0, #BBBBBB)"/>
<path id="Vector_31" d="M4.66217 21.9928C5.14994 21.8226 5.49024 21.6977 5.87591 21.5842C5.82791 21.4926 5.78624 21.3978 5.75116 21.3005C5.71137 21.2015 5.68097 21.0989 5.66039 20.9941C5.28606 21.153 4.95712 21.2779 4.46936 21.4594L3.87949 21.6637C3.39172 21.8453 3.05142 21.9588 2.66575 22.0836C2.28007 22.2084 2.24608 22.1404 2.06459 21.9701L1.88306 22.1063C2.18933 22.6056 2.58633 22.7645 3.28961 22.5035L4.0723 22.2084L4.66217 21.9928Z" fill="var(--fill-0, #BBBBBB)"/>
<path id="Vector_32" d="M6.95346 23.3211C6.83517 23.1493 6.68308 23.0036 6.50649 22.8927C6.3299 22.7818 6.13255 22.7082 5.92652 22.6763C5.72049 22.6444 5.51007 22.655 5.30826 22.7073C5.10645 22.7596 4.91748 22.8526 4.75286 22.9806C4.56073 23.0697 4.39057 23.2 4.25452 23.3623C4.11846 23.5246 4.01983 23.715 3.96567 23.9198C3.91152 24.1246 3.90314 24.3388 3.94117 24.5472C3.97919 24.7556 4.06271 24.9531 4.1857 25.1255C4.30694 25.2938 4.4606 25.4361 4.63766 25.544C4.81472 25.652 5.01159 25.7234 5.21666 25.7541C5.42173 25.7848 5.63086 25.7741 5.83174 25.7226C6.03261 25.6712 6.22117 25.58 6.3863 25.4546C6.57533 25.3638 6.74241 25.2331 6.87613 25.0715C7.00985 24.9099 7.10699 24.7212 7.16089 24.5185C7.21478 24.3158 7.22419 24.1038 7.18837 23.897C7.15256 23.6903 7.07242 23.4938 6.95346 23.3211ZM4.41258 24.9439C4.16303 24.5808 4.24238 24.0701 5.07044 23.5254C5.8985 22.9806 6.43166 23.0033 6.72658 23.4573C7.02151 23.9112 6.72661 24.4219 6.11407 24.8645C5.27467 25.4206 4.66213 25.3298 4.41258 24.9439Z" fill="var(--fill-0, #BBBBBB)"/>
<path id="Vector_33" d="M9.36953 26.6572C9.08594 26.975 8.79101 27.2814 8.50743 27.5878C7.90623 28.2006 7.3731 28.7226 6.87399 28.3141C6.37489 27.9056 6.44294 27.6332 7.22563 26.8275C7.59996 26.4416 7.94026 26.1012 8.35996 25.6926C8.26967 25.6337 8.18596 25.5652 8.11037 25.4883C8.0327 25.4143 7.96066 25.3347 7.89484 25.25L7.25962 25.9423C7.02141 26.1919 6.83993 26.3508 6.48829 26.714C6.36759 26.8205 6.27092 26.9514 6.20471 27.0982C6.13849 27.2449 6.10425 27.4041 6.10425 27.5651C6.10425 27.7261 6.13849 27.8853 6.20471 28.032C6.27092 28.1788 6.36759 28.3097 6.48829 28.4162C7.02142 28.9383 7.62264 28.8929 8.35996 28.1212C8.75439 27.6985 9.17086 27.2969 9.60769 26.9182L9.44894 26.7934C9.41796 26.7508 9.39135 26.7051 9.36953 26.6572V26.6572Z" fill="var(--fill-0, #BBBBBB)"/>
<path id="Vector_34" d="M14.44 29.0748C14.3379 29.4947 14.2471 29.9032 14.1337 30.3117C13.9068 31.1402 13.6573 31.9005 13.0561 31.7417C12.455 31.5828 12.3528 31.3558 12.6477 30.2664C12.7839 29.7557 12.92 29.2904 13.1242 28.723H12.8066C12.701 28.6952 12.5984 28.6572 12.5003 28.6095C12.5003 28.7683 12.3982 29.0634 12.2735 29.5401C12.1487 30.0167 12.1146 30.0961 11.9899 30.5728C11.9362 30.7238 11.9151 30.8844 11.928 31.0442C11.9409 31.2039 11.9874 31.3591 12.0646 31.4995C12.1417 31.64 12.2478 31.7625 12.3756 31.859C12.5035 31.9555 12.6504 32.0238 12.8066 32.0594C13.5439 32.2637 14.0316 31.9346 14.3152 30.9246C14.5194 30.1529 14.7236 29.5287 14.8143 29.2677H14.6215C14.5454 29.2201 14.4829 29.1536 14.44 29.0748V29.0748Z" fill="var(--fill-0, #BBBBBB)"/>
<path id="Vector_35" d="M17.378 29.4388C17.378 29.6544 17.378 30.9141 17.378 31.6404C16.8335 30.8914 16.2436 30.1311 15.7672 29.3707C15.711 29.382 15.6532 29.382 15.5971 29.3707H15.4269C15.4269 29.5864 15.4269 29.8701 15.4269 30.2786C15.4269 31.2319 15.2908 32.4121 15.2681 32.5483H15.4496H15.6311C15.6311 32.3781 15.6311 32.117 15.6311 31.4134C15.6311 31.0616 15.6311 30.6758 15.6878 30.2786C16.255 31.0503 16.8221 31.822 17.2986 32.5483H17.4574H17.6161C17.6161 31.3113 17.6842 30.7098 17.7977 29.3594C17.7377 29.3705 17.6761 29.3705 17.6161 29.3594L17.378 29.4388Z" fill="var(--fill-0, #BBBBBB)"/>
<path id="Vector_36" d="M19.3403 30.5274C19.2382 30.028 19.1815 29.6762 19.1361 29.2677L18.8298 29.3471H18.5009C18.603 29.733 18.671 30.0848 18.7731 30.5954L18.8865 31.2083C18.9773 31.719 19.0341 32.0708 19.0908 32.468L19.397 32.3999H19.7146C19.6126 32.0027 19.5444 31.6622 19.4537 31.1515L19.3403 30.5274Z" fill="var(--fill-0, #BBBBBB)"/>
<path id="Vector_37" d="M21.8585 28.496H21.6884C21.6884 29.2337 21.7678 30.1075 21.7791 30.9246C21.2914 30.2777 20.7355 29.5627 20.3385 28.9726C20.2379 29.0295 20.1314 29.0752 20.0209 29.1088L19.6919 29.1996C20.1684 29.7897 21.2687 31.1856 21.7564 31.8438L21.9039 31.7757H22.074C22.0059 30.6409 22.0059 29.1882 22.0059 28.3712C21.9658 28.4224 21.9156 28.4649 21.8585 28.496V28.496Z" fill="var(--fill-0, #BBBBBB)"/>
<path id="Vector_38" d="M25.2502 29.744C25.0184 29.9318 24.776 30.1061 24.5242 30.2661C24.4221 30.1186 24.3086 29.9597 24.2066 29.7894L23.9003 29.2901C24.1459 29.133 24.3995 28.989 24.6603 28.8589C24.6192 28.8083 24.5814 28.7553 24.5469 28.7C24.5051 28.646 24.4742 28.5843 24.4561 28.5184L23.7302 29.0177C23.5373 28.734 23.3672 28.4617 23.1971 28.1666L23.9684 27.7354L23.8436 27.5765L23.7529 27.4062C23.6735 27.4743 23.4012 27.6559 23.0836 27.8602C22.766 28.0645 22.6753 28.0985 22.4824 28.212C22.7206 28.5411 22.9248 28.8362 23.1971 29.2674L23.5373 29.8008C23.8209 30.2434 24.0024 30.5384 24.1953 30.9356C24.2633 30.8789 24.3541 30.8222 24.8872 30.4817C25.1821 30.2888 25.3409 30.198 25.4657 30.1299L25.3409 29.971C25.3038 29.8983 25.2735 29.8223 25.2502 29.744V29.744Z" fill="var(--fill-0, #BBBBBB)"/>
<path id="Vector_39" d="M26.2143 26.3179C26.1381 26.2322 26.0433 26.165 25.9371 26.1217C25.8309 26.0785 25.7162 26.0602 25.6018 26.0683C25.4317 26.0683 25.2955 26.1477 25.0119 26.4201C24.7283 26.6924 24.717 26.7492 24.6262 26.84C24.5493 26.9154 24.4658 26.9837 24.3767 27.0442C24.683 27.3166 24.9325 27.5663 25.2955 27.9294L25.7379 28.3834C26.1009 28.7579 26.3504 29.0075 26.6113 29.3139L26.8268 29.0756L27.0651 28.8713C26.7701 28.5876 26.5206 28.3493 26.1576 27.9748L26.0215 27.8386L27.5415 28.3947L27.7797 28.1337L28.0406 27.9067C27.4734 27.7365 26.9063 27.5663 26.3618 27.3733C26.4699 27.2096 26.5145 27.0121 26.4874 26.8178C26.4602 26.6235 26.3631 26.4457 26.2143 26.3179V26.3179ZM25.9421 27.6457C25.9351 27.6593 25.9255 27.6713 25.9138 27.681C25.9021 27.6908 25.8886 27.6981 25.874 27.7025L25.0006 26.8059C25.3068 26.4995 25.477 26.4201 25.8627 26.8059C26.2483 27.1918 26.1463 27.4074 25.9421 27.6457V27.6457Z" fill="var(--fill-0, #BBBBBB)"/>
<path id="Vector_40" d="M28.9027 25.318C28.052 24.6938 27.4962 25.7492 26.9517 25.318C26.9066 25.2884 26.868 25.2499 26.8382 25.2049C26.8085 25.1599 26.7882 25.1093 26.7787 25.0562C26.7691 25.0031 26.7705 24.9486 26.7827 24.8961C26.7949 24.8435 26.8176 24.794 26.8496 24.7505C26.9158 24.6583 27.0128 24.5928 27.123 24.5658C27.2332 24.5387 27.3494 24.5519 27.4508 24.603V24.603L27.1445 24.2285C26.967 24.2685 26.8055 24.3609 26.6812 24.4938C26.5568 24.6268 26.4753 24.794 26.4472 24.9739C26.4191 25.1537 26.4457 25.3379 26.5235 25.5025C26.6013 25.667 26.7268 25.8044 26.8836 25.8967C27.723 26.5096 28.2561 25.4655 28.8119 25.8967C28.8649 25.9276 28.9107 25.9693 28.9462 26.0193C28.9817 26.0692 29.0062 26.1261 29.018 26.1863C29.0298 26.2464 29.0287 26.3084 29.0147 26.368C29.0006 26.4277 28.9741 26.4837 28.9368 26.5323C28.857 26.641 28.7398 26.7163 28.6078 26.7435C28.4758 26.7708 28.3384 26.7481 28.2221 26.6798V26.7365C28.3696 26.884 28.483 27.0089 28.6191 27.1678C28.8383 27.1094 29.0283 26.972 29.1523 26.7819C29.2427 26.6735 29.3086 26.5468 29.3453 26.4105C29.3821 26.2742 29.3888 26.1315 29.365 25.9923C29.3413 25.8532 29.2877 25.7208 29.2079 25.6044C29.1281 25.4879 29.0239 25.3902 28.9027 25.318V25.318Z" fill="var(--fill-0, #BBBBBB)"/>
<path id="Vector_41" d="M28.9593 23.6505C28.5169 23.3668 28.222 23.1625 27.893 22.9355C27.8501 23.0296 27.8008 23.1206 27.7456 23.2079C27.6775 23.3214 27.5981 23.3895 27.5527 23.4689C27.9044 23.6619 28.2106 23.8434 28.6871 24.1272L29.2089 24.4676C29.6513 24.7513 29.9462 24.9442 30.2752 25.1826L30.434 24.8988L30.6154 24.6492C30.2638 24.4449 29.9575 24.2633 29.4811 23.9796L28.9593 23.6505Z" fill="var(--fill-0, #BBBBBB)"/>
<path id="Vector_42" d="M29.4131 21.3813L29.0387 21.2224C29.129 21.0088 29.2313 20.8004 29.345 20.5982H29.1522C29.0881 20.571 29.0272 20.5367 28.9707 20.4961C28.8572 20.8139 28.8119 20.9841 28.6304 21.438C28.4489 21.892 28.3809 22.0395 28.2334 22.3573L28.4376 22.414L28.6077 22.5048C28.6644 22.2891 28.7665 21.9714 28.8232 21.8239L29.1975 21.9601L30.2752 22.3913C30.7516 22.5729 31.0805 22.7204 31.4095 22.8906C31.4095 22.7999 31.4662 22.6977 31.5116 22.5842L31.6477 22.2892C31.262 22.1643 30.933 22.0395 30.4453 21.8466L29.4131 21.3813Z" fill="var(--fill-0, #BBBBBB)"/>
<path id="Vector_43" d="M29.5493 17.8965C29.5493 17.9646 29.5493 18.0214 29.5493 18.0781C29.5335 18.1374 29.5107 18.1945 29.4812 18.2483C29.9076 18.5122 30.3134 18.8081 30.6949 19.1335V19.1335C30.4567 19.1903 29.6967 19.3151 29.209 19.3832C29.209 19.4966 29.209 19.6102 29.209 19.7236C29.178 19.8393 29.1401 19.953 29.0955 20.0641L31.1033 19.6782L31.523 19.769C31.8066 19.8258 32.1015 19.9393 32.3737 20.0187L32.4418 19.6896C32.4418 19.5875 32.4418 19.474 32.5325 19.3718C32.1922 19.3718 31.8859 19.2583 31.5797 19.1903L31.1486 19.0768C30.5247 18.7136 29.7988 18.1462 29.5493 17.8965Z" fill="var(--fill-0, #BBBBBB)"/>
</g>
<defs>
<clipPath id="clip0_0_310">
<rect width="152" height="34" fill="white"/>
</clipPath>
</defs>
</svg>
