<svg preserveAspectRatio="none" width="100%" height="100%" overflow="visible" style="display: block;" viewBox="0 0 132 24" fill="none" xmlns="http://www.w3.org/2000/svg">
<g id="Client Logo / Exact" clip-path="url(#clip0_0_685)">
<path id="Vector" d="M84.8853 0.178996H89.3607C90.2848 0.120146 91.1947 0.427863 91.8908 1.03464C92.1081 1.24616 92.2796 1.49956 92.3947 1.7793C92.5099 2.05904 92.5663 2.35921 92.5605 2.6614V2.6614C92.5777 3.09867 92.4661 3.53142 92.2396 3.90666C92.013 4.2819 91.6812 4.58334 91.2849 4.77407C91.8149 4.89408 92.2864 5.19385 92.6181 5.62182C92.9499 6.0498 93.1212 6.57924 93.1027 7.11915C93.1027 8.87267 91.6676 9.74943 89.4989 9.74943H84.9065L84.8853 0.178996ZM88.9143 4.05577C89.8604 4.05577 90.4451 3.74943 90.4451 2.99943C90.4451 2.36563 89.9454 2.01703 89.0524 2.01703H86.9263V4.0452L88.9143 4.05577ZM89.467 7.9114C90.4025 7.9114 90.9766 7.57337 90.9766 6.85506C90.9766 6.21069 90.4982 5.79872 89.4139 5.79872H86.9476V7.9114H89.467Z" fill="var(--fill-0, #BBBBBB)"/>
<path id="Vector_2" d="M94.3572 5.64141V0.159011H96.4833V5.58859C96.4833 7.14141 97.27 7.95478 98.6094 7.95478C99.9489 7.95478 100.736 7.16254 100.682 5.64141V0.148438H102.808V5.5569C102.808 8.46183 101.171 9.88789 98.5562 9.89845C95.9411 9.90901 94.3784 8.47239 94.3678 5.6731" fill="var(--fill-0, #BBBBBB)"/>
<path id="Vector_3" d="M103.935 8.3345L105.19 6.84507C105.978 7.56311 107.002 7.97227 108.071 7.99648C108.942 7.99648 109.463 7.65844 109.463 7.09859C109.463 6.55985 109.134 6.28521 107.507 5.8838C105.562 5.39789 104.318 4.82746 104.318 2.95774C104.318 1.22535 105.721 0.063386 107.688 0.063386C108.991 0.0423256 110.261 0.471719 111.281 1.27817L110.218 2.86268C109.496 2.306 108.621 1.97839 107.709 1.92254C106.891 1.92254 106.476 2.30282 106.476 2.76761C106.476 3.40141 106.88 3.60212 108.549 4.02465C110.516 4.5317 111.621 5.22886 111.621 6.89788C111.621 8.79929 110.165 9.8662 108.092 9.87676C106.581 9.88287 105.121 9.33784 103.988 8.34507" fill="var(--fill-0, #BBBBBB)"/>
<path id="Vector_4" d="M116.16 0.0528143H118.17L122.326 9.70774H120.115L119.222 7.59507H115.087L114.215 9.70774H112.089L116.16 0.0528143ZM118.403 5.69366L117.107 2.63028L115.831 5.7993L118.403 5.69366Z" fill="var(--fill-0, #BBBBBB)"/>
<path id="Vector_5" d="M123.4 0.106267H125.356L129.895 6.00063L129.885 0.0957031H131.979L132 9.67669L130.193 9.68725L125.505 3.59218L125.515 9.69782H123.421L123.4 0.106267Z" fill="var(--fill-0, #BBBBBB)"/>
<path id="Vector_6" d="M84.9172 14.2495H89.3927C89.8498 14.216 90.309 14.2735 90.7435 14.4186C91.1779 14.5637 91.5789 14.7935 91.9228 15.0946C92.1397 15.3059 92.3102 15.5595 92.4237 15.8394C92.5371 16.1194 92.5909 16.4197 92.5819 16.7213V16.7213C92.6051 17.157 92.4984 17.5899 92.2753 17.9656C92.0522 18.3414 91.7225 18.6435 91.3275 18.834C91.8545 18.9619 92.3214 19.2656 92.6503 19.6943C92.9792 20.123 93.1502 20.6508 93.1347 21.1897V21.1897C93.1347 22.9537 91.6995 23.8305 89.5203 23.8411H84.9385L84.9172 14.2495ZM88.9462 18.1157C89.8817 18.1157 90.477 17.8094 90.477 17.0594C90.477 16.4256 89.9774 16.0664 89.0844 16.077H86.9583V18.1051L88.9462 18.1157ZM89.5203 21.9713C90.4558 21.9713 91.0192 21.6439 91.0192 20.915C91.0192 20.2706 90.5408 19.8587 89.4459 19.8587H86.9902V21.9713H89.5203Z" fill="var(--fill-0, #BBBBBB)"/>
<path id="Vector_7" d="M97.8332 14.1133H99.7892L103.946 23.7682H101.724L100.842 21.6555H96.7702L95.8878 23.7682H93.7617L97.8332 14.1133ZM100.098 19.7436L98.8112 16.6485L97.5356 19.7541L100.098 19.7436Z" fill="var(--fill-0, #BBBBBB)"/>
<path id="Vector_8" d="M105.073 14.1655L107.039 14.1549L111.568 20.0599L111.557 14.1444H113.652L113.673 23.7359H111.866L107.178 17.6514L107.188 23.7465L105.094 23.757L105.073 14.1655Z" fill="var(--fill-0, #BBBBBB)"/>
<path id="Vector_9" d="M115.629 14.1444L117.755 14.1338V18.3275L121.667 14.1232H124.229L120.306 18.2007L124.431 23.7148H121.88L118.882 19.6479L117.766 20.7993V23.7254L115.65 23.7359L115.629 14.1444Z" fill="var(--fill-0, #BBBBBB)"/>
<path id="Vector_10" d="M72.979 4.42605H74.9775C75.0091 4.42748 75.0407 4.42253 75.0703 4.4115C75.0999 4.40046 75.127 4.38356 75.1498 4.36184C75.1727 4.34011 75.1909 4.314 75.2033 4.2851C75.2157 4.25619 75.2221 4.22508 75.2221 4.19366V0.443653C75.2221 0.412225 75.2157 0.38112 75.2033 0.352213C75.1909 0.323306 75.1727 0.297213 75.1498 0.275489C75.127 0.253766 75.0999 0.236866 75.0703 0.225828C75.0407 0.214791 75.0091 0.209845 74.9775 0.211273H72.1604C68.9713 0.211273 67.2066 1.2676 66.2179 3.45422L60.1373 18.338C60.0158 18.7493 59.7544 19.1059 59.3975 19.3468C59.0407 19.5877 58.6108 19.6978 58.1812 19.6584V0.485916C58.1827 0.45452 58.1777 0.42316 58.1666 0.393734C58.1555 0.364308 58.1385 0.337433 58.1166 0.314722C58.0947 0.29201 58.0684 0.273929 58.0394 0.261595C58.0103 0.249261 57.979 0.24293 57.9474 0.242962H53.4506C53.419 0.24293 53.3877 0.249261 53.3586 0.261595C53.3295 0.273929 53.3032 0.29201 53.2814 0.314722C53.2595 0.337433 53.2425 0.364308 53.2314 0.393734C53.2203 0.42316 53.2153 0.45452 53.2167 0.485916V23.4613C53.2194 23.5697 53.264 23.6729 53.3411 23.7496C53.4183 23.8263 53.5222 23.8706 53.6313 23.8732H58.6383C61.8913 23.8732 63.369 22.8169 64.3576 20.6408L70.3532 5.93662C70.553 5.43261 70.9171 5.00978 71.3874 4.7359C71.8578 4.46201 72.407 4.3529 72.9471 4.42605" fill="var(--fill-0, #BBBBBB)"/>
<path id="Vector_11" d="M18.1039 12.1382C19.128 11.7198 19.995 10.9941 20.5839 10.0624C21.1728 9.13061 21.4542 8.03938 21.3887 6.94104C21.3887 2.82132 17.8062 0.317802 13.5115 0.328366H0.244515C0.21292 0.326937 0.181345 0.331883 0.151731 0.34292C0.122118 0.353958 0.0950717 0.370858 0.072216 0.392581C0.0493602 0.414305 0.0311639 0.440398 0.0187516 0.469305C0.00633923 0.498212 -3.25661e-05 0.529317 1.25159e-07 0.560745V4.31075C-3.25661e-05 4.34218 0.00633923 4.37328 0.0187516 4.40219C0.0311639 4.4311 0.0493602 4.4572 0.072216 4.47893C0.0950717 4.50065 0.122118 4.51755 0.151731 4.52859C0.181345 4.53963 0.21292 4.54457 0.244515 4.54314H12.5866C14.5852 4.54314 15.9352 5.74737 15.9352 7.23681C15.9352 8.72625 14.5958 9.95159 12.5973 9.95159H5.26215V7.16286C5.26079 7.13094 5.25308 7.09962 5.23951 7.07066C5.22594 7.0417 5.20679 7.01568 5.18309 6.9941C5.15939 6.97251 5.13165 6.95577 5.10144 6.94486C5.07122 6.93394 5.03911 6.92906 5.007 6.93048H0.244515C0.21292 6.92905 0.181345 6.934 0.151731 6.94503C0.122118 6.95607 0.0950717 6.97297 0.072216 6.99469C0.0493602 7.01642 0.0311639 7.04251 0.0187516 7.07142C0.00633923 7.10032 -3.25661e-05 7.13143 1.25159e-07 7.16286V23.7262C-3.25661e-05 23.7577 0.00633923 23.7888 0.0187516 23.8177C0.0311639 23.8466 0.0493602 23.8727 0.072216 23.8944C0.0950717 23.9162 0.122118 23.933 0.151731 23.9441C0.181345 23.9551 0.21292 23.9601 0.244515 23.9586H13.3201C18.2102 23.9586 21.7077 21.6769 21.697 17.0502C21.705 15.9499 21.3541 14.8766 20.6967 13.9911C20.0394 13.1056 19.1111 12.4555 18.0507 12.1382M12.8311 19.8495H5.24087V14.3037H12.9268C14.9785 14.3037 16.3605 15.5396 16.3711 17.0713C16.3817 18.603 14.9891 19.8389 12.9374 19.8495" fill="var(--fill-0, #BBBBBB)"/>
<path id="Vector_12" d="M77.667 23.566L69.9386 13.7949C69.9386 13.7949 69.8854 13.7949 69.8748 13.7949L67.8125 18.8336C67.8073 18.8651 67.8073 18.8972 67.8125 18.9287L71.193 23.4076C71.2971 23.5496 71.4352 23.6636 71.5949 23.7393C71.7545 23.8149 71.9306 23.8498 72.1072 23.8407H77.5288C77.5604 23.8397 77.5911 23.8301 77.6175 23.8127C77.6439 23.7954 77.6649 23.7711 77.6781 23.7426C77.6914 23.7141 77.6963 23.6824 77.6925 23.6512C77.6887 23.6201 77.6762 23.5906 77.6564 23.566" fill="var(--fill-0, #BBBBBB)"/>
<path id="Vector_13" d="M30.159 6.9082H25.6836C25.6216 6.9082 25.5621 6.93269 25.5182 6.97627C25.4743 7.01985 25.4497 7.07896 25.4497 7.1406V23.6934C25.4497 23.7579 25.4755 23.8196 25.5213 23.8652C25.5672 23.9108 25.6294 23.9364 25.6942 23.9364H30.1909C30.2226 23.9364 30.2539 23.9301 30.283 23.9177C30.3121 23.9054 30.3383 23.8873 30.3602 23.8646C30.3821 23.8419 30.3991 23.815 30.4102 23.7856C30.4213 23.7562 30.4263 23.7248 30.4248 23.6934V7.1406C30.4248 7.07896 30.4002 7.01985 30.3563 6.97627C30.3125 6.93269 30.253 6.9082 30.1909 6.9082" fill="var(--fill-0, #BBBBBB)"/>
<path id="Vector_14" d="M48.6456 0.263672H44.1489C44.0868 0.263672 44.0274 0.288158 43.9835 0.33174C43.9397 0.375323 43.915 0.434433 43.915 0.496068V19.6686C43.4865 19.7117 43.0562 19.6058 42.6976 19.3688C42.3389 19.1319 42.0741 18.7786 41.9483 18.3693L35.8039 3.50664C34.8258 1.32002 33.0931 0.284806 29.8401 0.337623H25.5879C25.5259 0.337623 25.4663 0.362109 25.4225 0.405692C25.3786 0.449274 25.354 0.508384 25.354 0.570019V4.32002C25.354 4.38166 25.3786 4.44077 25.4225 4.48435C25.4663 4.52793 25.5259 4.55242 25.5879 4.55242H29.0109C29.5498 4.47905 30.0978 4.58549 30.5692 4.85506C31.0406 5.12462 31.4085 5.54204 31.6154 6.04184L37.6749 20.725C38.6635 22.9116 40.1518 23.9468 43.3941 23.894H48.4436C48.5517 23.8912 48.6545 23.8466 48.7299 23.7696C48.8054 23.6927 48.8476 23.5895 48.8476 23.482V0.506641C48.849 0.475246 48.8441 0.443886 48.8329 0.41446C48.8218 0.385034 48.8048 0.358143 48.783 0.335431C48.7611 0.31272 48.7348 0.294655 48.7057 0.282321C48.6766 0.269987 48.6454 0.26364 48.6137 0.263672" fill="var(--fill-0, #BBBBBB)"/>
</g>
<defs>
<clipPath id="clip0_0_685">
<rect width="132" height="24" fill="white"/>
</clipPath>
</defs>
</svg>
