<svg preserveAspectRatio="none" width="100%" height="100%" overflow="visible" style="display: block;" viewBox="0 0 121 40" fill="none" xmlns="http://www.w3.org/2000/svg">
<g id="Client Logo / Exact" clip-path="url(#clip0_0_811)">
<path id="Vector" d="M46.9997 6.87966V4.09508H43.7302V1.42188H40.2495V4.09508H36.944V6.87966H40.1193L36.3557 12.2528L38.8573 13.9102L42.0011 9.38801L45.0371 13.8433C45.329 13.6429 47.1793 12.3464 47.4668 12.1548L43.793 6.90193L46.9997 6.87966Z" fill="var(--fill-0, #BBBBBB)"/>
<path id="Vector_2" d="M47.5386 16.4219H44.314V24.094H53.8262V21.1846H47.5386V16.4219Z" fill="var(--fill-0, #BBBBBB)"/>
<path id="Vector_3" d="M50.4443 14.4404H53.7049V3.92578H50.4443V7.75291H47.3813V10.7023H50.4443V14.4404V14.4404Z" fill="var(--fill-0, #BBBBBB)"/>
<path id="Vector_4" d="M68.1215 6.91843V4.09375H58.7665V6.91843H61.542L58.1018 12.3896L60.6393 13.9712L63.4373 9.33767L66.2442 13.8866C66.5451 13.6995 68.4224 12.4921 68.7143 12.3094C68.5077 11.9842 65.3415 6.90507 65.3415 6.90507L68.1215 6.91843Z" fill="var(--fill-0, #BBBBBB)"/>
<path id="Vector_5" d="M74.3013 3.92578H71.1216V14.4003H74.3013V10.6622H76.6726V14.4003H79.8164V3.92578H76.6726V7.70836H74.3013V3.92578Z" fill="var(--fill-0, #BBBBBB)"/>
<path id="Vector_6" d="M94.0848 7.54354V3.8768H86.7148V0.882812H97.3139V7.56582L94.0848 7.54354Z" fill="var(--fill-0, #BBBBBB)"/>
<path id="Vector_7" d="M90.7207 8.97235V11.4985H92.5172V8.95898H95.6116V11.4985H100.705V14.448H83.7729V11.4985H87.6668V8.99017L90.7207 8.97235Z" fill="var(--fill-0, #BBBBBB)"/>
<path id="Vector_8" d="M114.052 26.1748H116.796V18.3379H108.443V21.323H114.052V26.1748Z" fill="var(--fill-0, #BBBBBB)"/>
<path id="Vector_9" d="M112.597 9.97104C113.583 9.94303 114.54 9.62756 115.347 9.06398C116.153 8.50039 116.775 7.71364 117.134 6.80182C117.493 5.89001 117.574 4.8935 117.366 3.93656C117.158 2.97963 116.671 2.10462 115.965 1.42067C115.259 0.736726 114.365 0.274104 113.396 0.0905038C112.427 -0.0930962 111.424 0.0104551 110.514 0.388235C109.604 0.766016 108.825 1.40131 108.277 2.21489C107.728 3.02846 107.433 3.98432 107.428 4.96324C107.462 6.3016 108.021 7.57394 108.987 8.5093C109.952 9.44467 111.248 9.96914 112.597 9.97104V9.97104ZM112.557 3.03408C113.086 3.04279 113.592 3.25219 113.97 3.61926C114.348 3.98632 114.571 4.48319 114.591 5.00779C114.578 5.53535 114.359 6.03715 113.979 6.40654C113.599 6.77593 113.089 6.9838 112.557 6.98596C112.045 6.96184 111.562 6.74313 111.208 6.37521C110.855 6.0073 110.657 5.51842 110.657 5.01002C110.657 4.50163 110.855 4.01275 111.208 3.64483C111.562 3.27691 112.045 3.0582 112.557 3.03408V3.03408Z" fill="var(--fill-0, #BBBBBB)"/>
<path id="Vector_10" d="M108.42 17.4019H111.564V14.4079H113.603V17.4019H116.747V14.4079H121.018V11.4629H104.077V14.4079H108.42V17.4019V17.4019Z" fill="var(--fill-0, #BBBBBB)"/>
<path id="Vector_11" d="M0.87582 4.40674L1.16774 4.52257L1.45966 4.63396H1.50458C1.74775 4.71524 2.00248 4.75736 2.25908 4.7587H2.86539H3.15731L3.49414 4.78544C3.57105 4.81449 3.65083 4.8354 3.73217 4.84782C4.10103 4.84658 4.46754 4.78948 4.81903 4.67851L4.95825 4.64732C5.78462 4.50921 5.9014 4.38446 5.95978 4.32208C6.14106 4.1508 6.26491 3.92839 6.31457 3.68497C6.31457 3.65824 6.31458 3.65378 6.35051 3.60923C6.43335 3.51545 6.47956 3.39531 6.48075 3.27062V2.64242L6.51218 2.43302L6.5571 2.04986C6.55311 1.90041 6.50639 1.75517 6.42237 1.63106V1.59096V1.5375C6.4265 1.37265 6.3959 1.20877 6.33254 1.05632C6.32535 1.01804 6.32535 0.978769 6.33254 0.940486C6.33491 0.916782 6.33491 0.892902 6.33254 0.869199C6.33587 0.745571 6.30809 0.623068 6.2517 0.51277C6.03565 0.25563 5.73205 0.0860189 5.39839 0.0360531H5.36695H5.33551C4.8869 0.00621146 4.43678 0.00621146 3.98817 0.0360531H3.78608L3.39983 0.10288L2.95072 0.218717C2.7335 0.281446 2.51106 0.324691 2.28604 0.347925L1.92674 0.401387C1.69998 0.456139 1.48765 0.558423 1.30406 0.701362C1.12046 0.844301 0.969855 1.02458 0.862347 1.23008L0.741091 1.41275C0.657309 1.5213 0.612991 1.65476 0.61534 1.79146V2.01422L0.579404 2.29045C0.554878 2.36843 0.541279 2.44938 0.538985 2.53104C0.536397 2.56812 0.536397 2.60534 0.538985 2.64242V2.68252C0.532219 2.7536 0.505792 2.82143 0.46263 2.87855L0.390784 2.98103C0.283515 3.10478 0.22595 3.26339 0.229096 3.42656C0.222788 3.48729 0.222788 3.5485 0.229096 3.60923C0.228887 3.79544 0.292932 3.97611 0.410589 4.1212C0.528246 4.26629 0.692426 4.36705 0.87582 4.40674Z" fill="var(--fill-0, #BBBBBB)"/>
<path id="Vector_12" d="M7.65285 2.25495C7.65841 2.40493 7.67796 2.55408 7.71123 2.70049C7.71123 2.7584 7.68877 2.96335 7.67979 3.09256L7.64835 3.47126C7.62662 3.60508 7.63597 3.74207 7.67567 3.87177C7.71536 4.00148 7.78435 4.1205 7.8774 4.21976C8.0134 4.36528 8.17705 4.48271 8.35894 4.56529C8.54084 4.64786 8.7374 4.69396 8.93732 4.70093C9.1089 4.68123 9.28221 4.68123 9.45379 4.70093L9.74122 4.7232H10.4688H10.7068L11.1559 4.75885C11.5821 4.80873 12.0119 4.82215 12.4404 4.79895C12.5162 4.78571 12.5937 4.78571 12.6694 4.79895C12.9165 4.82568 13.0467 4.77222 13.3206 4.54054C13.6473 4.30072 13.8881 3.9635 14.0078 3.57819C14.0477 3.44215 14.0673 3.30106 14.0662 3.15938L14.1066 2.9589C14.1413 2.84288 14.1624 2.72328 14.1695 2.60247C14.1689 2.54681 14.1614 2.49143 14.147 2.43762L14.0258 2.1703C13.9889 2.11366 13.9601 2.05217 13.9404 1.98763L13.9853 1.84061C14.0545 1.67935 14.0955 1.50759 14.1066 1.33269C14.1118 1.18461 14.0676 1.03896 13.9808 0.918351L13.882 0.717863C13.8274 0.55532 13.7137 0.418753 13.5632 0.334704L13.4778 0.285695C13.2622 0.133154 13.0014 0.0563273 12.7368 0.0673807C12.6476 0.0723582 12.5582 0.0633376 12.4718 0.0406498L12.0811 -0.00390625L11.3311 0.0361969L10.5272 0.0762933L10.3206 0.0495624C10.1637 0.00173629 9.99825 -0.0119394 9.83554 0.00946601C9.5032 0.036198 9.03612 0.0317372 9.03163 0.0317372H8.99569H8.91485L8.77563 0.0629279C8.53552 0.0860794 8.30678 0.175611 8.11543 0.321338L7.99866 0.410443C7.9051 0.468363 7.82664 0.547372 7.76967 0.641049C7.7127 0.734726 7.67883 0.840427 7.67081 0.949542V1.02973C7.61203 1.28687 7.59835 1.55213 7.6304 1.81387L7.65285 2.25495Z" fill="var(--fill-0, #BBBBBB)"/>
<path id="Vector_13" d="M15.3057 3.85761C15.3775 4.12939 15.4988 4.59274 15.9165 4.6462C15.9687 4.65743 16.0188 4.67699 16.0647 4.70412C16.2816 4.81639 16.5259 4.8658 16.7698 4.84669C16.9775 4.84172 17.1852 4.85814 17.3896 4.8957C17.6216 4.94168 17.8582 4.96112 18.0947 4.95362H18.3866C18.5961 4.96245 18.806 4.94448 19.0109 4.90016L19.3702 4.84669C19.68 4.81105 19.9989 4.7665 20.1426 4.46799L20.1875 4.36997C20.3103 4.17104 20.3784 3.94372 20.3852 3.71058L20.4301 3.22495L20.484 2.61011L20.457 2.19131V2.06211C20.4539 1.95092 20.423 1.84223 20.3672 1.74578V1.74578L20.3941 1.68786C20.4451 1.57997 20.4756 1.46367 20.484 1.3448C20.4799 1.17715 20.4107 1.01753 20.2908 0.899267L20.2414 0.819067C20.1901 0.695013 20.1048 0.587611 19.9954 0.508915C19.8859 0.430219 19.7565 0.38334 19.6217 0.373534L18.4854 0.18641H18.3956C18.0822 0.12278 17.76 0.113735 17.4435 0.159679C17.1156 0.213143 16.6755 0.235419 16.671 0.235419H16.5946L16.5138 0.271063L16.4644 0.226507L16.2354 0.373534L15.7638 0.685406C15.5267 0.868019 15.3665 1.13167 15.3147 1.42499C15.31 1.47389 15.31 1.52312 15.3147 1.57202C15.3204 1.69599 15.3339 1.81949 15.3551 1.94181C15.377 2.03838 15.3891 2.1369 15.391 2.23587V2.2626C15.3109 2.42525 15.2665 2.60293 15.2608 2.78387C15.2515 2.84889 15.2515 2.91489 15.2608 2.97991L15.2383 3.11802C15.167 3.3138 15.167 3.52817 15.2383 3.72395L15.3057 3.85761Z" fill="var(--fill-0, #BBBBBB)"/>
<path id="Vector_14" d="M21.6562 4.18434C21.6533 4.29326 21.6797 4.40099 21.7325 4.4965C21.7854 4.59201 21.8629 4.67186 21.9571 4.72789V4.72789C22.2872 4.88751 22.6429 4.98854 23.008 5.02639C23.1812 5.06922 23.3622 5.07096 23.5362 5.03149C23.7102 4.99201 23.8724 4.91242 24.0096 4.79917C24.1734 4.67839 24.3063 4.52111 24.3975 4.34002C24.4888 4.15892 24.5359 3.95909 24.535 3.75662C24.5649 3.52142 24.5649 3.28343 24.535 3.04822L24.5036 2.68734V2.27745C24.537 1.90498 24.472 1.5303 24.315 1.19035C24.0186 0.539871 23.8973 0.272548 23.547 0.205718H23.4931C23.2558 0.144736 23.0096 0.125142 22.7655 0.147803H22.5365L22.4691 0.178987C22.3027 0.2219 22.1508 0.308122 22.0292 0.428743C21.9077 0.549365 21.8207 0.700014 21.7775 0.865113V0.936393C21.6992 1.1829 21.6992 1.4473 21.7775 1.69381C21.7911 1.80881 21.7819 1.92533 21.7505 2.03686L21.7011 2.42893V3.28436L21.6607 3.43584C21.5723 3.6422 21.5627 3.87345 21.6338 4.08632C21.6458 4.11779 21.6534 4.15078 21.6562 4.18434V4.18434Z" fill="var(--fill-0, #BBBBBB)"/>
<path id="Vector_15" d="M25.6175 2.8074V2.8475L25.7028 3.54253V3.80986C25.7023 3.98784 25.7342 4.16444 25.7971 4.33113L25.842 4.45142C25.9123 4.61475 25.965 4.785 25.9992 4.95933C25.9992 4.95933 26.0531 5.15536 26.0711 5.20437V5.55189C26.0711 5.60981 26.0711 5.66773 26.0711 5.72119C26.0564 5.81354 26.0638 5.90801 26.0926 5.997C26.1215 6.086 26.171 6.16702 26.2372 6.23355C26.2855 6.2711 26.3416 6.2974 26.4014 6.31052C26.4613 6.32363 26.5234 6.32321 26.583 6.3093C26.9244 6.2291 26.9693 5.92614 27.0052 5.65882V5.5608L27.0367 5.2712C27.0409 5.1566 27.059 5.04291 27.0905 4.93259C27.1147 4.83224 27.1541 4.7361 27.2073 4.64745C27.2854 4.50516 27.35 4.35602 27.4004 4.20192C27.4624 4.00608 27.5045 3.80459 27.5262 3.60045C27.5424 3.44877 27.5755 3.29934 27.625 3.15492L27.7193 2.93661C27.7961 2.80937 27.8366 2.66387 27.8366 2.51558C27.8366 2.3673 27.7961 2.22178 27.7193 2.09455L27.625 1.8406C27.5805 1.6821 27.5108 1.53169 27.4184 1.39506L27.2657 1.10992C27.2086 0.97218 27.1211 0.848873 27.0097 0.749035C26.819 0.597744 26.6052 0.477445 26.3765 0.392614H26.3136H26.1833C25.8375 0.307962 25.6669 0.544093 25.5366 0.76686L25.4962 0.829235C25.3711 0.99379 25.2948 1.18978 25.2761 1.39506C25.2817 1.54018 25.3121 1.68329 25.366 1.81832C25.4794 2.13991 25.5635 2.47093 25.6175 2.8074Z" fill="var(--fill-0, #BBBBBB)"/>
<path id="Vector_16" d="M5.45234 7.86414C5.15151 7.87477 4.85157 7.90304 4.55411 7.9488H4.46878L4.37447 8.02454L4.21278 8.1582C3.99569 8.31261 3.80209 8.49717 3.63792 8.7062C3.31036 9.10074 3.06326 9.5547 2.91035 10.0428C2.89027 10.1003 2.85451 10.1512 2.80705 10.1898C2.56902 10.4393 2.47471 10.6844 2.62741 11.3482L2.73969 11.9497C2.74984 12.1613 2.80372 12.3685 2.89798 12.5586C2.99223 12.7487 3.12485 12.9175 3.28761 13.0546C3.73469 13.4996 4.28534 13.8286 4.89094 14.0125C5.66342 14.2843 5.69036 14.3021 5.96881 14.3021H6.49876L6.73679 14.3333C6.92177 14.3801 7.11479 14.3864 7.30247 14.3518C7.49015 14.3171 7.66799 14.2424 7.82365 14.1328C7.99139 14.0412 8.16729 13.9651 8.34912 13.9056C8.55742 13.8651 8.75358 13.7778 8.92253 13.6504C9.09149 13.523 9.22873 13.3588 9.32369 13.1704C9.38031 13.0548 9.44959 12.9458 9.53027 12.8452C9.73673 12.5675 9.84986 12.2324 9.85364 11.8873C9.99167 11.1842 9.97944 10.4602 9.81771 9.76212L9.74585 9.50816C9.71157 9.33045 9.6361 9.16308 9.52542 9.01926C9.41474 8.87545 9.27188 8.75912 9.10811 8.67947C9.01901 8.62675 8.93871 8.56062 8.87008 8.48344C8.7084 8.30968 8.57816 8.21612 8.00779 8.06018C7.8334 8.02211 7.6665 7.95589 7.51376 7.86414C7.24219 7.70824 6.92056 7.66198 6.61554 7.73494L5.86103 7.82405L5.45234 7.86414Z" fill="var(--fill-0, #BBBBBB)"/>
<path id="Vector_17" d="M24.6338 22.7311C24.6354 22.5344 24.5931 22.3397 24.51 22.161C24.427 21.9823 24.3051 21.8241 24.1533 21.6975L24.1263 21.6708C24.0161 21.5264 23.8724 21.4106 23.7074 21.333C23.5425 21.2555 23.3611 21.2185 23.1787 21.2252L22.779 21.1851C22.6151 21.1626 22.4489 21.1626 22.285 21.1851L21.9706 21.2119C21.7356 21.2264 21.5017 21.2547 21.27 21.2965L21.0409 21.3455C20.8333 21.3851 20.6199 21.3851 20.4122 21.3455L20.017 21.2965C19.7637 21.2575 19.5049 21.2727 19.258 21.3411L18.8627 21.4079L18.4136 21.4925C18.2795 21.5077 18.1501 21.5509 18.034 21.6193C17.9179 21.6876 17.8177 21.7796 17.74 21.8891L17.6232 22.0227L17.5963 22.0584C17.4987 22.2471 17.4392 22.4529 17.4211 22.6643C17.3619 22.897 17.3974 23.1435 17.5199 23.3504C17.6055 23.5229 17.6775 23.7016 17.7355 23.8851C17.9421 24.4999 18.1531 24.6202 18.472 24.7761L18.6472 24.8474C19.1323 25.0217 19.6576 25.0541 20.1607 24.941H20.2236C20.3145 24.9182 20.4082 24.9077 20.502 24.9098H20.7849L21.3553 24.941C21.6517 24.9677 22.0155 24.9944 22.4871 25.0033C22.9859 25.0356 23.478 24.876 23.8614 24.5578C24.1903 24.3221 24.4343 23.9879 24.5575 23.6044C24.6608 23.4007 24.6939 23.1691 24.6518 22.945L24.6338 22.7311Z" fill="var(--fill-0, #BBBBBB)"/>
<path id="Vector_18" d="M27.8225 17.5188L27.7955 16.8951C27.8158 16.7575 27.7991 16.6171 27.7471 16.488C27.695 16.3589 27.6095 16.2457 27.4991 16.16C27.4786 16.1469 27.4609 16.13 27.447 16.1101C27.4331 16.0902 27.4234 16.0678 27.4183 16.0441L27.3868 15.9461C27.3868 15.9461 27.3644 15.8704 27.3554 15.8481L27.4587 15.6565L27.6833 15.2511L27.4677 15.064C27.4647 15.0433 27.4647 15.0223 27.4677 15.0016C27.4677 14.9303 27.4677 14.8145 27.4946 14.7209L27.5485 14.213C27.5559 13.9377 27.4808 13.6664 27.333 13.4333C27.2079 13.222 27.1241 12.9893 27.0859 12.7472L26.9288 12.0522C26.861 11.8182 26.8189 11.5777 26.803 11.3348C26.803 11.1611 26.7446 10.8002 26.4392 10.7289C26.3496 10.7123 26.2569 10.7256 26.1757 10.7667C26.0944 10.8078 26.0292 10.8744 25.9901 10.9561L25.9631 10.9962L25.8509 11.4061L25.6757 12.0923C25.6133 12.3791 25.5668 12.6691 25.5365 12.961C25.5243 13.1112 25.5003 13.2602 25.4646 13.4066L25.3569 13.7986C25.3569 13.7986 25.2895 14.0481 25.285 14.0571L25.2625 14.1061C25.2161 14.342 25.1577 14.5755 25.0874 14.8056C25.0442 14.8375 24.9975 14.8644 24.9482 14.8858L24.755 14.8546C24.7536 14.8442 24.7536 14.8337 24.755 14.8234L24.6562 14.6585H24.4272C24.252 14.5026 24.1847 14.4135 24.1847 14.2575C24.1825 14.2323 24.1825 14.207 24.1847 14.1818L24.2116 13.8209C24.2142 13.6043 24.2505 13.3894 24.3194 13.1838C24.3574 13.0395 24.4164 12.9014 24.4946 12.7739C24.6099 12.5895 24.6848 12.383 24.7146 12.168L24.9437 10.6844C24.9886 10.4081 25.0155 10.0651 25.0425 9.73092C25.0694 9.39677 25.1009 9.00025 25.1548 8.71066C25.2058 8.41634 25.2313 8.11823 25.2311 7.81959C25.2497 7.47775 25.2071 7.13534 25.1054 6.80823V6.80823C25.0842 6.73584 25.0736 6.66082 25.0739 6.58546C25.0918 6.4245 25.0453 6.263 24.9446 6.13558C24.8438 6.00816 24.6968 5.92496 24.535 5.90379L24.3508 5.8726C23.927 5.76443 23.4806 5.78146 23.0664 5.92161C22.9985 5.96049 22.9191 5.97467 22.8418 5.96172C22.6852 5.94298 22.5269 5.97753 22.3927 6.05973C22.1767 6.16243 22.0007 6.33281 21.8919 6.54457C21.7832 6.75634 21.7477 6.99772 21.7909 7.23148C21.8198 7.61262 21.8198 7.99537 21.7909 8.37651C21.7725 8.67325 21.7725 8.97083 21.7909 9.26757C21.7926 9.90731 21.7233 10.5453 21.5843 11.17C21.4486 11.6225 21.2697 12.0611 21.0499 12.4799C20.7721 12.876 20.4412 13.2327 20.0663 13.5402L19.5543 13.9279L19.3747 14.0437L19.1995 14.164C19.0022 14.3295 18.7752 14.4565 18.5303 14.5382L18.3731 14.5783C18.0812 14.6541 17.924 14.6763 17.7893 14.5293C17.5737 14.3155 17.3402 13.91 17.5019 13.6784C17.5784 13.551 17.6805 13.4406 17.8017 13.354C17.923 13.2674 18.061 13.2065 18.207 13.1749L18.4899 13.0769C18.9246 12.929 19.3173 12.68 19.6351 12.3507C19.9236 12.039 20.1808 11.7003 20.4031 11.3393C20.5958 10.8586 20.6727 10.3399 20.6277 9.82449L20.6501 9.34331C20.6977 8.78353 20.6567 8.21982 20.5289 7.67256L20.475 7.40524C20.4438 7.07015 20.298 6.75573 20.0618 6.51417L19.945 6.39388C19.8419 6.24212 19.6995 6.12068 19.5328 6.0423C19.366 5.96391 19.1811 5.93146 18.9974 5.94834C18.8488 5.97387 18.6969 5.97387 18.5483 5.94834L18.3282 5.90825L18.1576 5.87706C17.8008 5.77686 17.423 5.77686 17.0662 5.87706L16.7968 6.01072H16.7249C16.4779 6.01072 15.894 6.04191 15.7054 6.5409C15.5199 7.00438 15.4269 7.49916 15.4315 7.9978V8.65719C15.4112 9.02819 15.4112 9.40001 15.4315 9.77102C15.4504 10.0038 15.4504 10.2377 15.4315 10.4705C15.389 10.7347 15.389 11.0038 15.4315 11.268C15.5274 11.6962 15.5561 12.1365 15.5168 12.5734C15.5014 12.8519 15.5165 13.1313 15.5617 13.4066C15.5987 13.6078 15.6093 13.813 15.5931 14.017V14.017C15.5283 14.1578 15.4873 14.3084 15.4719 14.4625C15.4685 14.5138 15.4594 14.5646 15.4449 14.614C15.391 14.6407 15.3012 14.6719 15.3012 14.6719C15.1371 14.7297 14.9632 14.7554 14.7892 14.7476C14.412 14.7744 14.394 14.7476 14.2233 14.5561L14.138 14.458C13.9763 14.2798 13.9763 14.2798 14.0078 13.9279C14.0234 13.7306 14.0234 13.5325 14.0078 13.3353C13.9845 13.0374 14.0012 12.7378 14.0572 12.4442C14.1191 12.1439 14.1418 11.8369 14.1245 11.5309C14.1132 11.1652 14.1252 10.7991 14.1605 10.4349C14.2661 9.73242 14.2751 9.019 14.1874 8.31413C14.1655 8.16667 14.1565 8.0176 14.1605 7.8686C14.1736 7.63845 14.1337 7.40836 14.0437 7.19584C14.0051 7.08383 13.9839 6.96665 13.9808 6.84832C13.9979 6.68265 13.9528 6.51655 13.8542 6.38176C13.7556 6.24697 13.6104 6.15294 13.4464 6.11765L13.1859 6.02854C12.8832 5.9042 12.5565 5.84791 12.2293 5.8637C12.1403 5.86349 12.0515 5.85453 11.9643 5.83696C11.7357 5.78091 11.4968 5.78091 11.2682 5.83696C10.909 5.88399 10.5451 5.88399 10.1858 5.83696C9.98094 5.80433 9.77278 5.79686 9.56605 5.81469H9.5346H9.47174C9.47174 5.81469 9.2831 5.84142 9.25616 5.85033C9.06706 5.85131 8.88488 5.92105 8.74416 6.04636C8.6909 6.09696 8.64867 6.15786 8.62008 6.2253C8.5915 6.29274 8.57718 6.36528 8.57799 6.43843C8.57799 6.9107 8.8834 7.04882 9.17532 7.17802H9.21574C9.57391 7.31878 9.91089 7.50767 10.2173 7.73939C10.4847 7.91436 10.6806 8.17815 10.7697 8.48343L10.9314 8.92896C11.0602 9.19977 11.1408 9.49072 11.1694 9.78885L11.1963 10.1542C11.2188 10.4883 11.2412 10.8091 11.2412 11.0987C11.2412 11.2101 11.2412 11.317 11.2412 11.415C11.147 11.9881 10.9966 12.5507 10.7921 13.0947C10.5272 13.488 10.2265 13.8563 9.89389 14.1952L9.48969 14.516C9.31268 14.684 9.11853 14.8333 8.91035 14.9615C8.3315 15.2295 7.71266 15.4025 7.07796 15.4739C6.80646 15.4618 6.53443 15.4738 6.26506 15.5095C6.03414 15.5585 5.79538 15.5585 5.56445 15.5095L4.97162 15.3268C4.61882 15.2356 4.27352 15.1179 3.93866 14.9749C3.54666 14.7911 3.17867 14.5607 2.84283 14.2887L2.64072 14.0348C2.55599 13.9118 2.45812 13.7983 2.3488 13.6962C2.09692 13.4678 1.78589 13.3135 1.45057 13.2506L1.04188 13.1883C1.04188 13.1883 1.04188 13.6338 1.04188 13.6694C1.04188 13.7051 0.979006 14.3467 0.961042 14.5249C0.778582 14.7283 0.657225 14.9783 0.610734 15.2466C0.592289 15.3378 0.580275 15.4301 0.574797 15.5229C0.572319 15.5525 0.572319 15.5823 0.574797 15.612C0.539909 15.7502 0.494883 15.8857 0.440069 16.0174C0.348116 16.2805 0.276053 16.5501 0.22449 16.8238V16.8951L0.264922 17.0644L0.386178 17.5857C0.449206 17.8496 0.471912 18.1215 0.453542 18.3921V18.4901C0.43377 18.9202 0.453314 19.3511 0.511929 19.7777C0.514184 19.8059 0.514184 19.8342 0.511929 19.8624C0.485865 20.1004 0.423788 20.3332 0.327791 20.5529L0.246954 20.7846L0.139157 21.0475C0.0347589 21.2761 -0.0232207 21.5229 -0.0314941 21.7737C-0.0303795 22.0065 0.00595001 22.2378 0.0762886 22.4598L0.125684 22.6291C0.240472 23.1941 0.491671 23.7231 0.857741 24.1707C0.917825 24.2318 0.969199 24.3007 1.01044 24.3756C1.2208 24.7198 1.53507 24.9894 1.90866 25.1464C2.57042 25.4539 3.27657 25.6568 4.00153 25.7479C4.10447 25.7536 4.20668 25.7686 4.30694 25.7924C4.58669 25.8645 4.87679 25.8886 5.16473 25.8637L7.35192 25.7211C7.97016 25.6905 8.58993 25.7204 9.20227 25.8102C9.66694 25.9233 10.1523 25.9233 10.617 25.8102C10.7124 25.7858 10.8104 25.7723 10.9089 25.7701C11.0816 25.7883 11.2561 25.7777 11.4254 25.7389C11.6252 25.6967 11.8318 25.6967 12.0317 25.7389C12.5131 25.8765 13.0224 25.8873 13.5093 25.7701C13.7597 25.7219 14.0134 25.6921 14.2683 25.681H14.5422H14.5692H14.668H16.1411L16.2399 25.5295C16.5474 25.1437 16.7416 24.6812 16.8012 24.1929C16.8056 24.1411 16.8056 24.0889 16.8012 24.037C16.8012 23.9925 16.8012 23.9434 16.8012 23.8989C16.7973 23.642 16.7311 23.3899 16.6081 23.1638C16.5136 22.8826 16.4385 22.5953 16.3836 22.3039L16.2893 21.8851V21.8583C16.1361 21.36 16.0146 20.8525 15.9255 20.3391C15.8897 19.7823 15.8162 19.2286 15.7054 18.6817C15.697 18.573 15.7123 18.4638 15.7502 18.3616C15.7882 18.2593 15.848 18.1664 15.9255 18.0891C16.0063 17.9956 16.0872 17.8976 16.4465 18.0045C16.6306 18.0624 16.6306 18.0624 16.689 18.5748V18.6639C16.7923 19.6039 16.9001 20.0628 17.2594 20.192C17.3068 20.2226 17.3505 20.2585 17.3896 20.299C17.482 20.4057 17.5985 20.4891 17.7296 20.5425C17.8608 20.596 18.0028 20.6179 18.1441 20.6064C18.4899 20.5593 18.828 20.4679 19.1501 20.3346C19.6318 20.2391 20.124 20.2062 20.6142 20.2366H20.8927C21.3538 20.2715 21.8173 20.2596 22.2759 20.201C22.5639 20.1726 22.8535 20.1636 23.1427 20.1742C23.5202 20.1519 23.8764 19.9935 24.1442 19.7287C24.3238 19.3268 24.3383 18.8713 24.1847 18.4589L24.1308 18.2763L24.0679 18.0045C24.0424 17.9337 24.0243 17.8606 24.014 17.7862V17.7862C24.0162 17.7714 24.0162 17.7564 24.014 17.7416C24.0065 17.5563 23.9778 17.3725 23.9287 17.1936V17.1491L23.8478 16.8951C23.8218 16.845 23.8051 16.7907 23.7984 16.7347C23.7984 16.7347 23.7984 16.7347 23.7984 16.7347L23.8748 16.5699C23.9287 16.4585 23.9287 16.4585 23.9781 16.4228L24.1128 16.3025L24.2026 16.258L24.3778 16.2001L24.6428 16.1243L24.6787 16.0308C24.7436 16.0703 24.8052 16.115 24.8628 16.1644V16.1422L24.9751 16.2535V16.356V16.4496L25.011 16.6813L25.0604 17.0332L25.1278 17.403V17.5367V17.7416C25.1365 17.9679 25.1727 18.1923 25.2356 18.4099C25.2472 18.4476 25.2547 18.4865 25.2581 18.5258C25.2581 18.5525 25.2581 18.5748 25.2581 18.6104C25.2197 18.7392 25.2 18.8727 25.1997 19.0069V19.4257V20.1742V21.2034V21.7247L25.2401 22.3752C25.2401 22.3752 25.2401 22.7093 25.2401 22.7182C25.2401 22.7271 25.2086 22.7895 25.2086 22.7895C25.0173 23.3878 24.9159 24.0108 24.9077 24.6385V24.7588C24.9144 24.9386 24.9847 25.1104 25.1062 25.244C25.2277 25.3776 25.3928 25.4645 25.5724 25.4894H25.6128H25.6533C26.1497 25.4598 26.6144 25.2373 26.9467 24.8702L26.9961 24.8256L27.0365 24.732L27.1623 24.4335C27.3126 24.1328 27.3924 23.8023 27.3958 23.4667C27.4008 23.3161 27.4234 23.1666 27.4632 23.0212C27.5132 22.8352 27.5373 22.6434 27.535 22.4509C27.535 22.2593 27.535 22.0455 27.5126 21.8049C27.4901 21.5643 27.4856 21.2391 27.5126 20.945C27.5126 20.8336 27.5126 20.7311 27.5126 20.6287C27.5126 20.5262 27.5126 20.3524 27.5126 20.2544C27.5149 20.1055 27.5059 19.9565 27.4856 19.8089C27.4833 19.7659 27.4833 19.7227 27.4856 19.6797C27.4869 19.5868 27.4974 19.4943 27.5171 19.4035C27.5284 19.2698 27.5618 19.1388 27.6159 19.0158C27.6929 18.8409 27.7385 18.6539 27.7506 18.4634C27.7594 18.3551 27.7594 18.2464 27.7506 18.1381C27.8629 17.8886 27.8494 17.706 27.8225 17.5188Z" fill="var(--fill-0, #BBBBBB)"/>
<path id="Vector_19" d="M0.327801 7.17368C0.326512 7.18255 0.326512 7.19156 0.327801 7.20042L0.278406 7.36081C0.217773 7.51901 0.184372 7.68618 0.1796 7.85536C0.178784 7.96946 0.192361 8.08321 0.220019 8.19396L0.34577 8.55929L0.41763 8.79097C0.445394 8.9337 0.503569 9.06889 0.588281 9.1875V9.1875C0.588281 9.1875 0.588281 9.23205 0.588281 9.34789L0.520917 10.0028H0.907161C1.07433 10.0024 1.23741 9.95146 1.37463 9.85673C1.51184 9.762 1.61668 9.62801 1.67514 9.47264L1.81436 9.24542C1.92047 9.09964 1.99675 8.93466 2.03892 8.75979C2.06331 8.64644 2.12301 8.54357 2.20959 8.46574C2.30703 8.38122 2.38643 8.2782 2.44312 8.16277C2.54087 8.0305 2.6609 7.91595 2.79792 7.82417L3.24704 7.45883C3.36901 7.38276 3.50764 7.33692 3.65123 7.32517C3.84394 7.28887 4.03216 7.23211 4.21263 7.15587L4.44168 7.04894C4.61367 6.98294 4.76755 6.87762 4.89079 6.74152C4.96179 6.67875 5.0134 6.5973 5.03964 6.50661C5.06587 6.41593 5.06564 6.31972 5.03899 6.22916C4.91773 5.85936 4.39676 5.75244 4.23957 5.73016C4.09061 5.70926 3.93942 5.70926 3.79046 5.73016C3.62158 5.74394 3.45184 5.74394 3.28296 5.73016L2.38473 5.67669C2.17773 5.64683 1.96747 5.64683 1.76047 5.67669C1.63691 5.69506 1.51128 5.69506 1.38772 5.67669C1.1108 5.65277 0.832591 5.7052 0.583799 5.82818L0.476003 5.86827H0.431102L0.336779 5.89946C0.224506 5.96701 0.131705 6.06216 0.067322 6.17569L-0.0090332 6.3049L0.193073 6.92419L0.327801 7.17368Z" fill="var(--fill-0, #BBBBBB)"/>
<path id="Vector_20" d="M1.61232 31.9492H3.75009L4.67976 35.5447L5.86093 31.9492H7.84152L9.05861 35.5402L10.0017 31.9492H12.1305L10.0017 37.6743H8.03014L6.85796 34.2214L5.73068 37.6654H3.75009L1.61232 31.9492Z" fill="var(--fill-0, #BBBBBB)"/>
<path id="Vector_21" d="M12.1036 31.9492H14.2414L15.171 35.5447L16.3477 31.9492H18.3328L19.5499 35.5402L20.493 31.9492H22.6173L20.4885 37.6743H18.5214L17.3627 34.2214L16.2354 37.6654H14.2548L12.1036 31.9492Z" fill="var(--fill-0, #BBBBBB)"/>
<path id="Vector_22" d="M22.6173 31.9492H24.7596L25.6893 35.5447L26.8659 31.9492H28.8465L30.0681 35.558L31.0112 31.967H33.1355L31.0068 37.6921H29.0396L27.8675 34.2214L26.7357 37.6654H24.7596L22.6173 31.9492Z" fill="var(--fill-0, #BBBBBB)"/>
<path id="Vector_23" d="M32.8347 35.4727H35.1971V37.6736H32.8347V35.4727Z" fill="var(--fill-0, #BBBBBB)"/>
<path id="Vector_24" d="M40.8469 35.4323L42.9398 35.6595C42.8356 36.0723 42.6409 36.4572 42.3694 36.7867C42.0978 37.1137 41.7492 37.3692 41.3544 37.5308C40.8558 37.7249 40.3224 37.8159 39.787 37.7981C39.2713 37.8085 38.7564 37.7516 38.2556 37.6288C37.868 37.5273 37.5087 37.34 37.2046 37.0808C36.9166 36.8324 36.6814 36.5295 36.513 36.1897C36.3326 35.7676 36.2483 35.3112 36.266 34.8531C36.2479 34.3478 36.3511 33.8454 36.5669 33.3873C36.8782 32.8188 37.3711 32.369 37.9681 32.1086C38.4981 31.9153 39.061 31.826 39.6253 31.8458C40.3764 31.7976 41.125 31.9712 41.7766 32.3448C42.2847 32.6948 42.6533 33.2103 42.8185 33.8017L40.7436 34.0868C40.6937 33.8625 40.5667 33.6625 40.3843 33.521C40.1801 33.3865 39.9375 33.3209 39.6927 33.3338C39.5232 33.3266 39.3542 33.3577 39.1985 33.4249C39.0429 33.4921 38.9047 33.5935 38.7945 33.7215C38.541 34.0597 38.4198 34.4776 38.4532 34.8977C38.4241 35.283 38.5464 35.6646 38.7945 35.9625C38.9026 36.0822 39.0358 36.1769 39.1848 36.24C39.3338 36.3031 39.4949 36.3331 39.6568 36.3278C39.919 36.3363 40.1771 36.2613 40.3933 36.114C40.6151 35.9416 40.7743 35.7024 40.8469 35.4323V35.4323Z" fill="var(--fill-0, #BBBBBB)"/>
<path id="Vector_25" d="M43.7749 29.7656H45.9935V32.675C46.2492 32.4031 46.5538 32.1809 46.8917 32.02C47.2239 31.881 47.5823 31.8141 47.9427 31.824C48.2046 31.8093 48.4666 31.8503 48.7113 31.944C48.9561 32.0377 49.1778 32.1821 49.3619 32.3675C49.7432 32.8366 49.9281 33.4332 49.8783 34.0338V37.6694H47.6597V34.5195C47.6849 34.2498 47.6134 33.98 47.4576 33.7576C47.3864 33.6818 47.2991 33.6224 47.202 33.5839C47.105 33.5454 47.0006 33.5287 46.8962 33.5348C46.7713 33.5306 46.6471 33.5559 46.5339 33.6086C46.4207 33.6612 46.3217 33.7398 46.245 33.8378C46.0486 34.1634 45.9621 34.5427 45.998 34.9205V37.6694H43.7794L43.7749 29.7656Z" fill="var(--fill-0, #BBBBBB)"/>
<path id="Vector_26" d="M57.2754 37.6743H55.2184V36.7476C54.9676 37.078 54.6512 37.354 54.2888 37.5585C53.929 37.7291 53.5331 37.8116 53.1345 37.7991C52.8714 37.813 52.6082 37.7718 52.3621 37.6781C52.1161 37.5845 51.8926 37.4405 51.7064 37.2555C51.3242 36.7868 51.1392 36.1899 51.1899 35.5892V31.9492H53.4085V35.1125C53.3826 35.3836 53.4542 35.655 53.6106 35.8788C53.6811 35.956 53.7681 36.0165 53.8652 36.0558C53.9624 36.0951 54.0673 36.1123 54.172 36.106C54.2961 36.1088 54.4192 36.0829 54.5314 36.0303C54.6437 35.9777 54.742 35.8999 54.8187 35.8031C55.0185 35.4787 55.1068 35.0988 55.0702 34.7204V31.9492H57.2888L57.2754 37.6743Z" fill="var(--fill-0, #BBBBBB)"/>
<path id="Vector_27" d="M58.6182 31.9492H60.6841V32.8848C60.9376 32.5551 61.2552 32.2794 61.6183 32.074C61.9767 31.9038 62.3709 31.8214 62.768 31.8334C63.0316 31.8182 63.2954 31.8584 63.5423 31.9513C63.7892 32.0442 64.0135 32.1877 64.2007 32.3725C64.5843 32.8423 64.7709 33.4406 64.7217 34.0432V37.6788H62.503V34.5288C62.5282 34.2592 62.4567 33.9894 62.3009 33.767C62.2284 33.6915 62.1403 33.6325 62.0426 33.5941C61.9449 33.5556 61.84 33.5386 61.7351 33.5442C61.6108 33.5404 61.4874 33.5658 61.3749 33.6185C61.2625 33.6712 61.1643 33.7495 61.0883 33.8472C60.8886 34.1715 60.8003 34.5514 60.8368 34.9298V37.6788H58.6182V31.9492Z" fill="var(--fill-0, #BBBBBB)"/>
<path id="Vector_28" d="M66.1228 31.9501H68.3414V37.5059C68.3654 38.0112 68.314 38.5171 68.1887 39.0074C68.0834 39.3036 67.881 39.5562 67.6139 39.7247C67.2508 39.9291 66.8359 40.0251 66.4192 40.0009C65.8844 39.987 65.352 39.9228 64.8293 39.8094L65.1617 38.2143C65.2886 38.2436 65.4178 38.2615 65.5479 38.2678C65.633 38.276 65.7188 38.2627 65.7973 38.2292C65.8758 38.1957 65.9445 38.1431 65.997 38.0762C66.1163 37.8408 66.1661 37.5767 66.1408 37.3144L66.1228 31.9501ZM66.1228 29.7715H68.3414V31.2774H66.1228V29.7715Z" fill="var(--fill-0, #BBBBBB)"/>
<path id="Vector_29" d="M71.7414 33.8241L69.6261 33.6013C69.6795 33.2842 69.7971 32.981 69.9719 32.7102C70.1457 32.4823 70.368 32.2951 70.6231 32.1622C70.8871 32.0306 71.1706 31.9419 71.463 31.8994C71.8462 31.8388 72.2336 31.809 72.6217 31.8103C73.1599 31.8 73.6979 31.8373 74.2295 31.9216C74.6009 31.9761 74.9503 32.1301 75.24 32.3672C75.4478 32.5529 75.6026 32.7895 75.6891 33.0533C75.7935 33.3238 75.8498 33.6102 75.8553 33.8998V36.4483C75.8487 36.6603 75.8653 36.8724 75.9047 37.0809C75.9551 37.2839 76.0305 37.4799 76.1292 37.6646H74.0588C73.9939 37.5572 73.9398 37.4438 73.8971 37.326C73.8608 37.2067 73.8353 37.0844 73.8208 36.9606C73.5704 37.2085 73.2767 37.4093 72.954 37.5532C72.5151 37.7176 72.0488 37.7977 71.5797 37.7893C71.0136 37.8299 70.4522 37.6617 70.0033 37.3171C69.6887 37.0394 69.4968 36.6502 69.4691 36.2333C69.4413 35.8165 69.58 35.4056 69.8551 35.0894C70.2574 34.7415 70.7573 34.5238 71.2878 34.4656C72.1187 34.3008 72.6621 34.185 72.9091 34.1226C73.1561 34.0602 73.4211 33.9666 73.695 33.8597C73.7069 33.7582 73.6978 33.6553 73.6685 33.5573C73.6392 33.4592 73.5902 33.3681 73.5244 33.2894C73.3514 33.1622 73.1369 33.1035 72.9226 33.1246C72.6344 33.1072 72.3469 33.1688 72.0917 33.3028C71.9178 33.4312 71.794 33.6154 71.7414 33.8241V33.8241ZM73.6906 34.9646C73.3751 35.0741 73.0543 35.1677 72.7294 35.2453C72.4215 35.3028 72.1283 35.421 71.8672 35.5928C71.8087 35.6443 71.762 35.7074 71.73 35.778C71.698 35.8487 71.6814 35.9253 71.6814 36.0027C71.6814 36.0802 71.698 36.1568 71.73 36.2274C71.762 36.2981 71.8087 36.3612 71.8672 36.4126C72.0225 36.5302 72.2158 36.5872 72.4106 36.573C72.6523 36.5747 72.8904 36.5148 73.1022 36.3993C73.2936 36.2989 73.4501 36.1436 73.5513 35.9537C73.6502 35.7482 73.6964 35.5218 73.6861 35.2943L73.6906 34.9646Z" fill="var(--fill-0, #BBBBBB)"/>
<path id="Vector_30" d="M83.5799 35.3535H79.1427C79.1569 35.639 79.257 35.9136 79.4301 36.1421C79.5323 36.2636 79.661 36.3605 79.8065 36.4253C79.952 36.4902 80.1105 36.5213 80.2699 36.5164C80.4877 36.5176 80.7018 36.4607 80.8897 36.3515C81.0345 36.2578 81.1621 36.1403 81.267 36.004L83.4407 36.2045C83.1645 36.7226 82.7455 37.1521 82.2326 37.4431C81.5954 37.7257 80.8996 37.854 80.2026 37.8173C79.5873 37.8428 78.9739 37.7333 78.4061 37.4965C77.9487 37.2585 77.5699 36.8951 77.3148 36.4495C77.0126 35.9558 76.8569 35.3875 76.8657 34.81C76.8492 34.4089 76.9178 34.009 77.0672 33.636C77.2165 33.2629 77.4431 32.9252 77.7325 32.6447C78.3895 32.064 79.2522 31.7659 80.1307 31.816C80.8052 31.7834 81.4779 31.9102 82.0933 32.1858C82.5612 32.4219 82.9428 32.7974 83.1847 33.2595C83.4582 33.8305 83.5877 34.4589 83.5619 35.0906L83.5799 35.3535ZM81.3343 34.2931C81.3247 33.9657 81.2027 33.6514 80.9885 33.4021C80.8782 33.3044 80.7489 33.2302 80.6085 33.1841C80.4682 33.1379 80.3197 33.1208 80.1725 33.1337C80.0252 33.1467 79.8821 33.1894 79.7521 33.2593C79.6221 33.3292 79.5079 33.4248 79.4166 33.5402C79.2618 33.7624 79.173 34.0233 79.1606 34.2931H81.3343Z" fill="var(--fill-0, #BBBBBB)"/>
<path id="Vector_31" d="M84.595 35.4727H86.9573V37.6736H84.595V35.4727Z" fill="var(--fill-0, #BBBBBB)"/>
<path id="Vector_32" d="M92.6115 35.4342L94.7088 35.6614C94.603 36.0745 94.4067 36.4594 94.134 36.7886C93.865 37.1165 93.5176 37.3723 93.1235 37.5327C92.6247 37.7265 92.0914 37.8174 91.5561 37.8C91.0403 37.8109 90.5253 37.754 90.0246 37.6307C89.6366 37.5301 89.2771 37.3426 88.9737 37.0827C88.683 36.8368 88.4474 36.5332 88.282 36.1916C88.1001 35.7699 88.0142 35.3135 88.0305 34.855C88.0137 34.3493 88.1184 33.8469 88.3359 33.3892C88.4885 33.0975 88.6941 32.8362 88.9422 32.6184C89.1775 32.4072 89.446 32.2356 89.7371 32.1105C90.2657 31.9175 90.827 31.8283 91.3899 31.8477C92.1423 31.7997 92.8923 31.9733 93.5456 32.3467C94.0537 32.6959 94.4211 33.2118 94.5831 33.8036L92.5082 34.0887C92.4598 33.8649 92.3343 33.6648 92.1534 33.5229C91.9488 33.389 91.7065 33.3234 91.4617 33.3358C91.2923 33.3295 91.1236 33.3611 90.9682 33.4282C90.8127 33.4953 90.6744 33.5961 90.5635 33.7234C90.3149 34.0638 90.1956 34.4804 90.2267 34.8996C90.1987 35.2841 90.3191 35.6647 90.5635 35.9644C90.672 36.0836 90.8053 36.178 90.9542 36.2411C91.1031 36.3041 91.264 36.3344 91.4258 36.3297C91.6881 36.3388 91.9464 36.2638 92.1624 36.1159C92.3825 35.9428 92.54 35.7037 92.6115 35.4342V35.4342Z" fill="var(--fill-0, #BBBBBB)"/>
<path id="Vector_33" d="M95.432 34.8269C95.4207 34.4257 95.4948 34.0266 95.6496 33.6558C95.8044 33.285 96.0363 32.9507 96.3303 32.6749C97.0521 32.1024 97.9555 31.8029 98.8792 31.8298C99.803 31.8567 100.687 32.2084 101.374 32.822C101.866 33.4098 102.121 34.158 102.09 34.9218C102.058 35.6856 101.742 36.4106 101.203 36.9565C100.53 37.5478 99.6484 37.8506 98.751 37.7986C97.9432 37.8316 97.1492 37.5842 96.5054 37.0991C96.1613 36.8287 95.8853 36.4827 95.699 36.0884C95.5127 35.6941 95.4213 35.2622 95.432 34.8269V34.8269ZM97.6551 34.8269C97.6224 35.2277 97.7338 35.627 97.9695 35.9541C98.0678 36.0679 98.1897 36.1593 98.3269 36.222C98.4641 36.2846 98.6134 36.3171 98.7645 36.3171C98.9155 36.3171 99.0648 36.2846 99.202 36.222C99.3392 36.1593 99.4611 36.0679 99.5594 35.9541C99.7951 35.6187 99.9048 35.2119 99.8693 34.8046C99.9001 34.4109 99.7887 34.0192 99.5549 33.6997C99.4629 33.5839 99.3455 33.4905 99.2117 33.4264C99.0778 33.3623 98.931 33.3293 98.7824 33.3299C98.6283 33.3269 98.4754 33.3586 98.3354 33.4226C98.1954 33.4867 98.0718 33.5814 97.974 33.6997C97.734 34.0215 97.6206 34.4191 97.6551 34.818V34.8269Z" fill="var(--fill-0, #BBBBBB)"/>
<path id="Vector_34" d="M102.955 35.4727H105.317V37.6736H102.955V35.4727Z" fill="var(--fill-0, #BBBBBB)"/>
<path id="Vector_35" d="M106.66 29.7656H108.905V33.8289L110.558 31.9443H113.284L111.214 33.9492L113.405 37.6694H110.908L109.727 35.3838L108.901 36.1813V37.6694H106.655L106.66 29.7656Z" fill="var(--fill-0, #BBBBBB)"/>
<path id="Vector_36" d="M114.106 31.949H116.172V32.8846C116.307 32.5597 116.518 32.2711 116.787 32.0425C117.018 31.8849 117.294 31.8053 117.573 31.8153C117.948 31.8284 118.314 31.9292 118.642 32.1093L117.96 33.6865C117.765 33.5956 117.555 33.5413 117.34 33.5261C117.206 33.5207 117.073 33.5509 116.954 33.6136C116.836 33.6762 116.736 33.7691 116.666 33.8826C116.437 34.2123 116.325 34.836 116.325 35.7494V37.6607H114.106V31.949Z" fill="var(--fill-0, #BBBBBB)"/>
</g>
<defs>
<clipPath id="clip0_0_811">
<rect width="121" height="40" fill="white"/>
</clipPath>
</defs>
</svg>
