<svg preserveAspectRatio="none" width="100%" height="100%" overflow="visible" style="display: block;" viewBox="0 0 122 34" fill="none" xmlns="http://www.w3.org/2000/svg">
<g id="Client Logo / Exact" clip-path="url(#clip0_0_956)">
<path id="Vector" d="M43.1008 28.7762C43.1005 29.4026 43.2234 30.023 43.4626 30.6016C43.7018 31.1803 44.0526 31.7059 44.4949 32.1483C44.9371 32.5907 45.4621 32.9412 46.0397 33.1797C46.6173 33.4182 47.2362 33.54 47.8609 33.5382H58.4445V29.4371H48.073C47.9605 29.4373 47.849 29.4152 47.7451 29.3718C47.6412 29.3285 47.5469 29.2649 47.4678 29.1846C47.3886 29.1061 47.326 29.0124 47.2837 28.9091C47.2414 28.8058 47.2203 28.695 47.2217 28.5834V25.0325H58.0429V21.1186H47.2217V17.1791H58.4304V13.1348H43.1008V28.7762Z" fill="var(--fill-0, #BBBBBB)"/>
<path id="Vector_2" d="M96.4263 13.1348L91.2306 21.2349L86.2584 13.1348H81.207L89.1518 25.1403V33.541H93.3038V25.1431L101.551 13.1348H96.4263Z" fill="var(--fill-0, #BBBBBB)"/>
<path id="Vector_3" d="M111.397 12.7324C109.299 12.7324 107.249 13.356 105.506 14.5244C103.762 15.6927 102.403 17.3533 101.6 19.2962C100.798 21.2391 100.588 23.377 100.997 25.4396C101.406 27.5021 102.416 29.3967 103.899 30.8837C105.382 32.3708 107.271 33.3834 109.328 33.7937C111.385 34.204 113.517 33.9934 115.454 33.1886C117.392 32.3839 119.048 31.021 120.213 29.2725C121.378 27.5239 122 25.4682 122 23.3652C121.997 20.5462 120.879 17.8434 118.891 15.85C116.903 13.8566 114.208 12.7354 111.397 12.7324V12.7324ZM111.397 29.8487C110.118 29.8487 108.868 29.4685 107.805 28.756C106.741 28.0436 105.913 27.031 105.423 25.8463C104.934 24.6616 104.806 23.358 105.055 22.1004C105.305 20.8427 105.921 19.6874 106.825 18.7807C107.729 17.874 108.881 17.2565 110.135 17.0063C111.389 16.7562 112.689 16.8845 113.871 17.3753C115.052 17.866 116.062 18.697 116.773 19.7632C117.483 20.8294 117.862 22.0829 117.862 23.3652C117.861 25.0843 117.179 26.7325 115.967 27.9481C114.755 29.1636 113.111 29.8472 111.397 29.8487Z" fill="var(--fill-0, #BBBBBB)"/>
<path id="Vector_4" d="M8.03814 13.1348H3.07877e-05V28.7337C-0.00223653 29.3664 0.120747 29.9933 0.361858 30.5781C0.602969 31.1628 0.95741 31.6937 1.40464 32.1401C1.85187 32.5864 2.383 32.9394 2.96724 33.1784C3.55148 33.4174 4.17722 33.5378 4.80819 33.5325H8.03814C15.3324 33.5325 18.2201 28.2033 18.2201 23.1549C18.2116 18.5348 15.4173 13.1348 8.03814 13.1348ZM4.11808 17.1054H8.03814C12.3796 17.1054 14.0116 20.2252 14.0936 23.1521C14.1417 25.0552 13.5562 26.7342 12.4419 27.88C11.3756 28.9776 9.89636 29.5335 8.03814 29.5335H4.96941C4.74437 29.5335 4.52855 29.4439 4.36943 29.2843C4.2103 29.1247 4.12091 28.9083 4.12091 28.6826L4.11808 17.1054Z" fill="var(--fill-0, #BBBBBB)"/>
<path id="Vector_5" d="M72.1055 23.2741C72.0351 23.2033 71.9955 23.1075 71.9955 23.0075C71.9955 22.9075 72.0351 22.8116 72.1055 22.7409L81.0006 13.1348H75.706L68.9661 20.6534C68.3806 21.3183 68.0437 22.1664 68.0129 23.0529V23.189C68.04 24.0799 68.3853 24.9314 68.9859 25.5884L76.481 33.5297H81.8859L72.1055 23.2741Z" fill="var(--fill-0, #BBBBBB)"/>
<path id="Vector_6" d="M67.3285 13.1348H63.1821V33.5382H67.3285V13.1348Z" fill="var(--fill-0, #BBBBBB)"/>
<path id="Vector_7" d="M32.5881 2.68251C32.5887 3.21104 32.4329 3.72786 32.1405 4.16758C31.848 4.60731 31.4321 4.95019 30.9454 5.15283C30.4586 5.35548 29.9228 5.40879 29.4058 5.30603C28.8888 5.20326 28.4138 4.94903 28.0409 4.57551C27.668 4.20198 27.414 3.72594 27.3109 3.20761C27.2079 2.68927 27.2605 2.15195 27.4621 1.6636C27.6636 1.17525 28.0051 0.757823 28.4433 0.46413C28.8815 0.170437 29.3967 0.0136737 29.9238 0.0136734C30.2736 0.0133007 30.6199 0.082058 30.9432 0.216013C31.2664 0.349967 31.5601 0.546494 31.8076 0.794356C32.055 1.04222 32.2513 1.33655 32.3852 1.66054C32.5192 1.98452 32.5881 2.33179 32.5881 2.68251V2.68251Z" fill="var(--fill-0, #BBBBBB)"/>
<path id="Vector_8" d="M29.9379 11.1738C29.1725 11.1751 28.4143 11.0258 27.7063 10.7342L17.332 6.41185L17.9854 4.8321C18.2175 4.29502 18.6493 3.86984 19.189 3.64689C19.7288 3.42393 20.3339 3.42077 20.8759 3.63808L29.293 7.50378C29.7067 7.66647 30.1663 7.66647 30.5799 7.50378L38.997 3.62673C39.5398 3.41372 40.1437 3.41899 40.6827 3.64143C41.2217 3.86388 41.6544 4.28633 41.8904 4.82076L42.5438 6.40051L32.1695 10.7228C31.4605 11.0144 30.7014 11.1638 29.9351 11.1624V11.1624L29.9379 11.1738Z" fill="var(--fill-0, #BBBBBB)"/>
<path id="Vector_9" d="M29.9237 13.1309C29.3112 13.1297 28.7105 13.3 28.1893 13.6228C27.6681 13.9455 27.2471 14.4077 26.9738 14.9574L18.8564 33.5399H24.103L29.7823 18.1254C29.7925 18.0916 29.8133 18.062 29.8415 18.041C29.8698 18.02 29.9041 18.0086 29.9393 18.0086C29.9744 18.0086 30.0087 18.02 30.037 18.041C30.0652 18.062 30.086 18.0916 30.0962 18.1254L35.7755 33.5399H41.0164L32.8991 14.9574C32.6258 14.4077 32.2048 13.9455 31.6836 13.6228C31.1624 13.3 30.5617 13.1297 29.9492 13.1309H29.9237Z" fill="var(--fill-0, #BBBBBB)"/>
</g>
<defs>
<clipPath id="clip0_0_956">
<rect width="122" height="34" fill="white"/>
</clipPath>
</defs>
</svg>
