<svg preserveAspectRatio="none" width="100%" height="100%" overflow="visible" style="display: block;" viewBox="0 0 140 26" fill="none" xmlns="http://www.w3.org/2000/svg">
<g id="Client Logo / Exact" clip-path="url(#clip0_0_571)">
<path id="Vector" d="M33.0208 10.9153C35.2877 10.9153 35.984 12.9883 35.984 14.1313H29.8698C29.8543 13.7098 29.9247 13.2896 30.0768 12.8963C30.2289 12.503 30.4595 12.1449 30.7544 11.8439C31.0493 11.5429 31.4024 11.3053 31.7921 11.1456C32.1817 10.986 32.5998 10.9076 33.0208 10.9153V10.9153ZM39.535 20.5137C38.8881 20.7377 38.2284 20.9227 37.5595 21.0679C36.758 21.2305 35.9425 21.3134 35.1247 21.3153C32.4429 21.3153 30.3439 20.4247 29.9982 18.2922H41.4365C41.5928 17.4886 41.6722 16.6718 41.6735 15.8531C41.6735 11.0192 39.2683 6.57617 33.1393 6.57617C27.2127 6.57617 24.0173 11.2517 24.0173 16.4962C24.0173 22.5373 28.2301 25.9958 34.1221 25.9958C35.2957 26.0109 36.4676 25.9031 37.6188 25.6742C38.5976 25.4797 39.5529 25.1812 40.4685 24.7836L39.535 20.5137Z" fill="var(--fill-0, #BBBBBB)"/>
<path id="Vector_2" d="M121.825 10.9153C124.092 10.9153 124.789 12.9883 124.789 14.1313H118.664C118.65 13.7091 118.721 13.2884 118.874 12.8947C119.027 12.5011 119.258 12.1428 119.554 11.8418C119.85 11.5408 120.204 11.3034 120.594 11.1441C120.985 10.9848 121.404 10.9069 121.825 10.9153V10.9153ZM128.335 20.5137C127.688 20.7389 127.028 20.924 126.359 21.0679C125.559 21.2306 124.745 21.3135 123.929 21.3153C121.247 21.3153 119.148 20.4247 118.803 18.2922H130.226C130.38 17.4882 130.459 16.6717 130.463 15.8531C130.463 11.0192 128.058 6.57617 121.929 6.57617C115.973 6.57617 112.802 11.2517 112.802 16.4962C112.802 22.5373 117.02 25.9958 122.907 25.9958C124.082 26.0112 125.256 25.9034 126.408 25.6742C127.387 25.4797 128.343 25.1812 129.258 24.7836L128.335 20.5137Z" fill="var(--fill-0, #BBBBBB)"/>
<path id="Vector_3" d="M44.459 0.416016V25.5947H50.6621V0.416016H44.459Z" fill="var(--fill-0, #BBBBBB)"/>
<path id="Vector_4" d="M63.1227 21.3844C61.1077 21.3844 59.7841 19.4053 59.7841 16.3032C59.7841 13.8293 60.6681 11.2219 63.1424 11.2219C65.5279 11.2219 66.3724 13.9431 66.3724 16.2784C66.3724 19.3757 65.0883 21.3844 63.1227 21.3844ZM63.0387 25.9956C67.8788 25.9956 72.778 22.9429 72.778 16.1003C72.778 12.0432 70.3728 6.58594 63.34 6.58594C56.0997 6.58594 53.4624 11.87 53.4624 16.412C53.4575 22.1266 57.4085 25.9956 63.0387 25.9956V25.9956Z" fill="var(--fill-0, #BBBBBB)"/>
<path id="Vector_5" d="M75.4746 7.01579V25.5943H81.6778V7.01579H75.4746Z" fill="var(--fill-0, #BBBBBB)"/>
<path id="Vector_6" d="M75.4746 0.44529V5.27422H81.6778V0.44529H75.4746Z" fill="var(--fill-0, #BBBBBB)"/>
<path id="Vector_7" d="M86.5869 1.95928V7.01084H84.1966V11.6171H86.5771V19.2464C86.5771 23.4371 88.4884 25.9951 92.8493 25.9951C93.7174 25.9862 94.5838 25.9167 95.4422 25.7872C96.047 25.7058 96.6458 25.5852 97.235 25.4261C97.235 25.4261 97.1905 20.5724 97.1905 20.5526C96.4936 20.7113 95.7851 20.8139 95.0718 20.8594C94.7507 20.8817 94.4283 20.8393 94.1238 20.7348C93.8193 20.6303 93.5387 20.4657 93.2988 20.2508C93.062 19.9696 92.883 19.6444 92.772 19.2937C92.661 18.9431 92.6201 18.5739 92.6518 18.2074V11.6171H96.6621V7.01084H92.6518V1.27156L86.5869 1.95928Z" fill="var(--fill-0, #BBBBBB)"/>
<path id="Vector_8" d="M100.939 1.95928V7.01084H98.5586V11.6171H100.939V19.2464C100.939 23.4371 102.85 25.9951 107.211 25.9951C108.079 25.9862 108.946 25.9167 109.804 25.7872C110.409 25.7052 111.008 25.5846 111.597 25.4261C111.597 25.4261 111.553 20.5724 111.553 20.5526C110.854 20.7116 110.144 20.8142 109.429 20.8594C109.108 20.8822 108.787 20.84 108.483 20.7354C108.179 20.6309 107.9 20.4661 107.661 20.2508C107.424 19.9696 107.245 19.6444 107.134 19.2937C107.023 18.9431 106.982 18.5739 107.014 18.2074V11.6171H111.019V7.01084H107.014V1.27156L100.939 1.95928Z" fill="var(--fill-0, #BBBBBB)"/>
<path id="Vector_9" d="M133.13 22.5617C133.13 21.8816 133.331 21.2168 133.709 20.6513C134.086 20.0858 134.622 19.6451 135.249 19.3848C135.876 19.1245 136.566 19.0564 137.232 19.1891C137.898 19.3218 138.51 19.6493 138.99 20.1302C139.47 20.6111 139.797 21.2238 139.929 21.8908C140.062 22.5579 139.994 23.2493 139.734 23.8776C139.474 24.5059 139.034 25.0429 138.47 25.4208C137.905 25.7986 137.241 26.0003 136.563 26.0003C135.654 25.9938 134.785 25.6295 134.143 24.986C133.5 24.3425 133.137 23.4717 133.13 22.5617V22.5617Z" fill="var(--fill-0, #BBBBBB)"/>
<path id="Vector_10" d="M-0.000146496 25.624H7.01789C7.51177 25.624 8.06492 25.624 8.49953 25.5893C18.1055 25.0946 22.101 19.3949 22.101 12.8194C22.101 4.60134 16.5695 3.01982e-06 7.02282 3.01982e-06C4.55342 3.01982e-06 2.39518 0.0841068 -0.0198908 0.286961L-0.000146496 25.624ZM8.96871 20.607C8.71189 20.607 8.32667 20.6367 8.07973 20.6367H6.10421V5.16042C6.78576 5.10105 7.65005 5.06146 8.22789 5.06146C11.8332 5.06146 15.6756 7.40667 15.6756 12.8194C15.6805 18.4647 12.09 20.3498 8.96871 20.607Z" fill="var(--fill-0, #BBBBBB)"/>
</g>
<defs>
<clipPath id="clip0_0_571">
<rect width="140" height="26" fill="white"/>
</clipPath>
</defs>
</svg>
