<svg preserveAspectRatio="none" width="100%" height="100%" overflow="visible" style="display: block;" viewBox="0 0 105 26" fill="none" xmlns="http://www.w3.org/2000/svg">
<g id="Client Logo / Exact" clip-path="url(#clip0_0_394)">
<path id="Vector" d="M46.1496 3.53094C46.3861 3.52719 46.6207 3.57274 46.8382 3.66464C47.0557 3.75654 47.2513 3.89274 47.4122 4.06438C47.5731 4.23602 47.6958 4.43925 47.7722 4.6609C47.8486 4.88256 47.8771 5.11766 47.8559 5.35094V8.85094C47.8847 9.05708 47.8686 9.26693 47.8088 9.46643C47.749 9.66593 47.6469 9.85046 47.5092 10.0077C47.3715 10.1649 47.2015 10.2911 47.0106 10.3779C46.8196 10.4647 46.6121 10.5101 46.402 10.5109H44.9583V3.51094L46.1496 3.53094ZM41.3035 0.460938V25.2409H47.129C49.1482 25.2409 51.5107 24.1009 51.5107 20.6309V15.5309C51.5852 14.738 51.3631 13.9455 50.8866 13.304C50.4102 12.6625 49.7125 12.2166 48.9261 12.0509V11.9909C50.1073 11.6609 51.3895 11.1809 51.3895 8.40094V5.93094C51.3895 1.93094 49.5318 0.460938 46.1799 0.460938H41.3035ZM46.3011 13.5309C46.5246 13.5446 46.7431 13.6029 46.9434 13.7021C47.1437 13.8014 47.3218 13.9396 47.4669 14.1086C47.6121 14.2775 47.7213 14.4738 47.7882 14.6855C47.855 14.8972 47.878 15.1202 47.8559 15.3409V20.3409C47.8559 21.3409 47.4318 22.1409 46.3011 22.1409H44.9583V13.5109L46.3011 13.5309Z" fill="var(--fill-0, #BBBBBB)"/>
<path id="Vector_2" d="M77.1953 15.1709C77.064 12.9309 75.3174 12.3809 73.6919 12.1709V12.1109C75.2467 11.9609 76.9126 11.3909 76.9126 7.98094V5.74094C76.9126 2.61094 75.4184 0.460938 72.127 0.460938H66.7559V25.2409H70.4107V13.6809H71.4203C73.1164 13.6209 73.6717 14.2009 73.6717 15.6809C73.6717 18.5409 73.5001 22.4709 74.126 25.2909H77.8111C77.1953 21.8909 77.4073 18.4409 77.1953 15.1709ZM73.2578 9.25095C73.2578 10.4509 71.8746 10.5409 70.4107 10.5809V3.53094H71.602C72.3592 3.53094 73.2578 3.88094 73.2578 4.87094V9.25095Z" fill="var(--fill-0, #BBBBBB)"/>
<path id="Vector_3" d="M58.9716 21.97C57.7904 21.97 57.1543 20.65 57.1543 11.97C57.1543 5.22999 57.7904 3.79 58.9716 3.79C60.1529 3.79 60.8293 5.22999 60.8293 11.97C60.8596 20.68 60.2337 21.97 58.9716 21.97ZM58.9716 0.250007C56.0437 0.250007 53.5601 2.84 53.5601 11.77C53.5601 22.97 56.0437 25.47 58.9716 25.47C61.8995 25.47 64.4235 22.97 64.4235 11.77C64.4538 2.84 62.0005 0.250007 58.9716 0.250007Z" fill="var(--fill-0, #BBBBBB)"/>
<path id="Vector_4" d="M89.7549 14.7407C89.7549 13.8207 89.8255 12.8307 89.8255 11.7407C89.8255 2.81071 87.352 0.220703 84.3736 0.220703C81.3953 0.220703 78.9722 2.81071 78.9722 11.7407C78.9722 22.9407 81.4457 25.4407 84.3736 25.4407C86.5443 25.4407 88.4121 24.1007 89.3207 19.0307H85.9587C85.6558 21.4307 85.1308 21.9407 84.3736 21.9407C83.364 21.9407 82.7178 20.9407 82.5866 14.7107L89.7549 14.7407ZM82.5664 11.7407C82.5664 5.18071 83.2126 3.74071 84.3736 3.74071C85.5347 3.74071 86.2212 5.16071 86.2313 11.7407H82.5664Z" fill="var(--fill-0, #BBBBBB)"/>
<path id="Vector_5" d="M102.446 14.7407C102.496 13.8207 102.516 12.8307 102.516 11.7407C102.516 2.81071 100.043 0.220703 97.0645 0.220703C94.0862 0.220703 91.6631 2.81071 91.6631 11.7407C91.6631 22.9407 94.1366 25.4407 97.0645 25.4407C99.2352 25.4407 101.103 24.1007 102.012 19.0307H98.6395C98.3467 21.4307 97.8217 21.9407 97.0645 21.9407C96.0549 21.9407 95.4088 20.9407 95.2775 14.7107L102.446 14.7407ZM95.2472 11.7407C95.2472 5.18071 95.8934 3.74071 97.0645 3.74071C98.2357 3.74071 98.9121 5.16071 98.9323 11.7407H95.2472Z" fill="var(--fill-0, #BBBBBB)"/>
<path id="Vector_6" d="M6.01731 21.9291C4.83606 21.7491 3.58414 20.4291 3.58414 11.7191C3.58414 4.96906 4.52308 3.53906 5.71443 3.53906C6.72404 3.53906 7.60241 4.46907 7.80433 8.33907H11.1765C10.6414 1.98907 8.28895 0.0390625 5.71443 0.0390625C2.77645 0.0390625 0 2.62907 0 11.5591C0 22.7591 2.77645 25.2391 5.71443 25.2391H11.3279V12.7891H6.39087V15.9191H8.10722V21.9191L6.01731 21.9291Z" fill="var(--fill-0, #BBBBBB)"/>
<path id="Vector_7" d="M28.0269 0.459457L31.4394 11.6795H31.5L35.1144 0.439453H37.6486L38.7793 25.2395H35.1447L34.9327 10.2395H34.8721L31.9846 19.3295H31.1567L28.2995 10.4495H28.239L28.0572 25.2595H24.4226L25.5837 0.479462L28.0269 0.459457Z" fill="var(--fill-0, #BBBBBB)"/>
<path id="Vector_8" d="M19.4958 25.2409H15.841V16.0009L11.116 0.460938H14.7203L17.7491 11.7009H17.8097L20.6064 0.460938H24.2208L19.4958 16.0009V25.2409Z" fill="var(--fill-0, #BBBBBB)"/>
<path id="Vector_9" d="M102.93 23.77H103.173C103.354 23.77 103.415 23.77 103.415 23.93C103.415 24.09 103.334 24.11 103.122 24.11H102.93V23.77ZM102.93 24.26H103.112L103.415 24.76H103.627L103.314 24.26C103.393 24.2524 103.467 24.2151 103.519 24.1556C103.572 24.0961 103.6 24.019 103.597 23.94C103.597 23.72 103.465 23.62 103.203 23.62H102.759V24.76H102.93V24.26ZM103.132 25.16C103.332 25.16 103.527 25.1014 103.693 24.9915C103.859 24.8816 103.989 24.7254 104.065 24.5427C104.141 24.36 104.161 24.1589 104.122 23.9649C104.083 23.7709 103.987 23.5927 103.846 23.4529C103.705 23.313 103.525 23.2178 103.329 23.1792C103.133 23.1406 102.93 23.1604 102.746 23.2361C102.561 23.3118 102.404 23.44 102.293 23.6044C102.182 23.7689 102.123 23.9622 102.123 24.16C102.123 24.4252 102.229 24.6796 102.418 24.8671C102.608 25.0546 102.864 25.16 103.132 25.16V25.16ZM103.132 25.01C102.965 25.016 102.8 24.9724 102.659 24.8849C102.517 24.7975 102.405 24.67 102.337 24.519C102.269 24.3679 102.248 24.2002 102.277 24.0373C102.305 23.8743 102.383 23.7236 102.499 23.6046C102.614 23.4855 102.764 23.4034 102.927 23.3688C103.09 23.3343 103.26 23.3489 103.415 23.4107C103.57 23.4726 103.703 23.5789 103.796 23.7159C103.89 23.853 103.94 24.0146 103.94 24.18C103.944 24.2876 103.926 24.3948 103.887 24.4954C103.849 24.5959 103.79 24.6877 103.714 24.7652C103.639 24.8427 103.548 24.9043 103.448 24.9464C103.348 24.9884 103.241 25.0101 103.132 25.01V25.01Z" fill="var(--fill-0, #BBBBBB)"/>
</g>
<defs>
<clipPath id="clip0_0_394">
<rect width="105" height="26" fill="white"/>
</clipPath>
</defs>
</svg>
