<svg preserveAspectRatio="none" width="100%" height="100%" overflow="visible" style="display: block;" viewBox="0 0 156 28" fill="none" xmlns="http://www.w3.org/2000/svg">
<g id="Client Logo / Exact" clip-path="url(#clip0_0_606)">
<path id="Vector" d="M46.4443 3.07617L44.8631 8.19336H39.9477L41.5326 3.07617H35.9087C35.9087 3.07617 31.6616 16.8087 31.5776 17.0762H37.2015L39.0274 11.2037H43.9428L42.1169 17.0762H47.7371C47.7809 16.9316 51.9842 3.3436 52.0682 3.07617H46.4443Z" fill="var(--fill-0, #BBBBBB)"/>
<path id="Vector_2" d="M76.0097 4.59602L75.7541 4.78756L76.2799 3.0746H70.6597L66.3286 17.0746H71.9525L74.5672 8.62183C74.9324 7.44733 75.86 6.65591 76.8788 6.65591H78.3177C78.5124 6.64246 78.7076 6.67548 78.8868 6.7522C79.066 6.82892 79.224 6.9471 79.3475 7.0968C79.5119 7.33868 79.595 7.62578 79.5849 7.91714C79.5816 8.17479 79.5397 8.43053 79.4607 8.67605C79.4607 8.67605 77.1965 16.0049 76.8642 17.0746H82.4881L85.541 7.20521C85.674 6.76779 85.7441 6.31401 85.7492 5.85725C85.7674 5.21181 85.574 4.57787 85.1978 4.05033C84.5696 3.21192 83.4631 2.78911 81.9111 2.78911C79.7998 2.74672 77.7311 3.3805 76.0133 4.59602" fill="var(--fill-0, #BBBBBB)"/>
<path id="Vector_3" d="M53.7444 4.08281C53.7955 4.25266 54.5551 6.85101 54.6135 7.05338C55.1138 6.85101 57.2209 6.03429 59.0432 6.03429C60.7815 6.03429 61.7675 6.26918 62.1363 6.75705C62.2325 6.89983 62.2918 7.0638 62.309 7.23456C62.3262 7.40532 62.3008 7.57765 62.2349 7.7364L61.8698 8.87476L61.7675 8.83862C60.4186 8.38249 59.0075 8.13148 57.5825 8.09417C55.8579 8.05741 54.1608 8.52506 52.7036 9.43852C51.4557 10.259 50.5341 11.4826 50.0962 12.9006C49.731 14.1582 49.8077 15.2315 50.381 15.9976C51.0456 16.8866 52.3603 17.3564 54.1826 17.3564C56.0079 17.3322 57.8056 16.9116 59.4486 16.1241L59.664 16.0193L59.339 17.0746H64.9629L67.9574 7.3967C68.0748 7.02693 68.1375 6.64228 68.1436 6.25473C68.1529 5.67368 67.9709 5.10542 67.6251 4.63573C66.7194 3.42871 64.6342 2.78906 61.5922 2.78906C58.9243 2.84138 56.2783 3.27718 53.7371 4.08281M58.1923 10.9672C58.6233 10.9672 60.0913 10.9997 60.9897 11.4189L61.0773 11.4587L60.4455 13.4969H60.4017C59.4122 13.9396 58.3431 14.1817 57.2575 14.2088C56.3116 14.2088 55.647 13.9919 55.3402 13.58C55.2115 13.4062 55.1435 13.1956 55.1467 12.9801C55.1497 12.8366 55.1731 12.6943 55.2161 12.5573C55.5228 11.5635 56.6366 10.9672 58.1923 10.9672" fill="var(--fill-0, #BBBBBB)"/>
<path id="Vector_4" d="M97.9246 3.00391C97.8698 3.05089 92.5381 7.2068 92.5381 7.2068L93.8418 3.00391H88.2252C88.2252 3.00391 83.9124 16.9533 83.843 17.2171H89.4596C89.507 17.0726 91.2453 11.435 91.2453 11.435L95.3391 17.2171H101.339L96.1863 9.93886C96.1863 9.93886 104.253 3.35445 104.688 3.00391H97.9246Z" fill="var(--fill-0, #BBBBBB)"/>
<path id="Vector_5" d="M100.262 10.1082C99.6482 12.085 99.8965 13.9353 100.915 15.3157C102.084 16.8769 104.18 17.737 106.817 17.737C113.025 17.737 116.534 15.3627 118.181 10.0468C118.791 8.07 118.547 6.22334 117.528 4.83924C116.359 3.27806 114.263 2.41797 111.623 2.41797C105.911 2.41797 101.763 5.21869 100.262 10.1082M105.758 13.2233C105.268 12.5692 105.254 11.5284 105.71 10.0504C106.269 8.24347 107.536 6.10769 110.418 6.10769C111.513 6.10769 112.262 6.37512 112.678 6.93526C113.171 7.58937 113.186 8.63014 112.726 10.1118C112.17 11.9187 110.9 14.0545 108.022 14.0545C106.926 14.0545 106.178 13.7835 105.758 13.2233" fill="var(--fill-0, #BBBBBB)"/>
<path id="Vector_6" d="M119.003 10.1079C118.39 12.0847 118.638 13.935 119.657 15.3154C120.822 16.8766 122.921 17.7367 125.565 17.7367C131.774 17.7367 135.276 15.3624 136.923 10.0465C137.533 8.06969 137.288 6.21941 136.265 4.83893C135.1 3.27775 133.004 2.41404 130.36 2.41404C124.656 2.41404 120.5 5.21838 119.003 10.1079M129.159 6.10377C130.254 6.10377 131.003 6.37481 131.423 6.93495C131.912 7.58906 131.927 8.62984 131.467 10.1079C130.912 11.9148 129.641 14.0542 126.763 14.0542C125.668 14.0542 124.919 13.7832 124.503 13.223C124.01 12.5689 123.995 11.5281 124.452 10.0501C125.007 8.24316 126.278 6.10377 129.159 6.10377" fill="var(--fill-0, #BBBBBB)"/>
<path id="Vector_7" d="M149.613 2.88086L144.135 7.44874L145.541 2.88086H139.932C139.932 2.88086 135.55 17.0543 135.466 17.3362H141.086L142.912 11.4709L147.316 17.3362H153.484L147.959 9.99289C147.959 9.99289 155.58 3.24947 156.015 2.89892L149.613 2.88086Z" fill="var(--fill-0, #BBBBBB)"/>
<path id="Vector_8" d="M33.2575 0.682758L33.1808 -0.000256492H28.4078C28.9519 5.56505 25.0736 11.7736 19.5484 13.2553C19.5363 13.2599 19.5234 13.2617 19.5105 13.2603C19.4977 13.2589 19.4853 13.2545 19.4746 13.2474C19.4638 13.2403 19.455 13.2307 19.4487 13.2195C19.4425 13.2083 19.4391 13.1958 19.4388 13.183C19.4366 13.1691 19.4385 13.1549 19.4444 13.142C19.4502 13.1292 19.4597 13.1183 19.4717 13.1107V13.1107C24.0803 10.0643 26.5088 5.1603 26.0925 -0.00387386H21.4254C21.6299 4.5351 18.5514 8.66933 13.8442 10.3389C13.8113 10.3389 13.7456 10.3389 13.7346 10.2703C13.7342 10.2572 13.7373 10.2442 13.7438 10.2327C13.7502 10.2213 13.7597 10.2118 13.7711 10.2052V10.2052C17.171 7.89959 19.2197 4.47006 19.0992 -0.000256492H14.4321C14.3847 5.35183 9.52039 9.0777 -3.60056e-07 9.0777C0.13877 9.14997 0.270236 9.22586 0.401703 9.29814C6.60986 12.6482 9.82714 14.7189 14.3993 18.3942C15.1459 19.0075 16.0956 19.3255 17.0651 19.2868C29.4011 18.4339 33.8418 7.72251 33.2575 0.6683" fill="var(--fill-0, #BBBBBB)"/>
<path id="Vector_9" d="M61.7419 19.8833C61.7419 19.8833 61.2818 21.3469 61.1722 21.6902C60.5051 21.3186 59.746 21.1396 58.9811 21.1735C56.874 21.1735 55.1905 22.1998 54.6975 23.7863C54.5818 24.0674 54.538 24.3725 54.5698 24.6744C54.6017 24.9763 54.7082 25.2658 54.8801 25.5173C55.311 26.0774 56.1546 26.3774 57.3232 26.3774C58.201 26.3807 59.0705 26.2086 59.8795 25.8715C59.8576 25.9365 59.7517 26.2798 59.7517 26.2798H61.4169L63.5569 19.381L61.7419 19.8833ZM56.3701 24.9788C56.2725 24.8206 56.2148 24.6414 56.2021 24.4564C56.1894 24.2715 56.222 24.0862 56.297 23.9164V23.9164C56.6622 22.731 57.5423 22.1311 58.9117 22.1311C59.6083 22.0885 60.2984 22.2851 60.8655 22.6877L60.1972 24.8234C59.4615 25.2228 58.637 25.4351 57.7979 25.4414C57.0931 25.4414 56.6001 25.2824 56.3701 24.9788" fill="var(--fill-0, #BBBBBB)"/>
<path id="Vector_10" d="M65.5618 21.6334C65.5618 21.6045 65.6714 21.272 65.6714 21.272H64.0061L62.4504 26.2808H64.1084L64.9994 23.4367C65.2514 22.6236 66.0512 22.1574 67.1906 22.1574C67.6026 22.1427 68.014 22.1989 68.4066 22.3236L68.5308 22.3634L69.3086 21.3659L69.0128 21.2937C68.5557 21.1976 68.0886 21.1563 67.6215 21.1708C66.9091 21.1716 66.2054 21.3244 65.5582 21.6189" fill="var(--fill-0, #BBBBBB)"/>
<path id="Vector_11" d="M69.6738 20.1029C69.6545 20.1699 69.6514 20.2405 69.6647 20.3089C69.678 20.3773 69.7074 20.4417 69.7505 20.4968C69.866 20.6141 70.0068 20.7039 70.1624 20.7596C70.318 20.8153 70.4843 20.8354 70.6489 20.8184C71.1492 20.8184 71.7444 20.598 71.843 20.2258C71.8646 20.157 71.8686 20.084 71.8546 20.0133C71.8406 19.9427 71.809 19.8766 71.7627 19.821C71.6566 19.71 71.5268 19.6239 71.3827 19.5688C71.2387 19.5138 71.084 19.4913 70.9301 19.503C70.3202 19.503 69.7943 19.7524 69.6775 20.0993M69.5862 21.2774L68.0195 26.2862H69.6848L71.2405 21.2774H69.5862Z" fill="var(--fill-0, #BBBBBB)"/>
<path id="Vector_12" d="M77.8429 21.2812L74.4211 24.9782C74.2385 24.3928 73.289 21.2957 73.289 21.2957H71.5361L73.3949 26.3045H74.7206L79.709 21.2957L77.8429 21.2812Z" fill="var(--fill-0, #BBBBBB)"/>
<path id="Vector_13" d="M79.9976 20.1028C79.9768 20.1694 79.9727 20.24 79.9854 20.3086C79.9981 20.3772 80.0273 20.4417 80.0706 20.4967C80.1876 20.613 80.3291 20.7021 80.4851 20.7578C80.6411 20.8134 80.8076 20.8341 80.9726 20.8183C81.4693 20.8183 82.0499 20.5979 82.1668 20.2293C82.1869 20.159 82.1898 20.0849 82.1752 20.0132C82.1606 19.9416 82.1289 19.8744 82.0828 19.8173C81.9752 19.7075 81.8445 19.6224 81.7 19.5681C81.5554 19.5138 81.4006 19.4915 81.2465 19.5029C80.6403 19.5029 80.1144 19.7523 79.9976 20.0992M79.9063 21.2773L78.3433 26.2861H80.0085L81.5642 21.2773H79.9063Z" fill="var(--fill-0, #BBBBBB)"/>
<path id="Vector_14" d="M84.241 21.6509C84.241 21.6147 84.3542 21.2895 84.3542 21.2895H82.6926L81.137 26.2982H82.7913L83.675 23.4614C83.9379 22.623 84.8436 22.1387 86.151 22.1387C86.8813 22.1387 87.3707 22.2652 87.5606 22.5218C87.6316 22.6447 87.672 22.7825 87.6784 22.924C87.6847 23.0654 87.6569 23.2063 87.5971 23.3349L86.6768 26.2982H88.3421L89.2587 23.3494C89.3497 23.127 89.3833 22.8856 89.3566 22.6471C89.3298 22.4087 89.2434 22.1805 89.1053 21.9833C88.7036 21.4593 87.8491 21.1919 86.549 21.1919C85.7501 21.1814 84.9581 21.3403 84.2264 21.6581" fill="var(--fill-0, #BBBBBB)"/>
<path id="Vector_15" d="M89.6384 23.7968C89.5424 24.0794 89.499 24.377 89.5106 24.675C89.5233 24.9834 89.6303 25.2808 89.8174 25.5278C90.2483 26.0916 91.0919 26.3843 92.2605 26.3843C93.1378 26.3897 94.0072 26.2201 94.8168 25.8856C94.4991 26.6987 93.7614 27.0782 90.9458 27.1215H90.6719L91.0919 27.9961H91.2197C92.8813 27.9672 94.0974 27.7829 94.9373 27.4251C95.3137 27.285 95.6527 27.0613 95.9281 26.7713C96.2035 26.4812 96.408 26.1324 96.5258 25.7519L97.9209 21.2816H96.2519C96.2519 21.2816 96.1716 21.5562 96.1241 21.7008C95.4574 21.3281 94.698 21.1489 93.933 21.184C91.8222 21.184 90.1424 22.2103 89.653 23.7968M91.3256 24.9785C91.2283 24.82 91.1714 24.6405 91.16 24.4553C91.1485 24.2702 91.1828 24.0851 91.2599 23.9161V23.9161C91.625 22.7307 92.5015 22.1308 93.8709 22.1308C94.5666 22.086 95.2563 22.2829 95.821 22.6874C95.7626 22.8825 95.1966 24.7003 95.16 24.8231C94.4229 25.2226 93.5975 25.4361 92.7571 25.4447C92.0523 25.4447 91.5593 25.2821 91.3256 24.9785" fill="var(--fill-0, #BBBBBB)"/>
<path id="Vector_16" d="M100.751 23.7027C100.666 23.9627 100.628 24.2355 100.638 24.5086C100.656 24.8262 100.767 25.1315 100.959 25.3868C101.653 26.2902 103.15 26.3842 103.775 26.3842C104.929 26.3923 106.076 26.2079 107.167 25.8385L107.438 25.7554L106.707 24.9712L106.59 25.0073C105.779 25.2982 104.922 25.445 104.06 25.441C103.311 25.441 102.767 25.2675 102.486 24.9387C102.358 24.7858 102.284 24.5951 102.278 24.3966C102.272 24.3292 102.272 24.2616 102.278 24.1942H108.121L108.172 24.1147C108.25 23.9894 108.311 23.8546 108.354 23.7136C108.432 23.4808 108.467 23.2359 108.456 22.9908C108.44 22.6847 108.332 22.3904 108.146 22.1452C107.668 21.52 106.685 21.1875 105.323 21.1875C103.052 21.1875 101.215 22.1994 100.747 23.7172M105.13 22.1452C105.904 22.1452 106.448 22.3078 106.704 22.6114C106.813 22.7474 106.876 22.9146 106.883 23.0884C106.89 23.1593 106.89 23.2307 106.883 23.3016H102.606C103.081 22.5535 103.968 22.1452 105.144 22.1452" fill="var(--fill-0, #BBBBBB)"/>
<path id="Vector_17" d="M115.614 21.9148C115.296 21.5534 114.665 21.192 113.386 21.192C112.659 21.1769 111.938 21.329 111.279 21.6365C111.279 21.6076 111.385 21.2751 111.385 21.2751H109.72L108.164 26.2839H109.819L110.702 23.4471C110.976 22.5689 111.736 22.1244 112.956 22.1244C113.609 22.1244 114.029 22.24 114.201 22.4641C114.271 22.5957 114.309 22.7416 114.312 22.8902C114.315 23.0388 114.283 23.1861 114.219 23.3206L113.295 26.2839H114.957L115.837 23.4471C116.114 22.5689 116.87 22.1244 118.09 22.1244C118.758 22.1244 119.164 22.2328 119.335 22.4533C119.407 22.587 119.445 22.7354 119.449 22.8866C119.452 23.0378 119.419 23.1876 119.354 23.3242L118.433 26.2839H120.099L121.015 23.335C121.11 23.1055 121.146 22.8564 121.12 22.6099C121.094 22.3634 121.006 22.1271 120.865 21.922C120.482 21.4197 119.701 21.1776 118.484 21.1776C117.474 21.13 116.472 21.3816 115.607 21.9003" fill="var(--fill-0, #BBBBBB)"/>
<path id="Vector_18" d="M123.195 21.8244C122.783 22.0033 122.413 22.2649 122.108 22.5928C121.803 22.9206 121.57 23.3074 121.424 23.7289C121.324 23.997 121.291 24.2855 121.329 24.569C121.367 24.8525 121.475 25.1224 121.643 25.3551C122.155 26.02 123.228 26.385 124.671 26.385C125.716 26.3998 126.75 26.1772 127.695 25.7345C128.108 25.5521 128.479 25.2876 128.785 24.9576C129.091 24.6275 129.325 24.2388 129.473 23.8156C129.572 23.5505 129.604 23.2653 129.567 22.9851C129.529 22.7048 129.423 22.4378 129.258 22.2074C128.75 21.5497 127.673 21.1847 126.216 21.1847C125.173 21.1658 124.139 21.3846 123.195 21.8244M123.163 24.8925C123.06 24.738 122.998 24.5608 122.981 24.3767C122.965 24.1926 122.994 24.0073 123.068 23.8373C123.4 22.7531 124.481 22.1316 126.026 22.1316C126.873 22.1316 127.486 22.3267 127.757 22.6809C127.857 22.8314 127.918 23.0045 127.934 23.1844C127.95 23.3642 127.921 23.5452 127.848 23.7108C127.512 24.7949 126.387 25.4454 124.864 25.4454C124.039 25.4454 123.433 25.2467 123.163 24.8925Z" fill="var(--fill-0, #BBBBBB)"/>
<path id="Vector_19" d="M131.631 19.8836L131.197 21.2821H130.101L129.827 22.2109H130.923L130.024 25.1019C129.976 25.2464 129.954 25.398 129.959 25.5501C129.964 25.6994 130.017 25.8433 130.108 25.962C130.335 26.262 130.802 26.4029 131.569 26.4029C132.147 26.4084 132.723 26.3539 133.289 26.2403L133.377 26.2222L133.848 25.2248L133.464 25.3007C133.053 25.3919 132.633 25.4355 132.212 25.4308C131.766 25.4308 131.679 25.3621 131.664 25.3405C131.649 25.3188 131.628 25.2863 131.664 25.12C131.664 25.12 132.394 22.7891 132.573 22.229H134.764L135.049 21.3002H132.858C132.971 20.9388 133.446 19.4102 133.446 19.4102L131.631 19.8836Z" fill="var(--fill-0, #BBBBBB)"/>
<path id="Vector_20" d="M135.929 20.1047C135.91 20.1717 135.907 20.2423 135.92 20.3107C135.934 20.3792 135.963 20.4435 136.006 20.4986C136.123 20.6146 136.263 20.7036 136.419 20.7592C136.574 20.8149 136.74 20.8357 136.904 20.8203C137.405 20.8203 138 20.5998 138.099 20.2276C138.12 20.1588 138.124 20.0858 138.11 20.0152C138.096 19.9445 138.065 19.8784 138.018 19.8229C137.912 19.7121 137.782 19.626 137.638 19.571C137.494 19.516 137.34 19.4934 137.186 19.5048C136.576 19.5048 136.05 19.7542 135.933 20.1011M135.842 21.2792L134.275 26.288H135.94L137.496 21.2792H135.842Z" fill="var(--fill-0, #BBBBBB)"/>
<path id="Vector_21" d="M139.165 21.8239C138.754 22.0041 138.385 22.2658 138.08 22.5927C137.776 22.9197 137.542 23.305 137.394 23.7248V23.7248C137.292 23.9928 137.259 24.2814 137.297 24.5651C137.335 24.8488 137.444 25.1188 137.613 25.3511C138.124 26.016 139.198 26.381 140.64 26.381C141.686 26.3953 142.722 26.1728 143.668 25.7305C144.079 25.5469 144.449 25.2825 144.754 24.9533C145.059 24.624 145.293 24.2368 145.442 23.8152C145.543 23.5496 145.575 23.2637 145.538 22.9827C145.5 22.7017 145.394 22.4341 145.227 22.2034C144.719 21.5457 143.642 21.1807 142.185 21.1807C141.142 21.1635 140.109 21.3823 139.165 21.8203M141.995 22.1275C142.839 22.1275 143.456 22.3227 143.726 22.6768C143.824 22.8284 143.884 23.0013 143.9 23.1807C143.916 23.36 143.888 23.5406 143.817 23.7068C143.481 24.7909 142.357 25.4378 140.834 25.4378C140.009 25.4378 139.402 25.2426 139.128 24.8885C139.022 24.7446 138.962 24.5719 138.957 24.3934C138.949 24.2037 138.975 24.014 139.033 23.8332C139.369 22.7491 140.45 22.1275 141.995 22.1275" fill="var(--fill-0, #BBBBBB)"/>
<path id="Vector_22" d="M148.36 21.6502L148.477 21.2888H146.808L145.267 26.2904H146.925L147.805 23.4535C148.17 22.261 149.664 22.1309 150.281 22.1309C151.03 22.1309 151.501 22.2574 151.698 22.5139C151.768 22.6374 151.807 22.7753 151.813 22.9166C151.818 23.0579 151.79 23.1985 151.731 23.327C151.731 23.327 150.807 26.2904 150.807 26.2904H152.476L153.392 23.3415C153.483 23.1188 153.516 22.8773 153.489 22.6388C153.461 22.4003 153.374 22.1724 153.235 21.9755C152.834 21.4515 151.979 21.184 150.697 21.184C149.898 21.174 149.107 21.3329 148.375 21.6502" fill="var(--fill-0, #BBBBBB)"/>
<g id="Vector_23">
</g>
</g>
<defs>
<clipPath id="clip0_0_606">
<rect width="156" height="28" fill="white"/>
</clipPath>
</defs>
</svg>
