<svg preserveAspectRatio="none" width="100%" height="100%" overflow="visible" style="display: block;" viewBox="0 0 192 26" fill="none" xmlns="http://www.w3.org/2000/svg">
<g id="Client Logo / Exact" clip-path="url(#clip0_0_533)">
<path id="Vector" d="M73.7408 22.3325V14.8297H65.5522V22.3325H61.0449V3.67188H65.5522V10.7791H73.7408V3.67188H78.0225H78.2546V22.3325H73.7408Z" fill="var(--fill-0, #BBBBBB)"/>
<path id="Vector_2" d="M87.8197 22.3325V15.866L80.0323 3.67188H85.3521L90.0683 11.0603L94.7911 3.67188H99.703H100.121L92.3269 15.866V22.3325H87.8197Z" fill="var(--fill-0, #BBBBBB)"/>
<path id="Vector_3" d="M114.631 3.67188V17.3502C114.633 17.4746 114.61 17.5982 114.562 17.7135C114.515 17.8287 114.444 17.9334 114.355 18.021C114.265 18.1087 114.159 18.1776 114.041 18.2235C113.924 18.2695 113.799 18.2916 113.672 18.2885H106.432V3.67188H101.922V22.339H115.251C115.77 22.3803 116.292 22.3101 116.781 22.1333C117.269 21.9565 117.713 21.6772 118.082 21.3148C118.45 20.9524 118.735 20.5155 118.916 20.0342C119.096 19.553 119.169 19.0388 119.128 18.5272V3.67188H114.631Z" fill="var(--fill-0, #BBBBBB)"/>
<path id="Vector_4" d="M136.653 3.67038H123.32V22.3375H127.828V7.71112H135.064C135.19 7.70847 135.315 7.73079 135.431 7.77676C135.548 7.82273 135.654 7.89139 135.743 7.97866C135.832 8.06593 135.903 8.17 135.95 8.28468C135.998 8.39935 136.021 8.52228 136.019 8.64611V22.3375H140.523V7.48227C140.566 6.97074 140.495 6.45617 140.316 5.97435C140.136 5.49252 139.853 5.055 139.484 4.69222C139.116 4.32944 138.672 4.05011 138.183 3.87364C137.694 3.69718 137.172 3.62781 136.653 3.67038" fill="var(--fill-0, #BBBBBB)"/>
<path id="Vector_5" d="M157.405 8.67648V17.3235C157.408 17.45 157.386 17.576 157.339 17.6937C157.292 17.8114 157.221 17.9186 157.131 18.0087C157.041 18.0988 156.933 18.17 156.814 18.218C156.695 18.266 156.568 18.2898 156.44 18.2879H149.216V7.71207H156.413C156.544 7.70466 156.676 7.7244 156.799 7.77003C156.922 7.81566 157.034 7.88616 157.127 7.97699C157.221 8.06782 157.294 8.17699 157.343 8.29746C157.391 8.41792 157.413 8.54703 157.408 8.67648M158.045 3.67132H144.712V22.3385H158.045C158.563 22.3782 159.084 22.3069 159.572 22.1294C160.059 21.952 160.502 21.6725 160.87 21.3104C161.238 20.9482 161.521 20.5119 161.702 20.0314C161.882 19.5508 161.955 19.0375 161.915 18.5266V7.48322C161.956 6.97207 161.884 6.45824 161.704 5.9772C161.524 5.49615 161.24 5.05935 160.872 4.69694C160.504 4.33453 160.061 4.05515 159.573 3.87808C159.085 3.70101 158.563 3.63047 158.045 3.67132" fill="var(--fill-0, #BBBBBB)"/>
<path id="Vector_6" d="M178.594 7.71245V12.5313H170.399V8.6736C170.398 8.54913 170.422 8.42573 170.47 8.31053C170.518 8.19532 170.589 8.09061 170.678 8.00244C170.767 7.91427 170.873 7.84441 170.99 7.79688C171.106 7.74935 171.231 7.72509 171.358 7.72552L178.594 7.71245ZM169.779 3.67171C169.26 3.63029 168.738 3.70053 168.249 3.87757C167.76 4.05461 167.316 4.33422 166.948 4.69705C166.579 5.05988 166.295 5.49727 166.115 5.97897C165.935 6.46067 165.864 6.97517 165.905 7.48688V22.3389H170.406V16.5622H178.601V22.3389H183.108V3.67171H169.779Z" fill="var(--fill-0, #BBBBBB)"/>
<path id="Vector_7" d="M192 3.67188H187.49V22.3325H192V3.67188Z" fill="var(--fill-0, #BBBBBB)"/>
<path id="Vector_8" d="M16.3308 2.97826C16.8681 2.87691 17.223 2.87691 17.3523 3.00768C17.397 3.06484 17.4212 3.13496 17.4212 3.2071C17.4212 3.27925 17.397 3.34936 17.3523 3.40652C17.2847 3.51414 17.2093 3.61684 17.1268 3.71383C12.5731 9.00667 9.09074 16.8103 8.10572 19.0693C8.03275 19.2197 7.95647 19.3799 7.89677 19.4779C7.85928 19.5624 7.79952 19.6355 7.72371 19.6896C7.64789 19.7436 7.55877 19.7766 7.46562 19.7852C7.27143 19.7817 7.08291 19.7202 6.92501 19.6087C3.9003 17.7616 2.10271 15.4732 2.10271 12.9951C2.10271 8.51303 7.95647 4.65863 16.3308 2.97826M21.0039 6.34881C21.4384 5.36805 22.1746 3.27575 23.876 2.42576C24.4164 2.1804 25.0025 2.04794 25.5973 2.03672H25.8395C30.2042 2.0035 34.5505 2.59822 38.7409 3.80209C38.7708 3.80209 38.8537 3.84133 38.8802 3.85114C39.2119 3.96556 39.3976 4.1192 39.3976 4.31209C39.3932 4.39152 39.3721 4.46918 39.3356 4.54011C39.299 4.61103 39.2479 4.67367 39.1854 4.72401C39.1323 4.77632 39.056 4.8417 38.9499 4.9267C38.0975 5.63285 35.5172 7.47014 30.6584 9.3009C28.6961 10.0967 26.6734 10.7394 24.609 11.2232C23.2824 11.4978 18.4402 12.2236 21.0039 6.35534M43.6628 6.52535C43.701 6.441 43.7614 6.36831 43.8379 6.31484C43.9143 6.26136 44.0038 6.22907 44.0972 6.22131C44.2903 6.21919 44.4788 6.27883 44.6345 6.39131C47.6625 8.2286 49.4568 10.517 49.4568 13.0016C49.4568 17.487 43.603 21.3349 35.232 23.025C34.6947 23.1296 34.3398 23.1231 34.2138 22.9923C34.1676 22.9346 34.1424 22.8632 34.1424 22.7896C34.1424 22.7161 34.1676 22.6447 34.2138 22.587C34.2798 22.4793 34.3553 22.3776 34.4393 22.2829C38.9996 16.9901 42.4721 9.18648 43.4571 6.934C43.5301 6.78035 43.6064 6.62342 43.6628 6.52535M30.6352 19.6251C30.2074 20.6058 29.4678 22.7047 27.7664 23.5481C27.2256 23.7924 26.6398 23.9248 26.0451 23.9371C25.9157 23.9371 25.8262 23.9371 25.7864 23.9371C21.4279 23.9648 17.0885 23.3668 12.9048 22.162L12.7622 22.1096C12.4305 21.9952 12.2448 21.8383 12.2448 21.652C12.2487 21.572 12.2697 21.4937 12.3062 21.4222C12.3428 21.3506 12.3942 21.2875 12.4571 21.2368C12.5309 21.1653 12.6084 21.0977 12.6892 21.0341C13.5449 20.3312 16.1252 18.4906 20.9807 16.6599C22.9488 15.8695 24.9771 15.2333 27.0467 14.7572C28.3733 14.4826 33.2089 13.7568 30.6452 19.6251M25.7831 26C40.0245 26 51.5662 20.1808 51.5662 12.9984C51.5662 5.81593 40.0245 1.34277e-05 25.7831 1.34277e-05C11.5417 1.34277e-05 1.52588e-07 5.81919 1.52588e-07 12.9984C1.52588e-07 20.1775 11.5417 26 25.7831 26Z" fill="var(--fill-0, #BBBBBB)"/>
</g>
<defs>
<clipPath id="clip0_0_533">
<rect width="192" height="26" fill="white"/>
</clipPath>
</defs>
</svg>
