<svg preserveAspectRatio="none" width="100%" height="100%" overflow="visible" style="display: block;" viewBox="0 0 142 32" fill="none" xmlns="http://www.w3.org/2000/svg">
<g id="Client Logo / Exact" clip-path="url(#clip0_0_371)">
<path id="Vector" d="M37.6023 8.749L36.0549 1.55775L28.9 0L12.991 16L28.9 32L36.0549 30.4423L37.6023 23.2467L30.3956 16L37.6023 8.749Z" fill="var(--fill-0, #BBBBBB)"/>
<path id="Vector_2" d="M0 4.83542H2.44389V30.5447H11.991V1.45532H0V4.83542Z" fill="var(--fill-0, #BBBBBB)"/>
<path id="Vector_3" d="M36.0549 1.55859L37.6023 8.74984L30.3956 16.0008H12.991L36.0549 1.55859Z" fill="var(--fill-0, #BBBBBB)"/>
<path id="Vector_4" d="M28.9 32L12.991 16L37.6023 23.2467L36.0549 30.4423L28.9 32Z" fill="var(--fill-0, #BBBBBB)"/>
<path id="Vector_5" d="M124.121 11.3998H125.358V16.7431C125.358 17.5156 125.492 18.5996 125.492 18.5996H125.453C125.453 18.5996 124.863 17.49 124.328 16.7175L119.156 9.31286H116.91V22.6924H119.401V15.3006L119.268 13.4185H119.307C119.644 14.0663 120.018 14.6947 120.427 15.3006L125.625 22.6882H127.854V9.30859H124.125L124.121 11.3998Z" fill="var(--fill-0, #BBBBBB)"/>
<path id="Vector_6" d="M49.0675 12.7565C49.0675 11.9029 49.9295 11.3268 51.1881 11.3268C52.4467 11.3268 53.2441 11.984 53.2441 12.7437V13.1064H55.688V12.3638C55.688 9.93972 53.0372 9.08615 51.3174 9.08615C48.6106 9.08615 46.4167 10.5457 46.4167 12.8504C46.4167 17.084 53.507 16.6487 53.507 19.1027C53.507 20.144 52.3303 20.6903 51.214 20.6903C49.1666 20.6903 47.533 19.0899 47.533 19.0899L46.1279 20.8397C46.7844 21.5047 47.57 22.0312 48.4374 22.3877C49.3048 22.7441 50.2361 22.9231 51.1752 22.9138C54.257 22.9138 56.0586 21.1043 56.0586 18.9747C56.0586 14.4721 49.0675 15.0355 49.0675 12.7565Z" fill="var(--fill-0, #BBBBBB)"/>
<path id="Vector_7" d="M78.3985 9.08616C77.483 9.06429 76.5724 9.22537 75.7212 9.55976C74.8699 9.89415 74.0955 10.395 73.4442 11.0324C72.7928 11.6698 72.2779 12.4306 71.9301 13.2695C71.5824 14.1083 71.409 15.0079 71.4202 15.9146C71.3971 16.8368 71.5605 17.7541 71.9009 18.6127C72.2413 19.4714 72.7518 20.2538 73.4023 20.9141C74.0528 21.5744 74.8301 22.0991 75.6885 22.4574C76.5469 22.8157 77.4691 23.0003 78.4006 23.0003C79.3322 23.0003 80.2543 22.8157 81.1128 22.4574C81.9712 22.0991 82.7485 21.5744 83.399 20.9141C84.0495 20.2538 84.56 19.4714 84.9003 18.6127C85.2407 17.7541 85.4042 16.8368 85.381 15.9146C85.3917 15.0077 85.2178 14.108 84.8695 13.2691C84.5213 12.4303 84.006 11.6695 83.3543 11.0322C82.7026 10.3948 81.9279 9.89405 81.0764 9.55971C80.225 9.22536 79.3142 9.06431 78.3985 9.08616V9.08616ZM78.3985 20.6092C75.9632 20.6092 74.0021 18.5778 74.0021 15.9146C73.9836 15.3318 74.0836 14.7512 74.2962 14.2074C74.5087 13.6635 74.8294 13.1675 75.2393 12.7488C75.6492 12.33 76.1398 11.9971 76.6821 11.7697C77.2245 11.5424 77.8074 11.4252 78.3963 11.4252C78.9853 11.4252 79.5682 11.5424 80.1105 11.7697C80.6528 11.9971 81.1435 12.33 81.5534 12.7488C81.9632 13.1675 82.2839 13.6635 82.4965 14.2074C82.709 14.7512 82.809 15.3318 82.7906 15.9146C82.7906 18.582 80.8338 20.6135 78.3985 20.6135V20.6092Z" fill="var(--fill-0, #BBBBBB)"/>
<path id="Vector_8" d="M92.6307 9.30859H86.2085V11.3998H87.4412V22.6882H89.9239V18.4502H92.4324C95.0186 18.4502 97.2469 16.9437 97.2469 13.8538C97.2469 10.7639 95.1608 9.30859 92.6307 9.30859ZM92.3117 16.3419H89.9239V11.3998H92.3333C93.7083 11.3998 94.6953 12.2534 94.6953 13.8538C94.6953 15.4542 93.7212 16.3419 92.3117 16.3419Z" fill="var(--fill-0, #BBBBBB)"/>
<path id="Vector_9" d="M104.717 9.30859H98.29V11.3998H99.5228V22.6882H102.018V18.4502H104.531C107.117 18.4502 109.341 16.9437 109.341 13.8538C109.341 10.7639 107.242 9.30859 104.717 9.30859ZM104.393 16.3419H102.018V11.3998H104.428C105.798 11.3998 106.794 12.2534 106.794 13.8538C106.794 15.4542 105.798 16.3419 104.393 16.3419Z" fill="var(--fill-0, #BBBBBB)"/>
<path id="Vector_10" d="M65.7869 11.3998H67.0239V14.9848H61.0672V9.30859H57.3389V11.3998H58.5759V22.6924H61.0672V17.076H67.0239V22.6924H69.5109V9.30859H65.7869V11.3998Z" fill="var(--fill-0, #BBBBBB)"/>
<path id="Vector_11" d="M136.522 15.1894V17.2806H139.759V19.2182C139.342 19.6661 138.834 20.0219 138.269 20.2624C137.704 20.5028 137.094 20.6226 136.479 20.6138C134.061 20.6138 132.311 18.8256 132.311 15.9192C132.311 13.2091 134.035 11.3825 136.384 11.3825C137.974 11.3825 139.181 11.9715 139.668 13.4951H141.97C141.724 11.327 140.095 9.10352 136.323 9.10352C132.401 9.10352 129.72 12.091 129.72 15.932C129.72 20.2468 132.479 22.9227 136.017 22.9227C136.721 22.9464 137.422 22.8319 138.08 22.5857C138.739 22.3396 139.341 21.9667 139.854 21.4887V22.6965H142.009V15.1894H136.522Z" fill="var(--fill-0, #BBBBBB)"/>
<path id="Vector_12" d="M110.544 11.3998H111.781V22.6924H114.272V9.30859H110.544V11.3998Z" fill="var(--fill-0, #BBBBBB)"/>
</g>
<defs>
<clipPath id="clip0_0_371">
<rect width="142" height="32" fill="white"/>
</clipPath>
</defs>
</svg>
