<svg preserveAspectRatio="none" width="100%" height="100%" overflow="visible" style="display: block;" viewBox="0 0 156 30" fill="none" xmlns="http://www.w3.org/2000/svg">
<g id="Client Logo / Exact" clip-path="url(#clip0_0_878)">
<path id="Vector" d="M79.0889 3.35174C77.3916 3.34869 75.7217 3.77485 74.2381 4.58969C72.7546 5.40452 71.5069 6.58092 70.6135 8.00691V3.35174H62.3895C60.7617 3.34842 59.1578 3.73887 57.7179 4.48901C56.2779 5.23916 55.0457 6.32618 54.1288 7.65517V3.3569H48.004V23.0121H54.1288V18.7138C55.0467 20.0418 56.2791 21.1281 57.7188 21.8782C59.1585 22.6282 60.762 23.0192 62.3895 23.0172H70.6135V18.3621C71.5069 19.7881 72.7546 20.9644 74.2381 21.7793C75.7217 22.5941 77.3916 23.0203 79.0889 23.0172H89.9513V17.6948H79.5233C78.8078 17.6919 78.103 17.5222 77.4663 17.1996C76.8296 16.8769 76.2789 16.4104 75.8589 15.8379H89.9618V10.5259H75.8589C76.2805 9.95626 76.832 9.49275 77.4686 9.17285C78.1052 8.85295 78.8091 8.68565 79.5233 8.68449H80.2144H89.946V3.3569H79.0836L79.0889 3.35174ZM62.8188 17.6948C61.6081 17.6948 60.447 17.2196 59.591 16.3738C58.7349 15.5279 58.2539 14.3807 58.2539 13.1845C58.2539 11.9883 58.7349 10.8411 59.591 9.9952C60.447 9.14934 61.6081 8.67414 62.8188 8.67414H63.5098H70.2157C69.4829 10.0673 69.1004 11.6144 69.1004 13.1845C69.1004 14.7546 69.4829 16.3016 70.2157 17.6948H62.8188Z" fill="var(--fill-0, #BBBBBB)"/>
<path id="Vector_2" d="M148.127 3.68884L147.755 3.6009C144.657 2.87262 141.43 2.87262 138.332 3.6009L138.06 3.66814C135.68 4.29616 133.619 5.76954 132.27 7.80607V3.34746H121.408C119.19 3.34483 117.034 4.07492 115.284 5.42168C113.534 6.76843 112.29 8.65456 111.749 10.7802C111.205 8.65571 109.958 6.77181 108.207 5.4279C106.455 4.08398 104.298 3.35717 102.08 3.36297H91.2495V8.68539H100.976H101.667C102.267 8.68471 102.861 8.8009 103.415 9.02732C103.969 9.25375 104.472 9.58596 104.896 10.0049C105.32 10.4239 105.657 10.9214 105.886 11.4689C106.115 12.0164 106.232 12.6032 106.232 13.1957C106.217 14.3864 105.731 15.524 104.878 16.365C104.024 17.206 102.872 17.6837 101.667 17.6957H91.2495V17.8199V29.9544H97.3796V23.013H102.091C104.31 23.0185 106.466 22.2909 108.218 20.946C109.97 19.6011 111.217 17.716 111.76 15.5906C112.303 17.7151 113.548 19.5996 115.299 20.9444C117.05 22.2892 119.206 23.0173 121.423 23.013H132.286V18.5647C133.633 20.6023 135.695 22.0759 138.076 22.7026L138.348 22.7647C141.446 23.493 144.673 23.493 147.771 22.7647L148.142 22.6768C150.259 22.1186 152.13 20.8857 153.464 19.1695C154.799 17.4533 155.523 15.3497 155.524 13.1854V13.1854C155.523 11.0181 154.797 8.91181 153.46 7.19428C152.122 5.47675 150.247 4.24434 148.127 3.68884V3.68884ZM131.768 17.6905H121.821C121.209 17.711 120.599 17.6096 120.028 17.3923C119.456 17.175 118.934 16.8462 118.494 16.4256C118.054 16.005 117.703 15.5012 117.464 14.944C117.225 14.3869 117.102 13.788 117.102 13.1828C117.102 12.5776 117.225 11.9787 117.464 11.4215C117.703 10.8644 118.054 10.3606 118.494 9.93996C118.934 9.51936 119.456 9.1906 120.028 8.97329C120.599 8.75598 121.209 8.65454 121.821 8.67504H122.507H131.731C131.001 10.0671 130.62 11.6123 130.621 13.1802C130.628 14.7532 131.022 16.3009 131.768 17.6905ZM149.65 13.2113C149.65 14.1956 149.323 15.1528 148.721 15.9371C148.119 16.7215 147.275 17.29 146.315 17.5561C146.106 17.613 145.891 17.644 145.682 17.6854C144.818 17.8341 143.942 17.9085 143.065 17.9078C142.199 17.9074 141.336 17.833 140.484 17.6854L139.819 17.5509C138.863 17.2831 138.021 16.7146 137.421 15.9315C136.821 15.1484 136.496 14.1934 136.495 13.2113V13.2113C136.496 12.2262 136.822 11.2685 137.425 10.4841C138.028 9.69967 138.875 9.13157 139.835 8.86641C140.042 8.81462 140.251 8.77319 140.463 8.74228C141.327 8.58915 142.203 8.51298 143.08 8.51469C143.945 8.51481 144.809 8.58922 145.661 8.7371L146.326 8.87159C147.283 9.13782 148.126 9.70595 148.726 10.4894C149.326 11.2729 149.651 12.2287 149.65 13.2113Z" fill="var(--fill-0, #BBBBBB)"/>
<path id="Vector_3" d="M41.518 11.8762V11.7003C41.518 11.3848 41.4499 11.0693 41.3976 10.7589C41.3976 10.6917 41.3975 10.6244 41.3609 10.5624C41.3033 10.2469 41.2353 9.93653 41.1568 9.63653L41.1254 9.52273C41.0451 9.23308 40.9561 8.9486 40.8584 8.66929L40.827 8.57617L21.2065 23.5503C22.5004 24.4244 23.9443 25.0588 25.4678 25.4227H25.5097C25.7871 25.49 26.0751 25.5417 26.363 25.5882H26.4991C26.7661 25.6296 27.0225 25.6555 27.3105 25.6813L27.5041 25.7072C27.8392 25.7331 28.1847 25.7434 28.525 25.7434C31.969 25.7284 35.2674 24.3689 37.7012 21.9612C40.135 19.5535 41.507 16.2929 41.518 12.89C41.518 12.5486 41.518 12.2124 41.518 11.8762Z" fill="var(--fill-0, #BBBBBB)"/>
<path id="Vector_4" d="M21.0338 5.13182L22.9602 3.93183L29.2421 0.0214844H29.2107H28.4883C28.1166 0.0214844 27.7449 0.0214825 27.3785 0.0680342L26.9701 0.114584C26.745 0.140446 26.5252 0.166299 26.3105 0.202506L26.1273 0.238717L22.4891 3.49217L21.0338 4.79045L16.5003 7.8163L1.50757 17.8249C1.60703 18.068 1.71696 18.306 1.83213 18.5387L1.88453 18.6422C1.97527 18.818 2.06945 18.9905 2.16717 19.1594L2.22999 19.2732L16.0816 8.84044L21.0338 5.13182Z" fill="var(--fill-0, #BBBBBB)"/>
<path id="Vector_5" d="M21.0338 10.4285L25.4572 7.54746L34.6811 1.54229L34.6131 1.50608C34.3985 1.39229 34.1839 1.28884 33.9588 1.1854L33.7441 1.08712C33.5138 0.988842 33.2887 0.89574 33.0531 0.812981L32.9903 0.787109L25.1379 6.88539L21.0443 10.0612L15.4796 13.744L3.82666 21.4561C3.99767 21.6526 4.17216 21.844 4.35015 22.0302C4.35015 22.0302 4.38154 22.0561 4.39201 22.0716C4.55952 22.2371 4.73227 22.3923 4.9155 22.5475L4.97307 22.594L15.5214 14.5768L21.0338 10.4285Z" fill="var(--fill-0, #BBBBBB)"/>
<path id="Vector_6" d="M16.0764 16.8729L21.0338 13.0764L26.2164 9.66777L36.6338 2.81948L36.5606 2.76259C36.3826 2.62294 36.1993 2.48846 36.0371 2.36432L35.9167 2.27639C35.702 2.13156 35.4874 1.9919 35.2623 1.85742L26.0384 8.92294L21.0809 12.7195L15.8984 16.1281L5.48096 22.9816L5.55425 23.0385C5.73747 23.1833 5.92591 23.3178 6.1196 23.4522L6.19814 23.5143C6.42847 23.6695 6.65879 23.8143 6.89959 23.9592L16.0764 16.8729Z" fill="var(--fill-0, #BBBBBB)"/>
<path id="Vector_7" d="M16.9402 18.8943L21.0338 15.7184L26.5985 12.0356L38.2409 4.32875C38.063 4.12703 37.8745 3.93565 37.6861 3.74945C37.5186 3.58393 37.3458 3.42875 37.1626 3.27358L37.0788 3.20117L26.5305 11.2184L21.0548 15.3563L16.6313 18.2322L7.38647 24.227C7.62728 24.3563 7.87327 24.4753 8.12455 24.5891L8.27114 24.6512C8.52765 24.765 8.79464 24.8736 9.06162 24.9719L16.9402 18.8943Z" fill="var(--fill-0, #BBBBBB)"/>
<path id="Vector_8" d="M15.4744 11.9849L21.0339 7.7797L24.3685 5.64349L32.2942 0.553838H32.2209C31.9434 0.476252 31.666 0.403836 31.3833 0.341767L31.221 0.305557C30.9278 0.243488 30.6295 0.19177 30.3258 0.150391H30.2264L23.9445 5.12107L21.0182 7.44866L15.5582 11.0693L2.47095 19.759L2.52852 19.8418C2.64369 20.0211 2.76406 20.1935 2.8897 20.359C2.8897 20.3952 2.93683 20.4314 2.96824 20.4676C3.11481 20.6745 3.27187 20.8762 3.43415 21.0728L15.4744 11.9849Z" fill="var(--fill-0, #BBBBBB)"/>
<path id="Vector_9" d="M21.0337 18.3676L26.4937 14.7469L39.5495 6.06242L39.4867 5.95896L39.1727 5.49863L39.0313 5.30207C38.9214 5.15207 38.8062 5.00725 38.691 4.86759C38.6596 4.82621 38.6282 4.77966 38.5916 4.73828L26.5932 13.8055L21.0337 18.021L17.6991 20.1676L9.77344 25.2521L9.86769 25.2831C10.1504 25.3607 10.4331 25.4383 10.7262 25.5003H10.8152C11.1345 25.5676 11.4591 25.6245 11.7889 25.6659H11.836L18.1179 20.69L21.0337 18.3676Z" fill="var(--fill-0, #BBBBBB)"/>
<path id="Vector_10" d="M21.0338 21.0103L25.5673 17.9845L40.56 7.98103V7.95C40.4658 7.71724 40.361 7.48966 40.2511 7.26208L40.1622 7.09655C40.0784 6.92586 39.9842 6.75517 39.8899 6.57931C39.8745 6.54721 39.857 6.51612 39.8376 6.48621L25.9913 16.9086L21.0495 20.6276L19.1178 21.8276L12.836 25.7483C13.0768 25.7483 13.3228 25.7483 13.5636 25.7483C13.9458 25.7483 14.3227 25.7483 14.6944 25.6965C14.8043 25.6965 14.9142 25.6707 15.0189 25.6603C15.2754 25.6293 15.5424 25.5983 15.7832 25.5569L15.935 25.5259L19.5733 22.2724L21.0338 21.0103Z" fill="var(--fill-0, #BBBBBB)"/>
<path id="Vector_11" d="M15.7045 0.171582H15.6104C15.3329 0.125031 15.0502 0.0991674 14.7675 0.0733053H14.6C14.2597 0.0474432 13.9195 0.0371104 13.553 0.0371104C11.8394 0.036431 10.1425 0.369326 8.55915 1.01679C6.97581 1.66425 5.53709 2.61358 4.32516 3.81057C3.11323 5.00755 2.15185 6.42872 1.49593 7.9929C0.840016 9.55708 0.502441 11.2336 0.502441 12.9268C0.502441 13.2733 0.502424 13.6147 0.549538 13.9612C0.549538 14.0181 0.549538 14.0699 0.549538 14.1216C0.580947 14.4526 0.622826 14.7733 0.68041 15.094C0.68041 15.1406 0.68041 15.1923 0.68041 15.244C0.737994 15.575 0.8113 15.9009 0.895059 16.2216C0.984052 16.5526 1.08873 16.8837 1.2039 17.2095C1.2039 17.2095 1.2039 17.2095 1.2039 17.2354L20.8191 2.23539C19.2842 1.19215 17.5397 0.488207 15.7045 0.171582V0.171582Z" fill="var(--fill-0, #BBBBBB)"/>
</g>
<defs>
<clipPath id="clip0_0_878">
<rect width="156" height="30" fill="white"/>
</clipPath>
</defs>
</svg>
