<svg preserveAspectRatio="none" width="100%" height="100%" overflow="visible" style="display: block;" viewBox="0 0 113 48" fill="none" xmlns="http://www.w3.org/2000/svg">
<g id="Client Logo / Exact" clip-path="url(#clip0_0_155)">
<path id="Vector" d="M42.0168 44.4277H41.1435L39.852 45.9396V44.4277H39.1386V47.939H39.852V46.3053H39.8643L41.1435 47.939H42.0783L40.5531 46.0859L42.0168 44.4277Z" fill="var(--fill-0, #BBBBBB)"/>
<path id="Vector_2" d="M45.3869 44.8664C45.2353 44.7041 45.0509 44.5753 44.8457 44.4884C44.6095 44.4025 44.3593 44.3612 44.1077 44.3665C43.8797 44.3575 43.6522 44.3963 43.4403 44.4804C43.2283 44.5644 43.0367 44.6918 42.8778 44.8542C42.5592 45.2178 42.396 45.6901 42.4226 46.1709C42.3969 46.6533 42.555 47.1276 42.8654 47.4999C43.0307 47.6718 43.2319 47.8057 43.4551 47.8921C43.6783 47.9785 43.9179 48.0152 44.1569 47.9997C44.4099 48.0093 44.6619 47.9635 44.8949 47.8656C45.1086 47.7878 45.299 47.6578 45.4484 47.4877C45.5988 47.3221 45.712 47.1268 45.7805 46.9146C45.856 46.6739 45.8933 46.423 45.8912 46.1709C45.8943 45.9228 45.8569 45.6757 45.7805 45.4394C45.6932 45.2221 45.5589 45.0265 45.3869 44.8664V44.8664ZM45.0548 46.6464C45.016 46.7934 44.9537 46.9334 44.8703 47.0609C44.7896 47.1754 44.6846 47.2711 44.5628 47.3414C44.422 47.413 44.266 47.4504 44.1077 47.4504C43.9495 47.4504 43.7934 47.413 43.6526 47.3414C43.5308 47.2711 43.4259 47.1754 43.3451 47.0609C43.258 46.9354 43.1955 46.7948 43.1606 46.6464C43.1412 46.4885 43.1412 46.3288 43.1606 46.1709C43.156 46.0142 43.1767 45.8578 43.2221 45.7076C43.2593 45.5658 43.3173 45.4303 43.3943 45.3053C43.4728 45.1844 43.5835 45.0874 43.7141 45.0249C43.8503 44.9523 44.0024 44.9143 44.1569 44.9143C44.3115 44.9143 44.4636 44.9523 44.5997 45.0249C44.7304 45.0874 44.8411 45.1844 44.9196 45.3053C44.9966 45.4303 45.0546 45.5658 45.0917 45.7076C45.1311 45.859 45.1518 46.0146 45.1532 46.1709C45.1341 46.3319 45.1012 46.491 45.0548 46.6464Z" fill="var(--fill-0, #BBBBBB)"/>
<path id="Vector_3" d="M48.3636 46.3167C48.3375 46.283 48.304 46.2556 48.2656 46.2366C48.2273 46.2176 48.1851 46.2074 48.1422 46.207V46.207C48.3518 46.1845 48.5451 46.0843 48.6834 45.9266C48.8161 45.7794 48.8865 45.5873 48.8802 45.3901C48.8869 45.2022 48.84 45.0163 48.7449 44.8536C48.6532 44.7255 48.5246 44.6278 48.3759 44.5733C48.2188 44.5111 48.0527 44.474 47.8839 44.4635C47.6586 44.4497 47.4327 44.4497 47.2074 44.4635H46.4325V47.9748H47.2074V46.5118H47.4411C47.5504 46.5046 47.6589 46.5347 47.7486 46.5971C47.8375 46.6698 47.9018 46.7676 47.9331 46.8775L48.3636 47.9748H49.1508L48.585 46.5971C48.5299 46.4905 48.4548 46.3953 48.3636 46.3167V46.3167ZM48.0684 45.6949C48.0262 45.7589 47.9665 45.8096 47.8962 45.8412C47.8244 45.88 47.7442 45.9009 47.6625 45.9022H47.3796H47.2074V44.939H47.7363H47.9577C48.0279 44.9706 48.0877 45.0213 48.1299 45.0853C48.1779 45.1572 48.1995 45.2433 48.1914 45.3292C48.2003 45.3954 48.1939 45.4627 48.1726 45.5261C48.1513 45.5895 48.1157 45.6472 48.0684 45.6949V45.6949Z" fill="var(--fill-0, #BBBBBB)"/>
<path id="Vector_4" d="M50.3193 46.4028H51.5861V45.842H50.3193V44.9764H51.6968V44.4277H49.6059V47.939H51.7092V47.3904H50.3193V46.4028Z" fill="var(--fill-0, #BBBBBB)"/>
<path id="Vector_5" d="M53.4557 44.4277L52.1274 47.939H52.8654L53.1729 47.1344H54.5874L54.8949 47.939H55.6821L54.2922 44.4277H53.4557ZM53.3205 46.5857L53.8371 45.1349L54.3413 46.5857H53.3205Z" fill="var(--fill-0, #BBBBBB)"/>
<path id="Vector_6" d="M57.527 47.939H58.2281V46.4028H59.4335V45.842H58.2281V44.9764H59.495V44.4277H57.527V47.939Z" fill="var(--fill-0, #BBBBBB)"/>
<path id="Vector_7" d="M60.7742 46.4028H62.0411V45.842H60.7742V44.9764H62.1641V44.4277H60.0608V47.939H62.1641V47.3904H60.7742V46.4028Z" fill="var(--fill-0, #BBBBBB)"/>
<path id="Vector_8" d="M65.3129 44.7935C65.1199 44.6575 64.903 44.5582 64.6734 44.5009C64.4058 44.4502 64.1339 44.4256 63.8616 44.4277H62.8898V47.939H63.8616C64.1339 47.9412 64.4058 47.9167 64.6734 47.8659C64.903 47.8086 65.1199 47.7094 65.3129 47.5733C65.5043 47.4348 65.6567 47.2501 65.7557 47.0368C65.9689 46.4875 65.9689 45.8793 65.7557 45.33C65.6567 45.1167 65.5043 44.932 65.3129 44.7935ZM65.0792 46.6833C65.0193 46.8286 64.9316 46.9611 64.821 47.0734C64.7092 47.1731 64.58 47.2516 64.4397 47.3051C64.2996 47.3637 64.1488 47.3928 63.9968 47.3904H63.6032V44.952H63.9968C64.1488 44.9497 64.2996 44.9787 64.4397 45.0373C64.58 45.0908 64.7092 45.1693 64.821 45.269C64.9316 45.3813 65.0193 45.5138 65.0792 45.6591C65.2105 45.9797 65.2105 46.3384 65.0792 46.6589V46.6833Z" fill="var(--fill-0, #BBBBBB)"/>
<path id="Vector_9" d="M67.2809 46.4028H68.5478V45.842H67.2809V44.9764H68.6585V44.4277H66.5675V47.939H68.6708V47.3904H67.2809V46.4028Z" fill="var(--fill-0, #BBBBBB)"/>
<path id="Vector_10" d="M71.2661 46.3171C71.24 46.2834 71.2065 46.256 71.1682 46.237C71.1298 46.218 71.0876 46.2079 71.0447 46.2074C71.251 46.1855 71.4407 46.0849 71.5736 45.927C71.7063 45.7798 71.7767 45.5877 71.7704 45.3905C71.7808 45.2038 71.7382 45.018 71.6474 44.8541C71.5502 44.7313 71.4233 44.6348 71.2784 44.5737C71.1174 44.5103 70.9471 44.4732 70.7741 44.4639C70.5488 44.4495 70.3228 44.4495 70.0976 44.4639H69.3473V47.9752H70.0607V46.5122H70.2944C70.4035 46.5069 70.5114 46.5368 70.6019 46.5975C70.6828 46.6769 70.7458 46.7725 70.7864 46.8779L71.2046 47.9752H72.0041L71.4383 46.5975C71.398 46.4947 71.3397 46.3998 71.2661 46.3171V46.3171ZM70.9709 45.6953C70.9287 45.7593 70.8689 45.8101 70.7987 45.8416C70.7269 45.8804 70.6467 45.9013 70.565 45.9026H70.2821H70.0484V44.9394H70.5773H70.811C70.8813 44.971 70.941 45.0217 70.9832 45.0857C71.0254 45.1601 71.0466 45.2443 71.0447 45.3296C71.0629 45.4563 71.0369 45.5853 70.9709 45.6953V45.6953Z" fill="var(--fill-0, #BBBBBB)"/>
<path id="Vector_11" d="M73.517 44.4277L72.1394 47.939H72.8774L73.1849 47.1344H74.624L74.9315 47.939H75.7187L74.3288 44.4277H73.517ZM73.394 46.5857L73.8983 45.1349L74.4149 46.5857H73.394Z" fill="var(--fill-0, #BBBBBB)"/>
<path id="Vector_12" d="M75.3989 44.9764H76.4198V47.939H77.1209V44.9764H78.1418V44.4277H75.3989V44.9764Z" fill="var(--fill-0, #BBBBBB)"/>
<path id="Vector_13" d="M79.2488 44.416H78.5354V47.9395H79.2488V44.416Z" fill="var(--fill-0, #BBBBBB)"/>
<path id="Vector_14" d="M82.8774 44.8663C82.721 44.704 82.5326 44.5753 82.3239 44.4884C82.0923 44.4014 81.8458 44.36 81.5982 44.3665C81.3603 44.3518 81.122 44.3878 80.8992 44.4719C80.6765 44.556 80.4745 44.6863 80.3067 44.8541C80.0125 45.2334 79.8529 45.6985 79.8529 46.177C79.8529 46.6555 80.0125 47.1205 80.3067 47.4998C80.4703 47.6739 80.6713 47.8092 80.8949 47.8957C81.1185 47.9822 81.3589 48.0178 81.5982 47.9997C81.851 48.007 82.1024 47.9613 82.3362 47.8656C82.5461 47.7873 82.7324 47.6572 82.8774 47.4876C83.0316 47.3228 83.1489 47.1275 83.2218 46.9146C83.2972 46.6738 83.3346 46.423 83.3325 46.1709C83.3379 45.9216 83.2961 45.6735 83.2095 45.4394C83.141 45.2272 83.0278 45.0319 82.8774 44.8663V44.8663ZM82.533 46.6464C82.4982 46.7927 82.44 46.9327 82.3608 47.0609C82.2753 47.1757 82.1663 47.2712 82.041 47.3413C81.9063 47.4173 81.7531 47.4552 81.5982 47.451C81.4392 47.4568 81.2816 47.4189 81.1431 47.3413C81.0177 47.2712 80.9087 47.1757 80.8233 47.0609C80.744 46.9327 80.6859 46.7927 80.6511 46.6464C80.6109 46.491 80.5903 46.3313 80.5896 46.1709C80.5911 46.0146 80.6117 45.859 80.6511 45.7076C80.6873 45.5635 80.7499 45.4271 80.8356 45.3052C80.9092 45.1848 81.0159 45.0876 81.1431 45.0248C81.2997 44.9498 81.4745 44.9202 81.6474 44.9395C81.802 44.9382 81.9544 44.9759 82.0902 45.0492C82.2149 45.1154 82.3207 45.2119 82.3977 45.3296C82.4834 45.4515 82.5459 45.5878 82.5822 45.732C82.6216 45.8833 82.6422 46.0389 82.6437 46.1953C82.6211 46.35 82.5798 46.5014 82.5207 46.6464H82.533Z" fill="var(--fill-0, #BBBBBB)"/>
<path id="Vector_15" d="M86.1737 47.049H86.1614L84.8084 44.4277H83.9351V47.939H84.6116V45.3056H84.6239L85.9892 47.939H86.8502V44.4277H86.1737V47.049Z" fill="var(--fill-0, #BBBBBB)"/>
<path id="Vector_16" d="M91.9055 44.8663C91.754 44.704 91.5695 44.5752 91.3643 44.4884C91.1282 44.4025 90.8778 44.3611 90.6263 44.3665C90.3884 44.3518 90.1501 44.3878 89.9274 44.4719C89.7047 44.556 89.5026 44.6863 89.3348 44.8541C89.0406 45.2334 88.8811 45.6985 88.8811 46.177C88.8811 46.6555 89.0406 47.1205 89.3348 47.4998C89.5001 47.6718 89.7014 47.8057 89.9245 47.8921C90.1477 47.9784 90.3873 48.0152 90.6263 47.9997C90.8793 48.0093 91.1313 47.9635 91.3643 47.8656C91.578 47.7877 91.7684 47.6577 91.9179 47.4876C92.0682 47.3221 92.1814 47.1267 92.2499 46.9146C92.3254 46.6738 92.3627 46.423 92.3606 46.1709C92.3637 45.9227 92.3263 45.6757 92.2499 45.4394C92.1723 45.2287 92.0555 45.0343 91.9055 44.8663V44.8663ZM91.5611 46.6464C91.537 46.7898 91.4816 46.9263 91.3987 47.0463C91.3159 47.1664 91.2076 47.267 91.0815 47.3413C90.9418 47.4161 90.785 47.4539 90.6263 47.451C90.4674 47.4556 90.3103 47.4177 90.1712 47.3413C90.0494 47.271 89.9445 47.1754 89.8637 47.0609C89.7766 46.9353 89.7141 46.7947 89.6792 46.6464C89.6598 46.4884 89.6598 46.3288 89.6792 46.1709C89.6746 46.0142 89.6953 45.8578 89.7407 45.7076C89.7778 45.5658 89.8359 45.4302 89.9129 45.3052C89.9914 45.1843 90.1021 45.0873 90.2328 45.0248C90.3689 44.9523 90.521 44.9143 90.6755 44.9143C90.8301 44.9143 90.9822 44.9523 91.1184 45.0248C91.249 45.0873 91.3596 45.1843 91.4381 45.3052C91.5152 45.4302 91.5733 45.5658 91.6104 45.7076C91.6497 45.859 91.6704 46.0146 91.6718 46.1709C91.6552 46.3334 91.618 46.4931 91.5611 46.6464V46.6464Z" fill="var(--fill-0, #BBBBBB)"/>
<path id="Vector_17" d="M93.0125 47.939H93.7259V46.4028H94.9313V45.842H93.7259V44.9764H94.9928V44.4277H93.0125V47.939Z" fill="var(--fill-0, #BBBBBB)"/>
<path id="Vector_18" d="M98.6582 46.159C98.8536 46.1332 99.0328 46.0379 99.1625 45.8908C99.2286 45.8231 99.2801 45.7428 99.314 45.6548C99.3478 45.5667 99.3632 45.4728 99.3593 45.3787C99.3649 45.2172 99.3267 45.0573 99.2486 44.9154C99.1817 44.8023 99.089 44.7063 98.978 44.635C98.8634 44.5726 98.7384 44.5313 98.609 44.5131C98.4781 44.501 98.3463 44.501 98.2154 44.5131H96.9854V48.0244H98.2154H98.6213C98.7647 48.0016 98.9025 47.952 99.0272 47.8781C99.1597 47.8016 99.2699 47.6924 99.347 47.5611C99.4308 47.4033 99.4731 47.2273 99.47 47.049C99.4736 46.9462 99.4546 46.8439 99.4143 46.7491C99.3739 46.6544 99.3132 46.5695 99.2363 46.5004C99.093 46.3194 98.887 46.1977 98.6582 46.159V46.159ZM97.6373 44.9398H98.1785C98.2477 44.9275 98.3184 44.9275 98.3876 44.9398C98.4505 44.9669 98.5025 45.0141 98.5352 45.0739C98.577 45.144 98.5983 45.2242 98.5967 45.3055C98.5966 45.3829 98.5754 45.4588 98.5352 45.525C98.4985 45.5816 98.4476 45.6278 98.3876 45.6591L98.1662 45.7201H97.6373V44.9398ZM98.6459 47.11C98.6005 47.1711 98.5416 47.2211 98.4737 47.2563C98.4005 47.2934 98.3215 47.3181 98.24 47.3294H97.9694H97.6373V46.3053H97.9694H98.2523C98.3303 46.3148 98.4055 46.3397 98.4737 46.3785C98.5448 46.4144 98.6045 46.4693 98.6459 46.537C98.6878 46.6245 98.7088 46.7205 98.7074 46.8174C98.74 46.9255 98.7357 47.0412 98.6951 47.1466L98.6459 47.11Z" fill="var(--fill-0, #BBBBBB)"/>
<path id="Vector_19" d="M101.094 44.4277L99.716 47.939H100.454L100.762 47.1344H102.201L102.508 47.939H103.295L101.905 44.4277H101.094ZM100.971 46.5857L101.475 45.1349L101.992 46.5857H100.971Z" fill="var(--fill-0, #BBBBBB)"/>
<path id="Vector_20" d="M105.952 47.049H105.94L104.587 44.4277H103.714V47.939H104.402V45.3056H104.415L105.768 47.939H106.641V44.4277H105.952V47.049Z" fill="var(--fill-0, #BBBBBB)"/>
<path id="Vector_21" d="M110.294 44.4277H109.421L108.141 45.9396V44.4277H107.428V47.939H108.141V46.3053L109.421 47.939H110.355L108.83 46.0859L110.294 44.4277Z" fill="var(--fill-0, #BBBBBB)"/>
<path id="Vector_22" d="M112.926 46.5248C112.873 46.4136 112.797 46.3141 112.705 46.2322C112.612 46.1588 112.514 46.0935 112.41 46.0371L112.041 45.8908C111.881 45.8349 111.728 45.7613 111.586 45.6713C111.542 45.642 111.506 45.6018 111.482 45.5548C111.459 45.5078 111.448 45.4556 111.45 45.4031C111.432 45.327 111.432 45.2476 111.45 45.1715C111.482 45.1119 111.528 45.0616 111.586 45.0252L111.758 44.9398H111.955C112.205 44.9385 112.453 44.9926 112.68 45.0983L112.742 44.5131C112.468 44.4256 112.181 44.3844 111.893 44.3912C111.735 44.3865 111.577 44.4071 111.426 44.4521C111.284 44.4879 111.15 44.5499 111.032 44.635C110.913 44.7234 110.82 44.8411 110.761 44.9764C110.683 45.127 110.645 45.2948 110.651 45.4641C110.651 45.6027 110.68 45.7398 110.737 45.8664C110.785 45.9739 110.856 46.0696 110.946 46.1468C111.031 46.2204 111.126 46.2819 111.229 46.3297L111.586 46.4882C111.754 46.5455 111.916 46.6233 112.065 46.7198C112.114 46.7544 112.152 46.8004 112.178 46.8536C112.204 46.9069 112.216 46.9657 112.213 47.0246C112.214 47.0922 112.196 47.1587 112.161 47.2168C112.127 47.2749 112.076 47.3223 112.016 47.3538C111.887 47.4349 111.738 47.4773 111.586 47.4757C111.443 47.4607 111.302 47.4279 111.167 47.3782C111.029 47.3434 110.897 47.2901 110.774 47.2197L110.712 47.8537H110.786L111.217 47.939C111.351 47.9527 111.487 47.9527 111.622 47.939C111.797 47.9444 111.971 47.9239 112.139 47.8781C112.292 47.8426 112.438 47.7807 112.57 47.6952C112.689 47.6095 112.786 47.4966 112.852 47.366C112.919 47.2119 112.952 47.0459 112.951 46.8783C112.963 46.76 112.955 46.6404 112.926 46.5248Z" fill="var(--fill-0, #BBBBBB)"/>
<path id="Vector_23" d="M41.3157 37.2715H39.1509V40.6974C39.1606 41.0639 39.3159 41.4118 39.5832 41.6653C39.8504 41.9188 40.2078 42.0573 40.5776 42.0508H49.8026V40.6365H41.3157V37.2715Z" fill="var(--fill-0, #BBBBBB)"/>
<path id="Vector_24" d="M51.4877 34.6992H36.494V36.1257H51.4877V34.6992Z" fill="var(--fill-0, #BBBBBB)"/>
<path id="Vector_25" d="M63.5294 31.199H64.4273V35.0883H66.5306V26.2734H64.4273V29.6262H63.5294V26.2734H61.4507V35.0883H63.5294V31.199Z" fill="var(--fill-0, #BBBBBB)"/>
<path id="Vector_26" d="M73.9476 36.7109H71.8074V40.8928C71.8074 41.2161 71.937 41.5263 72.1676 41.7549C72.3983 41.9836 72.7112 42.112 73.0374 42.112H81.8196V40.6733H73.9599L73.9476 36.7109Z" fill="var(--fill-0, #BBBBBB)"/>
<path id="Vector_27" d="M96.5549 26.2734H94.3901V35.1492H96.5549V31.6623H98.4122V30.1139H96.5549V26.2734Z" fill="var(--fill-0, #BBBBBB)"/>
<path id="Vector_28" d="M94.3901 37.7715H89.5931V36.2109H87.416V40.8927C87.416 41.216 87.5456 41.5262 87.7763 41.7548C88.0069 41.9834 88.3198 42.1119 88.646 42.1119H96.5303V36.2353H94.3655L94.3901 37.7715ZM94.3901 40.6366H89.5931V39.1614H94.3901V40.6366Z" fill="var(--fill-0, #BBBBBB)"/>
<path id="Vector_29" d="M43.9709 33.6265C44.7076 33.5327 45.4014 33.2297 45.9693 32.7538C46.5372 32.278 46.9551 31.6494 47.1728 30.9434C47.3906 30.2373 47.3991 29.4838 47.1973 28.7732C46.9954 28.0625 46.5918 27.4248 46.0347 26.9364C45.4777 26.448 44.7908 26.1296 44.0565 26.0195C43.3221 25.9094 42.5714 26.0121 41.8943 26.3154C41.2171 26.6187 40.6423 27.1097 40.2387 27.7296C39.835 28.3495 39.6196 29.0719 39.6183 29.8104C39.6908 30.8888 40.189 31.895 41.0043 32.6097C41.8195 33.3245 42.8859 33.69 43.9709 33.6265ZM43.3382 27.4695C43.8147 27.4126 44.2973 27.5011 44.7219 27.7233C45.1466 27.9455 45.4934 28.2908 45.7162 28.7134C45.9389 29.1361 46.0272 29.616 45.9693 30.0897C45.9114 30.5634 45.71 31.0084 45.3919 31.3657C45.0738 31.7229 44.654 31.9756 44.1881 32.0901C43.7223 32.2046 43.2324 32.1756 42.7836 32.0069C42.3347 31.8382 41.948 31.5377 41.6748 31.1454C41.4016 30.7531 41.2548 30.2875 41.2539 29.8104C41.2235 29.2264 41.4249 28.6539 41.8148 28.2161C42.2046 27.7784 42.7516 27.5103 43.3382 27.4695Z" fill="var(--fill-0, #BBBBBB)"/>
<path id="Vector_30" d="M60.4544 31.3698C60.4491 30.5876 60.1661 29.8322 59.6549 29.2362L59.4704 29.0168H60.8234V27.6147H57.5885V25.9688H55.3376V27.6147H52.0289V29.0168H53.4434L53.2712 29.2362C52.7534 29.8283 52.4694 30.5862 52.4717 31.3698C52.5672 32.3535 53.029 33.2666 53.7669 33.931C54.5049 34.5954 55.4661 34.9636 56.4631 34.9636C57.46 34.9636 58.4212 34.5954 59.1592 33.931C59.8971 33.2666 60.3589 32.3535 60.4544 31.3698V31.3698ZM56.4569 33.4668C56.0217 33.5471 55.5722 33.4924 55.1696 33.3102C54.7669 33.128 54.4307 32.8272 54.2067 32.4488C53.9828 32.0704 53.8819 31.6327 53.918 31.1955C53.954 30.7582 54.1252 30.3426 54.4081 30.0052C54.6911 29.6678 55.0721 29.4251 55.4993 29.3102C55.9264 29.1952 56.379 29.2136 56.7952 29.3627C57.2115 29.5119 57.5712 29.7846 57.8254 30.1438C58.0796 30.503 58.2159 30.9311 58.2158 31.3698C58.2571 31.8778 58.0962 32.3817 57.7675 32.7736C57.4388 33.1655 56.9683 33.4143 56.4569 33.4668V33.4668Z" fill="var(--fill-0, #BBBBBB)"/>
<path id="Vector_31" d="M61.7951 35.7832C59.0522 35.7832 56.8751 37.3682 56.8751 39.3067C56.8751 41.2452 59.1014 42.818 61.7951 42.818C64.4888 42.818 66.7151 41.2452 66.7151 39.3067C66.7151 37.3682 64.538 35.7832 61.7951 35.7832ZM61.7951 41.4037C61.3979 41.3143 61.0342 41.1155 60.7458 40.8303C60.4574 40.5451 60.2561 40.1849 60.1649 39.7914C60.0738 39.3978 60.0965 38.9867 60.2305 38.6054C60.3645 38.2241 60.6044 37.888 60.9225 37.6357C61.2406 37.3835 61.6241 37.2253 62.0288 37.1794C62.4336 37.1335 62.8431 37.2018 63.2105 37.3763C63.5779 37.5508 63.8881 37.8246 64.1055 38.1661C64.323 38.5075 64.4388 38.9029 64.4396 39.3067C64.3537 39.9255 64.0314 40.4879 63.5394 40.8781C63.0474 41.2683 62.423 41.4564 61.7951 41.4037Z" fill="var(--fill-0, #BBBBBB)"/>
<path id="Vector_32" d="M76.1738 33.2476H79.4948V36.9662H81.6473V26.3226H79.4825V27.7002H76.2353C75.7991 27.2646 75.2796 26.9195 74.7073 26.685C74.135 26.4506 73.5213 26.3315 72.9021 26.3347C72.3207 26.2805 71.7343 26.3472 71.1804 26.5306C70.6265 26.7139 70.1174 27.0099 69.6856 27.3995C69.2538 27.7892 68.9088 28.2639 68.6728 28.7933C68.4367 29.3227 68.3148 29.8951 68.3148 30.474C68.3148 31.0528 68.4367 31.6252 68.6728 32.1546C68.9088 32.684 69.2538 33.1587 69.6856 33.5484C70.1174 33.938 70.6265 34.234 71.1804 34.4173C71.7343 34.6007 72.3207 34.6674 72.9021 34.6131C74.1306 34.5983 75.3046 34.1083 76.1738 33.2476V33.2476ZM77.2439 29.334L77.1824 29.1145H79.5317V31.7358H77.1578V31.5651C77.2795 31.1692 77.3497 30.7595 77.3669 30.3459C77.366 30.005 77.3248 29.6654 77.2439 29.334V29.334ZM70.7249 30.3947C70.8088 29.9827 71.009 29.6028 71.3022 29.2992C71.5954 28.9956 71.9695 28.7808 72.3811 28.6798C72.7926 28.5787 73.2247 28.5956 73.627 28.7285C74.0292 28.8613 74.3851 29.1047 74.6533 29.4302C74.9214 29.7558 75.0908 30.1501 75.1417 30.5674C75.1926 30.9846 75.1229 31.4076 74.9407 31.7871C74.7585 32.1666 74.4713 32.487 74.1126 32.711C73.7539 32.935 73.3383 33.0535 72.9143 33.0526C72.2697 32.9848 71.6782 32.6676 71.2682 32.1699C70.8582 31.6722 70.663 31.0343 70.7249 30.3947V30.3947Z" fill="var(--fill-0, #BBBBBB)"/>
<path id="Vector_33" d="M92.582 31.3698C92.5788 30.5872 92.2955 29.8311 91.7825 29.2362L91.598 29.0168H93.0125V27.6147H89.7161V25.9688H87.4652V27.6147H84.1073V29.0168H85.5218L85.3496 29.2362C84.8318 29.8283 84.5478 30.5862 84.5501 31.3698C84.6456 32.3535 85.1074 33.2666 85.8454 33.931C86.5833 34.5954 87.5445 34.9636 88.5415 34.9636C89.5384 34.9636 90.4996 34.5954 91.2375 33.931C91.9755 33.2666 92.4373 32.3535 92.5328 31.3698H92.582ZM86.8871 31.3698C86.9545 31.0519 87.1114 30.7595 87.3396 30.5263C87.5678 30.2932 87.858 30.1289 88.1765 30.0525C88.4951 29.9761 88.8289 29.9908 89.1394 30.0947C89.4499 30.1987 89.7243 30.3877 89.9308 30.64C90.1373 30.8922 90.2676 31.1972 90.3064 31.5198C90.3452 31.8423 90.2911 32.1692 90.1502 32.4625C90.0093 32.7558 89.7874 33.0035 89.5103 33.1769C89.2332 33.3504 88.9122 33.4424 88.5845 33.4425C88.085 33.3841 87.6281 33.1349 87.3111 32.7478C86.9941 32.3608 86.842 31.8664 86.8871 31.3698V31.3698Z" fill="var(--fill-0, #BBBBBB)"/>
<path id="Vector_34" d="M110.503 26.2736V36.6124H105.903V34.7348C106.721 34.5815 107.463 34.1583 108.008 33.5341C108.553 32.9099 108.869 32.1213 108.904 31.2967C108.896 30.4443 108.557 29.6278 107.957 29.0168H109.384V27.6147H105.878V25.9688H103.652V27.6147H100.097V29.0168H101.524C100.925 29.6278 100.585 30.4443 100.577 31.2967C100.613 32.1322 100.936 32.9303 101.493 33.5582C102.051 34.186 102.808 34.6056 103.64 34.747V36.6124H99.2363V38.0266H110.503V42.0866H112.68V26.237L110.503 26.2736ZM102.889 31.2967C102.93 30.9388 103.074 30.6001 103.304 30.3216C103.534 30.043 103.841 29.8365 104.187 29.727C104.533 29.6174 104.904 29.6095 105.254 29.7042C105.605 29.7989 105.92 29.9921 106.163 30.2606C106.405 30.5291 106.563 30.8612 106.619 31.2171C106.675 31.5729 106.626 31.9372 106.477 32.2659C106.329 32.5946 106.088 32.8737 105.783 33.0695C105.478 33.2653 105.122 33.3694 104.759 33.3693C104.499 33.3553 104.244 33.2905 104.009 33.1787C103.774 33.0669 103.564 32.9102 103.39 32.7176C103.217 32.5251 103.083 32.3005 102.997 32.0566C102.911 31.8128 102.874 31.5545 102.889 31.2967Z" fill="var(--fill-0, #BBBBBB)"/>
<path id="Vector_35" d="M13.0503 33.8935V27.0781L0 28.212V32.7596L13.0503 33.8935Z" fill="var(--fill-0, #DADADA)"/>
<path id="Vector_36" d="M39.1386 6.80315V0L26.1006 6.09601V11.5458L39.1386 6.80315Z" fill="url(#paint0_linear_0_155)"/>
<path id="Vector_37" d="M26.1006 21.4092V14.5939L13.0503 18.5685V23.6769L26.1006 21.4092Z" fill="var(--fill-0, #DADADA)"/>
<path id="Vector_38" d="M13.0503 33.8935V27.0781L26.1006 28.212V32.7596L13.0503 33.8935Z" fill="var(--fill-0, #D9D9D9)"/>
<path id="Vector_39" d="M26.1006 21.4092V14.5939L39.1386 18.5685V23.6769L26.1006 21.4092Z" fill="var(--fill-0, #D9D9D9)"/>
<path id="Vector_40" d="M39.1386 6.80315V0L52.1889 6.09601V11.5458L39.1386 6.80315Z" fill="var(--fill-0, #D9D9D9)"/>
<path id="Vector_41" d="M39.1386 6.80273L26.1006 11.5454L39.1386 15.52L52.1889 11.5454L39.1386 6.80273Z" fill="var(--fill-0, #B1B3B6)"/>
<path id="Vector_42" d="M26.1006 21.4102L13.0503 23.6779L26.1006 25.9456L39.1386 23.6779L26.1006 21.4102Z" fill="var(--fill-0, #B1B3B6)"/>
</g>
<defs>
<linearGradient id="paint0_linear_0_155" x1="26.1006" y1="5.76683" x2="39.1386" y2="5.76683" gradientUnits="userSpaceOnUse">
<stop stop-color="#E7E7E7"/>
</linearGradient>
<clipPath id="clip0_0_155">
<rect width="113" height="48" fill="white"/>
</clipPath>
</defs>
</svg>
