<svg preserveAspectRatio="none" width="100%" height="100%" overflow="visible" style="display: block;" viewBox="0 0 140 28" fill="none" xmlns="http://www.w3.org/2000/svg">
<g id="Client Logo / Exact" clip-path="url(#clip0_0_932)">
<path id="Vector" d="M6.47355 9.12913H-1.23492e-06L7.42116 18.2516L0.00339849 27.3874H6.56865L13.8947 18.2516L6.55846 9.12913H6.47355Z" fill="var(--fill-0, #BBBBBB)"/>
<path id="Vector_2" d="M31.9262 9.12913L24.5934 18.2516L31.9262 27.3874H38.4915L31.0737 18.2516L38.4915 9.12913H31.9262Z" fill="var(--fill-0, #BBBBBB)"/>
<path id="Vector_3" d="M24.1145 0H18.5274V27.3874H24.1145V0Z" fill="var(--fill-0, #BBBBBB)"/>
<path id="Vector_4" d="M133.849 8.71094C132.774 8.73236 131.722 9.01944 130.789 9.54587C129.857 10.0723 129.073 10.8212 128.51 11.7239C127.491 9.90941 125.864 8.71094 123.181 8.71094C122.169 8.73368 121.176 8.98735 120.28 9.45203C119.385 9.91671 118.61 10.5798 118.018 11.3891V9.13609H113.07V27.3943H118.355V17.9639C118.355 14.2815 119.598 12.9424 121.52 12.9424C123.718 12.9424 123.898 15.0816 123.898 16.7989V27.391H129.179V17.9639C129.179 14.2815 130.425 12.9424 132.348 12.9424C134.542 12.9424 134.725 15.0816 134.725 16.7989V27.391H140.003V15.7109C140.003 10.8668 137.626 8.71094 133.849 8.71094Z" fill="var(--fill-0, #BBBBBB)"/>
<path id="Vector_5" d="M58.0922 18.2649C58.0922 23.6413 53.5614 28 47.9743 28C42.3872 28 37.853 23.648 37.853 18.2649C37.853 12.8819 42.3838 8.53324 47.9743 8.53324C53.5648 8.53324 58.0922 12.8852 58.0922 18.2649ZM47.9743 12.8584C45.1553 12.8584 42.8797 15.2788 42.8797 18.2649C42.8797 21.2511 45.1417 23.6882 47.9743 23.6882C50.8069 23.6882 53.0689 21.2678 53.0689 18.2783C53.0689 15.2889 50.7865 12.8718 47.9743 12.8718" fill="var(--fill-0, #BBBBBB)"/>
<path id="Vector_6" d="M100.197 8.53324C94.607 8.53324 90.0796 12.8852 90.0796 18.2649C90.0787 18.6667 90.1036 19.0681 90.1543 19.4668C90.1543 19.5639 90.1815 19.6643 90.195 19.7647C90.261 20.2167 90.1751 20.6776 89.9505 21.077L89.8452 21.2477C89.4088 21.981 88.7878 22.5909 88.0423 23.0184C87.2968 23.4459 86.4519 23.6766 85.5895 23.6882C82.7739 23.6882 80.4949 21.2678 80.4949 18.2783C80.4949 15.2889 82.7773 12.8718 85.5895 12.8718C86.6073 12.8748 87.5979 13.196 88.4187 13.7891L90.7453 9.90913C89.179 9.01384 87.4001 8.54371 85.5895 8.54662C80.0024 8.54662 75.4716 12.8986 75.4716 18.2783C75.4716 23.6581 80.0024 28.0134 85.5895 28.0134C86.9491 28.0168 88.2955 27.7519 89.5496 27.2345C90.8038 26.7171 91.9401 25.9575 92.8918 25.0005C93.8439 25.9579 94.9808 26.7177 96.2355 27.2351C97.4902 27.7526 98.8374 28.0172 100.197 28.0134C105.785 28.0134 110.319 23.6614 110.319 18.2783C110.319 12.8953 105.785 8.54662 100.197 8.54662M100.197 23.6882C97.3819 23.6882 95.1029 21.2678 95.1029 18.2783C95.1029 15.2889 97.3852 12.8718 100.197 12.8718C103.01 12.8718 105.292 15.2922 105.292 18.2783C105.292 21.2645 103.013 23.6882 100.197 23.6882" fill="var(--fill-0, #BBBBBB)"/>
<path id="Vector_7" d="M74.4968 10.7159C72.4532 9.33215 70.0373 8.58037 67.558 8.55667C65.2111 8.55667 62.9898 9.27977 61.6109 10.5653C61.0825 11.0605 60.6639 11.6582 60.3816 12.3208C60.0992 12.9834 59.9592 13.6965 59.9704 14.4151C59.9704 18.3018 62.9457 19.132 65.3333 19.7982C67.1029 20.2903 68.6414 20.682 68.6414 22.0478C68.6503 22.31 68.599 22.5708 68.4913 22.8108C68.3837 23.0508 68.2226 23.2637 68.0199 23.4338C67.361 23.9828 66.3421 24.1033 65.6152 24.0296C63.9954 23.8395 62.4699 23.1775 61.2339 22.1282L61.0097 21.9441L59.1756 25.6265L59.3285 25.7437C60.9791 26.989 63.6215 27.8761 65.9005 27.9397C68.475 28.0201 70.8321 27.2903 72.3096 25.9311C72.8852 25.4057 73.3401 24.7649 73.6436 24.0518C73.9471 23.3386 74.0921 22.5697 74.0689 21.7968C74.0689 17.7461 70.8389 16.8254 68.2712 16.0856C66.6511 15.6169 65.3673 15.2453 65.3673 14.2343C65.3602 14.0069 65.404 13.7807 65.4956 13.5719C65.5871 13.363 65.7242 13.1766 65.8971 13.0258C66.5263 12.5534 67.3147 12.3354 68.1014 12.4165C69.7521 12.517 71.5284 13.3807 72.5167 14.0904L74.4968 10.7159Z" fill="var(--fill-0, #BBBBBB)"/>
</g>
<defs>
<clipPath id="clip0_0_932">
<rect width="140" height="28" fill="white"/>
</clipPath>
</defs>
</svg>
