<svg preserveAspectRatio="none" width="100%" height="100%" overflow="visible" style="display: block;" viewBox="0 0 118 34" fill="none" xmlns="http://www.w3.org/2000/svg">
<g id="Client Logo / Exact" clip-path="url(#clip0_0_857)">
<path id="Vector" d="M16.713 23.6329L11.1652 16.8792L19.2184 7.04944H14.8239C13.9669 6.99809 13.1098 7.15021 12.3239 7.49315C11.538 7.8361 10.846 8.35998 10.3052 9.02131L6.06479 14.1925V6.10353e-06H1.80949C1.57144 5.21271e-06 1.33574 0.0465809 1.11587 0.137066C0.89601 0.227551 0.696311 0.360164 0.528219 0.527312C0.360127 0.694461 0.226945 0.892856 0.136302 1.11113C0.0456596 1.32941 -0.000664232 1.56328 -1.02611e-05 1.79934V28.2964H4.25032C4.48878 28.297 4.72502 28.2509 4.94546 28.1607C5.1659 28.0705 5.36618 27.938 5.5348 27.7708C5.70342 27.6036 5.83705 27.405 5.928 27.1864C6.01896 26.9678 6.06544 26.7335 6.06479 26.497V19.4476L9.51476 23.6378L12.4428 27.2168C12.6949 27.5498 13.0213 27.8206 13.3964 28.0079C13.7715 28.1952 14.1852 28.2939 14.6052 28.2964H20.5706L16.713 23.6329Z" fill="var(--fill-0, #BBBBBB)"/>
<path id="Vector_2" d="M27.6197 28.2964C24.3487 28.2964 22.0768 26.0534 22.0768 22.8047V1.79933C22.0768 1.56263 22.1239 1.32824 22.2154 1.10962C22.3069 0.890989 22.441 0.692411 22.61 0.525263C22.7791 0.358114 22.9797 0.225685 23.2004 0.13555C23.4211 0.0454158 23.6576 -0.000646272 23.8963 2.24041e-06H28.1516V21.6906C28.1529 22.1182 28.3244 22.528 28.6288 22.8308C28.9333 23.1336 29.346 23.3049 29.7771 23.3075H34.117V26.5118C34.117 26.7485 34.0699 26.9829 33.9784 27.2015C33.8869 27.4202 33.7528 27.6187 33.5837 27.7859C33.4147 27.953 33.2141 28.0855 32.9934 28.1756C32.7727 28.2657 32.5362 28.3118 32.2975 28.3111L27.6197 28.2964Z" fill="var(--fill-0, #BBBBBB)"/>
<path id="Vector_3" d="M34.962 5.51172L34.5892 5.90117C34.5892 5.90117 33.4359 7.06456 30.155 7.06456H14.7146C12.2737 7.06456 11.1204 8.05051 10.2406 9.12025L9.74344 9.71181L9.70367 9.75125L6.63647 13.4978C7.86177 12.6213 9.33622 12.1534 10.847 12.1619H30.1699C32.5212 12.1619 34.7682 11.4717 34.9571 9.73152C34.9618 9.65765 34.9618 9.58356 34.9571 9.50969L34.962 5.51172Z" fill="var(--fill-0, #BBBBBB)"/>
<path id="Vector_4" d="M61.155 27.5372C60.5485 26.7879 60.2502 25.6146 60.2502 24.0174V5.28462C60.234 5.15775 60.2477 5.02886 60.2904 4.90818C60.3331 4.7875 60.4035 4.67834 60.4961 4.58935C60.5888 4.50037 60.701 4.434 60.824 4.39553C60.947 4.35705 61.0773 4.34753 61.2047 4.3677H64.0084V23.9878C64.0084 24.9738 64.3365 25.4421 65.0027 25.4421C65.4749 25.4506 65.9462 25.3976 66.4045 25.2843V27.4632C66.4132 27.6724 66.352 27.8786 66.2305 28.0499C66.1166 28.2067 65.9543 28.3226 65.7682 28.3802C65.2912 28.5591 64.7868 28.6558 64.2769 28.6661C62.8021 28.6628 61.7615 28.2865 61.155 27.5372Z" fill="var(--fill-0, #BBBBBB)"/>
<path id="Vector_5" d="M70.3467 11.5346H73.1505V12.5452C74.3396 11.7285 75.7505 11.2885 77.197 11.2832C79.2749 11.2832 80.8574 11.9881 81.9444 13.398C83.0315 14.8079 83.5733 16.8718 83.57 19.5897C83.57 25.6401 80.8922 28.6636 75.5366 28.6603C74.7323 28.6642 73.9307 28.5682 73.1505 28.3744V33.2252C73.1505 33.7478 72.8423 34.014 72.2258 34.014H69.3873V12.4515C69.3719 12.3244 69.3864 12.1955 69.4297 12.0748C69.4731 11.9542 69.544 11.8452 69.637 11.7563C69.7299 11.6675 69.8424 11.6012 69.9656 11.5627C70.0887 11.5243 70.2192 11.5146 70.3467 11.5346V11.5346ZM78.4845 24.1546C79.3246 23.3856 79.7422 21.8672 79.7422 19.5897C79.7422 18.0122 79.4456 16.8012 78.8524 15.9565C78.5709 15.5482 78.1889 15.2179 77.7426 14.9971C77.2963 14.7762 76.8005 14.6721 76.3022 14.6945C75.7146 14.7123 75.1359 14.8411 74.5971 15.0741C74.0396 15.2782 73.5424 15.6171 73.1505 16.0601V25.0321C73.8352 25.2202 74.5427 25.3148 75.2533 25.3131C76.4412 25.3581 77.6002 24.9425 78.4845 24.1546V24.1546Z" fill="var(--fill-0, #BBBBBB)"/>
<path id="Vector_6" d="M86.6618 5.8472C86.6856 5.44445 86.8122 5.0543 87.0297 4.71337C87.1268 4.5952 87.2511 4.50178 87.392 4.4409C87.533 4.38001 87.6866 4.35343 87.84 4.36336H90.8227C90.4379 5.52471 90.2695 6.7458 90.3256 7.96695V12.522C90.9467 12.1419 91.6152 11.8436 92.314 11.6346C93.0556 11.4038 93.8285 11.2874 94.6057 11.2896C96.3887 11.2896 97.7856 11.7365 98.7964 12.6304C99.8072 13.5243 100.304 14.9096 100.288 16.7861V27.5279C100.304 27.6352 100.294 27.7446 100.26 27.8475C100.225 27.9503 100.167 28.0438 100.09 28.1205C100.013 28.1971 99.9183 28.2548 99.8146 28.2888C99.7108 28.3229 99.6005 28.3324 99.4923 28.3167H96.5097V17.6981C96.5692 16.8924 96.3802 16.0878 95.9678 15.3911C95.7638 15.129 95.4966 14.9222 95.1908 14.7895C94.885 14.6568 94.5504 14.6026 94.218 14.6319C93.5422 14.6285 92.8705 14.7351 92.2295 14.9474C91.5468 15.186 90.8905 15.4932 90.2709 15.8643V27.4934C90.2709 28.0406 89.9527 28.3117 89.3164 28.3117H86.5127V8.15428C86.5191 7.3831 86.5689 6.61288 86.6618 5.8472V5.8472Z" fill="var(--fill-0, #BBBBBB)"/>
<path id="Vector_7" d="M105.08 27.4131C104.046 26.58 103.534 25.3426 103.534 23.701C103.534 21.486 104.298 19.9742 105.826 19.1657C107.353 18.3573 109.382 17.9497 111.91 17.9432H113.059V17.2826C113.059 16.1652 112.803 15.411 112.293 15.0199C111.783 14.6288 110.934 14.4349 109.748 14.4382C109.058 14.4425 108.37 14.5002 107.69 14.6107C107.018 14.7066 106.353 14.85 105.701 15.0396C105.586 15.0705 105.468 15.0903 105.348 15.0987C105.01 15.0987 104.851 14.9114 104.851 14.5318V12.1311C106.704 11.5471 108.639 11.2592 110.583 11.2782C112.472 11.2782 113.973 11.6825 115.057 12.4959C116.141 13.3093 116.712 14.7537 116.712 16.8389V24.7264C116.695 24.9323 116.745 25.1383 116.857 25.313C116.921 25.377 116.999 25.4257 117.085 25.4556C117.171 25.4855 117.263 25.4957 117.354 25.4856C117.57 25.4773 117.785 25.4459 117.995 25.3919V27.3095C117.998 27.5139 117.942 27.7148 117.835 27.8892C117.728 28.0637 117.573 28.2045 117.389 28.2955C116.931 28.539 116.417 28.6596 115.897 28.6455C115.314 28.6525 114.738 28.5099 114.227 28.2314C113.748 27.9828 113.379 27.5663 113.193 27.0631C112.685 27.5933 112.048 27.9854 111.344 28.2018C110.6 28.4815 109.813 28.6316 109.017 28.6455C107.6 28.7056 106.206 28.2694 105.08 27.4131V27.4131ZM111.592 25.1996C112.13 25.0579 112.636 24.8171 113.083 24.4898V20.6348H112.223C110.291 20.6348 108.966 20.8813 108.247 21.3742C107.897 21.6146 107.616 21.9398 107.43 22.3187C107.244 22.6976 107.159 23.1175 107.183 23.5383C107.183 24.8234 108.084 25.4659 109.887 25.4659C110.465 25.4596 111.04 25.3699 111.592 25.1996V25.1996Z" fill="var(--fill-0, #BBBBBB)"/>
<path id="Vector_8" d="M42.5033 23.697C42.5033 18.8363 46.6442 17.949 50.8796 17.949H52.028V17.2835C52.028 14.9468 50.9741 14.444 48.7122 14.444C47.3433 14.4717 45.9836 14.6721 44.6657 15.0405C44.1686 15.1686 43.8057 15.075 43.8057 14.5475V12.1467C45.6599 11.5611 47.5966 11.2732 49.5424 11.2939C52.8234 11.2939 55.6917 12.2798 55.6917 16.8496V24.7963C55.6917 25.1118 55.7166 25.4125 56.0447 25.4914C56.2621 25.53 56.4858 25.5147 56.6959 25.447V27.3104C56.6959 28.1682 56.0099 28.6414 54.8665 28.6414C53.7231 28.6414 52.5698 28.1485 52.1572 27.059C51.2972 28.0449 49.3187 28.6414 47.9815 28.6414C44.9888 28.6612 42.5033 27.1428 42.5033 23.697ZM52.028 24.4906V20.6356H51.168C47.0568 20.6356 46.1322 21.804 46.1322 23.5392C46.1322 24.9294 47.1861 25.4667 48.8415 25.4667C49.9776 25.4612 51.0866 25.1215 52.028 24.4906V24.4906Z" fill="var(--fill-0, #BBBBBB)"/>
</g>
<defs>
<clipPath id="clip0_0_857">
<rect width="118" height="34" fill="white"/>
</clipPath>
</defs>
</svg>
