<svg preserveAspectRatio="none" width="100%" height="100%" overflow="visible" style="display: block;" viewBox="0 0 57.7113 22.8398" fill="none" xmlns="http://www.w3.org/2000/svg">
<g id="Layer 1">
<path id="Vector" d="M18.1829 2.93202C16.2836 0.796842 13.1994 0 10.3896 0C3.92495 0 0 3.90936 0 11.4199C0 18.5959 3.01886 22.8398 10.3286 22.8398C13.0513 22.8398 15.9177 22.1971 17.8518 21.0392L16.7802 17.3456C14.8654 18.2255 12.7849 18.6761 10.6815 18.6663C6.08565 18.6663 4.87897 15.7035 4.87897 11.3671C4.87897 6.33069 7.11372 3.91816 10.59 3.91816C11.5154 3.92068 12.4308 4.11142 13.2818 4.479C14.1327 4.84658 14.9017 5.38349 15.543 6.05774L18.1829 2.93202ZM35.0981 0.338983V18.3449H34.5493L28.2545 0.338983H19.725V22.4744H24.3383V4.17791H24.9263L31.1557 22.4744H39.6722V0.338983H35.0981ZM57.4674 1.80499C55.4112 0.581111 52.3009 0 50.0966 0C44.2636 0 41.5759 2.64146 41.5759 6.38353C41.5759 9.61932 43.9936 11.574 46.6204 12.613C47.9272 13.1016 49.3691 13.5903 50.4582 13.8941C52.2007 14.3827 52.9064 15.2368 52.9064 16.4563C52.9064 17.9839 51.8478 18.8996 49.0686 18.8996C46.9058 18.8019 44.7972 18.1847 42.9176 17.0991L41.2578 20.8235C43.6694 22.1327 46.3616 22.825 49.0991 22.8398C54.5356 22.8398 57.7113 20.0927 57.7113 16.2758C57.7113 12.6702 55.8033 11.3891 53.6905 10.4734C52.8759 10.1388 51.3338 9.65013 50.5192 9.40359C47.8009 8.64197 46.3198 7.94199 46.3198 6.13699C46.3198 4.79425 47.191 3.75528 50.1881 3.75528C52.1928 3.78839 54.1563 4.33522 55.8948 5.34455L57.4674 1.80499Z" fill="var(--fill-0, #BBBBBB)"/>
</g>
</svg>
