<svg preserveAspectRatio="none" width="100%" height="100%" overflow="visible" style="display: block;" viewBox="0 0 76.7088 33.9956" fill="none" xmlns="http://www.w3.org/2000/svg">
<g id="?&#235;&#141;&#137;&#236;&#148;&#160;??1">
<path id="Vector" d="M16.815 33.9956C20.1422 33.9965 23.3948 33.0001 26.1615 31.1325C28.9282 29.2649 31.0847 26.61 32.3581 23.5036C33.6315 20.3972 33.9647 16.9789 33.3155 13.6812C32.6663 10.3834 31.0639 7.35427 28.711 4.977C26.358 2.59972 23.3603 0.981092 20.097 0.325866C16.8336 -0.329361 13.4513 0.00824772 10.3779 1.29599C7.30442 2.58374 4.67793 4.76376 2.83065 7.56029C0.983363 10.3568 -0.00172108 13.6442 2.25728e-06 17.0066C0.00346476 21.5121 1.7763 25.8319 4.9291 29.0173C8.08191 32.2028 12.3569 33.9933 16.815 33.9956" fill="var(--fill-0, #BBBBBB)"/>
<path id="Vector_2" d="M16.144 9.55273V24.455H20.8401V23.121H17.4901V9.55273H16.144Z" fill="var(--fill-0, white)"/>
<path id="Vector_3" d="M11.4437 13.6177C11.8428 13.6185 12.2332 13.4997 12.5655 13.2763C12.8977 13.0528 13.1569 12.7348 13.3102 12.3624C13.4636 11.9901 13.5041 11.5801 13.4268 11.1844C13.3495 10.7887 13.1577 10.4251 12.8758 10.1396C12.5939 9.85409 12.2345 9.65951 11.8432 9.58051C11.4518 9.5015 11.0461 9.54161 10.6773 9.69575C10.3085 9.8499 9.99319 10.1112 9.77138 10.4465C9.54956 10.7818 9.43115 11.176 9.43115 11.5793C9.43115 12.1192 9.64306 12.637 10.0204 13.0191C10.3977 13.4012 10.9096 13.6165 11.4437 13.6177Z" fill="var(--fill-0, white)"/>
<path id="Vector_4" d="M17.4901 2.78711C17.3159 2.78711 16.9804 2.78711 16.8149 2.78711C14.0294 2.78711 11.3065 3.62187 8.99042 5.18582C6.67437 6.74977 4.86923 8.97267 3.80327 11.5734C2.7373 14.1742 2.4584 17.036 3.00182 19.7969C3.54524 22.5579 4.88659 25.094 6.85623 27.0845C8.82587 29.075 11.3353 30.4306 14.0673 30.9798C16.7993 31.529 19.631 31.2471 22.2045 30.1698C24.778 29.0926 26.9775 27.2683 28.5251 24.9277C30.0726 22.587 30.8986 19.8352 30.8986 17.0202V16.3686H20.8401V17.6894H29.5525V17.8831C29.3898 20.3584 28.5242 22.7339 27.0595 24.7247C25.5948 26.7156 23.5931 28.2373 21.2943 29.1076C18.9955 29.9778 16.4971 30.1597 14.0986 29.6314C11.7001 29.103 9.50329 27.887 7.77137 26.1288C5.98926 24.3246 4.77609 22.0273 4.28505 19.5268C3.79401 17.0263 4.04711 14.4348 5.0124 12.0796C5.97769 9.72442 7.61189 7.71108 9.70862 6.29382C11.8054 4.87657 14.2706 4.11895 16.7931 4.11665C16.9456 4.11665 17.3072 4.11665 17.4683 4.11665L17.4901 2.78711Z" fill="var(--fill-0, white)"/>
<path id="Vector_5" d="M46.3197 5.94296H41.2578V28.074H56.8008V23.7684H46.3197V5.94296ZM67.9266 19.6389H72.0476V23.5131C70.869 23.901 69.6367 24.0971 68.3971 24.0942C63.8449 24.0942 62.3289 21.7565 62.3289 17.0107C62.3289 12.485 63.7708 9.81271 68.3274 9.81271C70.8584 9.81271 72.3003 10.6184 73.4939 12.1504L76.6391 9.23158C74.7224 6.45805 71.3594 5.61719 68.2185 5.61719C61.1309 5.61719 57.4107 9.52214 57.4107 16.9755C57.4107 24.4288 60.7737 28.4218 68.1837 28.4218C71.5772 28.4218 74.9053 27.5413 76.7088 26.269V15.5051H67.9266V19.6389Z" fill="var(--fill-0, #BBBBBB)"/>
</g>
</svg>
