<svg preserveAspectRatio="none" width="100%" height="100%" overflow="visible" style="display: block;" viewBox="0 0 166 24" fill="none" xmlns="http://www.w3.org/2000/svg">
<g id="Client Logo / Exact" clip-path="url(#clip0_0_642)">
<path id="Vector" d="M138.985 0.000462659L144.929 5.81239C146.606 7.44554 148.217 7.65627 149.943 7.65627H166.009L163.639 5.33824H156.697C155.834 5.33824 155.032 5.23709 154.191 4.41946L149.662 -0.00585938L138.985 0.000462659Z" fill="var(--fill-0, #BBBBBB)"/>
<path id="Vector_2" d="M138.985 17.6026L144.929 11.7907C146.606 10.1512 148.207 9.95523 149.936 9.95312H166.002L163.63 12.2606H156.697C155.834 12.2606 155.032 12.3597 154.191 13.1815L149.662 17.6068L138.985 17.6026Z" fill="var(--fill-0, #BBBBBB)"/>
<path id="Vector_3" d="M63.4793 21.1294C63.4793 21.2326 63.4793 21.3401 63.4944 21.4476C63.4985 21.5472 63.5314 21.6436 63.5892 21.7257C63.6546 21.8215 63.7488 21.8952 63.8588 21.9365C64.0332 21.9962 64.2176 22.0233 64.4022 22.0165H78.521V23.7698H61.2969C60.9248 23.7918 60.5534 23.7192 60.2186 23.5591C59.9921 23.4325 59.805 23.2483 59.6773 23.0259C59.5553 22.8089 59.4817 22.569 59.4617 22.3221C59.4444 22.065 59.4358 21.8206 59.4358 21.5909V16.1309H63.4685L63.4793 21.1294Z" fill="var(--fill-0, #BBBBBB)"/>
<path id="Vector_4" d="M111.947 9.00237C111.683 9.01047 111.423 8.94321 111.197 8.80884C110.972 8.67446 110.792 8.47881 110.679 8.24585L110.342 7.23435H120.398V9.0108L111.947 9.00237Z" fill="var(--fill-0, #BBBBBB)"/>
<path id="Vector_5" d="M111.973 2.72824C111.708 2.73551 111.448 2.6672 111.222 2.5317C110.997 2.39619 110.817 2.19937 110.705 1.9654L110.366 0.943359H123.676C123.676 0.943359 124.461 13.7705 110.558 18.0883L109.525 16.7165C109.525 16.7165 119.245 12.6958 119.245 2.73245L111.973 2.72824Z" fill="var(--fill-0, #BBBBBB)"/>
<path id="Vector_6" d="M78.1931 17.3283H74.4257V1.6081e-08H77.2938C77.532 -6.53003e-07 77.7604 0.0922919 77.929 0.256633C78.0975 0.420973 78.1925 0.643944 78.1931 0.876636V17.3283Z" fill="var(--fill-0, #BBBBBB)"/>
<path id="Vector_7" d="M104.932 23.7619H100.791V16.9005C100.527 16.9978 100.253 17.0684 99.9739 17.1112C99.6677 17.166 99.3464 17.2103 99.01 17.2419C98.6736 17.2735 98.3415 17.3072 98.0029 17.3241C97.6643 17.3409 97.3559 17.3515 97.0648 17.3515H85.4627C85.0117 17.3587 84.576 17.1913 84.2508 16.8858C84.0897 16.7432 83.9615 16.5687 83.8749 16.374C83.7883 16.1792 83.7451 15.9686 83.7483 15.7563V0.912459H96.6335V2.66573H87.7486V7.72324H95.4409V9.48073H87.7486V14.7932C87.7471 14.902 87.7681 15.01 87.8103 15.1107C87.8526 15.2113 87.9152 15.3026 87.9945 15.379C88.0769 15.4573 88.1745 15.5187 88.2815 15.5596C88.3885 15.6005 88.5028 15.62 88.6177 15.6172H97.0648C97.3193 15.6172 97.6061 15.6172 97.9274 15.5919C98.2487 15.5666 98.5744 15.5476 98.9194 15.5118C99.2644 15.476 99.5987 15.4296 99.9265 15.379C100.217 15.3315 100.505 15.2689 100.789 15.1915V9.4449H98.5399C98.2788 9.45446 98.0204 9.39014 97.7959 9.25967C97.5713 9.12921 97.3901 8.93815 97.274 8.70946L96.9376 7.69163H100.791V1.37466e-07H104.026C104.144 -0.000276929 104.261 0.0221783 104.37 0.0660835C104.48 0.109989 104.579 0.174484 104.663 0.255887C104.746 0.33729 104.813 0.434007 104.858 0.540515C104.904 0.647024 104.927 0.761238 104.927 0.876636L104.932 23.7619Z" fill="var(--fill-0, #BBBBBB)"/>
<path id="Vector_8" d="M65.1656 7.75274H59.8131V10.8715C59.8022 11.1011 59.879 11.3265 60.0288 11.5037C60.1179 11.5893 60.2251 11.6549 60.3427 11.696C60.4604 11.7371 60.5858 11.7528 60.7102 11.7419H65.1203C65.6422 11.7419 66.2546 11.7208 66.9555 11.6723C67.5586 11.6507 68.1527 11.5222 68.7088 11.293V7.65581L67.3847 7.63263C67.1265 7.6452 66.87 7.58519 66.6456 7.4597C66.4213 7.33421 66.2384 7.1485 66.1188 6.92458L65.7824 5.90254H68.7088V0.00210736H71.5273C71.645 0.00210703 71.7616 0.0247971 71.8703 0.068878C71.979 0.112959 72.0778 0.177564 72.1609 0.258995C72.2441 0.340426 72.3099 0.437082 72.3548 0.543428C72.3996 0.649774 72.4226 0.763721 72.4223 0.878743V17.3283H68.7109V13.0779C68.5162 13.1615 68.311 13.2196 68.1006 13.2507C67.8375 13.2928 67.5442 13.335 67.2143 13.3687C66.8844 13.4024 66.5436 13.4277 66.1792 13.4446C65.8147 13.4614 65.4654 13.4741 65.1225 13.4741H57.6027C57.3609 13.487 57.119 13.4512 56.8919 13.3689C56.6649 13.2866 56.4576 13.1596 56.2829 12.9957C56.1267 12.8372 56.0043 12.65 55.9228 12.4449C55.8414 12.2397 55.8025 12.0208 55.8085 11.8009V6.02687H61.2149V2.5983H57.4129C57.1544 2.61128 56.8975 2.55147 56.6727 2.42595C56.4479 2.30044 56.2647 2.1145 56.1449 1.89024L55.8085 0.870313H64.2663C64.5056 0.871429 64.7347 0.965235 64.9032 1.13116C65.0718 1.29708 65.1662 1.52157 65.1656 1.75538V7.75274Z" fill="var(--fill-0, #BBBBBB)"/>
<path id="Vector_9" d="M130.236 1.37466e-07C130.354 -0.000276929 130.471 0.0221783 130.581 0.0660835C130.69 0.109989 130.789 0.174484 130.873 0.255887C130.957 0.33729 131.023 0.434007 131.068 0.540515C131.114 0.647024 131.137 0.761238 131.138 0.876636V8.02669H135.302V9.80736H131.138V23.7619H127.084V1.37466e-07H130.236Z" fill="var(--fill-0, #BBBBBB)"/>
<path id="Vector_10" d="M46.8978 23.8146H50.5444V0.00210736H46.8978V23.8146ZM41.0752 8.59145H36.5098V10.7156H41.073V15.7246C40.1632 16.0904 39.1864 16.2704 38.2027 16.2536H33.027C32.7943 16.2536 32.571 16.1632 32.4064 16.0024C32.2418 15.8415 32.1493 15.6234 32.1493 15.3959V3.53815H38.8087V1.82492H28.3582V16.262C28.3582 16.7149 28.5422 17.1493 28.8697 17.4697C29.1972 17.7902 29.6415 17.9705 30.105 17.971H38.1941C39.4233 17.971 40.4196 17.7603 41.0644 17.3599V23.8146H44.7046V0.00210736H41.0644L41.0752 8.59145Z" fill="var(--fill-0, #BBBBBB)"/>
<path id="Vector_11" d="M13.7694 12.5742V10.2288H21.783V8.52401H6.68736C6.57036 8.52514 6.45431 8.50345 6.34599 8.46022C6.23767 8.41699 6.13927 8.35308 6.05653 8.27223C5.9738 8.19139 5.9084 8.09523 5.86416 7.98938C5.81991 7.88354 5.79772 7.77014 5.79887 7.65581V6.15963H21.4573V0.398279H2.04869V2.11362H17.7007V4.4464H2.04006V8.51769C2.0395 8.7422 2.08426 8.96461 2.17179 9.17219C2.25932 9.37977 2.3879 9.56844 2.55016 9.72739C2.71242 9.88633 2.90517 10.0124 3.11738 10.0985C3.32959 10.1845 3.55709 10.2288 3.78684 10.2288H9.98467V12.5742H1.6552e-07V14.2875H23.8209V12.5742H13.7694ZM13.8729 15.3854H9.65041C8.53549 19.9118 3.04716 22.194 1.02435 22.4806L2.07457 24C4.13189 23.7556 8.82231 22.1034 11.7552 18.9762C14.6902 22.1098 19.3785 23.7556 21.4358 24L22.486 22.4806C20.4718 22.194 14.9813 19.9118 13.8599 15.3854" fill="var(--fill-0, #BBBBBB)"/>
</g>
<defs>
<clipPath id="clip0_0_642">
<rect width="166" height="24" fill="white"/>
</clipPath>
</defs>
</svg>
