<svg preserveAspectRatio="none" width="100%" height="100%" overflow="visible" style="display: block;" viewBox="0 0 128 40" fill="none" xmlns="http://www.w3.org/2000/svg">
<g id="Client Logo / Exact" clip-path="url(#clip0_0_69)">
<path id="Vector" d="M28.5697 36.6032C26.3563 38.7785 23.3614 39.9997 20.2396 39.9997C17.1178 39.9997 14.1229 38.7785 11.9094 36.6032L3.43837 28.2324C1.23644 26.0438 0.000488281 23.083 0.000488281 19.9968C0.000488281 16.9107 1.23644 13.9499 3.43837 11.7613L11.9094 3.39847C14.1229 1.22308 17.1178 0.00195313 20.2396 0.00195312C23.3614 0.00195312 26.3563 1.22308 28.5697 3.39847L37.0408 11.7613C39.2427 13.9499 40.4787 16.9107 40.4787 19.9968C40.4787 23.083 39.2427 26.0438 37.0408 28.2324L28.5697 36.6032Z" fill="var(--fill-0, #BBBBBB)"/>
<path id="Vector_2" d="M15.2189 32.2891C14.9748 32.2905 14.7357 32.2212 14.5311 32.0897C14.3265 31.9583 14.1654 31.7704 14.0677 31.5494C13.97 31.3284 13.9401 31.084 13.9815 30.8463C14.0229 30.6087 14.134 30.3882 14.3009 30.2123C14.4116 30.0919 14.5456 29.9947 14.695 29.9264C14.8443 29.8581 15.006 29.82 15.1705 29.8145C15.4883 29.8244 15.7904 29.953 16.016 30.1744C16.2415 30.3957 16.3738 30.6934 16.386 31.0073C16.3983 31.3212 16.2896 31.628 16.082 31.8659C15.8744 32.1038 15.5832 32.255 15.2672 32.2891H15.2189" fill="var(--fill-0, white)"/>
<path id="Vector_3" d="M19.7766 9.45295C19.4662 9.44005 19.1566 9.49063 18.867 9.60154C18.5774 9.71245 18.3141 9.88129 18.0936 10.0975C17.1273 11.0444 16.6281 12.9859 16.6683 15.5799C16.7247 18.7627 17.4736 25.0408 20.0342 28.2634C20.4034 28.7452 20.8494 29.1644 21.3548 29.5047C21.8542 29.8762 22.461 30.0798 23.0861 30.0855C23.3156 30.083 23.5445 30.0617 23.7705 30.0219C25.228 29.6718 27.0559 28.0724 28.4087 25.9399C28.5097 25.7812 28.6499 25.6504 28.8161 25.56C28.9823 25.4695 29.1691 25.4223 29.3588 25.4227C29.5696 25.4206 29.7765 25.4786 29.9547 25.5898C30.0806 25.6663 30.1897 25.767 30.2754 25.8859C30.3612 26.0048 30.4219 26.1395 30.4539 26.2821C30.4889 26.4237 30.494 26.571 30.4691 26.7147C30.4442 26.8584 30.3897 26.9955 30.309 27.1176C28.5939 29.815 26.2828 31.7167 24.2456 32.1942H24.1973C23.8283 32.2629 23.4535 32.2976 23.078 32.2976C22.0158 32.2869 20.9822 31.9566 20.1147 31.3507C19.4081 30.8765 18.7829 30.2935 18.2627 29.624C14.6875 25.0806 14.4378 16.5665 14.4217 15.6037C14.4217 13.3439 14.7197 10.2725 16.5073 8.51402C16.9296 8.09714 17.4323 7.76826 17.9855 7.54684C18.5388 7.32542 19.1314 7.21597 19.7282 7.22498H19.9376C20.5345 7.21552 21.1272 7.32476 21.6806 7.54621C22.2339 7.76765 22.7365 8.09677 23.1585 8.51402C24.9542 10.2725 25.2843 13.3439 25.2441 15.6037C25.2149 19.4697 24.1984 23.2658 22.2889 26.6401C22.2189 26.7761 22.1214 26.8965 22.0024 26.9937C21.8834 27.0909 21.7455 27.163 21.5972 27.2054C21.4489 27.2478 21.2933 27.2596 21.1402 27.2401C20.9871 27.2207 20.8396 27.1703 20.707 27.0922C20.5743 27.0141 20.4593 26.91 20.3691 26.7861C20.2789 26.6623 20.2154 26.5215 20.1825 26.3724C20.1496 26.2234 20.1481 26.0692 20.178 25.9195C20.2079 25.7698 20.2686 25.6278 20.3563 25.5023C22.1635 22.5017 23.11 19.0716 23.0941 15.5799C23.1344 12.9859 22.6351 11.0444 21.6769 10.0975C21.4556 9.88245 21.1921 9.71437 20.9028 9.60354C20.6134 9.49271 20.3041 9.44147 19.994 9.45295H19.7766Z" fill="var(--fill-0, white)"/>
<path id="Vector_4" d="M70.7721 6.51758C65.2241 6.51758 61.9146 9.90728 61.9146 14.0927C61.9146 18.2781 65.2402 21.6598 70.7721 21.6598C76.3041 21.6598 79.6297 18.2781 79.6297 14.0927C79.6297 9.90728 76.296 6.51758 70.7721 6.51758ZM70.7721 20.0445C68.1148 20.0445 66.0937 17.3789 66.0937 14.1006C66.0937 10.8223 68.1148 8.14877 70.7721 8.14877C73.4294 8.14877 75.4666 10.8144 75.4666 14.1006C75.4666 17.3869 73.4374 20.0445 70.7721 20.0445Z" fill="var(--fill-0, #BBBBBB)"/>
<path id="Vector_5" d="M80.4187 8.75315H86.2647V21.0309H90.6693V8.75315H95.6054V7.07422H80.4187V8.75315Z" fill="var(--fill-0, #BBBBBB)"/>
<path id="Vector_6" d="M97.2078 8.75315H102.136V21.0309H106.54V8.75315H112.394V7.07422H97.2078V8.75315Z" fill="var(--fill-0, #BBBBBB)"/>
<path id="Vector_7" d="M53.1293 18.5323V7.07422H48.9019V19.3758C48.9019 19.5938 48.9454 19.8097 49.0301 20.011C49.1148 20.2123 49.2389 20.3951 49.3953 20.5489C49.5516 20.7027 49.7372 20.8245 49.9414 20.9072C50.1455 20.9899 50.3642 21.0319 50.5848 21.0308H61.391V19.3678H53.9668C53.8576 19.368 53.7494 19.3462 53.649 19.3037C53.5486 19.2612 53.458 19.1991 53.3827 19.1209C53.3073 19.0427 53.2489 18.9503 53.2109 18.8491C53.1729 18.7479 53.1561 18.6401 53.1615 18.5323" fill="var(--fill-0, #BBBBBB)"/>
<path id="Vector_8" d="M114.794 8.75273V19.3992C114.794 19.8403 114.971 20.2633 115.287 20.5752C115.603 20.887 116.031 21.0623 116.477 21.0623H128V19.4072H119.867C119.758 19.4126 119.649 19.396 119.547 19.3584C119.444 19.3209 119.351 19.2631 119.272 19.1887C119.192 19.1143 119.129 19.0247 119.087 18.9255C119.044 18.8262 119.022 18.7194 119.022 18.6115V14.4898H127.879V12.8983H119.022V9.54843C119.022 9.44051 119.044 9.33368 119.087 9.23445C119.129 9.13523 119.192 9.04567 119.272 8.97124C119.351 8.89681 119.444 8.83905 119.547 8.80149C119.649 8.76393 119.758 8.74733 119.867 8.75273H128V7.10562H116.501C116.281 7.10457 116.062 7.14661 115.858 7.22932C115.654 7.31202 115.468 7.43377 115.312 7.58756C115.155 7.74135 115.031 7.92416 114.947 8.12548C114.862 8.3268 114.818 8.54267 114.818 8.76068" fill="var(--fill-0, #BBBBBB)"/>
<path id="Vector_9" d="M57.5903 31.0956C57.4435 31.4427 57.2424 31.7649 56.9944 32.0505C56.7457 32.3512 56.446 32.6069 56.1087 32.8064C55.743 33.0262 55.347 33.1924 54.933 33.2997C54.4632 33.4248 53.9783 33.4863 53.4917 33.4827C52.872 33.4946 52.2553 33.3948 51.6718 33.1883C51.1705 33.0123 50.7084 32.7421 50.311 32.3926C49.9454 32.0672 49.6544 31.6685 49.4575 31.2229C49.2634 30.7644 49.1648 30.2718 49.1676 29.7748C49.1641 29.2802 49.2627 28.7901 49.4575 28.3345C49.6372 27.8917 49.9119 27.4927 50.2627 27.1649C50.6577 26.8121 51.1205 26.5415 51.6235 26.3691C52.2142 26.1699 52.8354 26.073 53.4595 26.0827C53.9611 26.0768 54.4616 26.1329 54.9491 26.2498C55.357 26.3565 55.7474 26.5199 56.1087 26.7352C56.4304 26.9334 56.7184 27.1804 56.9622 27.4672C57.1948 27.7548 57.3896 28.0702 57.542 28.4061H55.5048C55.4136 28.1844 55.2975 27.9736 55.1585 27.7775C55.0219 27.5941 54.8653 27.4259 54.6915 27.2762C54.5182 27.1403 54.3255 27.0303 54.1198 26.95C53.8642 26.8599 53.5923 26.8239 53.3218 26.8445C53.0513 26.865 52.7881 26.9417 52.5496 27.0694C52.2681 27.2325 52.0218 27.4488 51.8248 27.7059C51.6149 27.9861 51.4518 28.2977 51.3417 28.6289C51.227 28.9975 51.17 29.3812 51.1726 29.7668C51.1661 30.1643 51.2287 30.56 51.3578 30.9365C51.4657 31.2726 51.6319 31.5876 51.849 31.8675C52.048 32.1172 52.2976 32.3232 52.5818 32.4722C52.8558 32.62 53.1633 32.6967 53.4756 32.695C53.6951 32.6935 53.9128 32.6559 54.1198 32.5836C54.3274 32.5019 54.5225 32.3921 54.6995 32.2573C54.8825 32.1093 55.045 31.9381 55.1827 31.7481C55.3305 31.5448 55.4497 31.3227 55.537 31.0877L57.5903 31.0956Z" fill="var(--fill-0, #BBBBBB)"/>
<path id="Vector_10" d="M64.5315 26.377H66.617V33.1882H64.5315V26.377Z" fill="var(--fill-0, #BBBBBB)"/>
<path id="Vector_11" d="M81.9487 32.6233C81.9525 32.7768 81.8946 32.9256 81.7877 33.037C81.7242 33.0954 81.6493 33.1404 81.5676 33.1691C81.4859 33.1978 81.3991 33.2098 81.3126 33.2041H80.1933C79.9862 33.2173 79.781 33.1581 79.6136 33.037C79.4659 32.9191 79.3405 32.7764 79.2432 32.6153L76.1752 27.8411V33.1882H74.0896V26.9579C74.0849 26.808 74.1399 26.6623 74.2426 26.5521C74.3039 26.4902 74.3783 26.4424 74.4604 26.4121C74.5425 26.3818 74.6304 26.3699 74.7177 26.377H75.9417C76.1381 26.37 76.3311 26.4289 76.4892 26.5441C76.6338 26.6472 76.7568 26.7769 76.8516 26.926L79.8551 31.7003V26.3929H81.9487V32.6233Z" fill="var(--fill-0, #BBBBBB)"/>
<path id="Vector_12" d="M95.7583 29.1633V29.959H91.3859V31.8846C91.3819 31.9482 91.3819 32.012 91.3859 32.0756C91.3905 32.1315 91.4131 32.1845 91.4503 32.2268C91.486 32.2759 91.5369 32.3122 91.5953 32.3302C91.6835 32.359 91.7761 32.3725 91.869 32.37H95.8147V33.1657H90.331C90.1943 33.1741 90.0571 33.1741 89.9204 33.1657C89.7986 33.1468 89.683 33.1005 89.5822 33.0304C89.4804 32.9571 89.4044 32.8542 89.3648 32.736C89.303 32.5652 89.2757 32.3841 89.2842 32.2029V27.373C89.2802 27.192 89.3074 27.0118 89.3648 26.8399C89.4101 26.7225 89.4883 26.6204 89.5902 26.5455C89.6808 26.4735 89.7893 26.4268 89.9043 26.4102C90.0249 26.4023 90.146 26.4023 90.2666 26.4102H95.8147V27.2059H91.9254C91.7811 27.1948 91.6365 27.2222 91.5067 27.2855C91.4181 27.3412 91.3778 27.4764 91.3778 27.6913V29.1713L95.7583 29.1633Z" fill="var(--fill-0, #BBBBBB)"/>
<path id="Vector_13" d="M106.983 33.188H106.774C106.707 33.1941 106.64 33.1802 106.581 33.1483C106.509 33.1039 106.447 33.0473 106.396 32.9811C106.313 32.8664 106.248 32.7404 106.202 32.6072L104.423 28.1433V33.188H103.191V26.9497C103.189 26.7989 103.247 26.6534 103.352 26.5439C103.415 26.4847 103.489 26.4393 103.571 26.4105C103.653 26.3817 103.74 26.3702 103.827 26.3768H105.164C105.357 26.3697 105.548 26.4287 105.703 26.5439C105.843 26.6488 105.951 26.789 106.017 26.9497L107.466 30.8248L109.029 26.9497C109.094 26.791 109.199 26.6513 109.335 26.5439C109.486 26.4274 109.674 26.3682 109.866 26.3768H111.307C111.394 26.3702 111.481 26.3817 111.563 26.4105C111.645 26.4393 111.72 26.4847 111.783 26.5439C111.888 26.6534 111.945 26.7989 111.944 26.9497V33.188H109.85V28.0239L107.958 32.6867C107.923 32.7949 107.872 32.897 107.805 32.9891C107.756 33.0479 107.696 33.0965 107.628 33.1323C107.571 33.163 107.507 33.1794 107.442 33.1801H106.991L106.983 33.188Z" fill="var(--fill-0, #BBBBBB)"/>
<path id="Vector_14" d="M125.488 33.1883L124.779 31.8277H120.809L120.093 33.1883H118.732L122.226 26.8227C122.293 26.6885 122.396 26.5754 122.524 26.4965C122.658 26.415 122.811 26.371 122.967 26.3691H123.668C123.824 26.371 123.977 26.415 124.111 26.4965C124.244 26.572 124.35 26.6858 124.417 26.8227L127.678 33.1883H125.488ZM121.22 31.016H124.36L123.169 28.6926L123.016 28.4618C122.99 28.4293 122.957 28.4031 122.919 28.3852C122.881 28.3672 122.84 28.3581 122.798 28.3584C122.753 28.3565 122.708 28.3656 122.667 28.385C122.626 28.4045 122.591 28.4336 122.565 28.4698C122.506 28.5371 122.457 28.6121 122.42 28.6926L121.22 31.016Z" fill="var(--fill-0, #BBBBBB)"/>
</g>
<defs>
<clipPath id="clip0_0_69">
<rect width="128" height="40" fill="white"/>
</clipPath>
</defs>
</svg>
