<svg preserveAspectRatio="none" width="100%" height="100%" overflow="visible" style="display: block;" viewBox="0 0 86 44" fill="none" xmlns="http://www.w3.org/2000/svg">
<g id="Client Logo / Exact" clip-path="url(#clip0_0_551)">
<path id="Vector" fill-rule="evenodd" clip-rule="evenodd" d="M24.4759 19.7865L24.2607 3.04082C24.2607 3.04082 43.7762 -1.92717 53.5089 16.2424L34.4315 23.8491C34.4315 23.8491 29.5555 19.3222 24.4759 19.7865" fill="var(--fill-0, #BBBBBB)"/>
<path id="Vector_2" fill-rule="evenodd" clip-rule="evenodd" d="M31.715 28.8515C31.715 28.8515 34.3509 41.581 21.6711 43.7671C21.6711 43.7671 12.7529 45.5237 5.82129 39.4414L16.9642 31.9043C16.9642 31.9043 19.9651 36.5202 25.0831 35.4252C30.5585 34.2374 31.2309 29.9813 31.7304 28.8477" fill="var(--fill-0, #BBBBBB)"/>
<path id="Vector_3" fill-rule="evenodd" clip-rule="evenodd" d="M6.55124 37.5849L16.8258 31.0074C16.8258 31.0074 15.5309 27.4091 17.0179 24.4956L0.0307381 16.6915C0.0307381 16.6915 -0.814584 30.0788 6.56277 37.5849" fill="var(--fill-0, #BBBBBB)"/>
<path id="Vector_4" fill-rule="evenodd" clip-rule="evenodd" d="M3.40051 17.0436L17.5135 23.7875C18.1819 22.7083 19.0803 21.7922 20.1435 21.1056C21.2068 20.419 22.4084 19.9791 23.6613 19.8178L22.3511 2.36154e-07C22.3511 2.36154e-07 7.98829 4.80549 3.38897 17.0436" fill="var(--fill-0, #BBBBBB)"/>
<path id="Vector_5" fill-rule="evenodd" clip-rule="evenodd" d="M44.4331 25.9666L44.4485 34.3434L38.854 25.986L35.4036 25.9976L35.4535 39.7795L38.9078 39.764L38.8617 31.0894L44.4754 39.7408L47.9259 39.7254L47.8759 25.9512L44.4331 25.9666Z" fill="var(--fill-0, #BBBBBB)"/>
<path id="Vector_6" fill-rule="evenodd" clip-rule="evenodd" d="M53.2822 37.0165L53.2668 33.6697L59.9026 33.6465L59.8834 31.2322L53.2553 31.2592L53.2438 28.4193L60.3675 28.3883L60.356 25.9082L53.2323 25.9353H52.6713L49.7126 25.943L49.7664 39.7211L52.7251 39.7095H53.2937L60.552 39.6785L60.5405 36.9778L53.2822 37.0165Z" fill="var(--fill-0, #BBBBBB)"/>
<path id="Vector_7" fill-rule="evenodd" clip-rule="evenodd" d="M71.9099 39.6274L75.5755 39.6197L78.8377 28.5268L82.2613 39.6004L85.9961 39.5849L80.9472 25.8262L76.8512 25.8378L71.9099 39.6274Z" fill="var(--fill-0, #BBBBBB)"/>
<path id="Vector_8" fill-rule="evenodd" clip-rule="evenodd" d="M70.0157 25.8691H68.0945H66.1196H65.9812H62.5231L62.5731 39.6433H66.1657V34.331H68.1214H70.0234C73.3509 34.331 73.4815 30.1949 73.4815 30.1949C73.4738 25.7879 70.0157 25.8691 70.0157 25.8691ZM68.279 32.0598H68.133H66.1657V28.2874L66.2271 28.2216H68.1253H68.2751C68.5277 28.2214 68.7777 28.2738 69.0093 28.3753C69.2409 28.4768 69.4493 28.6254 69.6213 28.8117C69.7933 28.998 69.9253 29.218 70.009 29.458C70.0928 29.698 70.1264 29.9528 70.1079 30.2065C70.1079 30.2065 69.985 32.0443 68.279 32.0559V32.0598Z" fill="var(--fill-0, #BBBBBB)"/>
</g>
<defs>
<clipPath id="clip0_0_551">
<rect width="86" height="44" fill="white"/>
</clipPath>
</defs>
</svg>
