<svg preserveAspectRatio="none" width="100%" height="100%" overflow="visible" style="display: block;" viewBox="0 0 134 24" fill="none" xmlns="http://www.w3.org/2000/svg">
<g id="Client Logo / Exact" clip-path="url(#clip0_0_471)">
<path id="Vector" d="M67.1478 0.037125H62.5985V9.34607H44.0146V0.037125H39.4653C38.9464 0.037125 38.4489 0.235906 38.082 0.589722C37.7151 0.943538 37.509 1.42342 37.509 1.92379V22.1212C37.509 22.6216 37.7151 23.1015 38.082 23.4553C38.4489 23.8091 38.9464 24.0079 39.4653 24.0079H44.0146V13.9823H62.6061V24.0079H67.1554C67.6742 24.0079 68.1718 23.8091 68.5386 23.4553C68.9055 23.1015 69.1116 22.6216 69.1116 22.1212V1.88724C69.1016 1.39196 68.8901 0.920296 68.5227 0.574145C68.1553 0.227995 67.6615 0.035112 67.1478 0.037125V0.037125Z" fill="var(--fill-0, #BBBBBB)"/>
<path id="Vector_2" d="M30.3136 0.0360614H25.7643V17.7253L11.4491 3.69237C9.17443 1.54977 7.61252 -0.0078125 3.98065 -0.0078125H0V22.1202C0 22.6205 0.206062 23.1004 0.572922 23.4542C0.939781 23.8081 1.43735 24.0068 1.95617 24.0068H6.50548V6.22982L20.6918 20.1238C23.0119 22.3176 25.0818 24.0141 28.4483 24.0141H32.2394V1.88617C32.2278 1.39777 32.0209 0.932574 31.662 0.58781C31.3031 0.243047 30.82 0.0453635 30.3136 0.0360614V0.0360614Z" fill="var(--fill-0, #BBBBBB)"/>
<path id="Vector_3" d="M87.7638 13.7106C86.3914 13.7106 86.1791 12.4601 86.1791 11.7215C86.1574 11.5072 86.1824 11.291 86.2525 11.0866C86.3227 10.8822 86.4364 10.6943 86.5864 10.5349C86.7363 10.3754 86.9192 10.2479 87.1233 10.1607C87.3274 10.0735 87.5481 10.0285 87.7713 10.0285C87.9945 10.0285 88.2153 10.0735 88.4194 10.1607C88.6235 10.2479 88.8064 10.3754 88.9563 10.5349C89.1063 10.6943 89.22 10.8822 89.2902 11.0866C89.3603 11.291 89.3853 11.5072 89.3636 11.7215C89.3636 12.4674 89.1513 13.7106 87.7638 13.7106ZM87.7638 8.89152C87.3427 8.86592 86.9207 8.92534 86.5248 9.06595C86.1289 9.20656 85.7678 9.42527 85.4646 9.70812C85.1613 9.99098 84.9225 10.3318 84.7635 10.7087C84.6046 11.0856 84.5289 11.4903 84.5414 11.897C84.5301 12.2998 84.6073 12.7004 84.7679 13.0725C84.9285 13.4445 85.1688 13.7796 85.4731 14.0558C85.7773 14.332 86.1387 14.5431 86.5335 14.6751C86.9283 14.8072 87.3475 14.8572 87.7638 14.822C89.7048 14.822 91.0014 13.652 91.0014 11.897C91.014 11.489 90.9379 11.0829 90.778 10.7049C90.6181 10.327 90.378 9.9855 90.0731 9.70241C89.7681 9.41933 89.4051 9.20091 89.0074 9.06126C88.6097 8.92161 88.1861 8.86379 87.7638 8.89152V8.89152Z" fill="var(--fill-0, #BBBBBB)"/>
<path id="Vector_4" d="M82.9112 6.99818H81.9255V12.8995L79.0291 7.67825C78.9378 7.45155 78.7698 7.26113 78.5525 7.13775C78.3351 7.01436 78.081 6.96521 77.8311 6.99818H76.6104V14.1499C76.6164 14.296 76.6818 14.434 76.7925 14.534C76.9032 14.6339 77.0502 14.6877 77.2018 14.6837H78.1799V8.81169L81.0839 14.0329C81.1752 14.2577 81.3423 14.4462 81.5582 14.5683C81.7741 14.6903 82.0264 14.7387 82.2743 14.7057H83.4951V7.56122C83.4972 7.48673 83.4835 7.41264 83.4549 7.34341C83.4263 7.27419 83.3833 7.21128 83.3287 7.15859C83.2741 7.1059 83.2089 7.06451 83.1371 7.03692C83.0653 7.00934 82.9885 6.99617 82.9112 6.99818Z" fill="var(--fill-0, #BBBBBB)"/>
<path id="Vector_5" d="M111.443 6.9982V10.1207H108.008V6.9982H106.954C106.879 6.99626 106.804 7.00875 106.734 7.03498C106.664 7.06121 106.599 7.10064 106.545 7.15098C106.491 7.20133 106.447 7.2616 106.417 7.32826C106.387 7.39493 106.371 7.46668 106.37 7.53933V14.1207C106.372 14.1927 106.389 14.2637 106.42 14.3295C106.45 14.3953 106.493 14.4547 106.548 14.5043C106.602 14.5538 106.666 14.5926 106.736 14.6184C106.805 14.6442 106.88 14.6564 106.954 14.6545H108.008V11.298H111.443V14.6618H112.482C112.633 14.6658 112.78 14.6119 112.891 14.512C113.002 14.4121 113.067 14.2741 113.073 14.128V7.54665C113.071 7.47366 113.054 7.40175 113.024 7.33505C112.993 7.26834 112.949 7.20815 112.894 7.1579C112.839 7.10765 112.774 7.06831 112.703 7.04217C112.633 7.01602 112.557 7.00358 112.482 7.00552L111.443 6.9982Z" fill="var(--fill-0, #BBBBBB)"/>
<path id="Vector_6" d="M95.6569 9.02344H92.0781V14.1423C92.0841 14.2884 92.1494 14.4264 92.2601 14.5263C92.3708 14.6263 92.5179 14.6801 92.6695 14.6761H93.6552V10.1057H95.1034C96.18 10.1057 96.1801 11.1075 96.1801 11.773V14.698H97.1582C97.3098 14.702 97.4569 14.6482 97.5676 14.5482C97.6783 14.4483 97.7436 14.3104 97.7495 14.1642V11.2392C97.7495 9.83516 96.9838 9.02344 95.6569 9.02344Z" fill="var(--fill-0, #BBBBBB)"/>
<path id="Vector_7" d="M125.993 9.02441H125.015V13.5948H123.559C122.49 13.5948 122.49 12.593 122.49 11.9349V9.00982H121.504C121.353 9.00784 121.207 9.0635 121.097 9.16478C120.988 9.26607 120.925 9.40482 120.921 9.55094V12.476C120.921 13.8873 121.679 14.6698 123.006 14.6698H126.585V9.55094C126.575 9.40676 126.508 9.27171 126.398 9.17371C126.288 9.07571 126.143 9.02223 125.993 9.02441Z" fill="var(--fill-0, #BBBBBB)"/>
<path id="Vector_8" d="M130.96 13.7116C129.891 13.7116 129.511 12.7025 129.511 11.8396C129.511 10.9767 129.974 10.0041 130.982 10.0041C131.991 10.0041 132.355 10.9474 132.355 11.8396C132.355 12.7317 131.983 13.7116 130.96 13.7116ZM131.407 8.89258C130.683 8.90327 129.994 9.18987 129.489 9.68967L129.428 9.76278V9.03152H128.511C128.358 9.0295 128.211 9.08494 128.101 9.18604C127.99 9.28713 127.925 9.42587 127.919 9.57265V16.4758C127.925 16.6225 127.99 16.7613 128.101 16.8624C128.211 16.9635 128.358 17.0189 128.511 17.0169H129.504V14.1358L129.565 14.1796C130.069 14.5976 130.712 14.8261 131.377 14.8231C133.742 14.8231 133.993 12.739 133.993 11.8469C133.993 10.9548 133.712 8.89258 131.437 8.89258H131.407Z" fill="var(--fill-0, #BBBBBB)"/>
<path id="Vector_9" d="M101.867 13.5787C100.957 13.5787 100.456 12.6792 100.456 11.8237C100.456 11.3995 100.57 10.0028 101.935 10.0028C102.799 10.0028 103.315 10.6683 103.315 11.7944C103.315 12.9206 102.777 13.5787 101.867 13.5787ZM104.293 9.02291H103.383V9.75417L103.322 9.68838C103.087 9.43248 102.794 9.23307 102.464 9.1061C102.135 8.97914 101.78 8.92814 101.427 8.95712C99.6299 8.95712 98.8186 10.4781 98.8186 11.8822C98.8186 12.7451 99.0613 14.7414 101.328 14.7414C101.685 14.7739 102.045 14.7246 102.378 14.5975C102.712 14.4704 103.009 14.2692 103.247 14.0101L103.315 13.9297V13.9297C103.315 15.012 103.171 15.9114 101.419 15.9114H99.6299V16.4599C99.6319 16.5329 99.6488 16.6048 99.6796 16.6715C99.7103 16.7382 99.7544 16.7984 99.8093 16.8486C99.8642 16.8989 99.9289 16.9382 99.9996 16.9644C100.07 16.9905 100.146 17.0029 100.221 17.001H101.624C103.815 17.001 104.884 16.065 104.884 14.1417V9.54212C104.873 9.40051 104.806 9.26831 104.698 9.17202C104.59 9.07574 104.448 9.02248 104.301 9.02291H104.293Z" fill="var(--fill-0, #BBBBBB)"/>
<path id="Vector_10" d="M114.817 17.0088C114.742 17.0108 114.667 16.9983 114.597 16.972C114.526 16.9458 114.462 16.9064 114.408 16.856C114.354 16.8057 114.31 16.7454 114.28 16.6787C114.25 16.6121 114.234 16.5403 114.233 16.4677V15.9192H115.181C115.871 15.9192 116.258 15.5902 116.258 14.9979L113.885 9.02344H115.583L117.145 13.2721L118.396 9.89364C118.639 9.24282 118.828 9.02344 119.488 9.02344H120.246C120.246 9.08925 117.858 14.8151 117.858 14.8151C117.38 15.9924 116.963 17.0088 115.363 17.0088H114.817Z" fill="var(--fill-0, #BBBBBB)"/>
</g>
<defs>
<clipPath id="clip0_0_471">
<rect width="134" height="24" fill="white"/>
</clipPath>
</defs>
</svg>
