<svg preserveAspectRatio="none" width="100%" height="100%" overflow="visible" style="display: block;" viewBox="0 0 109 36" fill="none" xmlns="http://www.w3.org/2000/svg">
<g id="Client Logo / Exact" clip-path="url(#clip0_0_208)">
<path id="Vector" d="M54.4986 14.3225C32.8392 14.3225 13.4863 9.00694 0.403469 0.847774C0.3062 0.786843 0.212094 0.720969 0.121519 0.650413C0.064565 0.597181 0.0256836 0.527366 0.0103462 0.450803C-0.00499111 0.374239 0.00399236 0.294783 0.0360245 0.223608C0.0680566 0.152432 0.121527 0.0931203 0.188913 0.0540319C0.256299 0.0149436 0.334206 -0.00195354 0.411668 0.00570794C0.531485 0.0337564 0.64924 0.0700198 0.764105 0.114251C15.2632 5.04824 34.0555 7.84416 54.5019 7.84416C74.9482 7.84416 93.7405 5.04824 108.245 0.114251C108.358 0.0700485 108.476 0.0359292 108.595 0.012283C108.675 0.00275314 108.756 0.0200353 108.824 0.06141C108.893 0.102785 108.946 0.165913 108.976 0.240893C109.007 0.311708 109.014 0.391084 108.996 0.466452C108.978 0.54182 108.935 0.608867 108.874 0.656988C108.787 0.729769 108.694 0.79575 108.597 0.854349C95.5141 9.02174 76.1628 14.3291 54.5019 14.3291" fill="var(--fill-0, #BBBBBB)"/>
<path id="Vector_2" d="M12.0386 19.862H13.4352C14.3974 19.862 15.2203 20.2172 15.7416 20.8587C16.1266 21.3561 16.3308 21.9706 16.3203 22.6003C16.3193 22.8632 16.2897 23.1252 16.2318 23.3816C15.8383 25.3848 13.9188 26.9505 11.8664 26.9505H10.5305C10.5878 26.6544 11.9976 20.0561 12.0386 19.862M18.9595 22.4688C18.9699 21.6447 18.6985 20.8419 18.1907 20.1942C17.3497 19.1515 15.8957 18.5742 14.0925 18.5742H7.46507L7.32246 19.4179H7.47327C8.45681 19.4179 8.92236 19.5265 9.15678 19.811C9.48462 20.2238 9.37643 21.1086 9.07973 22.4852L7.18148 31.5309C6.59791 34.2396 6.17499 34.682 4.17511 34.682H4.07675L3.8866 35.5225H11.1337L11.3304 34.682H11.1665C10.1944 34.682 9.72887 34.5718 9.49938 34.2873C9.35348 34.1228 9.29611 33.8498 9.29611 33.4913C9.32781 32.8471 9.41668 32.207 9.56167 31.5786C9.56167 31.5786 10.1813 28.7547 10.3075 28.1988H12.132C15.5056 28.1988 18.2693 26.2383 18.8529 23.4293C18.9226 23.1116 18.9589 22.7875 18.9611 22.4622" fill="var(--fill-0, #BBBBBB)"/>
<path id="Vector_3" d="M28.2131 34.631C28.0787 34.631 28.0213 34.5849 27.9983 34.5487C27.9213 34.4533 27.8492 34.2198 27.9721 33.6475L29.5671 26.0047H27.4361L26.5542 30.2545C25.9312 33.0932 24.0953 34.4106 23.0478 34.4106C22.4905 34.4106 22.1085 34.2658 21.8708 33.9698C21.5282 33.5356 21.4889 32.7593 21.7446 31.5867L22.579 27.7201C22.7101 27.0836 22.6216 26.5491 22.3101 26.1758C22.0348 25.8287 21.5807 25.6445 21.0233 25.6445C20.3496 25.6445 19.4284 26.0475 18.7694 26.6215L18.7284 26.6626V27.6839L18.9415 27.4783C19.1612 27.2728 19.8349 26.8731 20.189 26.8731C20.2266 26.8703 20.2644 26.8767 20.2989 26.8919C20.3335 26.9071 20.3639 26.9306 20.3873 26.9603C20.5021 27.1033 20.5168 27.4323 20.4234 27.8911L19.5956 31.6739C19.2677 33.1968 19.4316 34.3958 20.0349 35.149C20.4889 35.7181 21.1823 35.9993 22.0856 35.9993C23.3707 35.9993 24.7395 35.2691 25.7624 34.0701C25.7497 34.1458 25.741 34.2221 25.7362 34.2987C25.7188 34.6902 25.8447 35.0745 26.0902 35.3793C26.3673 35.7164 26.7984 35.8924 27.3459 35.8924C27.9688 35.8924 28.9294 35.473 29.6212 34.8875L29.6671 34.8497V33.8958L29.4704 34.0455C29.1966 34.2445 28.5245 34.631 28.2114 34.631" fill="var(--fill-0, #BBBBBB)"/>
<path id="Vector_4" d="M36.7273 18.0703L36.542 18.1065L32.4931 18.817L32.3505 19.6393H32.5046C33.2127 19.6393 33.5832 19.7314 33.7619 19.9682C34.0783 20.358 33.9602 21.284 33.6439 22.7428L31.3112 33.79C31.1932 34.4479 31.2981 35.007 31.6161 35.382C31.8899 35.7192 32.3259 35.8952 32.8734 35.8952C33.4914 35.8952 34.4569 35.4741 35.1503 34.8903L35.1995 34.8524V33.8953L34.9897 34.0449C34.7225 34.2439 34.052 34.6288 33.7389 34.6288C33.6984 34.6332 33.6573 34.6282 33.619 34.6142C33.5806 34.6003 33.5459 34.5777 33.5176 34.5482C33.4422 34.4528 33.375 34.2193 33.4914 33.6486L36.7273 18.0703Z" fill="var(--fill-0, #BBBBBB)"/>
<path id="Vector_5" d="M52.7771 34.6295C52.7386 34.6326 52.7 34.6265 52.6643 34.6116C52.6287 34.5968 52.5971 34.5736 52.5722 34.544C52.4624 34.396 52.4558 34.0736 52.5722 33.6526L53.3344 29.8337C53.7016 28.1298 53.6016 26.972 53.0459 26.2829C52.6427 25.7895 51.9968 25.5312 51.1182 25.5312C49.7117 25.5312 48.202 26.4555 47.2987 27.8107C47.2561 27.0871 47.0594 26.5329 46.6922 26.1546C46.289 25.7401 45.6857 25.5312 44.8891 25.5312C43.6301 25.5312 42.2663 26.2681 41.3516 27.416C41.3516 27.3322 41.3794 27.2516 41.3794 27.1743C41.3918 26.8125 41.2756 26.4581 41.0516 26.1743C40.7696 25.8273 40.3254 25.6431 39.7599 25.6431C39.091 25.6431 38.1616 26.046 37.5059 26.62L37.4666 26.6611V27.6825L37.6829 27.4769C37.896 27.2713 38.5747 26.8717 38.9255 26.8717C38.9636 26.8687 39.0019 26.8751 39.037 26.8903C39.0721 26.9055 39.1031 26.929 39.1271 26.9588C39.2468 27.1019 39.2582 27.4308 39.1615 27.8897L37.537 35.5292H39.6681L40.5877 31.281C41.1942 28.2318 42.9761 27.1003 43.9563 27.1003C44.4481 27.1003 44.7628 27.2039 44.9399 27.4292C45.2431 27.8025 45.2481 28.5212 44.9563 29.9143L43.7891 35.5209H45.8857L46.807 31.2728C47.384 28.4012 49.1216 27.1003 50.1805 27.1003C50.6723 27.1003 51.0002 27.2121 51.1887 27.4456C51.4903 27.8272 51.4903 28.5657 51.1887 29.9126L50.3887 33.7842C50.2559 34.4223 50.351 34.9749 50.6592 35.3581C50.9362 35.7051 51.3805 35.8893 51.9476 35.8893C52.5591 35.8893 53.4836 35.4749 54.1869 34.8844L54.2409 34.8466V33.8598L54.0262 34.0358C53.7803 34.2414 53.1164 34.618 52.7771 34.618" fill="var(--fill-0, #BBBBBB)"/>
<path id="Vector_6" d="M65.4894 34.631C65.4495 34.6348 65.4092 34.6293 65.3717 34.6151C65.3342 34.6008 65.3005 34.5781 65.2731 34.5487C65.1977 34.4533 65.1272 34.2198 65.2468 33.6475L66.85 26.0047H64.719L63.8273 30.2545C63.2093 33.0932 61.3684 34.4106 60.3226 34.4106C59.7685 34.4106 59.3849 34.2658 59.1488 33.9698C58.8046 33.5356 58.7603 32.7593 59.0177 31.5867L59.8537 27.7201C59.9832 27.0836 59.898 26.5491 59.5914 26.1758C59.3128 25.8287 58.862 25.6445 58.2948 25.6445C57.626 25.6445 56.7031 26.0475 56.0474 26.6215L56.0081 26.6626V27.6839L56.2228 27.4783C56.4392 27.2728 57.1113 26.8731 57.4653 26.8731C57.5031 26.8711 57.5409 26.8779 57.5756 26.893C57.6103 26.9082 57.641 26.9312 57.6653 26.9603C57.7801 27.1033 57.7948 27.4323 57.708 27.8911L56.8703 31.6739C56.5539 33.1968 56.7064 34.3958 57.3113 35.149C57.7653 35.7181 58.4587 35.9993 59.3587 35.9993C60.6504 35.9993 62.0159 35.2691 63.0437 34.0701C63.0297 34.1457 63.0204 34.222 63.0158 34.2987C62.9992 34.6893 63.1231 35.0728 63.365 35.3793C63.642 35.7164 64.0731 35.8924 64.619 35.8924C65.2403 35.8924 66.2042 35.473 66.8992 34.8875L66.9435 34.8497V33.8958L66.7386 34.0455C66.473 34.2445 65.8025 34.631 65.4829 34.631" fill="var(--fill-0, #BBBBBB)"/>
<path id="Vector_7" d="M72.6792 34.8833C72.0235 34.8833 71.5105 34.6629 71.1695 34.2254C70.6138 33.5363 70.4843 32.3077 70.8121 30.7716C71.2351 28.7717 72.435 26.6369 74.5086 26.6369C75.1643 26.6369 75.6561 26.8573 76.0053 27.2751C76.5528 27.9642 76.6806 29.1812 76.3561 30.7141C75.7938 33.3143 74.4201 34.8701 72.6792 34.8701M74.6808 25.5186C71.8629 25.5186 69.0401 27.8458 68.3975 30.7141C68.1057 32.1581 68.3975 33.51 69.2172 34.5116C69.9925 35.4655 71.1679 35.9918 72.512 35.9918C75.3348 35.9918 78.1183 33.6498 78.7313 30.7766C79.0379 29.3441 78.7625 28.002 77.9543 26.9938C77.1855 26.0416 76.0184 25.5136 74.6758 25.5136" fill="var(--fill-0, #BBBBBB)"/>
<path id="Vector_8" d="M90.1274 34.6295C90.0862 34.6336 90.0446 34.6284 90.0057 34.6141C89.9669 34.5999 89.9317 34.577 89.9028 34.5473C89.8323 34.4519 89.7651 34.2184 89.8848 33.646L90.6503 29.8337C90.9782 28.3124 90.8273 27.1151 90.2274 26.3799C89.7799 25.8174 89.0799 25.5312 88.1619 25.5312C86.8866 25.5312 85.5555 26.25 84.5162 27.4687C84.5355 27.3716 84.5476 27.2732 84.5523 27.1743C84.5633 26.8127 84.4472 26.4588 84.2245 26.1743C83.9425 25.8273 83.495 25.6431 82.9311 25.6431C82.259 25.6431 81.3345 26.046 80.6837 26.62L80.6427 26.6611V27.6825L80.8542 27.4769C81.0689 27.2713 81.7426 26.8717 82.0951 26.8717C82.1332 26.8686 82.1715 26.8749 82.2067 26.8901C82.2418 26.9053 82.2727 26.9289 82.2967 26.9588C82.4164 27.1019 82.4262 27.4308 82.3377 27.8897L80.7116 35.5292H82.8426L83.7605 31.281C84.3294 28.5558 86.1424 27.1003 87.2308 27.1003C87.7783 27.1003 88.1636 27.2368 88.3898 27.5295C88.7324 27.9588 88.7701 28.712 88.5045 29.9159L87.7013 33.7875C87.5865 34.4453 87.6898 35.0045 88.0013 35.3795C88.2832 35.7166 88.7193 35.8926 89.2619 35.8926C89.8864 35.8926 90.8454 35.4732 91.5371 34.8877L91.5879 34.8499V33.8944L91.3814 34.044C91.1109 34.243 90.4421 34.6295 90.129 34.6295" fill="var(--fill-0, #BBBBBB)"/>
<path id="Vector_9" d="M98.6465 26.9005C98.7789 26.8908 98.9119 26.9103 99.0359 26.9578C99.16 27.0052 99.2721 27.0794 99.3645 27.1752C99.4903 27.3455 99.5544 27.5538 99.5464 27.7656C99.5463 27.8634 99.5364 27.9609 99.5169 28.0567C99.2825 29.06 97.9826 30.4398 95.1844 31.0549L95.2352 30.8082C95.727 28.4745 97.0974 26.9005 98.6399 26.9005M101.427 28.0814C101.461 27.9225 101.479 27.7605 101.481 27.5979C101.486 27.1743 101.346 26.7618 101.086 26.4285C100.628 25.8545 99.8431 25.5371 98.8776 25.5371C96.6122 25.5371 93.7287 27.6225 93.0239 30.7326C92.7091 32.295 92.9845 33.7522 93.7796 34.7209C94.4664 35.563 95.4811 36.0054 96.7073 36.0054C98.076 36.0054 99.7989 35.2538 100.989 34.1403L101.063 34.0696L100.643 33.2917L100.525 33.3871C99.6382 34.0976 98.3776 34.6354 97.5744 34.6354C96.7712 34.6354 96.1352 34.4199 95.7122 33.9775C95.2893 33.5351 95.0696 32.9035 95.0696 32.0796C99.2973 31.3164 101.127 29.5172 101.433 28.0798" fill="var(--fill-0, #BBBBBB)"/>
</g>
<defs>
<clipPath id="clip0_0_208">
<rect width="109" height="36" fill="white"/>
</clipPath>
</defs>
</svg>
