<svg preserveAspectRatio="none" width="100%" height="100%" overflow="visible" style="display: block;" viewBox="0 0 174 44" fill="none" xmlns="http://www.w3.org/2000/svg">
<g id="Client Logo / Exact" clip-path="url(#clip0_0_29)">
<path id="Vector" d="M119.034 5.03763C118.162 0.0634108 103.114 -1.49367 85.4229 1.56413C77.9949 2.85348 71.2897 4.74876 66.066 6.88359C66.8669 6.90472 67.4623 7.08791 67.8309 7.44019C68.1073 7.72202 68.2491 8.10953 68.2491 8.58863V9.08183H66.5125V8.645C66.5125 8.28567 66.2928 8.06021 65.903 8.06021C65.5769 8.06021 65.3785 8.20112 65.3076 8.49704C65.2934 8.57454 65.2863 8.71545 65.3218 8.84227C65.506 9.59616 68.0789 10.0612 68.3625 11.4562C68.3979 11.6323 68.4475 12.0128 68.3695 12.5624C68.2065 13.6897 67.2142 14.1195 65.9526 14.1195C64.1877 14.1195 63.4718 13.2881 63.4718 12.1396V11.6042H65.3288V12.2805C65.3288 12.661 65.6053 12.8653 65.988 12.8653C66.3424 12.8653 66.5551 12.7244 66.6259 12.4285C66.6543 12.2946 66.6755 12.0974 66.6118 11.9424C66.2715 11.0828 63.8617 10.6812 63.5711 9.30024C63.5002 8.98319 63.5002 8.7225 63.5498 8.38431C63.5782 8.20112 63.6348 8.04612 63.7057 7.9052C57.9079 10.5966 54.5199 13.5628 54.9664 16.1204C55.8453 21.1017 70.8857 22.6517 88.577 19.5939C96.3524 18.2412 103.341 16.2331 108.664 13.9715C108.586 13.9715 108.515 13.9856 108.43 13.9856C107.218 13.9856 106.134 13.5347 106.027 12.3087C106.006 12.0833 106.006 11.9917 105.999 11.8649V9.03251C105.999 8.91273 106.02 8.70136 106.027 8.58863C106.176 7.39792 107.119 6.91177 108.43 6.91177C109.444 6.91177 110.684 7.20064 110.826 8.59568C110.847 8.77182 110.847 8.955 110.847 9.01841V9.28615H109.096V8.89159C109.096 8.89159 109.096 8.73659 109.075 8.63795C109.047 8.49704 108.926 8.16589 108.423 8.16589C107.92 8.16589 107.806 8.49704 107.771 8.63795C107.757 8.71545 107.743 8.82818 107.743 8.955V12.0269C107.743 12.1326 107.743 12.2171 107.757 12.2805C107.757 12.3299 107.856 12.7526 108.43 12.7526C109.004 12.7526 109.089 12.3228 109.096 12.2805C109.111 12.196 109.118 12.0974 109.111 12.0269V11.0757H108.423V10.0471H110.861V11.8719C110.861 11.9987 110.861 12.0903 110.84 12.3158C110.805 12.6399 110.705 12.9147 110.549 13.1472C116.191 10.4839 119.48 7.56701 119.041 5.04468L119.034 5.03763ZM73.1609 13.8588L72.275 7.86293H72.2466L71.3394 13.8588H69.4682L70.7298 7.08791H73.7847L75.0321 13.8588H73.168H73.1609ZM82.1625 13.8588L82.12 7.98271H82.0917L80.993 13.8588H79.2352L78.1437 7.98271H78.1154L78.0728 13.8588H76.3363L76.4852 7.08791H79.2849L80.1 12.1185H80.1425L80.9576 7.08791H83.7573L83.9061 13.8588H82.1767H82.1625ZM90.349 12.5483C90.1647 13.8588 88.8676 14.0913 87.9604 14.0913C86.4436 14.0913 85.508 13.4501 85.508 12.1326V11.5971H87.3508V12.2665C87.3508 12.6258 87.6131 12.8512 88.0029 12.8512C88.3573 12.8512 88.5629 12.7103 88.6338 12.4215C88.6692 12.2876 88.6834 12.0903 88.6196 11.9424C88.2794 11.1039 85.8907 10.6882 85.6072 9.32842C85.5364 9.01137 85.5364 8.75773 85.5931 8.41954C85.7915 7.1795 86.9894 6.92586 87.9533 6.92586C88.818 6.92586 89.4418 7.10905 89.8174 7.48247C90.0939 7.75725 90.2356 8.14476 90.2356 8.61681V9.11001H88.5203V8.68022C88.5203 8.31385 88.2864 8.09544 87.9179 8.09544C87.5918 8.09544 87.3934 8.24339 87.3225 8.52522C87.3083 8.58159 87.2941 8.7225 87.3296 8.86341C87.5139 9.61729 90.0655 10.0753 90.349 11.4562C90.3845 11.6323 90.4341 12.0128 90.349 12.5553V12.5483ZM96.7139 11.9353C96.7139 12.0621 96.7068 12.3158 96.6997 12.3792C96.5934 13.4924 95.7925 14.0631 94.3182 14.0631C92.8439 14.0631 92.0359 13.4924 91.9367 12.3792C91.9367 12.3158 91.9154 12.0621 91.9225 11.9353V7.08791H93.6803V12.0903C93.6803 12.203 93.6803 12.2876 93.7016 12.344C93.7228 12.4567 93.8362 12.816 94.3253 12.816C94.8144 12.816 94.9349 12.4567 94.9561 12.344C94.9632 12.2876 94.9703 12.203 94.9703 12.0903V7.08791H96.721V11.9353H96.7139ZM104.284 13.7883H101.846L100.201 8.42658H100.173L100.258 13.7883H98.5497V7.09496H101.094L102.611 12.2453H102.646L102.561 7.09496H104.277V13.7954L104.284 13.7883Z" fill="var(--fill-0, #BBBBBB)"/>
<g id="Group">
<path id="Vector_2" d="M2.96985 43.9994C0.38987 43.9994 -0.0991923 42.4917 0.0142135 40.7725H2.09805C2.09805 41.7167 2.14057 42.5128 3.28881 42.5128C3.99759 42.5128 4.33781 42.0619 4.33781 41.3855C4.33781 39.603 0.134707 39.4902 0.134707 36.5381C0.134707 34.9881 0.878933 33.748 3.42348 33.748C5.45769 33.748 6.46417 34.6569 6.32241 36.7284H4.2882C4.2882 35.9886 4.1677 35.2347 3.32425 35.2347C2.64381 35.2347 2.24689 35.6081 2.24689 36.2915C2.24689 38.1727 6.44999 38.0107 6.44999 41.1248C6.44999 43.6965 4.55753 43.9924 2.96985 43.9924V43.9994Z" fill="var(--fill-0, #BBBBBB)"/>
<path id="Vector_3" d="M7.11621 43.8312L9.88048 33.918H12.6306L15.3381 43.8312H13.1409L12.588 41.6329H9.74581L9.17878 43.8312H7.11621ZM11.135 35.8273H11.1067L10.1569 40.1111H12.1486L11.1421 35.8273H11.135Z" fill="var(--fill-0, #BBBBBB)"/>
<path id="Vector_4" d="M16.2029 43.8312V33.918H19.5625L21.1219 40.6606H21.1502L22.8088 33.918H26.055V43.8312H24.0208V36.1796H23.9924L22.0716 43.8312H20.087L18.2654 36.1796H18.2371V43.8312H16.2029Z" fill="var(--fill-0, #BBBBBB)"/>
<path id="Vector_5" d="M30.3928 43.9994C27.8128 43.9994 27.3238 42.4917 27.4372 40.7725H29.5281C29.5281 41.7167 29.5706 42.5128 30.7118 42.5128C31.4205 42.5128 31.7608 42.0619 31.7608 41.3855C31.7608 39.603 27.5577 39.4902 27.5577 36.5381C27.5577 34.9881 28.3019 33.748 30.8464 33.748C32.8806 33.748 33.8871 34.6569 33.7454 36.7284H31.7111C31.7111 35.9886 31.5907 35.2347 30.7472 35.2347C30.0668 35.2347 29.6698 35.6081 29.6698 36.2915C29.6698 38.1727 33.8729 38.0107 33.8729 41.1248C33.8729 43.6965 31.9805 43.9924 30.3928 43.9924V43.9994Z" fill="var(--fill-0, #BBBBBB)"/>
<path id="Vector_6" d="M42.0382 33.918V40.9495C42.0382 42.4361 41.1948 44.0003 38.6502 44.0003C36.3608 44.0003 35.2551 42.8166 35.2551 40.9495V33.918H37.339V40.8086C37.339 42.0345 37.8635 42.5136 38.6219 42.5136C39.5362 42.5136 39.9473 41.9077 39.9473 40.8086V33.918H42.0311H42.0382Z" fill="var(--fill-0, #BBBBBB)"/>
<path id="Vector_7" d="M43.6826 43.8312V33.918H46.4965L49.1474 40.7875H49.1757V33.918H51.1249V43.8312H48.3748L45.6531 36.5812H45.6247V43.8312H43.6755H43.6826Z" fill="var(--fill-0, #BBBBBB)"/>
<path id="Vector_8" d="M57.3762 36.9687C57.3904 36.0527 57.2345 35.2425 56.1288 35.2425C54.8317 35.2425 54.8317 36.9828 54.8317 38.9062C54.8317 42.0133 55.1365 42.5559 56.3272 42.5559C56.6745 42.5559 57.0431 42.4713 57.362 42.3656V40.1674H56.228V38.6385H59.4459V43.662C58.8788 43.7748 57.4542 43.9932 56.6249 43.9932C53.1164 43.9932 52.7124 42.5488 52.7124 38.7935C52.7124 36.2923 52.84 33.7559 56.2492 33.7559C58.2906 33.7559 59.5664 34.8973 59.4388 36.9687H57.3691H57.3762Z" fill="var(--fill-0, #BBBBBB)"/>
<path id="Vector_9" d="M68.731 37.8905V33.9238H70.8148V43.837H68.731V39.4194H66.3424V43.837H64.2585V33.9238H66.3424V37.8905H68.731Z" fill="var(--fill-0, #BBBBBB)"/>
<path id="Vector_10" d="M72.5586 43.8312V33.918H78.0021V35.4398H74.6495V37.8847H77.7398V39.4065H74.6495V42.3023H78.1155V43.8241H72.5657L72.5586 43.8312Z" fill="var(--fill-0, #BBBBBB)"/>
<path id="Vector_11" d="M78.6328 43.8312L81.3971 33.918H84.1472L86.8547 43.8312H84.6575L84.1046 41.6329H81.2624L80.6954 43.8312H78.6328ZM82.6516 35.8273H82.6233L81.6735 40.1111H83.6652L82.6587 35.8273H82.6516Z" fill="var(--fill-0, #BBBBBB)"/>
<path id="Vector_12" d="M86.4578 33.918H88.6267L90.1718 41.1257H90.2002L91.9367 33.918H93.9922L91.3555 43.8312H88.9102L86.4507 33.918H86.4578Z" fill="var(--fill-0, #BBBBBB)"/>
<path id="Vector_13" d="M96.707 40.4L94.0986 33.918H96.3809L97.8765 38.1031L99.4642 33.918H101.591L98.7979 40.4V43.8312H96.7141V40.4H96.707Z" fill="var(--fill-0, #BBBBBB)"/>
<path id="Vector_14" d="M105.482 43.8312V33.918H107.566V43.8312H105.482Z" fill="var(--fill-0, #BBBBBB)"/>
<path id="Vector_15" d="M109.267 43.8312V33.918H112.08L114.731 40.7875H114.76V33.918H116.709V43.8312H113.959L111.237 36.5812H111.209V43.8312H109.26H109.267Z" fill="var(--fill-0, #BBBBBB)"/>
<path id="Vector_16" d="M118.438 33.918H121.918C124.654 33.918 125.165 35.7287 125.165 38.8217C125.165 40.3436 125.399 43.8312 121.833 43.8312H118.438V33.918ZM120.522 42.3093H121.529C122.797 42.3093 123.052 41.3582 123.052 38.8781C123.052 37.0533 123.052 35.4469 121.599 35.4469H120.522V42.3164V42.3093Z" fill="var(--fill-0, #BBBBBB)"/>
<path id="Vector_17" d="M133.507 33.918V40.9495C133.507 42.4361 132.664 44.0003 130.119 44.0003C127.83 44.0003 126.724 42.8166 126.724 40.9495V33.918H128.808V40.8086C128.808 42.0345 129.332 42.5136 130.091 42.5136C131.005 42.5136 131.416 41.9077 131.416 40.8086V33.918H133.5H133.507Z" fill="var(--fill-0, #BBBBBB)"/>
<path id="Vector_18" d="M137.845 43.9994C135.265 43.9994 134.776 42.4917 134.889 40.7725H136.973C136.973 41.7167 137.016 42.5128 138.164 42.5128C138.865 42.5128 139.213 42.0619 139.213 41.3855C139.213 39.603 135.01 39.4902 135.01 36.5381C135.01 34.9881 135.754 33.748 138.298 33.748C140.326 33.748 141.339 34.6569 141.197 36.7284H139.163C139.163 35.9886 139.043 35.2347 138.199 35.2347C137.526 35.2347 137.122 35.6081 137.122 36.2915C137.122 38.1727 141.318 38.0107 141.318 41.1248C141.318 43.6965 139.425 43.9924 137.838 43.9924L137.845 43.9994Z" fill="var(--fill-0, #BBBBBB)"/>
<path id="Vector_19" d="M148.696 33.918V35.5666H146.372V43.8312H144.288V35.5666H141.97V33.918H148.696Z" fill="var(--fill-0, #BBBBBB)"/>
<path id="Vector_20" d="M151.638 43.8312H149.554V33.918H153.41C154.834 33.918 155.742 34.8269 155.742 36.5108C155.742 37.7719 155.246 38.7231 153.892 38.9415V38.9697C154.345 39.0261 155.699 39.1317 155.699 40.9213C155.699 41.5554 155.742 43.4225 155.933 43.8312H153.892C153.615 43.2253 153.672 42.5559 153.672 41.9077C153.672 40.7241 153.785 39.7236 152.176 39.7236H151.638V43.8312ZM151.638 38.2017H152.559C153.388 38.2017 153.622 37.3774 153.622 36.7433C153.622 35.7992 153.225 35.4398 152.559 35.4398H151.638V38.2017Z" fill="var(--fill-0, #BBBBBB)"/>
<path id="Vector_21" d="M157.202 43.8312V33.918H159.285V43.8312H157.202Z" fill="var(--fill-0, #BBBBBB)"/>
<path id="Vector_22" d="M160.973 43.8312V33.918H166.416V35.4398H163.064V37.8847H166.154V39.4065H163.064V42.3023H166.53V43.8241H160.98L160.973 43.8312Z" fill="var(--fill-0, #BBBBBB)"/>
<path id="Vector_23" d="M170.52 43.9994C167.94 43.9994 167.451 42.4917 167.564 40.7725H169.648C169.648 41.7167 169.691 42.5128 170.832 42.5128C171.541 42.5128 171.881 42.0619 171.881 41.3855C171.881 39.603 167.685 39.4902 167.685 36.5381C167.685 34.9881 168.429 33.748 170.974 33.748C173.001 33.748 174.014 34.6569 173.872 36.7284H171.845C171.845 35.9886 171.718 35.2347 170.874 35.2347C170.201 35.2347 169.797 35.6081 169.797 36.2915C169.797 38.1727 173.993 38.0107 173.993 41.1248C173.993 43.6965 172.1 43.9924 170.513 43.9924L170.52 43.9994Z" fill="var(--fill-0, #BBBBBB)"/>
</g>
</g>
<defs>
<clipPath id="clip0_0_29">
<rect width="174" height="44" fill="white"/>
</clipPath>
</defs>
</svg>
