<svg preserveAspectRatio="none" width="100%" height="100%" overflow="visible" style="display: block;" viewBox="0 0 166 26" fill="none" xmlns="http://www.w3.org/2000/svg">
<g id="Client Logo / Exact" clip-path="url(#clip0_0_662)">
<path id="Vector" d="M137.399 19.832L137.078 0.773438H142.953V24.8058H134.502L128.65 5.08946H128.52L128.847 24.8058H123.012V0.773438H131.818L137.27 19.832H137.399Z" fill="var(--fill-0, #BBBBBB)"/>
<path id="Vector_2" d="M30.6586 3.02377L27.4168 25.0539H21.001L25.3985 0.773438H35.9525L40.3274 25.0539H33.9511L30.7882 3.02377H30.6586Z" fill="var(--fill-0, #BBBBBB)"/>
<path id="Vector_3" d="M58.3175 19.3416L61.2492 0.773438H70.918L71.4424 25.0539H65.5057L65.3591 3.22572L65.2295 3.23149L61.2661 25.0539H55.2449L51.2815 3.22572H51.1518L50.9996 25.0539H45.063L45.5873 0.773438H55.2618L58.1878 19.3416H58.3175Z" fill="var(--fill-0, #BBBBBB)"/>
<path id="Vector_4" d="M11.0219 18.1985C11.2075 18.7813 11.2231 19.4069 11.067 19.9987C10.8753 20.8065 10.3341 21.6259 8.75551 21.6259C7.27276 21.6259 6.37071 20.7546 6.37071 19.4275V17.0791H0.00561523V18.9486C0.00561523 24.3667 4.17196 25.9996 8.63148 25.9996C12.9219 25.9996 16.4511 24.4994 17.0149 20.4488C17.2331 19.1311 17.2331 17.7852 17.0149 16.4674C16.0114 11.3782 7.00779 9.86646 6.34252 7.02181C6.25325 6.60166 6.25325 6.1668 6.34252 5.74665C6.51166 4.97346 7.0247 4.11948 8.50745 4.11948C8.79897 4.09114 9.09304 4.12807 9.36923 4.2277C9.64542 4.32734 9.89711 4.48729 10.1068 4.69645C10.3166 4.90562 10.4793 5.15899 10.5838 5.43898C10.6883 5.71897 10.732 6.01888 10.7118 6.31788V7.81809H16.6315V6.08706C16.6315 0.801665 11.9916 -0.0234375 8.63148 -0.0234375C4.42003 -0.0234375 0.969685 1.40175 0.338249 5.3658C0.146462 6.44952 0.165616 7.56131 0.394622 8.63743C1.36433 13.6228 9.79851 15.0595 11.0219 18.1985Z" fill="var(--fill-0, #BBBBBB)"/>
<path id="Vector_5" d="M88.1474 18.1531C88.3318 18.73 88.3494 19.3491 88.1982 19.936C88.0065 20.7323 87.4709 21.5459 85.9092 21.5459C84.4378 21.5459 83.547 20.6803 83.547 19.3705V17.0625H77.2439V18.8974C77.2439 24.2578 81.3708 25.8734 85.7852 25.8734C90.0305 25.8734 93.5259 24.3905 94.0841 20.3745C94.3021 19.0723 94.3021 17.7416 94.0841 16.4393C93.0918 11.402 84.1784 9.90184 83.5188 7.08604C83.4231 6.67343 83.4135 6.2448 83.4906 5.82813C83.6597 5.05494 84.1671 4.21252 85.633 4.21252C85.922 4.18403 86.2137 4.22047 86.4876 4.31926C86.7615 4.41805 87.011 4.57681 87.2188 4.78449C87.4265 4.99217 87.5875 5.24375 87.6905 5.52167C87.7934 5.79959 87.8358 6.09718 87.8148 6.39363V7.87654H93.6781V6.2032C93.6781 0.969737 89.0833 0.150391 85.757 0.150391C81.585 0.150391 78.1685 1.56406 77.5483 5.48772C77.3594 6.56006 77.3786 7.65996 77.6047 8.72473C78.5913 13.6235 86.9409 15.043 88.1474 18.1531Z" fill="var(--fill-0, #BBBBBB)"/>
<path id="Vector_6" d="M108.054 21.4128C108.576 21.4524 109.093 21.2952 109.508 20.9709C109.924 20.6466 110.209 20.1777 110.31 19.6529C110.353 19.3473 110.37 19.0384 110.36 18.7297V0.767431H116.398V18.1758C116.398 18.6258 116.365 19.5375 116.342 19.7741C115.925 24.3036 112.429 25.775 108.066 25.775C103.702 25.775 100.201 24.3036 99.7894 19.7741C99.7894 19.5375 99.7218 18.6201 99.733 18.1758V0.767431H105.732V18.7297C105.721 19.0386 105.74 19.3478 105.788 19.6529C105.889 20.1799 106.176 20.6504 106.594 20.975C107.011 21.2995 107.531 21.4554 108.054 21.4128Z" fill="var(--fill-0, #BBBBBB)"/>
<path id="Vector_7" d="M157.549 21.1644C159.24 21.1644 159.866 20.045 159.973 19.3988C160.018 19.0933 160.037 18.7844 160.029 18.4756V14.9558H157.594V11.3957H166V17.9101C166 18.3601 166 18.6948 165.915 19.5026C165.521 23.9283 161.777 25.5035 157.571 25.5035C153.366 25.5035 149.622 23.9283 149.227 19.5026C149.171 18.9737 149.143 18.4421 149.143 17.9101V7.70857C149.143 7.27581 149.199 6.51418 149.244 6.11028C149.774 1.56922 153.366 0.109375 157.571 0.109375C161.777 0.109375 165.464 1.55768 165.898 6.11028C165.944 6.64172 165.963 7.17516 165.955 7.70857V8.51062H159.973V7.14888C159.973 6.83938 159.947 6.53045 159.894 6.22565C159.787 5.68903 159.33 4.46001 157.526 4.46001C156.989 4.40528 156.451 4.55513 156.016 4.88089C155.58 5.20665 155.277 5.68544 155.164 6.22565C155.095 6.60615 155.063 6.9927 155.068 7.37967V18.4756C155.061 18.7844 155.079 19.0933 155.125 19.3988C155.232 20.0508 155.829 21.1644 157.549 21.1644Z" fill="var(--fill-0, #BBBBBB)"/>
</g>
<defs>
<clipPath id="clip0_0_662">
<rect width="166" height="26" fill="white"/>
</clipPath>
</defs>
</svg>
