<svg preserveAspectRatio="none" width="100%" height="100%" overflow="visible" style="display: block;" viewBox="0 0 144 36" fill="none" xmlns="http://www.w3.org/2000/svg">
<g id="Client Logo / Exact" clip-path="url(#clip0_0_736)">
<path id="Vector" d="M19.1693 3.66211e-06C20.0535 0.384376 20.847 0.950048 21.4983 1.66033C22.1495 2.3706 22.644 3.20963 22.9496 4.123C23.9596 3.7025 25.0458 3.49484 26.1399 3.51303C27.2341 3.53122 28.3127 3.77486 29.3082 4.22871V4.22871V4.27224C26.6175 4.56685 24.0739 5.64856 21.9967 7.38159C21.5258 4.76588 20.5667 2.26188 19.1693 3.66211e-06V3.66211e-06ZM16.5598 36C15.6704 35.6271 14.8693 35.0719 14.2084 34.3702C13.5475 33.6685 13.0416 32.8361 12.7235 31.9268C11.7195 32.3637 10.6362 32.5891 9.54104 32.5891C8.44591 32.5891 7.36254 32.3637 6.35862 31.9268V31.9268V31.8832C9.04783 31.5412 11.5761 30.4141 13.6265 28.6433C14.1357 31.2569 15.1306 33.7521 16.5598 36V36ZM1.2207e-06 16.6599C0.369981 15.77 0.924065 14.9681 1.62597 14.3069C2.32788 13.6457 3.16176 13.14 4.073 12.8229C3.63708 11.8212 3.41213 10.7406 3.41213 9.64829C3.41213 8.55603 3.63708 7.47544 4.073 6.47366V6.47366H4.1166C4.45665 9.15844 5.58327 11.6831 7.35507 13.7309C4.74133 14.2387 2.24638 15.2323 1.2207e-06 16.6599V16.6599ZM35.9284 19.2842C35.5547 20.1721 34.9985 20.9718 34.2958 21.6317C33.5931 22.2916 32.7596 22.7968 31.8491 23.1149C32.2867 24.1173 32.5125 25.1991 32.5125 26.2926C32.5125 27.3861 32.2867 28.4679 31.8491 29.4704V29.4704H31.8055C31.4638 26.7842 30.3375 24.258 28.5671 22.2069C31.1829 21.7029 33.6802 20.7114 35.9284 19.2842ZM31.7931 6.33063C32.1495 7.22824 32.3116 8.19102 32.2687 9.15566C32.2257 10.1203 31.9787 11.0649 31.544 11.9274C32.5568 12.3415 33.473 12.9602 34.235 13.7446C34.997 14.529 35.5883 15.4623 35.972 16.4858V16.4858C33.8478 14.8023 31.275 13.7794 28.5733 13.5443C30.0873 11.3611 31.1793 8.9145 31.7931 6.33063V6.33063ZM4.26607 29.8248C3.91274 28.9265 3.75234 27.9642 3.79525 27C3.83816 26.0359 4.08344 25.0915 4.51518 24.228C3.50313 23.811 2.58778 23.1906 1.82603 22.4054C1.06428 21.6201 0.472403 20.6868 0.0871905 19.6635V19.6635L0.118332 19.6324C2.24569 21.3307 4.82854 22.3627 7.54191 22.5987C6.00672 24.7815 4.89553 27.2327 4.26607 29.8248V29.8248ZM6.07214 4.3904C6.96585 4.02298 7.9273 3.84853 8.89333 3.87854C9.85936 3.90855 10.8081 4.14234 11.6772 4.56452C12.0791 3.54846 12.6863 2.62596 13.461 1.85455C14.2357 1.08314 15.1612 0.479365 16.1799 0.0808497V0.0808497L16.2111 0.111936C14.5536 2.25229 13.5637 4.8325 13.3649 7.53083C11.1532 6.0358 8.67908 4.9704 6.07214 4.3904V4.3904ZM29.4078 31.5225C28.5141 31.89 27.5527 32.0644 26.5866 32.0344C25.6206 32.0044 24.6719 31.7706 23.8028 31.3484C23.4028 32.3649 22.7961 33.2875 22.0212 34.0581C21.2462 34.8288 20.3197 35.4307 19.3001 35.8259V35.8259V35.7948C20.9517 33.6456 21.9348 31.0594 22.1275 28.3572C24.3331 29.8605 26.8032 30.9344 29.4078 31.5225ZM17.3072 29.0351C16.9774 28.3419 16.8651 27.5654 16.9851 26.8074C17.1052 26.0495 17.4519 25.3454 17.9798 24.7877L18.204 24.5825L18.4655 24.3773L18.6088 24.284L18.6773 24.1907C19.1363 23.5042 19.417 22.7145 19.4942 21.8927C19.5714 21.0709 19.4426 20.2429 19.1195 19.4832L18.9824 19.1784L18.8205 18.8675L18.7458 18.7494L18.7894 18.7867C19.6641 19.5966 20.1983 20.7079 20.2841 21.896V22.3873V22.493C20.3343 23.5467 20.7788 24.5432 21.5296 25.2852L21.6853 25.422L21.8597 25.565L21.9469 25.6334C22.8023 26.2552 23.8599 26.5348 24.9113 26.417H25.1231L25.3411 26.3735H25.2601C24.464 26.0878 23.7864 25.5446 23.335 24.8302C22.8836 24.1158 22.6844 23.2713 22.769 22.4308V22.2629L22.8063 22.095V21.9831C22.6247 21.0904 22.2038 20.2638 21.5884 19.5913C20.9731 18.9188 20.1865 18.4258 19.3125 18.1648L19.1381 18.1213H19.0385C19.6647 18.0962 20.2897 18.1973 20.876 18.4184C21.4623 18.6396 21.9981 18.9763 22.4513 19.4085L22.6195 19.5951L22.7005 19.6697C23.1173 20.0434 23.6047 20.33 24.1342 20.5126C24.6636 20.6952 25.2243 20.7702 25.7832 20.7331H26.0074H26.1195C26.6725 20.6471 27.2028 20.4521 27.6797 20.1596C28.1565 19.8671 28.5704 19.4828 28.8972 19.0292L29.0155 18.8426L28.947 18.8799C28.1814 19.244 27.3157 19.3413 26.4883 19.1564C25.6608 18.9716 24.9192 18.5152 24.382 17.8601L24.1889 17.5802L24.0955 17.5118C23.3079 16.9958 22.392 16.709 21.4503 16.6838C20.5087 16.6585 19.5786 16.8957 18.7645 17.3688L18.6648 17.431L18.7022 17.3937C19.154 16.9006 19.7076 16.5112 20.3248 16.2524C20.942 15.9937 21.608 15.8717 22.277 15.895H22.3891C22.9861 15.862 23.5693 15.7025 24.0998 15.4269C24.6303 15.1513 25.0959 14.7661 25.4656 14.2968L25.5341 14.2097C25.8866 13.7287 26.1317 13.1779 26.2531 12.5944C26.3745 12.0108 26.3693 11.4081 26.2379 10.8267V10.9014C25.9364 11.7544 25.3376 12.4707 24.5509 12.9194C23.7642 13.3681 22.8422 13.5193 21.9531 13.3453H21.841C20.92 13.534 20.07 13.9757 19.3867 14.6206C18.7035 15.2655 18.214 16.0881 17.9735 16.9957V17.0952V17.0579C17.9477 16.1208 18.1943 15.1963 18.6835 14.3963L18.8143 14.2035L18.9638 14.0045L19.1319 13.8055L19.2253 13.706L19.3312 13.6003L19.4495 13.4946L19.5243 13.4137C20.1038 12.7689 20.4692 11.9608 20.5705 11.1004V10.9325V10.7459V10.5469V10.3355V10.2297V10.1178V10.0059C20.4399 9.14894 20.046 8.35364 19.4433 7.72983L19.3187 7.60547L19.1817 7.48109L19.0323 7.35671L18.8579 7.23234L18.7707 7.17015L18.6773 7.10796L18.7146 7.18258C19.0163 7.80993 19.1387 8.50823 19.0684 9.20058C18.998 9.89294 18.7377 10.5525 18.3161 11.1066L18.1417 11.3242L17.9299 11.5357L17.8178 11.6414L17.6933 11.7409L17.5563 11.8404L17.413 11.9337L17.3445 12.0207C16.9466 12.613 16.682 13.2845 16.5691 13.9888C16.4562 14.6931 16.4977 15.4134 16.6906 16.1002L16.7716 16.38L16.8774 16.6723L17.0082 16.9708L17.0829 17.1263L17.1639 17.2817L17.2573 17.4372L17.2075 17.3937C16.4909 16.7288 15.9954 15.8607 15.7876 14.9062L15.7564 14.7134V14.5082V14.2906V13.8117V13.6998C15.7118 12.8341 15.3984 12.0039 14.8596 11.3242L14.7475 11.1874L14.623 11.0506L14.4859 10.9076L14.3302 10.7708L14.2431 10.6961L14.1559 10.6277L14.0687 10.5593C13.3693 10.0457 12.5266 9.76305 11.6585 9.75091H11.2973H11.1042L10.8925 9.78201H10.7866H10.6745H10.7555C11.4189 10.0182 12.0033 10.4342 12.4433 10.9834C12.8833 11.5325 13.1615 12.1932 13.2466 12.8914V13.1774V13.4821V13.6376V13.7993L13.2155 13.961V14.048V14.16C13.3363 14.7885 13.5807 15.3869 13.9346 15.9206C14.2884 16.4543 14.7446 16.9127 15.2769 17.2693L15.4949 17.4123L15.7315 17.5554L15.8623 17.6175L15.9931 17.686L16.1301 17.7544L16.3107 17.829L16.4228 17.8725L16.6221 17.9409L16.8338 18.0031L16.9709 18.0404C15.9654 18.0765 14.9741 17.7958 14.1372 17.2382L13.9753 17.1201L13.8133 16.9895L13.639 16.834L13.4708 16.6661L13.3836 16.5728L13.3027 16.4982C12.6381 15.8974 11.7973 15.5267 10.9049 15.441H10.7243H10.3258H10.1078H10.0019H9.88981C9.03198 15.5726 8.23586 15.9658 7.61042 16.5666L7.49209 16.691L7.36753 16.8278L7.23674 16.977L7.11219 17.1511L6.98763 17.3377L7.06236 17.2942C7.71198 16.9851 8.43617 16.8666 9.15062 16.9524C9.86507 17.0383 10.5404 17.325 11.098 17.7792L11.316 17.972L11.5277 18.1959L11.6274 18.3203L11.727 18.4508L11.8204 18.5939L11.9076 18.6623C12.5635 19.1007 13.3144 19.3773 14.0983 19.4692C14.8822 19.5611 15.6768 19.4657 16.4166 19.1909L16.7093 19.0727L17.0207 18.9297L17.1764 18.8426L17.3321 18.7556L17.2947 18.7929C16.5651 19.5817 15.5871 20.0975 14.5233 20.2543H14.3116H14.0874H13.6078C12.6897 20.3053 11.8141 20.6572 11.1167 21.2555L10.9734 21.3799L10.8364 21.5167L10.6932 21.6721L10.55 21.8463L10.4814 21.9395C9.95433 22.662 9.6708 23.5331 9.67183 24.427V24.6074V24.8001V24.9991L9.74033 25.3225V25.2479C9.99707 24.5233 10.4678 23.8935 11.0905 23.4416C11.7132 22.9897 12.4584 22.737 13.2279 22.7169H13.5331H13.695L13.8569 22.748L14.0251 22.7791H14.1372C14.9811 22.6171 15.7686 22.2399 16.4234 21.6842C17.0782 21.1284 17.5778 20.4131 17.8739 19.6075L17.9299 19.4521L17.986 19.2904L18.0358 19.1163V18.9857V19.0603C18.0799 20.1661 17.7314 21.2519 17.0518 22.1261L16.9148 22.294L16.7529 22.4681L16.566 22.636L16.4913 22.7169C15.8292 23.452 15.4477 24.3966 15.4139 25.3847V25.7951V26.019V26.1247C15.5566 27.0801 16.0225 27.958 16.7342 28.6122L16.8774 28.7366L17.0394 28.8672L17.3134 29.0475L17.3072 29.0351Z" fill="var(--fill-0, #BBBBBB)"/>
<path id="Vector_2" d="M73.0774 22.4055V10.9631H70.2126C70.7539 11.5983 71.1108 12.3692 71.2447 13.1924C71.3787 14.0156 71.2845 14.8598 70.9724 15.6333C70.6607 16.3992 70.1399 17.0622 69.4694 17.5471C68.7989 18.0319 68.0055 18.319 67.1796 18.3758V22.4055H73.0774ZM64.9251 13.8424C64.9313 14.1964 65.042 14.5408 65.2435 14.8322C65.4449 15.1237 65.7281 15.3492 66.0575 15.4804C66.3869 15.6117 66.7477 15.6429 67.0948 15.5701C67.4419 15.4973 67.7597 15.3237 68.0083 15.0711C68.2569 14.8186 68.4252 14.4984 68.4922 14.1506C68.5591 13.8029 68.5217 13.4431 68.3846 13.1165C68.2475 12.7899 68.0169 12.5111 67.7216 12.3149C67.4263 12.1188 67.0796 12.0141 66.725 12.0141C66.4864 12.0157 66.2506 12.0643 66.0309 12.1572C65.8113 12.25 65.6121 12.3852 65.4449 12.5551C65.2777 12.7249 65.1457 12.9261 65.0565 13.147C64.9673 13.3679 64.9227 13.6042 64.9251 13.8424V13.8424ZM63.5239 23.3507V16.9206C62.7882 16.0837 62.3753 15.0123 62.3594 13.8988C62.3434 12.7854 62.7253 11.7026 63.4367 10.845H61.6244V7.73562H65.5853V6.42969H68.6992V7.75427H76.5836V11.7405H78.1032V14.9058H76.5836V25.3594H65.6289C65.1021 25.3121 64.6069 25.0876 64.2245 24.7227C63.8421 24.3578 63.5951 23.8741 63.5239 23.3507V23.3507Z" fill="var(--fill-0, #BBBBBB)"/>
<path id="Vector_3" d="M91.954 21.354H82.0268V18.1825H86.9281V16.3169H80.4698V13.7672H91.954L91.9104 10.9377H81.7341V7.97761H92.8383C93.6296 7.9574 94.4001 8.23118 95.0007 8.74589C95.6013 9.2606 95.9892 9.97961 96.0893 10.7636L96.0457 13.6802H98.6178V16.3355H91.0634V18.2011H93.2182C93.9859 18.1574 94.7434 18.3938 95.3494 18.8663C95.9555 19.3388 96.369 20.0152 96.5128 20.7695V25.3589H92.4148V22.1003C92.4523 21.9403 92.4248 21.7721 92.3385 21.6323C92.2522 21.4924 92.1139 21.3924 91.954 21.354Z" fill="var(--fill-0, #BBBBBB)"/>
<path id="Vector_4" d="M101.931 25.3358V21.6605H112.948C113.282 21.5013 113.558 21.242 113.738 20.9188C113.918 20.5956 113.992 20.2245 113.951 19.8571C113.91 19.491 113.754 19.1471 113.506 18.8746C113.258 18.602 112.929 18.4149 112.568 18.3398H104.958C103.127 17.9666 101.931 16.0202 101.794 14.279C101.683 13.1808 101.828 12.0719 102.217 11.039C102.557 10.169 103.138 9.41403 103.893 8.8631C104.647 8.31217 105.544 7.9883 106.477 7.92969H115.427V11.7293H107.081C106.647 11.7799 106.249 11.9964 105.971 12.3333C105.693 12.6702 105.556 13.1015 105.589 13.537C105.622 13.9724 105.822 14.3782 106.148 14.6695C106.474 14.9608 106.9 15.115 107.337 15.0998H114.978C116.305 15.2491 117.189 16.2192 117.681 17.6868C118.02 19.003 118.033 20.3818 117.719 21.7041C117.307 23.7998 114.972 25.1555 112.992 25.3358H101.931Z" fill="var(--fill-0, #BBBBBB)"/>
<path id="Vector_5" d="M125.989 25.1546C124.765 25.0787 123.594 24.6243 122.64 23.8543C121.686 23.0844 120.995 22.037 120.664 20.8575C120.066 18.0385 120.066 15.1258 120.664 12.3068C121.169 9.68873 123.66 7.63655 126.07 7.69252H134.166V11.1501H129.016C127.278 11.0879 124.918 11.8155 124.756 13.5443C124.622 15.3212 124.64 17.1063 124.812 18.8799C124.968 20.7455 127.303 21.6286 129.016 21.4794H132.011V18.0218H128.623V14.2906H136.097V25.1484L125.989 25.1546Z" fill="var(--fill-0, #BBBBBB)"/>
<path id="Vector_6" d="M143.726 8.07227H139.535V25.1923H143.726V8.07227Z" fill="var(--fill-0, #BBBBBB)"/>
<path id="Vector_7" d="M49.3494 24.0716H46.0175C45.9972 24.222 46.0326 24.3746 46.1172 24.5007C46.2487 24.5485 46.3884 24.5697 46.5282 24.5629H49.3494V24.0716ZM55.0043 20.2471C55.0934 20.1116 55.1484 19.9566 55.1646 19.7953C55.1809 19.6339 55.1579 19.4711 55.0977 19.3205C55.0304 19.1578 54.9222 19.0152 54.7837 18.9063C54.6452 18.7974 54.4809 18.7259 54.3068 18.6987C54.1456 18.6796 53.9823 18.7004 53.8311 18.7592C53.6799 18.818 53.5455 18.913 53.4397 19.0359C53.3339 19.1587 53.2599 19.3056 53.2243 19.4637C53.1887 19.6218 53.1926 19.7862 53.2356 19.9424C53.29 20.1075 53.3854 20.2562 53.5128 20.3747C53.6402 20.4932 53.7954 20.5777 53.9642 20.6202C54.1552 20.6642 54.3547 20.6524 54.5391 20.5863C54.7236 20.5201 54.885 20.4024 55.0043 20.2471V20.2471ZM46.7586 19.5942H45.3885C45.3503 19.8975 45.3801 20.2054 45.4757 20.4959C45.9006 20.5546 46.3302 20.5733 46.7586 20.5518V19.5942ZM45.5131 25.7009C45.3093 25.7081 45.1067 25.6676 44.9214 25.5828C44.6038 25.39 44.6162 24.9609 44.61 24.6126V22.0257H45.9988V22.9336H49.3369V22.0257H50.7195V25.7071L45.5131 25.7009ZM49.3369 21.8578V19.9113H48.135V21.6712H44.8404C44.625 21.6948 44.4075 21.6513 44.2177 21.5468C43.9125 21.2856 43.9935 20.8192 43.9748 20.4461V17.5544H45.3574V18.4437H46.7399V17.5482H48.1225V18.7546H49.3245V17.4549H50.7071V21.8391L49.3369 21.8578ZM53.547 25.7009C53.3087 25.714 53.0709 25.667 52.8557 25.5641C52.5256 25.3589 52.5567 24.8987 52.5505 24.5505V22.2122H53.9393V24.1089C53.932 24.2404 53.9533 24.3719 54.0016 24.4945C54.0576 24.5691 54.176 24.5629 54.2694 24.5691H57.2774V17.4736H58.6662V25.7071L53.547 25.7009ZM53.4473 21.8018C53.1196 21.7099 52.8196 21.5387 52.5741 21.3033C52.3286 21.0679 52.1451 20.7756 52.0398 20.4523C51.9211 20.0847 51.8926 19.6941 51.9565 19.3132C52.0205 18.9322 52.175 18.5722 52.4073 18.2634C52.6593 17.9749 52.9788 17.753 53.3373 17.6174C53.6958 17.4818 54.0823 17.4367 54.4625 17.486C54.8415 17.52 55.2048 17.6528 55.5163 17.8711C55.8278 18.0893 56.0764 18.3854 56.2374 18.7298C56.3851 19.0896 56.4463 19.479 56.416 19.8667C56.3857 20.2544 56.2648 20.6297 56.063 20.9623C55.7726 21.3577 55.3647 21.6517 54.8974 21.8025C54.43 21.9532 53.927 21.9529 53.4598 21.8018H53.4473ZM58.5417 16.1739H53.4224C53.1895 16.1852 52.9572 16.1426 52.7436 16.0495C52.401 15.8443 52.4322 15.3779 52.4259 15.0234V12.6852H53.8085V14.5819C53.8031 14.7062 53.82 14.8304 53.8584 14.9488C53.9082 15.0483 54.0452 15.0359 54.1448 15.0421H58.5417V16.1739ZM49.1999 16.2983V11.541H49.0567V16.2983H47.6741V15.5023C46.7816 15.1904 46.0478 14.5403 45.6314 13.6926C45.5357 13.9636 45.4126 14.224 45.2639 14.47C44.9463 14.9364 44.5166 15.552 43.8564 15.5582V14.5135C45.1643 13.1951 44.8467 11.0683 44.9214 9.31467H43.8564V8.17664H47.3876V9.31467H46.3102C46.3102 10.9813 46.3102 13.0894 47.6741 14.3953V7.95898H49.0567V10.4091H49.1999V7.95898H50.5887V16.2983H49.1999ZM57.1591 13.2698V12.5857H52.6875C52.4703 12.6012 52.2534 12.5514 52.0647 12.4427C51.7533 12.1877 51.8156 11.7151 51.8032 11.342V8.18287H56.1626V9.30845H53.1795V10.9502C53.168 11.0869 53.185 11.2245 53.2293 11.3544C53.3103 11.4477 53.4535 11.4352 53.5719 11.4415H57.1404V7.99629H58.5354V9.77485H59.3077V10.8942H58.5354V13.2698H57.1591Z" fill="var(--fill-0, #BBBBBB)"/>
<path id="Vector_8" d="M47.9543 32.3994H47.2506L46.005 30.2539H45.457V32.3994H44.8716V27.6483H45.457V29.7253H45.9988L47.2443 27.6483H47.917L46.4783 29.9679L47.9543 32.3994Z" fill="var(--fill-0, #BBBBBB)"/>
<path id="Vector_9" d="M51.5042 30.0234C51.53 30.6134 51.4169 31.2012 51.1742 31.7397C51.0241 32.0365 50.7753 32.2717 50.4704 32.4051C50.2716 32.4806 50.0604 32.5186 49.8476 32.5171C49.4778 32.5249 49.1167 32.4039 48.8263 32.175C48.516 31.8708 48.3147 31.4731 48.2533 31.0432C48.1858 30.7076 48.1544 30.3657 48.1599 30.0234C48.1318 29.4366 48.2473 28.8518 48.4962 28.3195C48.6403 28.0184 48.891 27.7813 49.1999 27.6541C49.3988 27.5786 49.61 27.5406 49.8227 27.5421C50.1906 27.5281 50.5511 27.6474 50.8379 27.8779C51.143 28.1858 51.3435 28.5818 51.4108 29.0097C51.479 29.3432 51.5103 29.6831 51.5042 30.0234ZM50.9126 30.0234C50.9556 29.47 50.8343 28.9163 50.5638 28.4314C50.4823 28.3114 50.3715 28.2141 50.2418 28.1488C50.1121 28.0835 49.9678 28.0523 49.8227 28.0583C49.312 28.0583 48.982 28.3816 48.8263 29.0284C48.7573 29.3554 48.726 29.6892 48.7329 30.0234C48.6864 30.5755 48.8034 31.129 49.0692 31.6154C49.1538 31.7348 49.2672 31.8311 49.3989 31.8952C49.5306 31.9593 49.6764 31.9893 49.8227 31.9823C50.321 31.9823 50.651 31.6589 50.8129 31.0121C50.8826 30.6999 50.916 30.3806 50.9126 30.0607V30.0234Z" fill="var(--fill-0, #BBBBBB)"/>
<path id="Vector_10" d="M55.3406 32.3984H54.668L53.7213 30.5328H52.9055V32.3984H52.3325V27.6473H53.466C53.8458 27.6245 54.2261 27.6839 54.5808 27.8215C54.7819 27.9301 54.9455 28.0969 55.05 28.3C55.1544 28.5031 55.1949 28.733 55.1662 28.9595C55.1725 29.292 55.0697 29.6174 54.8735 29.8861C54.7078 30.0843 54.5073 30.2508 54.2818 30.3774L55.3406 32.3984ZM54.5932 28.9906C54.6088 28.8548 54.5848 28.7174 54.524 28.5949C54.4633 28.4725 54.3683 28.3702 54.2507 28.3003C54.0331 28.2143 53.799 28.1782 53.5656 28.1946H52.9055V29.998H53.8895C54.101 29.9301 54.2844 29.7948 54.4116 29.6129C54.5387 29.4309 54.6025 29.2123 54.5932 28.9906Z" fill="var(--fill-0, #BBBBBB)"/>
<path id="Vector_11" d="M58.4046 32.3994H55.9633V27.6483H58.3735V28.1955H56.5487V29.6943H58.2801V30.2415H56.5487V31.877H58.4171L58.4046 32.3994Z" fill="var(--fill-0, #BBBBBB)"/>
<path id="Vector_12" d="M62.3468 32.3994H61.6929L61.3691 31.2614H59.6689L59.3326 32.3994H58.7098L60.1609 27.6483H60.902L62.3468 32.3994ZM61.2632 30.739L60.5408 28.1955L59.7748 30.7701L61.2632 30.739Z" fill="var(--fill-0, #BBBBBB)"/>
<path id="Vector_13" d="M66.6628 31.3042C66.6819 31.5088 66.637 31.7144 66.5344 31.8925C66.4318 32.0707 66.2765 32.2128 66.0898 32.2992C65.793 32.4254 65.4715 32.4827 65.1494 32.4671C64.8322 32.4716 64.5153 32.4466 64.2028 32.3925V31.895H65.2241C65.4245 31.9094 65.6253 31.8753 65.8096 31.7955C65.8961 31.7477 65.9669 31.6758 66.0133 31.5886C66.0598 31.5014 66.0798 31.4026 66.0711 31.3042C66.0578 31.1626 66.0142 31.0255 65.9433 30.9021C65.8724 30.7788 65.7758 30.672 65.6601 30.5891L65.4296 30.3963L64.9127 29.9361L64.701 29.7433C64.5559 29.6201 64.4383 29.4679 64.3557 29.2965C64.2731 29.1252 64.2274 28.9384 64.2214 28.7483C64.2148 28.6086 64.2362 28.469 64.2844 28.3377C64.3325 28.2063 64.4064 28.0859 64.5017 27.9834C64.8311 27.724 65.2491 27.6034 65.6663 27.6476C65.9565 27.6462 66.2463 27.6711 66.532 27.7222V28.1949H65.6165C65.4195 28.1839 65.2223 28.2136 65.0373 28.2819C64.9627 28.3245 64.9019 28.3875 64.8621 28.4636C64.8224 28.5397 64.8054 28.6256 64.8131 28.711C64.8223 28.8202 64.8548 28.926 64.9086 29.0215C64.9623 29.117 65.0359 29.1999 65.1245 29.2645L65.9839 30.0107C66.1272 30.1413 66.2268 30.2408 66.2891 30.3092C66.3868 30.4209 66.4704 30.5442 66.5382 30.6761C66.6282 30.8729 66.6709 31.088 66.6628 31.3042V31.3042Z" fill="var(--fill-0, #BBBBBB)"/>
<path id="Vector_14" d="M70.6299 30.0234C70.6556 30.6134 70.5426 31.2012 70.2998 31.7397C70.1515 32.0377 69.9021 32.2735 69.5961 32.4051C69.3972 32.4806 69.186 32.5186 68.9733 32.5171C68.6034 32.5249 68.2423 32.4039 67.9519 32.175C67.6417 31.8708 67.4403 31.4731 67.379 31.0432C67.3138 30.7073 67.2846 30.3655 67.2918 30.0234C67.262 29.4371 67.3753 28.8524 67.6218 28.3195C67.766 28.0184 68.0167 27.7813 68.3256 27.6541C68.5245 27.5786 68.7356 27.5406 68.9484 27.5421C69.3162 27.5281 69.6768 27.6474 69.9635 27.8779C70.2708 28.1843 70.4716 28.581 70.5365 29.0097C70.6047 29.3432 70.636 29.6831 70.6299 30.0234ZM70.0382 30.0234C70.0812 29.47 69.9599 28.9163 69.6895 28.4314C69.608 28.3114 69.4971 28.2141 69.3674 28.1488C69.2377 28.0835 69.0935 28.0523 68.9484 28.0583C68.4377 28.0583 68.1076 28.3816 67.9519 29.0284C67.8829 29.3554 67.8516 29.6892 67.8585 30.0234C67.8121 30.5755 67.929 31.129 68.1948 31.6154C68.2794 31.7348 68.3928 31.8311 68.5245 31.8952C68.6562 31.9593 68.802 31.9893 68.9484 31.9823C69.4466 31.9823 69.7767 31.6589 69.9386 31.0121C70.0111 30.7003 70.0446 30.3807 70.0382 30.0607V30.0234Z" fill="var(--fill-0, #BBBBBB)"/>
<path id="Vector_15" d="M74.5472 32.3994H73.8185L72.573 30.2539H72.0249V32.3994H71.4395V27.6483H72.0249V29.7253H72.573L73.8185 27.6483H74.4911L73.0525 29.9679L74.5472 32.3994Z" fill="var(--fill-0, #BBBBBB)"/>
<path id="Vector_16" d="M78.2216 32.3994H77.5552L77.2252 31.2614H75.5312L75.1949 32.3994H74.5721L76.0294 27.6483H76.7705L78.2216 32.3994ZM77.138 30.739L76.4093 28.1955L75.6433 30.7701L77.138 30.739Z" fill="var(--fill-0, #BBBBBB)"/>
<path id="Vector_17" d="M83.1603 32.3496C82.7651 32.4142 82.3649 32.4434 81.9645 32.4367C81.5442 32.4632 81.1272 32.347 80.7812 32.1071C80.4525 31.8441 80.2311 31.4705 80.1585 31.0562C80.0912 30.7415 80.0599 30.4202 80.065 30.0985C80.0336 29.5074 80.1742 28.92 80.4698 28.407C80.6794 28.0891 80.9949 27.8556 81.3604 27.7478C81.6396 27.6674 81.9294 27.6296 82.2199 27.6359C82.5095 27.6294 82.7992 27.6481 83.0855 27.6918V28.1956H82.4254C82.0221 28.1694 81.6199 28.2601 81.267 28.4567C80.9936 28.6695 80.8075 28.9747 80.7439 29.3149C80.6899 29.5662 80.6649 29.8228 80.6691 30.0798C80.6451 30.5095 80.7331 30.938 80.9245 31.3236C81.0195 31.4854 81.155 31.6197 81.3176 31.7135C81.4803 31.8072 81.6646 31.8572 81.8524 31.8584H82.1638H82.5624V30.3534H83.1603V32.3496Z" fill="var(--fill-0, #BBBBBB)"/>
<path id="Vector_18" d="M87.1959 32.3994H86.5731L86.2431 31.2614H84.5491L84.2065 32.3994H83.5838L85.0411 27.6483H85.7822L87.1959 32.3994ZM86.1185 30.739L85.3898 28.1955L84.6238 30.7701L86.1185 30.739Z" fill="var(--fill-0, #BBBBBB)"/>
<path id="Vector_19" d="M90.8267 32.3994H90.123L88.8774 30.2539H88.3294V32.3994H87.744V27.6483H88.3294V29.7253H88.8712L90.1168 27.6483H90.7894L89.3507 29.9679L90.8267 32.3994Z" fill="var(--fill-0, #BBBBBB)"/>
<path id="Vector_20" d="M94.47 32.3994H93.7476L92.502 30.2539H91.954V32.3994H91.3748V27.6483H91.954V29.7253H92.502L93.7476 27.6483H94.4202L92.9816 29.9679L94.47 32.3994Z" fill="var(--fill-0, #BBBBBB)"/>
<path id="Vector_21" d="M98.1382 32.3994H97.4843L97.1605 31.2614H95.4603L95.1239 32.3994H94.5012L95.9523 27.6483H96.6934L98.1382 32.3994ZM97.0546 30.739L96.3321 28.1955L95.5661 30.7701L97.0546 30.739Z" fill="var(--fill-0, #BBBBBB)"/>
<path id="Vector_22" d="M99.2592 32.3994H98.6738V27.6483H99.2592V32.3994Z" fill="var(--fill-0, #BBBBBB)"/>
<path id="Vector_23" d="M102.467 32.3994H101.844V27.6483H102.467V32.3994Z" fill="var(--fill-0, #BBBBBB)"/>
<path id="Vector_24" d="M106.602 32.3988H105.767C105.576 31.9842 105.327 31.4183 105.02 30.7011L104.74 30.0792C104.64 29.8553 104.491 29.5195 104.304 29.0656C104.26 28.9598 104.229 28.8852 104.217 28.8417C104.204 28.7982 104.129 28.5432 104.073 28.3318L104.042 28.2074H103.974C103.974 28.4624 104.011 28.7546 104.011 29.0718V32.4112H103.507V27.6602H104.335L105.612 30.6078L105.798 31.0369L105.873 31.2359C105.929 31.4162 105.979 31.5841 106.023 31.7458C106.032 31.7943 106.044 31.842 106.06 31.8889H106.122V31.721C106.122 31.6526 106.122 31.5779 106.122 31.4971V31.2483C106.122 31.1613 106.122 31.0804 106.122 31.0058V29.3019C106.122 28.8168 106.122 28.2696 106.122 27.6602H106.627L106.602 32.3988Z" fill="var(--fill-0, #BBBBBB)"/>
<path id="Vector_25" d="M110.239 28.1955H108.993V32.3994H108.408V28.1955H107.162V27.6483H110.276L110.239 28.1955Z" fill="var(--fill-0, #BBBBBB)"/>
<path id="Vector_26" d="M113.222 32.3994H110.781V27.6483H113.185V28.1955H111.366V29.6943H113.091V30.2415H111.366V31.877H113.234L113.222 32.3994Z" fill="var(--fill-0, #BBBBBB)"/>
<path id="Vector_27" d="M117.052 32.4002H116.373L115.427 30.5346H114.617V32.4002H114.044V27.6491H115.178C115.557 27.6268 115.937 27.6862 116.292 27.8232C116.492 27.9333 116.654 28.1006 116.757 28.3035C116.86 28.5064 116.9 28.7355 116.872 28.9612C116.88 29.2931 116.779 29.6186 116.585 29.8878C116.409 30.0884 116.198 30.2549 115.962 30.3791L117.052 32.4002ZM116.299 28.9923C116.313 28.8573 116.289 28.7209 116.23 28.5988C116.17 28.4767 116.078 28.3739 115.962 28.3021C115.745 28.2167 115.511 28.1806 115.277 28.1963H114.617V29.9998H115.576C115.792 29.9362 115.98 29.8026 116.111 29.6201C116.242 29.4376 116.308 29.2166 116.299 28.9923V28.9923Z" fill="var(--fill-0, #BBBBBB)"/>
<path id="Vector_28" d="M120.776 32.3988H119.942C119.751 31.9842 119.502 31.4183 119.194 30.7011L118.914 30.0792C118.815 29.8553 118.671 29.5195 118.478 29.0656C118.447 28.9924 118.42 28.9177 118.397 28.8417C118.354 28.7111 118.304 28.5432 118.248 28.3318V28.2074H118.179C118.179 28.4624 118.223 28.7546 118.223 29.0718V32.4112H117.712V27.6602H118.547L119.83 30.6078L120.01 31.0369L120.085 31.2359C120.144 31.4031 120.194 31.5733 120.235 31.7458C120.25 31.7927 120.262 31.8405 120.272 31.8889H120.34V31.721C120.34 31.6526 120.34 31.5779 120.34 31.4971V31.2483C120.34 31.1613 120.34 31.0804 120.34 31.0058V29.3019C120.34 28.8168 120.34 28.2696 120.34 27.6602H120.845L120.776 32.3988Z" fill="var(--fill-0, #BBBBBB)"/>
<path id="Vector_29" d="M124.937 32.3994H124.314L123.984 31.2614H122.29L121.953 32.3994H121.331L122.788 27.6483H123.523L124.937 32.3994ZM123.859 30.739L123.131 28.1955L122.396 30.739H123.859Z" fill="var(--fill-0, #BBBBBB)"/>
<path id="Vector_30" d="M127.708 28.1955H126.462V32.3994H125.877V28.1955H124.631V27.6483H127.745L127.708 28.1955Z" fill="var(--fill-0, #BBBBBB)"/>
<path id="Vector_31" d="M128.841 32.3994H128.262V27.6483H128.841V32.3994Z" fill="var(--fill-0, #BBBBBB)"/>
<path id="Vector_32" d="M133.052 30.0234C133.077 30.6134 132.964 31.2012 132.721 31.7397C132.573 32.0377 132.324 32.2735 132.018 32.4051C131.819 32.4806 131.608 32.5186 131.395 32.5171C131.025 32.5249 130.664 32.4039 130.374 32.175C130.063 31.8716 129.864 31.4731 129.807 31.0432C129.739 30.7076 129.708 30.3657 129.713 30.0234C129.684 29.4371 129.797 28.8524 130.043 28.3195C130.188 28.0184 130.438 27.7813 130.747 27.6541C130.946 27.5786 131.157 27.5406 131.37 27.5421C131.738 27.5281 132.098 27.6474 132.385 27.8779C132.692 28.1843 132.893 28.581 132.958 29.0097C133.026 29.3432 133.058 29.6831 133.052 30.0234ZM132.46 30.0234C132.503 29.47 132.382 28.9163 132.111 28.4314C132.03 28.3109 131.919 28.2133 131.789 28.148C131.66 28.0826 131.515 28.0517 131.37 28.0583C130.859 28.0583 130.529 28.3816 130.374 29.0284C130.305 29.3554 130.273 29.6892 130.28 30.0234C130.234 30.5755 130.351 31.129 130.616 31.6154C130.701 31.7348 130.814 31.8311 130.946 31.8952C131.078 31.9593 131.224 31.9893 131.37 31.9823C131.868 31.9823 132.205 31.6589 132.36 31.0121C132.433 30.7003 132.466 30.3807 132.46 30.0607V30.0234Z" fill="var(--fill-0, #BBBBBB)"/>
<path id="Vector_33" d="M136.975 32.3988H136.14C135.947 31.9697 135.705 31.4038 135.393 30.7011L135.113 30.0792C135.013 29.8553 134.87 29.5195 134.677 29.0656C134.646 28.9924 134.619 28.9177 134.596 28.8417C134.552 28.7111 134.503 28.5432 134.446 28.3318C134.446 28.282 134.446 28.2385 134.415 28.2074H134.347C134.379 28.4944 134.393 28.7831 134.39 29.0718V32.4112H133.88V27.6602H134.714L135.997 30.6078L136.178 31.0369L136.253 31.2359C136.315 31.4162 136.365 31.5841 136.408 31.7458C136.408 31.808 136.408 31.8515 136.439 31.8889H136.508V31.721C136.508 31.6526 136.508 31.5779 136.508 31.4971V31.2483C136.508 31.1613 136.508 31.0804 136.508 31.0058V29.3019C136.508 28.8168 136.508 28.2696 136.508 27.6602H137.012L136.975 32.3988Z" fill="var(--fill-0, #BBBBBB)"/>
<path id="Vector_34" d="M141.135 32.3994H140.512L140.182 31.2614H138.463L138.127 32.3994H137.504L138.962 27.6483H139.703L141.135 32.3994ZM140.058 30.739L139.329 28.1955L138.588 30.739H140.058Z" fill="var(--fill-0, #BBBBBB)"/>
<path id="Vector_35" d="M144 32.3994H141.702V27.6483H142.287V31.877H144.025L144 32.3994Z" fill="var(--fill-0, #BBBBBB)"/>
</g>
<defs>
<clipPath id="clip0_0_736">
<rect width="144" height="36" fill="white"/>
</clipPath>
</defs>
</svg>
