<svg preserveAspectRatio="none" width="100%" height="100%" overflow="visible" style="display: block;" viewBox="0 0 168 30" fill="none" xmlns="http://www.w3.org/2000/svg">
<g id="Client Logo / Exact" clip-path="url(#clip0_0_907)">
<path id="Vector" d="M14.3334 0.218653C11.4016 0.334722 8.5703 1.31773 6.19837 3.0431C3.82644 4.76846 2.02068 7.1585 1.00994 9.91026C-0.000798886 12.662 -0.170996 15.6516 0.520925 18.5001C1.21285 21.3486 2.73573 23.9278 4.89655 25.9107C7.05737 27.8936 9.75883 29.1909 12.6585 29.6383C15.5582 30.0857 18.5256 29.663 21.1846 28.4237C23.8435 27.1844 26.0743 25.1844 27.5942 22.6772C29.1141 20.1699 29.8547 17.2683 29.722 14.3402C29.545 10.4328 27.8271 6.75416 24.9436 4.10814C22.0602 1.46211 18.2456 0.0637679 14.3334 0.218653V0.218653Z" fill="url(#paint0_radial_0_907)"/>
<path id="Vector_2" d="M14.3334 0.021963C11.3644 0.155907 8.50204 1.16705 6.10871 2.92736C3.71539 4.68766 1.89882 7.11791 0.889059 9.91035C-0.120697 12.7028 -0.278214 15.7318 0.436459 18.6137C1.15113 21.4956 2.70584 24.1009 4.90369 26.0994C7.10154 28.098 9.84365 29.4001 12.7828 29.8406C15.7219 30.2812 18.7257 29.8405 21.4139 28.5743C24.1022 27.3082 26.3538 25.2735 27.8836 22.728C29.4135 20.1826 30.1528 17.2408 30.0078 14.2753C29.8254 10.3034 28.072 6.56647 25.1328 3.88558C22.1937 1.20468 18.3093 -0.200791 14.3334 -0.0219702V0.021963ZM16.0701 14.5608L20.291 18.3602C24.9956 22.2694 23.3907 25.8492 21.5881 27.1449C20.1535 28.1175 18.4632 28.6447 16.7296 28.6603C16.5538 28.6603 16.202 28.6603 16.202 28.265C16.202 27.8697 16.6857 27.8258 16.6857 27.8258C21.0824 26.9692 19.8294 24.0483 18.2465 22.5549C17.587 21.94 11.4096 16.6252 11.4096 16.6252C5.51793 11.552 5.97958 7.57686 5.97958 7.57686C6.26537 2.72327 10.5522 1.51536 13.7838 1.77891C14.1356 1.77891 14.3554 2.04246 14.2894 2.34992C14.2235 2.65739 13.7179 2.72327 13.7179 2.72327C12.7953 2.70253 11.8841 2.93011 11.0798 3.38214C8.46375 5.11713 9.25518 8.08199 12.7066 11.3982L14.0916 12.694L16.0701 14.5608ZM14.0476 27.1669C14.0476 27.6281 12.9484 27.8477 11.6294 27.716C9.64934 27.5604 7.76687 26.7928 6.24339 25.5198C4.79488 24.2017 3.74408 22.5054 3.20963 20.6223C2.704 18.9092 2.50615 16.9326 3.31955 17.0864C3.58335 17.0864 4.00105 18.2284 4.46271 19.019C4.77189 19.6048 5.18967 20.1265 5.6938 20.5564C5.86967 20.6881 6.44125 19.4363 7.25465 18.7116C8.06805 17.9868 8.2659 18.1845 8.35383 19.3704C8.44177 20.5564 8.17797 22.5329 8.61765 22.5329C9.05732 22.5329 9.89271 22.2474 11.8493 22.0717C12.5967 22.0717 13.0144 22.0717 12.2889 23.1259C11.787 23.9096 11.1374 24.5883 10.3763 25.1245C12.0251 26.6838 14.0476 26.5081 14.0476 27.1669V27.1669ZM15.3667 12.0571C15.2637 11.4317 15.2637 10.7937 15.3667 10.1684C15.562 8.88857 15.9473 7.64503 16.5098 6.47876C17.1913 4.78769 15.5425 3.77745 15.8283 3.16252C16.1141 2.54759 17.3672 3.38214 18.6862 3.46999C20.0052 3.55783 20.4889 3.46999 21.3682 3.46999C22.5401 3.5588 23.6548 4.0119 24.5559 4.76573C25.1494 5.42459 24.2701 6.23719 23.2149 5.73206C22.1597 5.22694 21.4782 5.6003 22.0497 6.39093C22.4754 6.91049 23.0783 7.25461 23.7425 7.35724C24.1102 7.40119 24.4546 7.55997 24.7267 7.81095C24.9987 8.06193 25.1846 8.39229 25.2577 8.75496C25.3308 9.11764 25.2874 9.49412 25.1337 9.83072C24.9801 10.1673 24.724 10.4469 24.402 10.6296C22.9291 11.7057 21.4342 11.2665 20.8406 9.13617C20.5328 8.082 19.8074 7.55491 19.038 7.86237C18.2685 8.16984 18.7302 9.53148 19.3018 10.8272C20.4669 13.7701 17.587 13.6823 17.2573 13.6384C16.8324 13.5682 16.4338 13.387 16.1017 13.1131C15.7697 12.8393 15.5161 12.4825 15.3667 12.0791V12.0571Z" fill="var(--fill-0, #BBBBBB)"/>
<path id="Vector_3" d="M143.4 21.2372L143.884 9.04832C143.926 8.6535 143.885 8.25426 143.764 7.87611C143.643 7.49796 143.444 7.1492 143.18 6.85212C142.786 6.55255 142.336 6.33421 141.857 6.2098C141.378 6.08538 140.879 6.05736 140.388 6.12738H127.418L128.429 7.8404H139.993C140.41 7.8404 140.564 7.8404 140.564 8.54318L140.081 21.1274H126.143L127.176 22.7965H145.774V21.1274L143.4 21.2372Z" fill="var(--fill-0, #BBBBBB)"/>
<path id="Vector_4" d="M114.821 12.4748C119.636 12.4748 123.417 10.8057 123.417 8.69738C123.417 6.58903 119.636 4.91992 114.821 4.91992C110.007 4.91992 106.028 6.58903 106.028 8.69738C106.028 10.8057 109.897 12.4748 114.821 12.4748ZM114.821 6.67688C117.767 6.67688 119.987 7.53339 119.987 8.69738C119.987 9.86136 117.789 10.7179 114.821 10.7179C111.853 10.7179 109.655 9.8394 109.655 8.69738C109.655 7.55536 111.809 6.67688 114.821 6.67688Z" fill="var(--fill-0, #BBBBBB)"/>
<path id="Vector_5" d="M103.829 13.2207L104.863 14.8898H109.545V17.3496C107.347 18.1621 105.874 19.5457 105.874 21.0172C105.874 23.5428 109.787 25.5194 114.667 25.5194C119.548 25.5194 123.593 23.5428 123.593 21.0172C123.593 19.5457 122.274 18.272 120.185 17.4374V14.8898H124.736V13.2207H103.829ZM114.821 23.7185C111.678 23.7185 109.303 22.5545 109.303 20.9952C109.303 19.4359 111.678 18.272 114.821 18.272C117.965 18.272 120.361 19.4359 120.361 20.9952C120.361 22.5545 117.921 23.7185 114.821 23.7185ZM114.821 16.4711C114.074 16.4711 113.37 16.4711 112.623 16.6028V14.8678H117.152V16.6468C116.38 16.5336 115.601 16.4749 114.821 16.4711V16.4711Z" fill="var(--fill-0, #BBBBBB)"/>
<path id="Vector_6" d="M162.878 17.2401V19.7218H153.359V17.2401H149.204C149.006 17.2401 148.478 17.2401 148.478 17.6574C148.478 18.0747 148.478 18.1186 149.05 18.1186C149.247 18.0933 149.447 18.0933 149.644 18.1186C149.819 18.1186 149.995 18.2504 150.061 18.7994V20.4466C150.061 23.1918 150.655 24.6193 153.93 24.8389H166.175V17.2401H162.878ZM162.878 23.1479H155.271C153.667 23.1479 153.359 22.9502 153.359 21.4568H162.878V23.1479Z" fill="var(--fill-0, #BBBBBB)"/>
<path id="Vector_7" d="M148.654 9.88335C148.844 9.86877 149.036 9.86877 149.226 9.88335C149.402 9.88335 149.6 10.0151 149.644 10.6081C149.644 12.8043 150.677 13.7487 153.557 13.7487H166.505V12.0795H154.678C153.337 12.0795 152.963 11.8819 152.963 11.223V10.8057H166.153V5.99609H148.72L149.687 7.775H162.878V8.96095H148.742C148.544 8.96095 148.017 8.96094 148.017 9.37822C148.017 9.79549 148.127 9.88335 148.654 9.88335Z" fill="var(--fill-0, #BBBBBB)"/>
<path id="Vector_8" d="M147.159 14.3631L148.149 16.142H156.459V18.6676H159.954V16.142H168V14.3631H147.159Z" fill="var(--fill-0, #BBBBBB)"/>
<path id="Vector_9" d="M83.0107 16.3184C82.8129 16.3184 82.3073 16.3184 82.3073 16.7576C82.3073 17.1968 82.3073 17.1968 82.8568 17.1968C83.0536 17.1674 83.2537 17.1674 83.4504 17.1968C83.6483 17.1968 83.8461 17.3286 83.8681 17.9216V20.535C83.8681 22.7312 84.3298 24.7298 87.7812 24.7298H100.18V16.3184H83.0107ZM96.8825 23.1266H89.0783C87.2976 23.1266 87.1657 22.863 87.1657 20.9304V18.0753H96.8825V23.1266Z" fill="var(--fill-0, #BBBBBB)"/>
<path id="Vector_10" d="M99.6524 12.8263L100.136 8.8951C100.181 8.50015 100.141 8.10019 100.02 7.72162C99.8989 7.34305 99.6986 6.99449 99.4326 6.69891C98.6334 6.09906 97.6329 5.83146 96.6407 5.95219H82.9228L83.934 7.68719H96.245C96.6627 7.68719 96.8165 7.68719 96.8165 8.41194L96.3329 12.8043H81.1201L82.1094 14.6052H102.137V12.8043L99.6524 12.8263Z" fill="var(--fill-0, #BBBBBB)"/>
<path id="Vector_11" d="M41.4394 11.4651C42.24 12.5815 43.2915 13.4948 44.5094 14.1317C45.7273 14.7687 47.0777 15.1115 48.4522 15.1327H48.6941V13.6612H48.4742C45.1107 13.244 43.1761 10.5207 43.1322 6.17222V5.88672H38.7354C38.5595 5.88672 38.0319 5.88672 38.0319 6.304C38.0319 6.72128 38.0319 6.7652 38.6035 6.7652C38.7932 6.74035 38.9854 6.74035 39.1751 6.7652C39.3729 6.7652 39.5488 6.89697 39.5928 7.46798C39.7102 8.94852 39.2455 10.4165 38.2975 11.5605C37.3494 12.7044 35.9924 13.4343 34.5145 13.5954H34.2727V15.0888H34.5365C35.9067 15.1586 37.2704 14.859 38.4848 14.2215C39.6993 13.584 40.7198 12.6319 41.4394 11.4651V11.4651Z" fill="var(--fill-0, #BBBBBB)"/>
<path id="Vector_12" d="M42.7365 23.2133C41.4394 23.2133 40.8459 22.5325 40.8459 21.0171V17.0859H36.6689C36.4711 17.0859 35.9435 17.0859 35.9435 17.5032C35.9435 17.9205 35.9435 17.9644 36.515 17.9644C36.7126 17.95 36.911 17.95 37.1086 17.9644C37.3065 17.9644 37.5043 18.1181 37.5263 18.7331V20.1386C37.5263 20.6218 37.5263 24.8605 41.4394 24.8605H53.7723V23.1474L42.7365 23.2133Z" fill="var(--fill-0, #BBBBBB)"/>
<path id="Vector_13" d="M57.9492 11.5962C57.9492 14.1218 60.7852 16.1643 64.2806 16.1643C67.776 16.1643 70.6339 14.1218 70.6339 11.5962C70.6086 10.9162 70.4145 10.2532 70.0691 9.66665C69.7238 9.08013 69.238 8.58854 68.6553 8.23604H71.4033V6.54498H66.1272V4.65625H61.9283C61.7524 4.65625 61.2248 4.65624 61.2248 5.09548C61.2248 5.53472 61.2248 5.53471 61.7964 5.53471C61.9933 5.50791 62.193 5.50791 62.39 5.53471C62.5878 5.53471 62.7637 5.53472 62.8077 6.25946V6.45713H56.6962L57.7074 8.14819H59.9058C59.315 8.51132 58.8257 9.01792 58.4836 9.62081C58.1415 10.2237 57.9577 10.9032 57.9492 11.5962ZM64.2586 14.3854C63.6903 14.3469 63.1457 14.1434 62.6916 13.7999C62.2375 13.4565 61.8937 12.988 61.7024 12.4521C61.5111 11.9161 61.4807 11.336 61.6149 10.783C61.7491 10.23 62.042 9.72823 62.4577 9.33926C62.8734 8.95029 63.3938 8.69111 63.9549 8.5935C64.516 8.4959 65.0935 8.56414 65.6163 8.78986C66.1392 9.01558 66.5846 9.38894 66.898 9.86408C67.2113 10.3392 67.379 10.8954 67.3803 11.4644C67.3516 12.2645 67.0072 13.0207 66.4223 13.568C65.8375 14.1152 65.0596 14.4091 64.2586 14.3854Z" fill="var(--fill-0, #BBBBBB)"/>
<path id="Vector_14" d="M65.6655 23.2128C63.9508 23.2128 63.7749 22.532 63.7749 21.0166V17.1074H59.598C59.4002 17.1074 58.8726 17.1074 58.8726 17.5247C58.8726 17.942 58.8725 17.9859 59.4441 17.9859C59.6411 17.9591 59.8408 17.9591 60.0377 17.9859C60.2356 17.9859 60.4334 18.1177 60.4774 18.7326V20.1382C60.4774 23.2348 61.8184 24.86 64.3685 24.86H76.7234V23.147L65.6655 23.2128Z" fill="var(--fill-0, #BBBBBB)"/>
<path id="Vector_15" d="M49.5294 5.6875C49.3316 5.6875 48.804 5.68751 48.804 6.10478C48.804 6.52206 48.804 6.56598 49.3755 6.56598C49.5725 6.53917 49.7721 6.53917 49.9691 6.56598C50.145 6.56598 50.3208 6.56598 50.3868 7.20288V18.1838H53.6844V5.6875H49.5294Z" fill="var(--fill-0, #BBBBBB)"/>
<path id="Vector_16" d="M79.6472 10.7607V9.04769H76.8113V5.6875H72.6564C72.4585 5.6875 71.9309 5.68751 71.9309 6.10478C71.9309 6.52206 71.9309 6.56598 72.5025 6.56598C72.6994 6.53917 72.8991 6.53917 73.096 6.56598C73.2499 6.56598 73.4258 6.56598 73.4918 7.04915V18.1838H76.8113V10.7607H79.6472Z" fill="var(--fill-0, #BBBBBB)"/>
</g>
<defs>
<radialGradient id="paint0_radial_0_907" cx="0" cy="0" r="1" gradientUnits="userSpaceOnUse" gradientTransform="translate(15.1934 9.85248) scale(13.9979 13.984)">
<stop stop-color="white"/>
<stop offset="1" stop-color="white"/>
</radialGradient>
<clipPath id="clip0_0_907">
<rect width="168" height="30" fill="white"/>
</clipPath>
</defs>
</svg>
