<svg preserveAspectRatio="none" width="100%" height="100%" overflow="visible" style="display: block;" viewBox="0 0 148 40" fill="none" xmlns="http://www.w3.org/2000/svg">
<g id="Client Logo / Exact" clip-path="url(#clip0_0_242)">
<path id="Vector" d="M147.749 15.7461H145.784C145.717 15.7472 145.653 15.7749 145.607 15.823C145.56 15.8712 145.533 15.936 145.533 16.0035V25.0896C145.533 25.123 145.539 25.1562 145.551 25.1871C145.564 25.2181 145.582 25.2462 145.605 25.2698C145.629 25.2934 145.657 25.312 145.688 25.3246C145.718 25.3371 145.751 25.3432 145.784 25.3426H147.749C147.782 25.3432 147.815 25.3371 147.846 25.3246C147.876 25.312 147.904 25.2934 147.928 25.2698C147.951 25.2462 147.97 25.2181 147.982 25.1871C147.994 25.1562 148.001 25.123 148 25.0896V16.0165C148 15.949 147.974 15.8842 147.927 15.8361C147.88 15.7879 147.816 15.7603 147.749 15.7592" fill="var(--fill-0, #BBBBBB)"/>
<path id="Vector_2" d="M57.1184 9.25977H47.7754L54.1844 27.8944C54.3724 28.4469 54.3359 29.0519 54.083 29.5774C53.83 30.1029 53.3811 30.5062 52.8342 30.6993L26.6703 39.8596L26.5491 39.8944H57.1184C57.4763 39.8888 57.8177 39.7424 58.07 39.4865C58.3222 39.2306 58.4653 38.8855 58.4686 38.5247V10.6164C58.4663 10.2565 58.3232 9.91215 58.0704 9.65811C57.8175 9.40407 57.4754 9.26091 57.1184 9.25977" fill="var(--fill-0, #BBBBBB)"/>
<path id="Vector_3" d="M140.968 24.9335C142.266 24.9335 143.006 24.2356 143.006 22.9706V16.2486C143.006 16.173 142.977 16.1005 142.924 16.0466C142.871 15.9927 142.8 15.9619 142.725 15.9607H140.847C140.771 15.9607 140.698 15.9911 140.645 16.0451C140.591 16.099 140.561 16.1723 140.561 16.2486V18.2988H136.666V16.2486C136.666 16.1723 136.636 16.099 136.583 16.0451C136.529 15.9911 136.456 15.9607 136.381 15.9607H134.52C134.445 15.9619 134.373 15.9927 134.321 16.0466C134.268 16.1005 134.239 16.173 134.239 16.2486V22.9662C134.239 24.2355 134.966 24.9335 136.277 24.9335H140.968ZM136.64 20.1919H140.535V22.4253C140.535 22.831 140.371 22.9837 139.942 22.9837H137.238C136.805 22.9837 136.623 22.831 136.623 22.4253L136.64 20.1919Z" fill="var(--fill-0, #BBBBBB)"/>
<path id="Vector_4" d="M97.6324 31.6161H88.2504C87.9345 31.6161 87.8177 31.5463 87.8177 31.5245C87.8177 31.5027 87.7311 31.4198 87.7311 31.1145V26.8353C87.7311 26.7678 87.7048 26.703 87.6579 26.6549C87.6109 26.6067 87.5471 26.5791 87.4801 26.578H85.5154C85.4485 26.5791 85.3846 26.6067 85.3377 26.6549C85.2907 26.703 85.2644 26.7678 85.2644 26.8353V31.6336C85.2644 32.9422 85.9482 33.6052 87.2464 33.6052H97.6324C97.6661 33.6058 97.6995 33.5996 97.7308 33.5868C97.762 33.5741 97.7904 33.5552 97.8142 33.5312C97.8381 33.5072 97.8569 33.4786 97.8695 33.4471C97.8821 33.4156 97.8883 33.3818 97.8877 33.3479V31.8779C97.8872 31.8448 97.8801 31.8123 97.8669 31.782C97.8537 31.7518 97.8347 31.7245 97.8109 31.7017C97.7871 31.679 97.7591 31.6613 97.7285 31.6496C97.6978 31.6379 97.6651 31.6324 97.6324 31.6336" fill="var(--fill-0, #BBBBBB)"/>
<path id="Vector_5" d="M88.6139 22.4297C89.056 23.0729 89.5748 23.6589 90.1588 24.1745C90.8751 24.8214 91.6925 25.3446 92.5779 25.723C92.6366 25.7452 92.7015 25.744 92.7594 25.7197C92.8172 25.6954 92.8638 25.6498 92.8895 25.5922L93.5083 24.2443C93.5349 24.1854 93.5385 24.1186 93.5185 24.0572C93.4984 23.9958 93.4562 23.9442 93.4001 23.9127C90.9854 22.6041 89.8126 20.8157 89.8126 18.4864V17.8844H93.0669C93.1002 17.885 93.1334 17.8789 93.1643 17.8664C93.1953 17.854 93.2234 17.8354 93.2472 17.8119C93.271 17.7883 93.2899 17.7602 93.3027 17.7293C93.3156 17.6983 93.3222 17.665 93.3222 17.6314V16.2181C93.3222 16.1499 93.2953 16.0844 93.2475 16.0361C93.1996 15.9878 93.1346 15.9607 93.0669 15.9607H84.0138C83.9805 15.9607 83.9475 15.9674 83.9168 15.9804C83.886 15.9934 83.8581 16.0124 83.8348 16.0364C83.8114 16.0603 83.793 16.0887 83.7807 16.1199C83.7683 16.1511 83.7623 16.1845 83.7628 16.2181V17.6314C83.7622 17.6648 83.7683 17.698 83.7807 17.7289C83.7931 17.7599 83.8116 17.788 83.835 17.8116C83.8585 17.8352 83.8864 17.8538 83.9171 17.8663C83.9478 17.8788 83.9807 17.885 84.0138 17.8844H87.2681V18.482C87.3035 19.6604 86.9885 20.8225 86.3637 21.819C85.6588 22.8172 84.7403 23.6431 83.6763 24.2356C83.6477 24.2514 83.6225 24.2729 83.6023 24.2988C83.5822 24.3246 83.5674 24.3544 83.5589 24.3861C83.5504 24.4179 83.5484 24.4511 83.553 24.4837C83.5575 24.5163 83.5685 24.5476 83.5854 24.5758L84.2735 25.8844C84.2977 25.9226 84.331 25.9541 84.3702 25.9761C84.4095 25.9982 84.4536 26.0102 84.4985 26.0109C84.5285 26.0171 84.5594 26.0171 84.5894 26.0109C85.5079 25.5797 86.3534 25.0056 87.095 24.3097C87.6841 23.7673 88.1953 23.1449 88.6139 22.4602" fill="var(--fill-0, #BBBBBB)"/>
<path id="Vector_6" d="M132.451 28.1446H130.115C130.491 27.2721 130.785 25.7411 130.785 22.8098V17.6189C130.801 17.4683 130.783 17.316 130.733 17.1734C130.683 17.0307 130.601 16.9013 130.494 16.7949C130.387 16.6884 130.258 16.6076 130.116 16.5584C129.974 16.5093 129.822 16.4931 129.673 16.511H118.945C118.877 16.511 118.812 16.5379 118.763 16.5861C118.715 16.6342 118.687 16.6997 118.686 16.7683V18.3299C118.687 18.3626 118.694 18.3948 118.708 18.4244C118.722 18.4539 118.742 18.4804 118.766 18.502C118.79 18.5237 118.819 18.5401 118.85 18.5503C118.88 18.5604 118.913 18.5641 118.945 18.5611H128.171C128.362 18.5611 128.379 18.6178 128.379 18.8011V21.9766H118.967C118.9 21.9766 118.836 22.0033 118.789 22.0507C118.742 22.0982 118.716 22.1625 118.716 22.2296V23.813C118.716 23.8801 118.742 23.9445 118.789 23.992C118.836 24.0394 118.9 24.066 118.967 24.066H126.432C127.202 24.066 128.414 23.9919 128.414 23.9919C128.414 26.9537 128.063 28.1446 128.063 28.1446H117.106C117.04 28.1446 116.976 28.1712 116.929 28.2187C116.882 28.2661 116.855 28.3305 116.855 28.3976V29.9417C116.855 30.0088 116.882 30.0732 116.929 30.1206C116.976 30.1681 117.04 30.1947 117.106 30.1947H132.438C132.505 30.1936 132.569 30.166 132.616 30.1178C132.663 30.0697 132.689 30.0049 132.689 29.9374V28.3976C132.689 28.3643 132.683 28.3314 132.67 28.3007C132.658 28.27 132.639 28.2422 132.616 28.2187C132.593 28.1952 132.565 28.1765 132.534 28.1638C132.504 28.1511 132.471 28.1446 132.438 28.1446" fill="var(--fill-0, #BBBBBB)"/>
<path id="Vector_7" d="M95.3821 28.0733H97.3468C97.4138 28.0733 97.4781 28.0467 97.5258 27.9994C97.5736 27.9521 97.601 27.8877 97.6021 27.8202V16.0035C97.6028 15.9701 97.5967 15.937 97.584 15.9062C97.5713 15.8754 97.5525 15.8476 97.5285 15.8246C97.4806 15.7753 97.4153 15.7471 97.3468 15.7461H95.3821C95.3151 15.7472 95.2513 15.7749 95.2044 15.823C95.1574 15.8712 95.1311 15.936 95.1311 16.0035V27.8202C95.1311 27.8873 95.1576 27.9517 95.2046 27.9992C95.2517 28.0466 95.3155 28.0733 95.3821 28.0733" fill="var(--fill-0, #BBBBBB)"/>
<path id="Vector_8" d="M73.8312 22.7267C77.1071 22.7267 79.6603 21.7322 79.6603 18.9536C79.6603 16.1749 77.1071 15.2109 73.8312 15.2109C70.5553 15.2109 68.0194 16.188 68.0194 18.9536C68.0194 21.7191 70.5596 22.7267 73.8312 22.7267ZM73.8312 17.248C75.8998 17.248 77.3754 17.8151 77.3754 18.9928C77.3754 20.1706 75.8998 20.7158 73.8312 20.7158C71.7627 20.7158 70.3 20.1662 70.3 18.9928C70.3 17.8194 71.7584 17.248 73.8312 17.248Z" fill="var(--fill-0, #BBBBBB)"/>
<path id="Vector_9" d="M81.9929 23.4591H65.7215C65.6879 23.4588 65.6545 23.4652 65.6233 23.4779C65.5921 23.4906 65.5637 23.5094 65.5398 23.5333C65.4958 23.5823 65.4711 23.646 65.4705 23.7121V25.2519C65.47 25.2855 65.476 25.3189 65.4884 25.3501C65.5007 25.3813 65.5191 25.4097 65.5425 25.4336C65.5659 25.4576 65.5937 25.4766 65.6245 25.4896C65.6552 25.5026 65.6882 25.5093 65.7215 25.5093H72.6455V26.5824C69.9495 26.8005 67.9891 27.8517 67.9891 30.277C67.9891 33.06 70.5294 34.0545 73.8053 34.0545C77.0812 34.0545 79.6344 33.06 79.6344 30.277C79.6344 27.8692 77.6914 26.8179 75.0213 26.5867V25.5093H81.9756C82.0089 25.5093 82.0419 25.5026 82.0726 25.4896C82.1034 25.4766 82.1312 25.4576 82.1546 25.4336C82.178 25.4097 82.1964 25.3813 82.2087 25.3501C82.2211 25.3189 82.2271 25.2855 82.2266 25.2519V23.7121C82.2266 23.6789 82.2201 23.646 82.2074 23.6153C82.1948 23.5846 82.1763 23.5567 82.153 23.5332C82.1297 23.5097 82.1021 23.4911 82.0716 23.4784C82.0412 23.4657 82.0085 23.4591 81.9756 23.4591M77.3495 30.2988C77.3495 31.4722 75.8738 32.0175 73.8053 32.0175C71.7367 32.0175 70.2784 31.4722 70.2784 30.2988C70.2784 29.1254 71.7324 28.554 73.8053 28.554C75.8781 28.554 77.3495 29.1211 77.3495 30.2988Z" fill="var(--fill-0, #BBBBBB)"/>
<path id="Vector_10" d="M104.734 22.5383C104.537 22.7436 104.327 22.936 104.106 23.1141C104.063 23.1499 104.035 23.2002 104.026 23.2556C104.018 23.3109 104.029 23.3676 104.059 23.4151L104.924 24.8022C104.946 24.834 104.975 24.86 105.009 24.8782C105.043 24.8964 105.081 24.9062 105.119 24.9069C105.152 24.9135 105.186 24.9135 105.218 24.9069C105.803 24.6147 107.213 23.0618 108.062 21.3475C108.927 23.0618 110.325 24.6147 110.905 24.9069C110.938 24.9128 110.971 24.9128 111.004 24.9069C111.043 24.9074 111.081 24.898 111.115 24.8797C111.149 24.8614 111.178 24.8348 111.199 24.8022L112.065 23.4151C112.094 23.3671 112.104 23.3101 112.095 23.2547C112.085 23.1993 112.056 23.1493 112.013 23.1141C110.84 22.1763 109.2 20.1435 109.2 16.7542V16.1828C109.2 16.1524 109.195 16.1223 109.184 16.094C109.173 16.0657 109.157 16.0399 109.136 16.018C109.115 15.9962 109.09 15.9787 109.062 15.9665C109.035 15.9544 109.005 15.9478 108.975 15.9473H107.153C107.093 15.9495 107.036 15.9755 106.995 16.0195C106.953 16.0636 106.931 16.1222 106.932 16.1828V16.7412C106.949 18.0913 106.653 19.4267 106.067 20.6408C105.448 19.4368 105.134 18.0971 105.154 16.7412V16.1828C105.154 16.1524 105.149 16.1223 105.138 16.094C105.127 16.0657 105.11 16.0399 105.089 16.018C105.069 15.9962 105.044 15.9787 105.016 15.9665C104.988 15.9544 104.959 15.9478 104.929 15.9473H103.107C103.077 15.9478 103.047 15.9544 103.019 15.9665C102.992 15.9787 102.967 15.9962 102.946 16.018C102.925 16.0399 102.908 16.0657 102.897 16.094C102.886 16.1223 102.881 16.1524 102.882 16.1828V16.7412C102.882 20.1305 101.237 22.1632 100.069 23.101C100.025 23.1356 99.9944 23.1853 99.9841 23.2408C99.9737 23.2962 99.9838 23.3535 100.012 23.402L100.878 24.7891C100.899 24.8214 100.928 24.8479 100.962 24.8661C100.996 24.8844 101.034 24.8939 101.073 24.8938C101.106 24.9004 101.139 24.9004 101.172 24.8938C101.756 24.6016 103.172 23.0443 104.02 21.3257C104.237 21.7458 104.48 22.1523 104.747 22.5427" fill="var(--fill-0, #BBBBBB)"/>
<path id="Vector_11" d="M108.983 25.7266C106.067 25.7266 102.951 26.8171 102.951 29.8792C102.951 32.9414 106.067 34.0668 108.983 34.0668C111.9 34.0668 115.012 32.9676 115.012 29.8792C115.012 26.7909 111.896 25.7266 108.983 25.7266ZM108.983 32.0297C106.82 32.0297 105.4 31.1922 105.4 29.8967C105.4 28.6012 106.807 27.7854 108.983 27.7854C111.16 27.7854 112.567 28.6142 112.567 29.8967C112.567 31.1791 111.156 32.0297 108.983 32.0297Z" fill="var(--fill-0, #BBBBBB)"/>
<path id="Vector_12" d="M112.852 25.0291H114.644C114.71 25.028 114.772 25.0008 114.818 24.9535C114.865 24.9062 114.89 24.8425 114.89 24.7761V16.0171C114.89 15.9503 114.865 15.8862 114.819 15.8381C114.773 15.7901 114.71 15.762 114.644 15.7598H112.852C112.785 15.7609 112.721 15.7885 112.674 15.8367C112.628 15.8848 112.601 15.9496 112.601 16.0171V24.7761C112.601 24.8432 112.628 24.9076 112.675 24.955C112.722 25.0024 112.786 25.0291 112.852 25.0291" fill="var(--fill-0, #BBBBBB)"/>
<path id="Vector_13" d="M146.849 26.8969H135.645C135.569 26.8969 135.497 26.9273 135.443 26.9813C135.389 27.0353 135.359 27.1085 135.359 27.1848V28.5502C135.361 28.6258 135.391 28.6979 135.445 28.7509C135.498 28.804 135.57 28.8337 135.645 28.8337H145.256C145.455 28.8337 145.46 28.8904 145.46 29.0169V33.3222C145.461 33.3971 145.491 33.4686 145.543 33.5215C145.596 33.5744 145.667 33.6047 145.741 33.6058H147.723C147.76 33.6058 147.796 33.5984 147.83 33.5841C147.864 33.5698 147.895 33.5489 147.92 33.5225C147.946 33.4961 147.966 33.4648 147.98 33.4304C147.994 33.396 148.001 33.3593 148 33.3222V28.0136C148.013 27.8598 147.993 27.7048 147.939 27.5601C147.885 27.4154 147.8 27.2847 147.689 27.1776C147.579 27.0705 147.446 26.9897 147.301 26.9411C147.155 26.8925 147.001 26.8774 146.849 26.8969" fill="var(--fill-0, #BBBBBB)"/>
<path id="Vector_14" d="M54.2234 27.8822L45.1357 1.50925C44.9412 0.94724 44.5337 0.485783 44.0025 0.225822C43.4713 -0.0341395 42.8596 -0.0714331 42.3012 0.122122L16.1372 9.28243C15.5803 9.47944 15.1233 9.89025 14.8655 10.4254C14.6078 10.9605 14.5702 11.5766 14.761 12.1396L15.8948 15.4286L19.2703 14.2508L18.5779 12.2399L42.2406 3.96945L50.4238 27.7775L26.7871 36.0305L24.6753 29.8975L21.2999 31.0752L23.8488 38.4907C24.0452 39.0513 24.4528 39.5113 24.9834 39.771C25.514 40.0306 26.1248 40.069 26.6833 39.8779L52.8472 30.7175C53.4048 30.5215 53.8626 30.1108 54.1205 29.5754C54.3784 29.0399 54.4154 28.4233 54.2234 27.8604" fill="var(--fill-0, #BBBBBB)"/>
<path id="Vector_15" d="M26.7871 36.0298L50.4065 27.7812L42.2232 3.96875L18.5995 12.2174L19.2919 14.2283L15.9121 15.4104L21.2998 31.0745L24.6753 29.8968L26.7871 36.0298Z" fill="var(--fill-0, white)"/>
<path id="Vector_16" d="M5.09349 18.5957C4.90934 18.5114 4.70576 18.4797 4.50496 18.5041H0.939112C0.736904 18.4798 0.531945 18.5114 0.346249 18.5957C0.240744 18.6624 0.153787 18.7551 0.0935037 18.8649C0.0332205 18.9748 0.00158691 19.0983 0.00158691 19.2238C0.00158691 19.3494 0.0332205 19.4729 0.0935037 19.5827C0.153787 19.6926 0.240744 19.7852 0.346249 19.852C0.53254 19.9342 0.736945 19.9658 0.939112 19.9436H1.92579V24.9556C1.90263 25.1819 1.93843 25.4104 2.02965 25.6186C2.1035 25.7357 2.20547 25.8321 2.32613 25.8989C2.44679 25.9657 2.58221 26.0007 2.71987 26.0007C2.85753 26.0007 2.99297 25.9657 3.11363 25.8989C3.23429 25.8321 3.33626 25.7357 3.41012 25.6186C3.50609 25.4119 3.54353 25.1824 3.5183 24.9556V19.9436H4.50496C4.70571 19.9658 4.90873 19.9342 5.09349 19.852C5.19899 19.7852 5.28598 19.6926 5.34626 19.5827C5.40654 19.4729 5.43818 19.3494 5.43818 19.2238C5.43818 19.0983 5.40654 18.9748 5.34626 18.8649C5.28598 18.7551 5.19899 18.6624 5.09349 18.5957" fill="var(--fill-0, #BBBBBB)"/>
<path id="Vector_17" d="M10.7235 18.4593C10.5846 18.4553 10.4472 18.4887 10.3254 18.5562C10.2037 18.6237 10.1021 18.7228 10.0311 18.8432C9.93987 19.0514 9.90408 19.2799 9.92724 19.5062V21.4692H7.64665V19.5062C7.66981 19.2799 7.63401 19.0514 7.54279 18.8432C7.46894 18.7261 7.36696 18.6297 7.24631 18.5629C7.12565 18.4961 6.9902 18.4611 6.85254 18.4611C6.71489 18.4611 6.57946 18.4961 6.45881 18.5629C6.33815 18.6297 6.23617 18.7261 6.16232 18.8432C6.06962 19.051 6.03233 19.2795 6.05414 19.5062V24.9544C6.03156 25.1826 6.06887 25.4128 6.16232 25.6218C6.23314 25.7421 6.33485 25.8408 6.45672 25.9076C6.57859 25.9744 6.71609 26.0068 6.85471 26.0013C6.99319 26.0065 7.13045 25.9735 7.2517 25.9058C7.37294 25.8382 7.4736 25.7385 7.54279 25.6175C7.63401 25.4093 7.66981 25.1808 7.64665 24.9544V22.913H9.92724V24.9544C9.90331 25.1822 9.93912 25.4124 10.0311 25.6218C10.1026 25.7415 10.2044 25.8397 10.3262 25.9064C10.4479 25.9731 10.585 26.0059 10.7235 26.0013C10.862 26.0065 10.9992 25.9735 11.1205 25.9058C11.2417 25.8382 11.3424 25.7385 11.4116 25.6175C11.5058 25.4102 11.5418 25.1809 11.5154 24.9544V19.5062C11.5413 19.2798 11.5054 19.0506 11.4116 18.8432C11.3417 18.7228 11.2409 18.6236 11.1198 18.5561C10.9987 18.4885 10.8618 18.4551 10.7235 18.4593" fill="var(--fill-0, #BBBBBB)"/>
<path id="Vector_18" d="M14.2028 25.6176C14.2988 25.4109 14.3362 25.1814 14.311 24.9546V19.5064C14.3358 19.2796 14.2984 19.0502 14.2028 18.8434C14.1303 18.7252 14.029 18.6277 13.9086 18.5601C13.7882 18.4925 13.6526 18.457 13.5148 18.457C13.3769 18.457 13.2414 18.4925 13.1209 18.5601C13.0005 18.6277 12.8993 18.7252 12.8267 18.8434C12.7306 19.0485 12.6932 19.2766 12.7185 19.502V24.9502C12.6933 25.1771 12.7307 25.4065 12.8267 25.6133C12.9 25.7304 13.0015 25.8269 13.1219 25.8938C13.2422 25.9607 13.3774 25.9958 13.5148 25.9958C13.6522 25.9958 13.7873 25.9607 13.9076 25.8938C14.028 25.8269 14.1295 25.7304 14.2028 25.6133" fill="var(--fill-0, #BBBBBB)"/>
<path id="Vector_19" d="M20.4344 18.4593C20.2961 18.4551 20.1592 18.4885 20.0381 18.5561C19.917 18.6236 19.8162 18.7228 19.7463 18.8432C19.6508 19.0501 19.6134 19.2794 19.6382 19.5062V22.7516L17.2234 19.1529C16.9075 18.6818 16.6911 18.4593 16.3233 18.4593C16.2122 18.4575 16.1019 18.4786 15.9991 18.5213C15.8964 18.5641 15.8035 18.6276 15.7261 18.708C15.6436 18.8087 15.5819 18.925 15.5447 19.0501C15.5075 19.1752 15.4956 19.3066 15.5097 19.4365V24.9544C15.485 25.1827 15.5224 25.4134 15.6179 25.6218C15.6918 25.7389 15.7937 25.8354 15.9144 25.9022C16.035 25.969 16.1705 26.004 16.3081 26.004C16.4458 26.004 16.5812 25.969 16.7019 25.9022C16.8225 25.8354 16.9245 25.7389 16.9984 25.6218C17.0896 25.4137 17.1254 25.1852 17.1022 24.9588V21.7134L19.5213 25.3121C19.8286 25.7745 20.0493 26.0057 20.4214 26.0057C20.5339 26.0137 20.6468 25.9976 20.7527 25.9585C20.8586 25.9194 20.9551 25.8582 21.0359 25.7789C21.1202 25.6793 21.183 25.563 21.2203 25.4376C21.2575 25.3122 21.2684 25.1803 21.2523 25.0504V19.5062C21.2771 19.2794 21.2397 19.0501 21.1441 18.8432C21.0742 18.7228 20.9734 18.6236 20.8523 18.5561C20.7312 18.4885 20.5943 18.4551 20.456 18.4593" fill="var(--fill-0, #BBBBBB)"/>
<path id="Vector_20" d="M27.7175 24.5985L25.9606 21.4884L27.2588 19.8875C27.5055 19.5909 27.5963 19.4513 27.5963 19.2201C27.595 19.1086 27.5686 18.9988 27.5192 18.8991C27.4697 18.7994 27.3984 18.7123 27.3107 18.6443C27.1761 18.5268 27.0042 18.4617 26.826 18.4611C26.5188 18.4611 26.35 18.6356 26.1163 18.9235L24.0089 21.4796V19.508C24.0336 19.2812 23.9962 19.0518 23.9007 18.845C23.8276 18.7269 23.7259 18.6295 23.6051 18.5619C23.4844 18.4944 23.3485 18.459 23.2104 18.459C23.0724 18.459 22.9365 18.4944 22.8158 18.5619C22.695 18.6295 22.5933 18.7269 22.5202 18.845C22.428 19.0513 22.3921 19.2787 22.4163 19.5036V24.9518C22.3911 25.1787 22.4286 25.4081 22.5245 25.6149C22.5937 25.7359 22.6944 25.8356 22.8156 25.9032C22.9368 25.9709 23.0741 26.0039 23.2126 25.9987C23.3517 26.0037 23.4894 25.9707 23.6113 25.9031C23.7333 25.8355 23.8347 25.7359 23.905 25.6149C23.9962 25.4067 24.032 25.1782 24.0089 24.9518V23.713L24.8354 22.7054L26.35 25.375C26.5318 25.6977 26.7049 25.9987 27.1333 25.9987C27.286 25.9995 27.436 25.9572 27.5661 25.8766C27.6859 25.811 27.7858 25.7139 27.8551 25.5956C27.9245 25.4773 27.9607 25.3422 27.9598 25.2048C27.9293 24.9845 27.8461 24.7749 27.7175 24.5942" fill="var(--fill-0, #BBBBBB)"/>
<path id="Vector_21" d="M34.6242 22.1366C34.872 21.9738 35.0757 21.7514 35.2169 21.4894C35.3582 21.2275 35.4326 20.9342 35.4334 20.6361C35.4334 19.3274 34.5419 18.503 33.1009 18.503H31.0453C30.9155 18.4778 30.7815 18.485 30.655 18.5241C30.5286 18.5632 30.4135 18.6329 30.32 18.7272C30.2265 18.8214 30.1573 18.9374 30.1186 19.0649C30.0798 19.1923 30.0726 19.3274 30.0976 19.4583V25.0068C30.0737 25.1375 30.0816 25.2722 30.1208 25.3991C30.1599 25.5261 30.2291 25.6415 30.3224 25.7355C30.4157 25.8295 30.5302 25.8993 30.6561 25.9388C30.7821 25.9782 30.9156 25.9862 31.0453 25.9621H33.2091C34.6328 25.9621 35.5156 25.1246 35.5156 23.7811C35.5315 23.4494 35.4547 23.1199 35.2941 22.8299C35.1334 22.54 34.8953 22.3013 34.6069 22.1409M31.6728 21.4561V19.9468H32.9711C33.5034 19.9468 33.8366 20.2304 33.8366 20.7015C33.8366 21.1726 33.5207 21.4561 32.9711 21.4561H31.6728ZM33.8495 24.3918C33.8546 24.5052 33.8353 24.6184 33.7928 24.7235C33.7503 24.8287 33.6857 24.9233 33.6034 25.0008C33.5211 25.0783 33.4231 25.1369 33.3162 25.1726C33.2093 25.2083 33.096 25.2202 32.984 25.2075H31.5906V22.9H32.984C33.0956 22.8851 33.2091 22.8951 33.3164 22.9294C33.4237 22.9638 33.5222 23.0215 33.6048 23.0986C33.6875 23.1756 33.7522 23.2701 33.7945 23.3752C33.8368 23.4804 33.8556 23.5936 33.8495 23.7069" fill="var(--fill-0, #BBBBBB)"/>
<path id="Vector_22" d="M37.29 18.4593C37.1517 18.4551 37.0148 18.4885 36.8937 18.5561C36.7726 18.6236 36.6718 18.7228 36.6019 18.8432C36.508 19.0506 36.4721 19.2798 36.498 19.5062V24.9544C36.4722 25.1823 36.5081 25.4129 36.6019 25.6218C36.6758 25.7389 36.7778 25.8354 36.8984 25.9022C37.0191 25.969 37.1545 26.004 37.2921 26.004C37.4298 26.004 37.5652 25.969 37.6859 25.9022C37.8065 25.8354 37.9085 25.7389 37.9824 25.6218C38.0736 25.4137 38.1094 25.1852 38.0863 24.9588V19.5062C38.111 19.2794 38.0736 19.0501 37.9781 18.8432C37.9082 18.7228 37.8074 18.6236 37.6863 18.5561C37.5652 18.4885 37.4283 18.4551 37.29 18.4593" fill="var(--fill-0, #BBBBBB)"/>
<path id="Vector_23" d="M43.5129 21.8546H42.5219C42.3197 21.8332 42.1155 21.8648 41.929 21.9462C41.8235 22.0124 41.7364 22.1046 41.676 22.2141C41.6156 22.3236 41.584 22.4468 41.584 22.5721C41.584 22.6974 41.6156 22.8207 41.676 22.9302C41.7364 23.0397 41.8235 23.1319 41.929 23.1981C42.1156 23.2795 42.3194 23.3125 42.5219 23.294H42.9546C42.9721 23.462 42.9545 23.6318 42.9031 23.7926C42.8517 23.9533 42.7676 24.1015 42.656 24.2275C42.5478 24.341 42.4171 24.4302 42.2725 24.4896C42.1279 24.5489 41.9726 24.5771 41.8165 24.5721C41.6548 24.5792 41.4934 24.5504 41.3439 24.4879C41.1944 24.4253 41.0603 24.3305 40.951 24.2101C40.7043 23.9309 40.6221 23.6038 40.6221 22.221C40.6221 20.8382 40.6827 20.546 40.9553 20.2275C41.0544 20.1133 41.1769 20.0222 41.3144 19.9604C41.4519 19.8986 41.6011 19.8677 41.7516 19.8698C41.9692 19.8638 42.1829 19.929 42.3608 20.0556C42.5386 20.1822 42.6711 20.3634 42.7383 20.5721C42.832 20.7784 42.9694 20.9615 43.1407 21.1087C43.266 21.2014 43.418 21.2505 43.5735 21.2482C43.6749 21.2506 43.7757 21.2325 43.8701 21.1951C43.9645 21.1576 44.0504 21.1016 44.123 21.0301C44.1985 20.9505 44.2564 20.8558 44.2929 20.752C44.3295 20.6483 44.3439 20.5379 44.3351 20.4282C44.2939 19.925 44.0632 19.4567 43.6903 19.1196C43.4358 18.8788 43.1342 18.6943 42.8048 18.5778C42.4754 18.4614 42.1255 18.4156 41.7775 18.4435C41.4106 18.432 41.0452 18.4962 40.7037 18.6319C40.3622 18.7677 40.0517 18.9722 39.7912 19.233C39.0599 19.9702 39.0253 20.812 39.0253 22.2341C39.0253 23.6561 39.0599 24.4936 39.7912 25.2308C40.0521 25.4951 40.3644 25.702 40.7085 25.8387C41.0525 25.9753 41.421 26.0386 41.7905 26.0247C42.1556 26.0399 42.5197 25.9758 42.8579 25.8365C43.1962 25.6973 43.5008 25.4862 43.7509 25.2177C44.3308 24.6332 44.4476 23.9091 44.4476 22.8971V22.8186C44.4718 22.688 44.464 22.5534 44.4249 22.4266C44.3857 22.2997 44.3164 22.1844 44.223 22.0907C44.1296 21.997 44.0149 21.9277 43.8889 21.8888C43.7629 21.8499 43.6293 21.8427 43.4999 21.8677" fill="var(--fill-0, #BBBBBB)"/>
</g>
<defs>
<clipPath id="clip0_0_242">
<rect width="148" height="40" fill="white"/>
</clipPath>
</defs>
</svg>
