<svg preserveAspectRatio="none" width="100%" height="100%" overflow="visible" style="display: block;" viewBox="0 0 198 40" fill="none" xmlns="http://www.w3.org/2000/svg">
<g id="Client Logo / Exact" clip-path="url(#clip0_0_98)">
<path id="Vector" d="M57.0876 19.749H58.361V23.9595H60.9433V12.2949H57.7445V12.6576H57.7799C57.9264 12.6576 58.0325 12.7684 58.1791 12.9849C58.2954 13.2093 58.3577 13.4576 58.361 13.7102V14.3246H57.0876V16.3392H58.361V17.7344H57.0876V19.749V19.749ZM57.0876 28.4168V26.4022H61.1656V28.4168H57.0876ZM54.8793 19.749H57.0977V17.7344H55.8242C55.8596 17.6286 55.8596 17.5178 55.9 17.3717V16.6817C55.8596 16.576 55.8596 16.4299 55.8242 16.3191H57.0977V14.3045H54.8793C54.4463 13.7452 53.8847 13.2978 53.242 13C52.5501 12.6674 51.7917 12.4952 51.0236 12.4964V14.3498C51.3306 14.3494 51.6338 14.4174 51.911 14.549C52.1882 14.6806 52.4323 14.8724 52.6255 15.1103C53.0687 15.6387 53.312 16.3053 53.3127 16.994C53.324 17.6863 53.0794 18.3585 52.6255 18.8827C52.4334 19.1244 52.1903 19.321 51.9135 19.4585C51.6366 19.596 51.3328 19.6711 51.0236 19.6784V21.5268C51.7808 21.5322 52.5287 21.3596 53.2066 21.0232C53.8505 20.7248 54.4213 20.2899 54.8793 19.749V19.749ZM57.0977 26.3871V28.4017H51.0337V23.1738H51.3975V26.4022L57.0977 26.3871ZM51.0337 12.4964C50.4021 12.4809 49.7739 12.592 49.1863 12.823C48.5986 13.054 48.0635 13.4002 47.6125 13.8411C47.1755 14.2469 46.8269 14.7381 46.5886 15.284C46.3503 15.8298 46.2273 16.4188 46.2273 17.0141C46.2273 17.6095 46.3503 18.1984 46.5886 18.7443C46.8269 19.2902 47.1755 19.7813 47.6125 20.1871C48.0637 20.6274 48.599 20.9728 49.1867 21.203C49.7744 21.4331 50.4025 21.5432 51.0337 21.5268V21.5268V19.6784C50.7226 19.6812 50.4153 19.6106 50.1368 19.4723C49.8584 19.334 49.6168 19.1319 49.4318 18.8827C48.9867 18.3553 48.7527 17.6827 48.7748 16.994C48.7649 16.3087 48.9975 15.6418 49.4318 15.1103C49.6231 14.8705 49.8669 14.6773 50.1445 14.5455C50.4221 14.4137 50.7262 14.3468 51.0337 14.3498V14.3498V12.4964V12.4964ZM51.0337 23.1587V28.4168H48.7748V24.5739C48.7937 24.319 48.7299 24.0648 48.5929 23.8487C48.4868 23.6321 48.3402 23.5213 48.1937 23.5213V23.1587H51.0337Z" fill="var(--fill-0, #BBBBBB)"/>
<path id="Vector_2" d="M72.1162 23.5709L72.8439 22.6291C72.6266 22.3772 72.4043 22.0851 72.1162 21.798V23.5709ZM72.1162 18.7157V16.7565H74.0062V13.7044C74.0028 13.4518 73.9406 13.2035 73.8243 12.9791C73.7908 12.8889 73.732 12.8101 73.655 12.752C73.578 12.694 73.4859 12.6592 73.3897 12.6517V12.2891H76.4469V28.4059H74.0062V18.7409L72.1162 18.7157ZM77.498 12.2941V28.411H80.0853V12.2941H77.498ZM68.9478 19.2445C69.4634 18.3288 69.8672 17.3549 70.1505 16.3435C70.4909 15.1516 70.651 13.9158 70.6255 12.6769H66.8759V13.0395C67.0869 13.1125 67.2751 13.2392 67.4217 13.4072C67.6514 13.7601 67.7415 14.1855 67.6743 14.6009C67.6678 15.2639 67.5709 15.923 67.3863 16.5601C67.2044 17.1745 66.9871 17.8293 66.7294 18.479C66.3637 19.3587 65.8865 20.1881 65.3094 20.9469C64.7596 21.6672 64.1512 22.341 63.4902 22.9615L64.6575 24.1199C65.3194 23.6865 65.9297 23.1796 66.4767 22.6089C67.0325 22.0357 67.5396 21.4175 67.9927 20.7605C68.251 20.9461 68.4943 21.1515 68.7204 21.375C68.973 21.5915 69.1954 21.8131 69.4127 22.0297C69.7007 22.3571 70.0646 22.7902 70.4688 23.2637C70.81 23.679 71.1256 24.1146 71.4138 24.5681L72.1415 23.5608V21.788C72.0918 21.7058 72.0305 21.6312 71.9596 21.5663C71.5957 21.2037 71.2319 20.8814 70.7923 20.5188C70.5196 20.2681 70.2291 20.0375 69.9231 19.8288C69.6194 19.6152 69.3021 19.4217 68.973 19.2496L68.9478 19.2445ZM72.1162 16.7263V18.7409H71.4239V16.7817L72.1162 16.7263Z" fill="var(--fill-0, #BBBBBB)"/>
<path id="Vector_3" d="M91.9102 25.2887V28.4768H94.2954V18.7412H95.493V28.4567H98.0803V12.3398H95.5082V16.7669H94.2954V12.3398H91.3089V12.6974C91.4554 12.6974 91.602 12.8082 91.7131 13.0248C91.8357 13.2468 91.8983 13.4967 91.8951 13.7501V23.2741H85.7047V14.7624H89.8131V12.7478H82.5211V13.1104C82.6174 13.1179 82.7094 13.1527 82.7865 13.2108C82.8635 13.2688 82.9222 13.3476 82.9557 13.4378C83.0816 13.6585 83.1446 13.9093 83.1376 14.1631V25.2887H91.9102Z" fill="var(--fill-0, #BBBBBB)"/>
<path id="Vector_4" d="M105.66 21.7229C106.859 21.7613 108.029 21.3476 108.935 20.5645C109.352 20.2349 109.69 19.8163 109.923 19.3396C110.157 18.8628 110.28 18.34 110.284 17.8095C110.283 17.2255 110.131 16.6517 109.845 16.1424C109.58 15.6205 109.178 15.18 108.682 14.8682H110.83V12.8536H107.192V11.4786H105.676V15.3215C105.955 15.3162 106.232 15.3757 106.485 15.4955C106.737 15.6152 106.959 15.7919 107.131 16.0115C107.507 16.4862 107.712 17.0736 107.712 17.6786C107.712 18.2836 107.507 18.8709 107.131 19.3457C106.96 19.5697 106.74 19.7516 106.488 19.8774C106.236 20.0031 105.958 20.0694 105.676 20.0709V21.738L105.66 21.7229ZM105.66 24.9865V22.9719H115.484V28.4819H112.866V24.9865H105.66ZM112.23 12.3298V12.6572C112.412 12.6572 112.523 12.768 112.669 12.9845C112.772 13.2123 112.822 13.4602 112.816 13.7098V21.5768H115.434V18.7413H117.96V16.7821H115.434V12.355L112.23 12.3298ZM102.588 14.848C102.122 15.1842 101.737 15.6195 101.461 16.1223C101.056 16.8488 100.929 17.6969 101.102 18.5098C101.276 19.3227 101.739 20.0454 102.406 20.5443C103.299 21.3265 104.457 21.7407 105.645 21.7027V21.7027V20.0357C105.363 20.0341 105.085 19.9679 104.833 19.8421C104.58 19.7164 104.36 19.5344 104.19 19.3104C103.814 18.8356 103.609 18.2483 103.609 17.6433C103.609 17.0383 103.814 16.451 104.19 15.9762C104.362 15.7566 104.583 15.58 104.836 15.4602C105.088 15.3405 105.366 15.2809 105.645 15.2862V15.2862V11.4434H103.973V11.806H104.008C104.087 11.8214 104.162 11.8555 104.225 11.9054C104.288 11.9554 104.339 12.0197 104.372 12.0931C104.493 12.277 104.556 12.4926 104.554 12.7126V12.8183H100.713V14.8329L102.588 14.848ZM105.645 22.9367V24.9513H102.042V22.9367H105.645Z" fill="var(--fill-0, #BBBBBB)"/>
<path id="Vector_5" d="M130.801 25.6409H128.729V19.9849H126.253V25.6409H124.873V19.9849H121.962V20.3072C122.109 20.3072 122.25 20.418 122.362 20.6346C122.482 20.8701 122.544 21.1308 122.544 21.3951V25.6409H119.85V27.6555H134.985V25.6409H133.388V12.7323H120.724V14.7469H130.801V25.6409Z" fill="var(--fill-0, #BBBBBB)"/>
<path id="Vector_6" d="M146.766 21.3959C148.045 21.4256 149.285 20.9577 150.223 20.0914C150.675 19.6924 151.035 19.2013 151.28 18.6512C151.525 18.1012 151.649 17.5051 151.643 16.9033C151.644 16.2989 151.516 15.7012 151.268 15.1498C151.02 14.5984 150.656 14.1059 150.202 13.7051C149.264 12.8389 148.025 12.3709 146.746 12.4007V14.2088C147.057 14.206 147.364 14.2767 147.643 14.415C147.921 14.5533 148.163 14.7553 148.348 15.0046C148.82 15.5181 149.069 16.1972 149.04 16.8932C149.057 17.5858 148.809 18.2588 148.348 18.7769C148.157 19.0168 147.913 19.2099 147.635 19.3417C147.358 19.4735 147.053 19.5404 146.746 19.5374V21.3858L146.766 21.3959ZM146.766 25.0222V23.0076H152.881V25.0222H146.766ZM156.63 28.5075V12.2949H153.462V12.6978C153.608 12.6978 153.755 12.8086 153.861 13.0252C153.986 13.2463 154.049 13.4968 154.043 13.7505V28.5125L156.63 28.5075ZM146.766 21.3959V19.5475C146.46 19.5497 146.156 19.4824 145.88 19.3507C145.603 19.2189 145.36 19.0262 145.169 18.787C144.733 18.2566 144.5 17.589 144.512 16.9033C144.488 16.2143 144.723 15.541 145.169 15.0146C145.353 14.7642 145.593 14.5607 145.871 14.4206C146.148 14.2805 146.455 14.208 146.766 14.2088V14.2088V12.3956C145.501 12.3738 144.277 12.8413 143.35 13.7001C142.901 14.1022 142.542 14.5946 142.297 15.145C142.052 15.6954 141.927 16.2912 141.93 16.8932C141.924 17.495 142.047 18.0911 142.292 18.6412C142.537 19.1912 142.898 19.6824 143.35 20.0814C144.277 20.9402 145.501 21.4077 146.766 21.3858V21.3959ZM146.766 22.9925V25.0071H141.309V22.9925H146.766Z" fill="var(--fill-0, #BBBBBB)"/>
<path id="Vector_7" d="M174.312 12.7323H161.249V14.7973H171.689V16.1773H160.739V16.5399C160.885 16.5399 161.032 16.6457 161.138 16.8623C161.254 17.0868 161.316 17.335 161.32 17.5875V21.798H174.312V19.7834H163.907V18.1164H174.312V12.7323ZM172.129 25.7467V22.6291H168.925V22.9564C169.107 22.9564 169.218 23.0672 169.365 23.2838C169.483 23.5199 169.546 23.7802 169.547 24.0443V25.7467H166.818V22.6291H163.649V22.9564C163.796 22.9564 163.942 23.0672 164.048 23.2838C164.169 23.5191 164.232 23.7799 164.23 24.0443V25.7467H160.188V27.7613H175.727V25.7467H172.129Z" fill="var(--fill-0, #BBBBBB)"/>
<path id="Vector_8" d="M189.083 28.5075V26.4929H193.777V28.5075H189.083ZM189.083 21.6176V19.603H189.588V21.6176H189.083ZM189.083 18.6813H190.902V24.841H193.519V12.3303H190.321V12.6979C190.467 12.6979 190.609 12.8087 190.72 13.0253C190.861 13.2397 190.925 13.4953 190.902 13.7506V16.6868H189.083V18.6813ZM183.408 19.0036C184.639 19.0486 185.851 18.6952 186.864 17.9963C187.288 17.7355 187.641 17.3731 187.889 16.9421C188.137 16.5111 188.273 16.0251 188.284 15.5284C188.272 15.0372 188.136 14.5571 187.888 14.1326C187.639 13.7081 187.287 13.3532 186.864 13.1008C185.851 12.4023 184.639 12.0489 183.408 12.0935V12.0935V13.8362C183.982 13.8278 184.544 14.0044 185.01 14.3398C185.202 14.4777 185.36 14.6572 185.473 14.8648C185.586 15.0723 185.651 15.3027 185.662 15.5385C185.66 15.7813 185.6 16.0201 185.487 16.2349C185.373 16.4497 185.21 16.6341 185.01 16.7725C184.545 17.1098 183.982 17.2867 183.408 17.2761V17.2761V19.0137V19.0036ZM189.083 16.6818V18.6964H188.577V16.6818H189.083ZM189.083 19.5828V21.5975H186.425V24.715H183.842V21.5975H183.408V19.5828H189.083ZM189.083 26.5131V28.5277H183.408V26.5131H189.083ZM183.408 12.0784C182.188 12.0331 180.986 12.3869 179.987 13.0857C179.554 13.3308 179.193 13.6831 178.938 14.1085C178.683 14.5339 178.543 15.0179 178.531 15.5133C178.543 16.0142 178.683 16.5038 178.937 16.9356C179.192 17.3675 179.553 17.7274 179.987 17.9812C180.986 18.6804 182.188 19.0342 183.408 18.9885V17.2509C182.833 17.2634 182.27 17.0863 181.806 16.7473C181.605 16.6095 181.44 16.4253 181.326 16.2105C181.211 15.9957 181.151 15.7565 181.149 15.5133C181.161 15.2771 181.226 15.0467 181.34 14.8391C181.454 14.6316 181.613 14.4523 181.806 14.3146C182.271 13.9776 182.833 13.8008 183.408 13.811V12.0684V12.0784ZM183.408 19.5828V21.5975H178.097V19.5828H183.408ZM183.408 26.5131V28.5277H180.421V24.7201C180.439 24.4525 180.376 24.1856 180.239 23.9545C180.21 23.8721 180.156 23.8005 180.084 23.7492C180.013 23.698 179.928 23.6695 179.84 23.6675V23.2746H183.049V26.5383L183.408 26.5131Z" fill="var(--fill-0, #BBBBBB)"/>
<path id="Vector_9" d="M20.087 40C24.0544 39.996 27.9315 38.82 31.2285 36.6207C34.5254 34.4213 37.0943 31.2972 38.6105 27.6432C40.1266 23.9892 40.522 19.9693 39.7467 16.0914C38.9714 12.2135 37.0601 8.65173 34.2544 5.8561C31.4487 3.06046 27.8745 1.15646 23.9835 0.384681C20.0925 -0.387098 16.0592 0.00799085 12.3934 1.52002C8.7276 3.03204 5.59373 5.59315 3.38784 8.87971C1.18194 12.1663 0.00300077 16.0308 1.52588e-06 19.9849C0.0106888 25.2908 2.13058 30.3763 5.89546 34.1277C9.66034 37.8791 14.7634 39.9907 20.087 40V40Z" fill="var(--fill-0, white)"/>
<path id="Vector_10" d="M37.0059 30.7533C39.0727 27.5397 40.1707 23.8024 40.1693 19.9852C40.1766 16.1767 39.0779 12.4474 37.0059 9.24736V10.3C38.7202 13.2409 39.6232 16.5815 39.6232 19.9827C39.6232 23.3839 38.7202 26.7245 37.0059 29.6654V30.7533ZM37.0059 29.1567V18.7865C37.3945 18.9398 37.7712 19.1216 38.1328 19.3305C38.2134 19.3804 38.2865 19.4415 38.3501 19.5118C38.3782 19.555 38.3907 19.6066 38.3854 19.6578C38.3854 19.7284 38.4612 19.7283 38.4612 19.7283C38.4612 19.7283 38.532 19.6931 38.532 19.6226L38.4612 19.26V18.8973C38.4612 18.8773 38.4532 18.8581 38.439 18.8439C38.4248 18.8297 38.4055 18.8218 38.3854 18.8218C38.3147 18.8218 38.3147 18.857 38.3147 18.8973C38.3135 18.9156 38.3057 18.9329 38.2926 18.9459C38.2796 18.9588 38.2623 18.9667 38.2439 18.9678C38.1816 18.9674 38.12 18.9554 38.062 18.9326C37.8879 18.8743 37.7189 18.8019 37.5567 18.716C37.3394 18.6052 37.1575 18.5347 37.0817 18.4944C37.1017 18.4737 37.1287 18.4611 37.1575 18.4592C37.4101 18.2778 37.9913 17.8447 38.0671 17.8094C38.1429 17.7742 38.1378 17.7692 38.1732 17.7692H38.2035V17.8094C38.2439 17.8447 38.2439 17.88 38.2793 17.88H38.3147L38.3501 17.8094L38.3147 17.5173L38.2793 17.4065V16.9381L38.2439 16.8626H38.2035C38.1681 16.8626 38.1328 16.8626 38.1328 16.9381C38.1376 16.9894 38.1251 17.0408 38.0974 17.0842C38.0466 17.1845 37.972 17.2709 37.8801 17.336C37.7336 17.4468 37.2585 17.8094 37.0059 17.9908V15.3063C37.2585 15.2307 37.4758 15.1955 37.5516 15.1602C37.5516 15.1955 37.6578 15.5934 37.6578 15.5934C37.6906 15.6624 37.7045 15.7389 37.6982 15.815C37.7014 15.8941 37.6743 15.9716 37.6224 16.0315H37.5516C37.5327 16.0326 37.5148 16.0402 37.5009 16.0531C37.487 16.066 37.4782 16.0833 37.4758 16.1021V16.1424C37.491 16.1555 37.5086 16.1654 37.5278 16.1715C37.5469 16.1775 37.567 16.1796 37.587 16.1776L38.0216 16.0668L38.0974 15.9963V15.956L38.062 15.9207C38.0145 15.8294 37.9772 15.7331 37.9508 15.6337V15.6337L37.5516 14.2537L37.4405 13.891V13.7802V13.7047C37.4405 13.6694 37.3697 13.6694 37.3343 13.6694C37.226 13.6899 37.1161 13.7017 37.0059 13.7047V10.8036C38.5572 13.6142 39.3706 16.7699 39.3706 19.9777C39.3706 23.1854 38.5572 26.3411 37.0059 29.1517V29.1567ZM37.0059 14.7976V13.891H37.0766C37.1524 13.891 37.1878 13.9615 37.2585 14.1832C37.2962 14.3426 37.3452 14.4991 37.4051 14.6515C37.2781 14.7155 37.1442 14.7645 37.0059 14.7976V14.7976ZM36.3136 31.7707C36.5662 31.4433 36.7886 31.0807 37.0059 30.7634V29.6755C36.796 30.0623 36.5649 30.4372 36.3136 30.7986V31.7807V31.7707ZM37.0059 9.24736C36.7943 8.89891 36.5631 8.56261 36.3136 8.24006V9.17182C36.5662 9.53445 36.7886 9.93234 37.0059 10.295V9.24233V9.24736ZM37.0059 10.8087V13.7047C36.9859 13.7023 36.9656 13.7043 36.9465 13.7104C36.9273 13.7164 36.9097 13.7265 36.8947 13.7399C36.8947 13.7399 36.824 13.7399 36.8593 13.8155C36.8947 13.891 36.8947 13.8507 36.9301 13.8507L37.0059 13.886V14.7926C36.7886 14.8278 36.5309 14.9386 36.3136 14.9739V12.4002C36.3843 12.4002 36.4247 12.365 36.4601 12.365C36.5662 12.2894 36.6067 12.2894 36.6774 12.365L36.7128 12.4707C36.7482 12.506 36.7886 12.5463 36.824 12.506C36.8593 12.4657 36.824 12.4002 36.824 12.4002L36.7128 12.1434L36.6067 12.0023L36.4247 11.5642C36.3843 11.5289 36.3489 11.4584 36.3136 11.4936V9.67547C36.565 10.049 36.7961 10.4356 37.0059 10.8339V10.8087ZM37.0059 15.3063V17.9908C36.9301 18.0613 36.8947 18.0613 36.8947 18.0965C36.7662 18.1482 36.6323 18.1854 36.4955 18.2073H36.3136V15.5229C36.4955 15.4876 36.7482 15.3768 37.0059 15.3063ZM37.0059 18.7865V29.1567C36.7886 29.5546 36.5662 29.9575 36.3136 30.3554V25.2887C36.3901 25.2893 36.4659 25.2748 36.5368 25.246C36.6076 25.2171 36.6719 25.1744 36.726 25.1205C36.7801 25.0666 36.8229 25.0025 36.8518 24.9319C36.8808 24.8613 36.8954 24.7857 36.8947 24.7095V24.7095C36.8961 24.6328 36.882 24.5566 36.8533 24.4855C36.8247 24.4143 36.782 24.3496 36.7278 24.2951C36.6737 24.2407 36.6091 24.1976 36.5379 24.1684C36.4668 24.1392 36.3905 24.1245 36.3136 24.1252V18.7412C36.3984 18.7345 36.4828 18.7227 36.5662 18.7059C36.6885 18.7015 36.8109 18.7134 36.9301 18.7412C36.9589 18.7432 36.9859 18.7557 37.0059 18.7765V18.7865ZM36.3136 11.8261C36.3268 11.811 36.3367 11.7934 36.3428 11.7743C36.3489 11.7553 36.351 11.7351 36.3489 11.7153V11.7153L36.3136 11.6447V11.8261ZM35.3332 32.9996C35.6898 32.6145 36.0175 32.2037 36.3136 31.7707V30.7885C36.0188 31.2591 35.6912 31.7084 35.3332 32.1333V32.9996V32.9996ZM36.3136 8.23503C36.0188 7.7994 35.6911 7.38687 35.3332 7.00108V7.8724C35.6825 8.29 36.0097 8.72541 36.3136 9.17686V8.23503ZM36.3136 9.65029V11.4987C36.2782 11.4987 36.2782 11.5339 36.2782 11.6095L36.3136 11.6447V11.8261C36.2805 11.8552 36.2429 11.8791 36.2024 11.8966L35.5151 12.2239L35.3332 12.3297V10.4108L35.5151 10.2647H35.5859C35.6213 10.2295 35.5859 10.1539 35.5859 10.1539C35.5271 10.0032 35.4543 9.85816 35.3686 9.72079C35.3686 9.71144 35.3649 9.70248 35.3582 9.69586C35.3516 9.68925 35.3426 9.68554 35.3332 9.68554V8.27028C35.6927 8.70633 36.0203 9.16753 36.3136 9.65029V9.65029ZM36.3136 12.4053V14.9789C36.1316 15.0494 35.9851 15.0897 35.9851 15.0897C35.7324 15.1602 35.5151 15.2307 35.3332 15.271V12.8737C35.5151 12.8031 35.7324 12.6923 35.7324 12.6923C35.9337 12.6127 36.1281 12.5167 36.3136 12.4053V12.4053ZM36.3136 15.5229V18.2073L36.1822 18.2375H35.8183C35.7476 18.2375 35.6768 18.2375 35.6364 18.167L35.601 18.0562V17.9857H35.5657C35.4949 17.9857 35.4949 18.0562 35.4949 18.0915L35.5303 18.3483L35.5657 18.5297V18.7412L35.601 19.1391C35.601 19.1743 35.601 19.2096 35.6364 19.2096L35.6768 19.2448L35.7122 19.2096V18.9578C35.7122 18.8822 35.7476 18.847 35.8941 18.8117L36.2226 18.7765H36.2934V24.1403C36.1479 24.1538 36.0128 24.221 35.9144 24.3286C35.8161 24.4362 35.7615 24.5765 35.7615 24.7221C35.7615 24.8676 35.8161 25.0079 35.9144 25.1155C36.0128 25.2231 36.1479 25.2903 36.2934 25.3038V30.3806C35.9903 30.8553 35.6631 31.3142 35.313 31.7555V30.6677L35.3484 30.6324C35.3484 30.5971 35.3484 30.5972 35.313 30.5972V15.8502L35.3484 15.815C35.5948 15.7163 35.8504 15.6421 36.1114 15.5934C36.1769 15.5647 36.2445 15.5411 36.3136 15.5229V15.5229ZM34.2922 34.0875C34.6483 33.743 34.9857 33.3799 35.3029 32.9996V32.1333C34.9744 32.5312 34.646 32.9291 34.2922 33.2917V34.0875V34.0875ZM35.3029 7.00108C34.9744 6.60319 34.646 6.24056 34.2922 5.87793V6.65356C34.6561 7.05648 34.9845 7.45437 35.3029 7.85225V6.98093V7.00108ZM35.3029 8.27028V9.67547C35.2083 9.50249 35.0509 9.37217 34.8629 9.31129C34.675 9.2504 34.4708 9.26358 34.2922 9.3481V7.02626C34.6561 7.42414 34.9845 7.82707 35.3029 8.26021V8.27028ZM35.3029 10.4108L35.1564 10.4813C35.121 10.5166 35.0452 10.5569 35.0098 10.5166C34.9744 10.4763 34.9744 10.4461 35.0452 10.4108C35.1102 10.3509 35.1604 10.2768 35.1917 10.1942C35.2117 10.1262 35.2156 10.0544 35.2034 9.98456C35.1911 9.91471 35.1629 9.8486 35.121 9.79131C35.0894 9.74107 35.0465 9.69893 34.9955 9.66831C34.9446 9.63768 34.8872 9.61944 34.8279 9.61503C34.7571 9.57474 34.6813 9.61504 34.6106 9.65029C34.5398 9.68555 34.4287 9.86686 34.3933 10.2647V10.3756C34.4044 10.5862 34.3663 10.7965 34.2821 10.99V12.8031C34.4287 12.7326 34.646 12.6218 34.8986 12.511L35.3029 12.3297V10.4108V10.4108ZM35.3029 12.8737V15.271H35.1917C35.0805 15.3063 35.0098 15.3063 35.0098 15.271L34.9391 15.125L34.8986 15.0897H34.8633C34.8279 15.0897 34.8279 15.0897 34.8279 15.1955L34.9391 15.4524L34.9744 15.6337L35.0098 15.7747L35.121 16.1776C35.1563 16.2834 35.1917 16.2481 35.2271 16.2481C35.2365 16.2481 35.2455 16.2444 35.2521 16.2378C35.2587 16.2312 35.2625 16.2222 35.2625 16.2129V16.1776L35.2271 15.9963V15.956C35.2271 15.8855 35.2625 15.8502 35.3029 15.8502V30.572C35.2271 30.5015 35.0452 30.3554 35.0452 30.3201C35.0452 30.2849 34.9391 30.4259 34.8279 30.572C34.7167 30.5015 34.4994 30.3201 34.2821 30.1388V23.6468C34.6106 22.4422 34.7704 21.1981 34.7571 19.95C34.7655 18.7004 34.6058 17.4553 34.2821 16.2481V13.7299L34.3529 13.7651H34.3933L34.4287 13.7299L34.3933 13.6594L34.3175 13.5133C34.3119 13.4749 34.3199 13.4357 34.3402 13.4026C34.3605 13.3695 34.3918 13.3445 34.4287 13.332C34.6407 13.1785 34.8739 13.0564 35.121 12.9694C35.1888 12.9457 35.2509 12.908 35.3029 12.8585V12.8737ZM35.3029 30.6425V31.7304C34.9744 32.1333 34.646 32.5312 34.2922 32.9291V31.8764C34.7268 31.3728 35.2018 30.7885 35.3029 30.6425V30.6425ZM34.2922 31.262C34.3496 31.1543 34.4228 31.0558 34.5095 30.9699C34.4742 30.9346 34.363 30.8641 34.2922 30.7885V31.262ZM32.948 35.3214C33.4226 34.9398 33.8717 34.5276 34.2922 34.0875V33.2917C33.8722 33.7543 33.4232 34.19 32.948 34.5961V35.3214ZM34.2922 5.87793C33.8576 5.43975 33.418 5.04188 32.948 4.64399V5.36925C33.418 5.80239 33.8576 6.24057 34.2922 6.67371V5.87793ZM34.2922 7.03634V9.35816L34.2569 9.39342C33.9638 9.57474 33.8576 9.86686 33.8172 10.3756V10.5921C33.8217 10.705 33.7976 10.8171 33.7473 10.9183C33.697 11.0195 33.622 11.1065 33.5292 11.1713C33.4822 11.2025 33.4292 11.2236 33.3735 11.2331C33.3179 11.2427 33.2609 11.2405 33.2061 11.2267C33.1514 11.213 33.1001 11.1879 33.0557 11.1532C33.0112 11.1185 32.9746 11.0749 32.948 11.0252V10.4108C33.0188 10.3755 33.0542 10.3 33.0895 10.3L33.13 10.2295V10.1791C33.0895 10.1036 33.0188 10.1388 32.9834 10.1791L32.948 10.2144V8.29043C33.0486 8.25653 33.1366 8.19338 33.2007 8.10912C33.2731 8.04003 33.3275 7.95437 33.3592 7.85958C33.3909 7.7648 33.399 7.66374 33.3826 7.56517C33.3203 7.33094 33.1944 7.11835 33.0188 6.95071V6.95071L32.948 6.91545V5.69662C33.418 6.12976 33.8576 6.56794 34.2922 7.03634V7.03634ZM34.2922 10.99C34.2371 11.1683 34.1208 11.3216 33.9638 11.4231C33.8557 11.5031 33.7294 11.555 33.5962 11.5744C33.4631 11.5937 33.3272 11.5798 33.2007 11.5339C33.13 11.4634 33.0188 11.4231 32.948 11.3526V12.9139C33.5286 13.9676 33.9799 15.087 34.2922 16.2481V13.7299L34.1103 13.332L34.0396 13.1859L33.9638 13.0399L33.8172 12.788C33.7818 12.7175 33.8172 12.6772 33.8576 12.6772L33.893 12.642L33.9284 12.7175L33.9991 12.8233C34.0396 12.8585 34.0749 12.8585 34.1811 12.8233C34.2872 12.788 34.2569 12.788 34.2922 12.788V10.9749V10.99ZM34.2922 23.6468V30.1388C33.8172 29.7007 33.1653 29.192 32.948 29.0157V27.0011C33.5279 25.933 33.9791 24.8003 34.2922 23.6266V23.6468ZM34.2922 30.7885C33.893 30.4612 33.2007 29.9172 32.948 29.6654V31.1764L33.7818 31.8664L33.9284 31.6498C33.9284 31.6498 33.0895 30.9598 33.0542 30.9245C33.1547 30.7959 33.2645 30.6747 33.3826 30.5619C33.418 30.5619 34.2569 31.2872 34.2569 31.2872C34.2569 31.2778 34.2606 31.2688 34.2672 31.2622C34.2738 31.2556 34.2828 31.2519 34.2922 31.2519V30.7785V30.7885ZM34.2922 31.8764V32.9291C33.8576 33.4025 33.418 33.8356 32.948 34.2738V31.7555L33.4938 32.2239L33.0895 32.6621C33.1912 32.7558 33.3011 32.8401 33.418 32.914C33.418 32.914 33.8779 32.4204 34.3124 31.8764H34.2922ZM32.3619 35.7948C32.5734 35.658 32.7699 35.4993 32.948 35.3214V34.5961C32.7699 34.774 32.5734 34.9327 32.3619 35.0696V35.7948ZM32.9683 4.63895C32.7863 4.49289 32.6044 4.35188 32.3821 4.20582V4.89078C32.5854 5.03863 32.781 5.19664 32.9683 5.36421V4.63895ZM32.9683 5.69158V6.92553L32.6398 6.59816L32.564 6.5226L32.3821 6.34634V5.21815C32.5854 5.366 32.781 5.52401 32.9683 5.69158V5.69158ZM32.9683 8.30049V10.2244L32.6044 10.441C32.5286 10.4763 32.5286 10.5115 32.5286 10.5518V10.5871C32.5711 10.7663 32.6446 10.9367 32.7459 11.0907C32.811 11.1821 32.8856 11.2665 32.9683 11.3426V12.9039C32.7957 12.5748 32.5998 12.2584 32.3821 11.957V8.41634C32.5836 8.42718 32.7847 8.38916 32.9683 8.30553V8.30049ZM32.9683 10.441C32.916 10.5222 32.8882 10.6166 32.8882 10.713C32.8882 10.8094 32.916 10.9038 32.9683 10.985V10.441ZM32.9683 27.0162V29.0308C32.8925 28.9552 32.8571 28.9552 32.8571 28.9552C32.8571 28.9552 32.6752 29.1718 32.3821 29.4992V27.9882C32.6044 27.6609 32.7863 27.3687 32.9683 27.0464V27.0162ZM32.9683 29.6604V31.1713C32.9278 31.1361 32.9278 31.1361 32.8925 31.1361C32.8571 31.1361 32.564 31.539 32.5286 31.5742C32.4932 31.6095 32.564 31.6095 32.6044 31.6095C32.6398 31.5742 32.7459 31.6095 32.8217 31.68L32.9683 31.7555V34.2738C32.7863 34.4501 32.6044 34.5961 32.3821 34.7775V30.0985C32.6398 29.8114 32.8571 29.5949 32.8571 29.5949C32.8902 29.6241 32.9277 29.6479 32.9683 29.6654V29.6604ZM32.3821 8.11919V7.2126L32.6398 6.96078H32.6752C32.7105 6.99603 32.7863 7.03129 32.8217 7.10684C32.9052 7.195 32.9568 7.30846 32.9683 7.42919C32.9664 7.5192 32.9457 7.60783 32.9074 7.68937C32.8691 7.77091 32.8141 7.84356 32.7459 7.90262C32.7028 7.96107 32.6484 8.01034 32.5859 8.04753C32.5235 8.08472 32.4541 8.10909 32.3821 8.11919V8.11919ZM30.674 36.9835C31.2654 36.6178 31.8356 36.2193 32.3821 35.7898V35.0645C31.8364 35.5184 31.2662 35.9421 30.674 36.3337V36.9835ZM32.3821 4.20582C31.8369 3.77307 31.2666 3.3728 30.674 3.00713V3.66187C31.2658 4.03964 31.836 4.44991 32.3821 4.89078V4.20582ZM32.3821 5.21312V6.3413L32.3113 6.26575C32.2759 6.2305 32.2406 6.19523 32.2001 6.19523L32.1648 6.23049V6.26575L32.2001 6.3413L32.2759 6.4118C32.3467 6.51757 32.3467 6.55786 32.2406 6.66363L31.7352 7.20758C31.5682 7.35644 31.4096 7.5145 31.2602 7.68101C31.0789 7.8626 30.8847 8.03092 30.6791 8.18466V5.66641C30.7062 5.6637 30.7314 5.65115 30.7498 5.63115L30.861 5.52034L30.8964 5.44982L31.0076 5.30378L31.0429 5.26852C31.0525 5.25826 31.0579 5.24476 31.0579 5.23074C31.0579 5.21672 31.0525 5.20323 31.0429 5.19297V5.19297L31.0076 5.15771H30.9722L30.8256 5.08721C30.7707 5.05897 30.7212 5.02149 30.6791 4.97641V3.92376C31.2701 4.31705 31.8402 4.7407 32.3871 5.19297L32.3821 5.21312ZM32.3821 7.22773L31.8363 7.77167V7.80692C31.8876 7.88795 31.9487 7.96238 32.0182 8.02853C32.0605 8.0953 32.1248 8.1452 32.2001 8.16955V8.16955C32.2629 8.17545 32.3261 8.16321 32.3821 8.1343V7.22773V7.22773ZM32.3821 8.42641C32.3467 8.42641 32.3113 8.39116 32.2759 8.39116V8.57247C32.2406 9.00561 32.1648 9.33298 32.1648 9.6251C32.1454 9.7783 32.1852 9.93312 32.2759 10.0582V10.0582L32.3467 10.1288C32.3821 10.164 32.3821 10.164 32.3821 10.2043C32.3821 10.2136 32.3783 10.2226 32.3717 10.2292C32.3651 10.2358 32.3561 10.2396 32.3467 10.2396H32.3113L32.2406 10.2043L31.9829 9.98269C31.8781 9.88623 31.8028 9.7623 31.7656 9.6251C31.7372 9.55482 31.7251 9.47907 31.7302 9.40349C31.7302 9.25743 31.7656 9.07612 31.7656 8.89984L31.8363 8.57247L31.8767 8.28036V8.20984C31.8767 8.20984 31.6544 8.02852 31.6544 7.98823L31.619 8.02853C31.4164 8.20112 31.2334 8.39535 31.0733 8.60773C31.0025 8.64298 31.0025 8.67824 31.0025 8.71349C31.0025 8.74875 31.0025 8.78904 31.0379 8.78904L31.149 8.9351V9.04086H31.1288L31.0581 9.00562L30.765 8.71349L30.6943 8.64299V9.84167C31.3355 10.4933 31.9079 11.2089 32.4023 11.9772V8.41634L32.3821 8.42641ZM32.3821 27.9731V29.4841C31.9121 30.0633 31.2552 30.8641 31.2198 30.8993C31.3377 30.9719 31.4477 31.0562 31.5483 31.1512C31.5483 31.1159 32.0182 30.572 32.3821 30.0985V34.7775C31.8363 35.2156 31.2552 35.6488 30.674 36.0467V30.0985C31.3153 29.4469 31.8877 28.7313 32.3821 27.9631V27.9731ZM29.5471 37.6533C29.9464 37.4367 30.3102 37.2202 30.674 36.9986V36.3488C30.312 36.588 29.9356 36.8049 29.5471 36.9986V37.6533ZM30.674 3.02224C30.3179 2.77229 29.9409 2.55323 29.5471 2.36748V2.98698C29.9363 3.19428 30.3126 3.42469 30.674 3.67698V3.02224ZM30.674 3.96406V5.01669C30.4567 4.90589 30.1283 4.65406 30.0575 4.6188L29.911 4.508L29.6533 4.32669C29.6179 4.32669 29.5825 4.29143 29.5471 4.29143V3.28413C29.9342 3.49513 30.3103 3.72542 30.674 3.97413V3.96406ZM30.674 5.37932C30.6387 5.34407 30.6387 5.30881 30.5629 5.26852C30.4369 5.16337 30.3035 5.06742 30.1636 4.98143H30.1182L29.6128 5.74195C29.8706 5.92327 30.0525 6.03407 30.0879 6.06932C30.1444 6.1023 30.2058 6.12611 30.2698 6.13984C30.3051 6.10458 30.3405 6.10458 30.3405 6.13984H30.3759V6.21538H30.3405L30.194 6.39669L30.0525 6.61327C30.012 6.61327 29.9767 6.68377 29.9413 6.64852C29.9059 6.61326 29.9059 6.61327 29.9059 6.57801L29.9413 6.53771L29.9767 6.46721V6.39669C29.9775 6.36848 29.9715 6.34049 29.9592 6.31508C29.9468 6.28966 29.9286 6.26757 29.9059 6.25064C29.8706 6.21539 29.6482 6.06932 29.5421 5.99378V7.30327C29.6089 7.26277 29.6701 7.21366 29.724 7.15721C29.7594 7.15721 29.7948 7.12195 29.8301 7.12195L29.8706 7.15721L29.8301 7.26297C29.7562 7.36871 29.6715 7.4666 29.5775 7.5551C29.5681 7.5551 29.5591 7.55882 29.5525 7.56543C29.5458 7.57204 29.5421 7.58099 29.5421 7.59034V8.78904C29.9443 9.11048 30.3211 9.4624 30.669 9.84167V8.64299L30.6336 8.60773L30.5224 8.53218L30.3051 8.3156L30.2698 8.2451L30.3051 8.20984L30.3405 8.16955L30.4163 8.20984L30.4871 8.28036C30.5224 8.31561 30.5982 8.28035 30.669 8.2451V5.72684H30.6235V5.64626L30.6589 5.57071C30.6782 5.55181 30.6907 5.52698 30.6943 5.50019V5.35414L30.674 5.37932ZM30.674 30.1086V36.0567C30.3102 36.2733 29.9464 36.5302 29.5471 36.7467V31.1512C29.9464 30.8238 30.3102 30.4612 30.674 30.0985V30.1086ZM29.5471 4.92604C29.6021 4.87935 29.6396 4.8154 29.6533 4.74472C29.7291 4.63895 29.7291 4.6037 29.6533 4.52815L29.5471 4.42239V4.92604ZM28.3798 38.2526C28.7797 38.0819 29.1694 37.8885 29.5471 37.6735V37.0187C29.1713 37.2491 28.7814 37.4559 28.3798 37.6382V38.2526V38.2526ZM29.5471 2.38763C29.1694 2.17255 28.7797 1.97917 28.3798 1.80843V2.42792C28.7797 2.59866 29.1694 2.79205 29.5471 3.00713V2.38763ZM29.5471 3.2942V4.3015C29.5378 4.3015 29.5288 4.30522 29.5221 4.31183C29.5155 4.31844 29.5118 4.32741 29.5118 4.33676V4.37706L29.5471 4.4123V4.91595C29.4713 5.02676 29.4006 5.17282 29.254 5.38939L28.8902 5.93334C28.6729 6.18517 28.5264 6.43699 28.4202 6.5478C28.4202 6.58809 28.3798 6.58809 28.3798 6.62334V3.86837C28.3993 3.84617 28.4263 3.83184 28.4556 3.82808C28.5264 3.82808 28.6022 3.82807 28.6375 3.86837H28.7083L28.7437 3.82808C28.7437 3.79283 28.6729 3.75756 28.6729 3.7223L28.4556 3.64676L28.3798 3.6115V2.66967C28.7803 2.85222 29.1701 3.05737 29.5471 3.28413V3.2942ZM29.5471 6.01393C29.5118 6.01393 29.5118 5.97867 29.4713 5.97867L29.3299 6.23553L29.2187 6.3413L29.0014 6.70393C28.9743 6.72519 28.9531 6.75301 28.9398 6.78474C28.9265 6.81648 28.9216 6.85108 28.9256 6.88523C28.9256 6.96078 29.0014 7.0313 29.1833 7.1421C29.2722 7.21313 29.3688 7.27395 29.4713 7.32341H29.5471V6.01393V6.01393ZM29.5471 7.61049V8.80919C29.1842 8.48542 28.7936 8.19387 28.3798 7.93786V6.93056L28.491 6.97086L28.7083 7.15217L29.3299 7.58532C29.436 7.65583 29.4713 7.65583 29.5471 7.62058V7.61049ZM29.5471 31.1814V36.7669C29.1694 36.982 28.7797 37.1753 28.3798 37.3461V36.0416C28.4719 35.9825 28.5702 35.9336 28.6729 35.8956C28.6729 35.8956 28.966 36.4748 29.0014 36.5151C29.1461 36.4183 29.3045 36.3436 29.4713 36.2935C29.436 36.2582 29.0014 35.3164 28.966 35.2861C28.9306 35.2559 28.7083 35.4322 28.3798 35.5732V35.2861C28.4202 35.2509 28.8195 35.0696 28.8548 35.0293L28.6022 34.5256C28.6022 34.5256 29.0368 34.3091 29.0721 34.3091C29.1075 34.3091 28.9256 33.9817 28.8902 33.9414C28.7546 34.0417 28.609 34.1278 28.4556 34.1983C28.4556 34.1983 28.4202 34.1227 28.3798 34.0522V32.0376C28.7942 31.7768 29.1848 31.4802 29.5471 31.1512V31.1814ZM27.5915 38.5498C27.8442 38.439 28.1373 38.3332 28.3899 38.2224V37.608C28.1373 37.7137 27.8442 37.8598 27.5915 37.9706V38.5498ZM28.3899 1.78324C28.1307 1.64786 27.8641 1.5268 27.5915 1.42061V2.04011C27.865 2.14419 28.1317 2.2653 28.3899 2.40274V1.78324ZM28.3899 2.65456V3.59639H28.3546L28.2838 3.56113L27.9907 3.41508C27.9553 3.41508 27.8846 3.37983 27.8442 3.45034C27.8454 3.46999 27.8537 3.48851 27.8677 3.50243C27.8817 3.51635 27.9003 3.52469 27.92 3.52589V3.52589L28.0261 3.59639V3.67194L27.9553 3.74245L27.5915 4.1353V2.28689C27.8442 2.3977 28.1373 2.54376 28.3899 2.64952V2.65456ZM28.3899 3.85326C28.3143 3.90973 28.2417 3.97025 28.1726 4.03456V4.03456L27.738 4.43245L27.5915 4.57852V7.36875C27.8442 7.55007 28.1373 7.73137 28.3899 7.91269V6.90538L28.3546 6.87013L28.0968 6.65356L28.021 6.6183L28.0615 6.5478H28.1676L28.2788 6.6183C28.298 6.62057 28.3174 6.61858 28.3358 6.61249C28.3541 6.6064 28.3709 6.59634 28.3849 6.58304V3.82808L28.3899 3.85326ZM28.3899 32.0275V34.0421C28.2838 33.8256 28.0665 33.3874 28.0665 33.3521C27.8972 33.4158 27.7374 33.5022 27.5915 33.609V32.5564C27.8442 32.4103 28.1373 32.229 28.3899 32.0527V32.0275ZM28.3899 35.2207L27.7027 33.8054C27.6742 33.7508 27.6366 33.7014 27.5915 33.6593V34.7825C27.6465 34.8892 27.6752 35.0075 27.6752 35.1275C27.6752 35.2475 27.6465 35.3658 27.5915 35.4725V35.9459C27.8503 35.7977 28.1168 35.6632 28.3899 35.543V35.2207ZM28.3899 36.0164V37.3209C28.1373 37.467 27.8442 37.5778 27.5915 37.7188V36.369C27.8474 36.2352 28.1106 36.1159 28.3798 36.0114L28.3899 36.0164ZM27.2984 38.6656C27.3929 38.6207 27.4909 38.5836 27.5915 38.5548V37.9756C27.4909 38.0044 27.3929 38.0415 27.2984 38.0865V38.6656ZM27.5915 1.41559C27.4918 1.38604 27.394 1.35073 27.2984 1.30982V1.92426C27.3742 1.95952 27.4803 1.99478 27.5915 2.03507V1.41559ZM27.5915 2.28689V4.1353L27.2984 4.42741V2.17609C27.3929 2.22105 27.4909 2.25811 27.5915 2.28689V2.28689ZM27.5915 4.57348V7.36371C27.4904 7.32218 27.3924 7.27336 27.2984 7.21765V4.8253L27.3742 4.7548L27.5915 4.57348ZM27.5915 32.5312V33.5838C27.5515 33.5827 27.5123 33.5951 27.4803 33.6191C27.5016 33.6372 27.5158 33.6621 27.5208 33.6896V33.6896V33.6543H27.5915V34.7422C27.5236 34.6191 27.4219 34.5178 27.2984 34.4501V34.2738L27.445 34.1983C27.3829 34.1081 27.3335 34.0098 27.2984 33.9061V32.7125C27.3898 32.6425 27.488 32.5817 27.5915 32.5312ZM27.5915 35.4675V35.9409C27.4835 35.9657 27.3831 36.0158 27.2984 36.087V35.7948C27.4071 35.696 27.5053 35.5863 27.5915 35.4675V35.4675ZM27.5915 36.374V37.7138C27.4803 37.754 27.3742 37.7893 27.2984 37.8246V36.5201C27.3997 36.477 27.4977 36.4265 27.5915 36.369V36.374ZM26.7526 38.8923L27.2984 38.6757V38.0814L26.7526 38.298V38.8873V38.8923ZM27.2984 1.32493C27.123 1.24649 26.9402 1.18575 26.7526 1.14361V1.72281L27.2984 1.93939V1.32493V1.32493ZM27.2984 2.19121V4.44252L27.1165 4.62384C26.9854 4.73456 26.8637 4.85584 26.7526 4.98647V3.06252C26.7931 3.06252 26.8284 3.09778 26.8638 3.09778C26.8992 3.09778 26.975 3.09778 26.975 3.06252V3.02726C26.9537 3.00842 26.9274 2.99618 26.8992 2.99202V2.99202L26.7526 2.91646V1.97463L27.2984 2.19121V2.19121ZM27.2984 4.84041L26.7526 5.34406V6.94064C26.9346 7.04641 27.1165 7.12196 27.2984 7.22773V4.83538V4.84041ZM27.2984 32.7276V33.9213C27.2783 33.9029 27.2658 33.8778 27.263 33.8507C27.0879 33.9206 26.9188 34.0048 26.7577 34.1026V33.0147C26.9396 32.9089 27.1215 32.8334 27.3035 32.7276H27.2984ZM27.2984 34.2889V34.4652C27.2323 34.4255 27.158 34.4013 27.0811 34.3947C27.1464 34.3464 27.2201 34.3106 27.2984 34.2889V34.2889ZM27.2984 35.7999V36.092C27.1096 36.1602 26.927 36.2444 26.7526 36.3438V36.0164C26.8638 35.9812 27.0104 35.9459 27.1165 35.9056C27.2226 35.8653 27.2277 35.8351 27.2984 35.7999ZM27.2984 36.5251V37.8296C27.1221 37.9058 26.9395 37.9664 26.7526 38.0109V36.7719C26.8284 36.7367 27.0457 36.6259 27.2984 36.5201V36.5251ZM26.7526 35.6538V34.707C26.8368 34.7075 26.9192 34.7314 26.9905 34.7758C27.0619 34.8203 27.1195 34.8836 27.1569 34.9588C27.2134 35.0653 27.226 35.1896 27.192 35.3053C27.158 35.4209 27.0802 35.5189 26.975 35.5783V35.5783C26.9038 35.6189 26.8244 35.643 26.7425 35.6488L26.7526 35.6538ZM24.0542 39.6024C24.9642 39.4153 25.862 39.1731 26.7425 38.8772V38.298C25.8734 38.5851 24.9638 38.8419 24.0542 39.0585V39.6024ZM26.7425 1.11339C25.868 0.788103 24.9691 0.53213 24.0542 0.347848V0.932085C24.9696 1.11228 25.8687 1.36662 26.7425 1.69259V1.11339ZM26.7425 1.94441V2.88624L26.601 2.851L26.4545 2.78048L26.2726 2.70493L25.9795 2.56391C25.9655 2.55061 25.9487 2.54056 25.9304 2.53446C25.912 2.52837 25.8926 2.52638 25.8734 2.52865V2.52865L25.8329 2.56391V2.62435L25.8734 2.69487L26.0149 2.73011C26.0643 2.77511 26.1006 2.83249 26.1202 2.89628C26.1397 2.96006 26.1418 3.02791 26.126 3.09274V3.09274V5.52538C26.0907 5.7067 26.0907 5.7772 26.1614 5.81245C26.2322 5.84771 26.2726 5.77721 26.4191 5.63115H26.4545L26.7425 5.34406V6.94064C25.8858 6.49715 24.9847 6.14434 24.0542 5.88801V5.01669L24.2715 5.05195C24.3422 5.09224 24.3776 5.05195 24.3776 5.01669V4.98143L24.3068 4.94617L24.1249 4.90589C24.0542 4.87063 24.0542 4.83538 24.0542 4.80012V4.72458C24.0791 4.45587 24.1264 4.18968 24.1957 3.9288V3.9288L24.3776 3.31435L24.5595 2.55383C24.5999 2.44302 24.6353 2.40778 24.706 2.40778H24.888L24.9233 2.36748C24.9233 2.33222 24.8526 2.29698 24.8172 2.29698L24.5595 2.22646L24.3776 2.18617L24.0542 2.1207V1.21413C24.9696 1.39433 25.8687 1.64866 26.7425 1.97463V1.94441ZM26.7425 3.0323C26.7332 3.0323 26.7242 3.03602 26.7175 3.04263C26.7109 3.04924 26.7072 3.05821 26.7072 3.06756C26.6718 3.10785 26.6718 3.17836 26.6718 3.35967C26.6718 3.35967 26.601 4.99152 26.601 5.10232L26.7425 4.95626V3.0323V3.0323ZM26.7425 32.9845V34.0723L26.601 34.1479L26.4899 33.891C26.4899 33.891 25.9441 34.1479 25.9087 34.1479C25.8734 34.1479 25.9087 34.2184 25.9441 34.2184C25.9795 34.1832 26.0553 34.2587 26.126 34.3292V34.3645L25.4337 34.6918C25.4337 34.7271 25.5803 35.0192 25.5803 35.0545C25.5803 35.0897 25.7268 34.9789 25.9087 34.9084C25.8625 35.0114 25.8385 35.1229 25.8385 35.2358C25.8385 35.3486 25.8625 35.4602 25.9087 35.5632V35.5632C25.9879 35.7106 26.1098 35.8308 26.2585 35.908C26.4073 35.9853 26.576 36.0161 26.7425 35.9963V36.3237C26.6722 36.3531 26.5995 36.3767 26.5252 36.3942C26.593 36.5114 26.6537 36.6325 26.7072 36.7568H26.7425V37.9908C25.8635 38.3115 24.9657 38.5789 24.0542 38.7916V34.0018C24.9832 33.7608 25.8843 33.4232 26.7425 32.9945V32.9845ZM26.7425 34.6918C26.6684 34.6875 26.5942 34.6996 26.5252 34.7271C26.4223 34.7873 26.3462 34.8844 26.3124 34.9985C26.2786 35.1126 26.2897 35.2353 26.3433 35.3415C26.3791 35.4203 26.4346 35.4885 26.5046 35.5397C26.5745 35.5909 26.6564 35.6232 26.7425 35.6337V34.707V34.6918ZM20.0873 40.0003C21.4194 39.9962 22.7479 39.8629 24.0542 39.6024V39.0585C22.7479 39.319 21.4194 39.4522 20.0873 39.4564V40.0003ZM24.0542 0.362956C22.7468 0.11428 21.4182 -0.00716815 20.0873 0.00032678V0.549305C21.4195 0.550958 22.7483 0.684242 24.0542 0.947194V0.362956V0.362956ZM24.0542 1.19902V2.1207L23.9076 2.08544H23.7964V2.1207L23.8722 2.15595L23.9784 2.19624L24.0542 2.26676V2.41281L23.8722 3.17333L23.7257 3.78778C23.6145 4.11515 23.5791 4.40727 23.5084 4.55333C23.4377 4.69938 23.4326 4.69435 23.3972 4.69435L23.2507 4.6591L23.1799 4.69435V4.76991L23.2507 4.80515L23.5438 4.87567L23.6903 4.91595L23.8722 4.95121L24.0542 4.98647V5.8578C22.7828 5.52258 21.4731 5.35328 20.158 5.35414H20.0873V4.48282H20.1227C20.158 4.48282 20.2338 4.48281 20.2338 4.4123V4.37706L20.1227 4.3418H20.0873V2.70493C20.2338 2.88625 20.4865 3.14311 20.7038 3.39493L21.1434 3.89858L21.7246 4.51304C21.7631 4.55452 21.8149 4.58124 21.8711 4.58858C21.9419 4.58858 21.9419 4.47778 21.9419 4.44252L22.0884 2.1207C22.1238 1.93938 22.1592 1.86887 22.235 1.86887H22.3057L22.4169 1.83361V1.79835C22.4169 1.7228 22.3411 1.72281 22.3057 1.72281H21.8307L21.5073 1.68756C21.4315 1.68756 21.3961 1.68755 21.3961 1.72281L21.3607 1.75807C21.3607 1.79836 21.3961 1.83361 21.4669 1.83361H21.6488C21.7246 1.86887 21.7246 1.93938 21.7246 2.1207V3.75252C21.6477 3.67253 21.5751 3.58847 21.5073 3.5007V3.5007L20.9615 2.9215C20.6331 2.55887 20.3046 2.15596 20.0873 1.93939V0.78098C21.4204 0.765071 22.751 0.898541 24.0542 1.17887V1.19902ZM24.0542 34.0169V38.8067C22.7479 39.0671 21.4194 39.2004 20.0873 39.2046V38.0411H20.3046V38.6606H20.8099V36.7367H21.0222V38.6606H21.5275V35.4322H21.0222V36.3035H20.8049V35.4322H20.1833V35.5027C20.2591 35.5027 20.2945 35.6135 20.2945 35.7193V37.6432H20.0772V34.5609H20.1479C21.466 34.5659 22.7781 34.3828 24.0441 34.0169H24.0542ZM20.0873 0.00032678C18.8923 0.00615675 17.6995 0.103812 16.5196 0.292438V0.871634C17.6964 0.655433 18.8907 0.547541 20.0873 0.549305V0.549305V0.00032678ZM16.5196 39.6729C17.6963 39.8908 18.8905 40.0004 20.0873 40.0003V39.4564C18.8905 39.4565 17.6963 39.3469 16.5196 39.129V39.6729ZM20.0873 0.801131V1.95952C20.006 1.88355 19.9332 1.79912 19.87 1.7077V1.7077L19.8296 1.67244L19.7234 1.56165L19.6881 1.59689C19.6476 1.59689 19.6476 1.67245 19.6476 1.74296L19.5062 3.88348C19.5062 4.21085 19.4657 4.31661 19.395 4.31661H19.2484C19.1777 4.31661 19.1423 4.35691 19.1423 4.39217L19.1777 4.42741C19.1777 4.46267 19.2131 4.46267 19.2484 4.46267H19.7538L20.0822 4.49793V5.36925C18.8796 5.36497 17.6811 5.51047 16.5146 5.80239V4.86056C16.7079 4.87889 16.9024 4.87889 17.0957 4.86056C17.3697 4.79998 17.6142 4.64697 17.788 4.42741C17.9104 4.26223 17.9881 4.06851 18.0138 3.86479C18.0394 3.66106 18.0122 3.45418 17.9346 3.26398V3.26398L17.8638 2.86611L17.7173 2.10559C17.7173 1.99478 17.7173 1.92428 17.788 1.88902H17.8992C17.9346 1.85376 18.0053 1.85376 17.9699 1.77822C17.9699 1.76887 17.9662 1.7599 17.9596 1.75329C17.9529 1.74667 17.9439 1.74296 17.9346 1.74296H17.8638L17.5707 1.8185L17.4596 1.85376H17.4242L17.025 1.92426C16.9896 1.92426 16.9542 1.92427 16.9542 1.95952V2.03507H17.1715C17.2776 2.03507 17.3181 2.07032 17.3534 2.17609L17.5 2.94165L17.5707 3.37478C17.6415 3.77267 17.7173 4.06478 17.5707 4.31661C17.5129 4.38898 17.441 4.44902 17.3594 4.49315C17.2778 4.53728 17.1881 4.56459 17.0957 4.57348C16.9507 4.61285 16.7963 4.59854 16.6611 4.53319C16.6257 4.49793 16.55 4.46267 16.5146 4.42741V1.11339C17.6909 0.89302 18.8853 0.783416 20.0822 0.786022L20.0873 0.801131ZM20.0873 2.72004C20.0239 2.65876 19.974 2.58501 19.9407 2.50348C19.9314 2.50348 19.9224 2.49976 19.9157 2.49315C19.9091 2.48653 19.9054 2.47757 19.9054 2.46822C19.9054 2.61428 19.87 3.95399 19.87 3.95399V3.98924C19.87 4.28136 19.9054 4.31662 19.9761 4.35691H20.0873V2.72004V2.72004ZM20.0873 34.5609V37.6432H19.0766V35.9006H19.9155V35.5027H18.4247V35.5783C18.4955 35.5783 18.5662 35.684 18.5662 35.7948V38.0411H20.0822V39.2046C18.8855 39.2047 17.6912 39.0951 16.5146 38.8772V34.0875C17.6805 34.3959 18.881 34.555 20.0873 34.5609V34.5609ZM16.5196 0.312588C15.5434 0.493755 14.5822 0.747984 13.6443 1.07311V1.61704C14.5829 1.29425 15.5439 1.04007 16.5196 0.856525V0.277329V0.312588ZM13.6443 38.9678C14.583 39.2815 15.5442 39.5239 16.5196 39.6931V39.1491C15.5432 38.9663 14.5821 38.7104 13.6443 38.3836V38.9628V38.9678ZM16.5196 1.11339V4.4123C16.3496 4.20668 16.2488 3.95294 16.2316 3.68704L16.1204 3.21363C16.1204 3.17837 15.9739 2.45311 15.9739 2.45311C15.9385 2.30705 15.9739 2.2718 16.0497 2.23654L16.1558 2.20128C16.2316 2.20128 16.2316 2.16099 16.2316 2.12574C16.2316 2.09048 16.1204 2.09048 16.085 2.09048L15.8273 2.12574L15.6454 2.20128H15.4635L15.1401 2.27178C15.0996 2.27178 15.0643 2.30704 15.0289 2.30704V2.3423L15.0643 2.38259L15.1401 2.41785L15.2816 2.38259C15.3574 2.38259 15.3927 2.41785 15.4281 2.52865C15.503 2.77855 15.5638 3.03246 15.61 3.28917L15.6858 3.83311C15.7005 4.01594 15.7573 4.19293 15.852 4.35021C15.9467 4.50748 16.0766 4.64079 16.2316 4.73969C16.3105 4.8104 16.4136 4.84825 16.5196 4.84545V5.78728C15.5286 6.0425 14.5654 6.39511 13.6443 6.83991V1.87391C14.5822 1.54879 15.5434 1.29456 16.5196 1.11339V1.11339ZM16.5196 34.0723V38.8873C15.5439 38.7037 14.5829 38.4495 13.6443 38.1267V36.4949C14.0485 35.6236 14.5539 34.5357 14.5539 34.4803C14.3937 34.416 14.2368 34.3437 14.0839 34.2637V34.2637C14.0839 34.299 13.902 34.6969 13.6443 35.2408V34.7372C13.7908 34.4098 13.902 34.1932 13.902 34.1932C13.8214 34.145 13.7348 34.1078 13.6443 34.0824V33.0348C14.5579 33.4971 15.523 33.8505 16.5196 34.0875V34.0723ZM13.6443 1.03785C13.3494 1.11932 13.0593 1.21683 12.7751 1.32996V1.94441L13.6443 1.61704V1.03785V1.03785ZM12.7751 38.6052L13.6443 38.9326V38.3836L12.7751 38.0562V38.6354V38.6052ZM13.6443 1.87391V6.83991C13.3562 6.98597 13.0631 7.16728 12.7751 7.31334V6.30604L12.8812 6.27078L13.0278 6.15997L13.3916 5.97867C13.4624 5.94341 13.4624 5.90815 13.4624 5.90815L13.427 5.8729H13.3562L13.1743 5.94341C13.0985 5.97866 13.0631 5.94342 12.9924 5.8729C12.9309 5.74583 12.8582 5.62447 12.7751 5.51028V2.21135L13.6443 1.88398V1.87391ZM13.6443 33.0247V34.0723C13.5628 34.0206 13.4785 33.9735 13.3916 33.9313V33.9313C13.3562 33.9666 13.3562 33.9666 13.3562 34.0018C13.3745 34.0422 13.384 34.086 13.384 34.1303C13.384 34.1745 13.3745 34.2183 13.3562 34.2587V34.2587L13.0985 34.7976C12.9964 34.7385 12.8879 34.6912 12.7751 34.6566V33.8507C12.8105 33.8507 12.8105 33.8155 12.8459 33.7802C12.8269 33.7609 12.802 33.7485 12.7751 33.745V32.5463C13.0631 32.7276 13.3562 32.8737 13.6443 33.0197V33.0247ZM13.6443 34.7271C13.3916 35.2307 13.0278 36.0718 12.7751 36.5755V37.1194C12.9166 36.7971 13.3209 35.9258 13.6443 35.2358V34.7321V34.7271ZM13.6443 36.4697V38.1016L12.7751 37.7742V37.2302C12.9149 37.3022 13.0602 37.3628 13.2097 37.4116C13.2097 37.4116 13.427 36.9734 13.6443 36.4697V36.4697ZM12.7751 35.4624V35.0645C12.8369 35.0849 12.8976 35.1084 12.957 35.135C12.957 35.135 12.8812 35.3214 12.7751 35.5027V35.4624ZM12.7751 1.30478C12.6286 1.37529 12.4466 1.45084 12.2698 1.52135V2.1358C12.4417 2.07197 12.6103 1.9997 12.7751 1.91924V1.30478ZM12.2698 38.3635C12.4517 38.439 12.6336 38.5095 12.7751 38.58V38.0008C12.6286 37.9303 12.4466 37.8548 12.2698 37.7843V38.3836V38.3635ZM12.7751 2.17609V5.47502C12.7347 5.36421 12.6639 5.25845 12.6286 5.14765C12.5058 4.96237 12.396 4.76883 12.3001 4.56843C12.2959 4.54036 12.2836 4.51411 12.2647 4.49289V2.39267C12.4466 2.31712 12.6286 2.2466 12.7701 2.17609H12.7751ZM12.7751 6.27078V7.27808C12.6286 7.38385 12.4466 7.49466 12.2698 7.60547V5.59086C12.345 5.76309 12.4293 5.93122 12.5224 6.09451C12.5578 6.20532 12.5578 6.24056 12.5224 6.27582L12.4163 6.35136C12.3405 6.38662 12.3405 6.42188 12.3405 6.42188C12.356 6.44504 12.3797 6.46151 12.4069 6.46804C12.434 6.47457 12.4627 6.47068 12.4871 6.45713V6.45713L12.7397 6.31611L12.7802 6.27582L12.7751 6.27078ZM12.7751 32.5261V33.7248C12.6639 33.6845 12.4113 33.5435 12.2698 33.468V32.239C12.4517 32.3448 12.6336 32.4556 12.7751 32.5261ZM12.7751 33.8306V34.6314C12.6993 34.5558 12.6286 34.5558 12.6286 34.5206C12.5536 34.6462 12.4926 34.7797 12.4466 34.9185C12.5627 34.9509 12.6734 35.0001 12.7751 35.0645V35.4624C12.6286 35.7898 12.4113 36.2985 12.2698 36.5856V35.8653L12.4163 35.7948C12.3759 35.6461 12.327 35.4998 12.2698 35.3567V34.5961C12.49 34.3946 12.6625 34.1469 12.7751 33.8709V33.8306ZM12.7751 36.5503C12.6286 36.8777 12.5528 37.0943 12.5528 37.0943C12.449 37.0625 12.3515 37.0131 12.2647 36.9482V37.4921C12.4466 37.6029 12.6286 37.6734 12.7701 37.749V37.2051C12.7701 37.2051 12.7296 37.2051 12.7296 37.1698C12.7506 37.1494 12.7648 37.123 12.7701 37.0943L12.7751 36.5503ZM12.2698 1.52135L11.2591 1.9545V2.62435L12.2698 2.18617V1.57172V1.52135ZM11.2591 37.9303C11.5809 38.1075 11.9194 38.2526 12.2698 38.3635V37.7843C11.9413 37.6382 11.6128 37.4921 11.2591 37.3108V37.9303V37.9303ZM12.2698 2.39267V4.49289C12.1721 4.28201 12.0624 4.07686 11.9413 3.87843C11.9413 3.80792 11.9059 3.76764 11.9059 3.73239C11.9059 3.69713 11.9413 3.69712 11.9767 3.66187L12.0525 3.58632C12.0709 3.58514 12.0882 3.57733 12.1012 3.56436C12.1142 3.55138 12.122 3.53412 12.1232 3.5158V3.5158C12.0879 3.44529 12.012 3.48055 11.9767 3.5158L11.7594 3.62661L11.5775 3.73239L11.2844 3.87843V2.87113C11.6128 2.68982 11.9413 2.5488 12.295 2.40274L12.2698 2.39267ZM12.2698 5.58078C12.2344 5.51027 12.194 5.43976 12.1586 5.36421L11.8706 4.82026L11.5067 4.13026C11.4309 3.98924 11.3602 3.98924 11.3248 4.0245H11.2844V6.54275C11.3715 6.6425 11.4462 6.75242 11.5067 6.87013C11.5421 6.97589 11.5067 7.01618 11.3602 7.12195L11.2844 7.15721V8.28036C11.6128 8.02853 11.9413 7.81195 12.295 7.59538V5.58078H12.2698ZM12.2698 32.239V33.468C12.2296 33.4704 12.19 33.4578 12.1586 33.4327C12.1385 33.4532 12.1261 33.4798 12.1232 33.5083C12.1681 33.5481 12.1966 33.6031 12.2032 33.6626C12.2097 33.7222 12.1938 33.782 12.1586 33.8306C11.9577 34.2081 11.6549 34.5221 11.2844 34.7372V31.549C11.6128 31.8009 11.9413 32.0174 12.295 32.239H12.2698ZM12.2698 34.5558C12.1928 34.638 12.1063 34.7107 12.012 34.7724V34.7724V34.858C12.1232 35.0394 12.194 35.2207 12.2698 35.3617V34.6012V34.5558ZM12.2698 35.8251V36.5856C12.194 36.7719 12.1232 36.8777 12.1232 36.9129C12.1692 36.9345 12.219 36.9465 12.2698 36.9482V37.4921L11.2591 37.059V35.1753C11.3866 35.1282 11.5086 35.0674 11.6229 34.994H11.6634C11.8001 35.3064 11.8969 35.6347 11.9514 35.9711C12.0564 35.9386 12.1554 35.8893 12.2445 35.8251H12.2698ZM11.2591 1.93435C10.8245 2.19121 10.3495 2.40778 9.91491 2.65961V3.31435C10.3495 3.06252 10.8245 2.81069 11.2591 2.55383V1.93435ZM9.91491 37.19C10.3495 37.4418 10.8245 37.6936 11.2591 37.9152V37.3763C10.7952 37.1516 10.3462 36.8976 9.91491 36.6158V37.2705V37.19ZM11.2591 2.84595V3.85326L11.153 3.88852C11.1176 3.92377 11.0418 3.96407 11.0418 3.99932C11.0418 4.03458 11.1176 4.06982 11.153 4.03456L11.2591 3.99932V6.51758L11.1884 6.47728H11.153C11.1446 6.48388 11.1378 6.49229 11.1331 6.50189C11.1284 6.51148 11.126 6.52202 11.126 6.53269C11.126 6.54335 11.1284 6.55388 11.1331 6.56347C11.1378 6.57307 11.1446 6.58148 11.153 6.58808C11.1884 6.73414 11.2237 6.80466 11.1884 6.88021C11.1132 6.96231 11.0284 7.03503 10.9357 7.09677C10.6426 7.31334 10.5718 7.31335 10.4304 7.13203L10.1726 6.80465L10.1019 6.6586L9.91997 6.44202C10.0311 6.37151 10.2838 6.1902 10.3192 6.15495C10.4657 6.0794 10.5011 6.07939 10.5365 6.11465L10.6123 6.19019L10.6476 6.22545L10.683 6.26071L10.7184 6.22545L10.7588 6.19019L10.7184 6.11465L10.5769 5.89808L10.4657 5.71677L10.4304 5.68151L10.395 5.64626L10.3546 5.68151C10.3352 5.70042 10.3227 5.72523 10.3192 5.75202C10.3192 5.79231 10.2838 5.82757 10.2484 5.89808C10.1331 5.96108 10.0233 6.03352 9.91997 6.11465V5.17282C9.95534 5.20808 9.95534 5.20807 9.95534 5.24837C9.96196 5.25675 9.97041 5.26352 9.98003 5.26818C9.98966 5.27284 10.0002 5.27526 10.0109 5.27526C10.0216 5.27526 10.0322 5.27284 10.0418 5.26818C10.0515 5.26352 10.0599 5.25675 10.0665 5.24837C10.0761 5.23811 10.0814 5.22462 10.0814 5.2106C10.0814 5.19658 10.0761 5.18308 10.0665 5.17282L9.99071 5.0318L9.95534 4.95626C9.94596 4.95626 9.93696 4.95254 9.93033 4.94593C9.92369 4.93932 9.91997 4.93035 9.91997 4.921V3.61654C10.3546 3.35968 10.8296 3.11289 11.2642 2.851L11.2591 2.84595ZM11.2591 7.16225L10.7538 7.52488L10.5314 7.70619L10.3899 7.81699L10.1676 7.99831L10.0615 8.03356L10.0261 7.99831C10.0237 7.9784 10.0257 7.95822 10.0318 7.93911C10.0379 7.92 10.048 7.90241 10.0615 7.88751V7.88751L10.1676 7.81699C10.208 7.78174 10.1676 7.70619 10.1322 7.60043C10.0678 7.49739 9.99511 7.39969 9.91491 7.3083V9.44882C10.3361 9.03116 10.7852 8.64246 11.2591 8.28538V7.16225V7.16225ZM11.2591 31.5339V34.7221C11.068 34.8471 10.8605 34.9454 10.6426 35.0142C10.6736 35.1121 10.7108 35.208 10.7538 35.3013H10.7891C10.9539 35.2874 11.114 35.2393 11.2591 35.1602V37.0439C10.8245 36.7921 10.3495 36.5402 9.91491 36.2481V30.4259C10.3697 30.8288 10.8094 31.2267 11.2793 31.5893L11.2591 31.5339ZM9.91491 2.66463L8.71222 3.43019V4.11515C9.11649 3.82807 9.5157 3.57121 9.91491 3.31939V2.66463ZM8.71222 36.4093C9.09747 36.6866 9.49909 36.9405 9.91491 37.1698V36.5151C9.5157 36.2632 9.11649 36.0114 8.71222 35.7193V36.4093ZM9.91491 3.59136V4.89582C9.88357 4.85126 9.85968 4.80193 9.84417 4.74976L9.80374 4.7145L9.76837 4.67924L9.733 4.7145L9.69762 4.74976L9.58645 4.86056L8.89414 5.48006C8.89414 5.48006 8.78802 5.55056 8.74759 5.58582V4.49793C9.15186 4.21085 9.55107 3.91873 9.95029 3.66691L9.91491 3.59136ZM9.91491 5.14765L9.87954 5.11239C9.80374 5.07713 9.76837 5.07713 9.62182 5.14765C9.48262 5.25313 9.33752 5.35065 9.18723 5.43976V5.47502L9.76837 6.20028C9.8253 6.17538 9.87552 6.13741 9.91491 6.08947V5.14765V5.14765ZM9.91491 7.28816V9.42868C9.47672 9.82782 9.0743 10.2643 8.71222 10.7331V9.42868C8.71217 9.4236 8.71322 9.41855 8.7153 9.41391C8.71739 9.40927 8.72046 9.40513 8.7243 9.40179C8.72814 9.39844 8.73266 9.39596 8.73755 9.39452C8.74245 9.39307 8.7476 9.3927 8.75265 9.39342C8.88908 9.23641 8.98761 9.05033 9.04069 8.84947V8.70342C9.03381 8.49186 8.95748 8.28839 8.82339 8.12423C8.78802 8.08394 8.75265 8.08392 8.71222 8.04867V5.72684C8.75265 5.76713 8.78802 5.76713 8.82339 5.83765C8.85877 5.90816 8.93457 5.98371 9.29841 6.4521L9.66225 6.95575C9.7575 7.05596 9.84217 7.16566 9.91491 7.28312V7.28816ZM9.91491 30.3504V36.228C9.5157 35.9711 9.11649 35.7243 8.71222 35.4272V31.3325C8.96994 31.0807 9.18723 30.9346 9.18723 30.8993C9.03367 30.7497 8.88858 30.5916 8.75265 30.4259L8.71222 30.4612C8.75265 30.5015 8.71222 30.5367 8.71222 30.6072V29.0963C9.08428 29.5677 9.48598 30.0152 9.91491 30.436V30.3504ZM8.71222 9.06605C8.73935 8.99707 8.75307 8.92356 8.75265 8.84947C8.75265 8.77392 8.75265 8.70342 8.71222 8.66816V9.06605ZM8.70211 3.41004C8.38518 3.61966 8.08141 3.84841 7.79251 4.09502V4.78502C8.0856 4.56845 8.3787 4.31662 8.70211 4.09502V3.41004ZM7.79251 35.7545C8.0856 35.9711 8.3787 36.1877 8.70211 36.4093V35.7193C8.38511 35.5079 8.08135 35.2775 7.79251 35.0293V35.7545ZM8.70211 4.42239V5.51028L8.41407 5.72684C8.39472 5.729 8.37667 5.73766 8.3629 5.75139C8.34912 5.76511 8.34044 5.78309 8.33827 5.80239V5.80239V5.83765L8.3787 5.8729L8.44945 5.83765L8.59599 5.76713C8.60904 5.75229 8.62553 5.74086 8.64403 5.73384C8.66253 5.72681 8.68247 5.72442 8.70211 5.72684V8.04867C8.57296 7.95422 8.42313 7.89173 8.26498 7.86633C8.10683 7.84094 7.94489 7.85338 7.79251 7.90262V5.11239C8.08135 4.86416 8.38511 4.63373 8.70211 4.42239V4.42239ZM8.70211 8.66816V9.06605L8.59599 9.17182C8.53133 9.25977 8.4379 9.32249 8.33181 9.34916C8.22573 9.37582 8.11364 9.36476 8.01486 9.31788C7.94933 9.29173 7.88803 9.25608 7.83294 9.2121C7.83294 9.20142 7.82868 9.19118 7.8211 9.18362C7.81352 9.17606 7.80323 9.17182 7.79251 9.17182V8.48686L7.97443 8.44656C8.33827 8.4113 8.47977 8.44656 8.63137 8.59262C8.66674 8.59262 8.66674 8.62787 8.70211 8.66816V8.66816ZM8.70211 9.42868C8.57688 9.55104 8.42938 9.64846 8.26753 9.71575C8.19678 9.75605 8.19678 9.75606 8.12098 9.68051L7.79251 9.35312V12.0023C8.06521 11.5584 8.36918 11.1342 8.70211 10.7331V9.42868V9.42868ZM8.70211 29.0107V30.5216C8.66674 30.5569 8.66674 30.5971 8.63137 30.6324L8.52019 30.7029C8.52019 30.7029 8.12098 30.2698 8.05023 30.159C8.06187 30.0214 8.045 29.8829 8.00066 29.752C7.95633 29.6212 7.88548 29.5009 7.79251 29.3985V27.7666C8.06555 28.1992 8.36954 28.6116 8.70211 29.0006V29.0107ZM8.70211 31.2569V35.4272C8.38346 35.2053 8.07962 34.9631 7.79251 34.7019V32.0577C8.05023 31.8009 8.41407 31.5138 8.70211 31.2569ZM7.79251 30.8943C7.86133 30.9843 7.93558 31.0701 8.01486 31.1512V31.1512L8.23215 30.9699L7.86831 30.6072C7.86703 30.6264 7.85848 30.6443 7.8444 30.6574C7.83032 30.6705 7.81177 30.6778 7.79251 30.6777V30.8943V30.8943ZM7.79251 4.12019C7.51265 4.3085 7.2459 4.51548 6.99408 4.73969V5.50019C7.24675 5.28362 7.49942 5.0318 7.79251 4.81019V4.12019ZM6.99408 35.125C7.24675 35.3466 7.49942 35.5631 7.79251 35.7797V35.0545C7.50447 34.8379 7.24675 34.6213 6.99408 34.3997V35.125ZM7.79251 5.13756V7.9278H7.68639L7.53984 7.96808C7.24675 8.00334 7.10526 8.00334 6.99408 7.9278V7.31334C7.14063 7.20254 7.24675 7.16728 7.32255 7.20254C7.40024 7.20896 7.47501 7.23495 7.53984 7.27808V7.27808L7.61059 7.31334H7.68639V7.27808C7.68639 7.24283 7.68639 7.20253 7.61059 7.16728L7.35792 6.88021L7.32255 6.83991C7.24675 6.80465 7.21138 6.83991 7.21138 6.83991C7.13229 6.87794 7.0591 6.92714 6.99408 6.98597V5.82756C7.24675 5.61099 7.49942 5.35413 7.79251 5.13756V5.13756ZM7.79251 8.51203V9.19699C7.75714 9.19699 7.75714 9.197 7.72176 9.23729C7.68639 9.27759 7.75714 9.34306 7.75714 9.34306C7.76652 9.34306 7.77552 9.34677 7.78215 9.35338C7.78879 9.36 7.79251 9.36896 7.79251 9.37832V12.0275C7.50447 12.4607 7.24675 12.9341 6.99408 13.4075V11.0504L7.28718 10.9749C7.35792 10.9396 7.42867 10.9396 7.4691 10.9044V10.8339C7.4691 10.7936 7.42867 10.7936 7.35792 10.7583L6.99408 10.5065V8.49188C7.24165 8.5653 7.50317 8.57912 7.75714 8.53218H7.79251V8.51203ZM7.79251 27.8019V29.3985C7.68772 29.294 7.5632 29.2113 7.42616 29.1552C7.28912 29.099 7.14227 29.0704 6.99408 29.0711V26.3866C7.24675 26.8601 7.49942 27.3284 7.79251 27.8019V27.8019ZM7.79251 30.7029V30.9195L7.68639 30.8137C7.68639 30.7734 7.72176 30.7734 7.75714 30.7382L7.79251 30.7029V30.7029ZM7.79251 32.0829V34.7271C7.50916 34.5177 7.24224 34.287 6.99408 34.0371V32.8434L7.06483 32.7679L6.99408 32.6974V30.9547C7.07499 30.9836 7.16099 30.9956 7.24675 30.99V30.99C7.3933 31.1713 7.68639 31.4937 7.68639 31.4937L7.06483 32.0376C7.06483 32.0728 7.3933 32.4002 7.3933 32.4355C7.5359 32.3403 7.66952 32.2324 7.79251 32.1131V32.0829ZM6.99408 30.4864V29.5445C7.07859 29.506 7.17327 29.4955 7.26422 29.5145C7.35517 29.5335 7.4376 29.5811 7.49942 29.6503C7.54378 29.7022 7.57711 29.7625 7.59739 29.8276C7.61766 29.8927 7.62446 29.9613 7.61737 30.0291C7.61028 30.0969 7.58946 30.1626 7.55615 30.2221C7.52285 30.2817 7.47776 30.3339 7.42362 30.3755C7.3731 30.4301 7.31112 30.4728 7.2421 30.5006C7.17309 30.5285 7.09875 30.5408 7.0244 30.5367L6.99408 30.4864ZM6.99408 4.73969C6.51907 5.17283 6.04911 5.61099 5.60947 6.07939V6.88021C6.04911 6.40678 6.51907 5.93333 6.99408 5.50019V4.79004V4.73969ZM5.63979 33.8507C6.07361 34.3139 6.53605 34.7496 7.0244 35.1552V34.4299C6.53525 33.9876 6.0729 33.5167 5.63979 33.0197V33.8507ZM7.0244 5.8578V7.01619C6.95626 7.06866 6.89513 7.12958 6.84248 7.1975C6.66753 7.37253 6.56321 7.60556 6.54939 7.85225C6.56696 7.99175 6.61975 8.12454 6.70283 8.23817C6.7859 8.3518 6.89655 8.44256 7.0244 8.50197V10.5166L5.63979 9.60999V7.25291C6.07943 6.77947 6.54939 6.31108 7.0244 5.83765V5.8578ZM7.0244 7.36875L6.98903 7.40399C6.90337 7.47824 6.85068 7.58327 6.84248 7.69612C6.84086 7.74372 6.85001 7.79107 6.86926 7.83467C6.88851 7.87826 6.91735 7.91698 6.95366 7.94795C6.98903 7.94795 6.98903 7.98321 7.0244 7.98321V7.36875V7.36875ZM7.0244 11.1058V13.4629C6.32465 14.8912 5.85727 16.4212 5.63979 17.9958V12.5866L5.71559 12.6571C5.96825 12.8032 6.04406 12.8737 6.04406 12.9139L6.00363 12.9492L5.96825 13.0953L5.93288 13.1658L5.96825 13.201H6.00363C6.04405 13.201 6.04406 13.1658 6.07943 13.1305L6.22598 12.8384L6.26135 12.8031L6.3321 12.6923L6.51402 12.4053C6.54939 12.37 6.58982 12.3297 6.51402 12.2945L6.47864 12.2592L6.44327 12.3297C6.40507 12.388 6.35517 12.4377 6.29672 12.4758C6.26135 12.511 6.18555 12.511 5.93288 12.37C5.83127 12.3161 5.73336 12.2555 5.63979 12.1887V11.4231C5.69698 11.3978 5.75917 11.3858 5.82171 11.3879V11.3879L6.51402 11.2066L7.01935 11.1008L7.0244 11.1058ZM7.0244 26.442V29.1265C6.93002 29.1277 6.8368 29.1474 6.75009 29.1846C6.66338 29.2218 6.58487 29.2756 6.51907 29.3431C6.42627 29.4236 6.35125 29.5225 6.29877 29.6334C6.24628 29.7444 6.21746 29.8649 6.21414 29.9876C6.21081 30.1102 6.23305 30.2321 6.27945 30.3457C6.32585 30.4593 6.3954 30.5621 6.4837 30.6475C6.61715 30.8219 6.81235 30.939 7.02946 30.9749V32.7175C6.73636 32.3902 5.82676 31.3023 5.82676 31.3023C5.97765 31.161 6.13623 31.0282 6.30178 30.9044V30.9044C6.16033 30.7433 6.02709 30.5752 5.90256 30.4007C5.86719 30.436 5.82676 30.436 5.82676 30.4712C5.86719 30.5115 5.82676 30.6173 5.75602 30.6929L5.64484 30.7986V21.9041C5.85216 23.4809 6.32003 25.0126 7.02946 26.437L7.0244 26.442ZM7.0244 29.5999C6.98726 29.5992 6.95063 29.6087 6.91853 29.6273C6.88644 29.646 6.86013 29.6731 6.84248 29.7057C6.73799 29.784 6.66802 29.8997 6.64729 30.0283C6.62656 30.157 6.65667 30.2887 6.73131 30.3957C6.76342 30.4431 6.80727 30.4815 6.85862 30.5071C6.90997 30.5327 6.96707 30.5446 7.0244 30.5417V29.5999ZM7.0244 32.8636V34.0925C6.53651 33.6489 6.07423 33.178 5.63979 32.6823V31.7354C6.1148 32.2844 6.77174 33.0449 6.80711 33.0802C6.84248 33.1154 6.95366 32.9341 7.0244 32.8636V32.8636ZM5.63979 10.8893L6.3321 10.7432C6.44354 10.7273 6.55342 10.7021 6.66056 10.6677C6.51402 10.5972 5.96826 10.2698 5.6499 10.0532V10.8893H5.63979ZM5.63979 6.14991C5.01486 6.7726 4.44351 7.4465 3.93176 8.16451V9.11138C4.44777 8.34606 5.0186 7.61891 5.63979 6.9356V6.14991ZM3.93176 31.8361C4.45112 32.5482 5.02198 33.2216 5.63979 33.8507V33.0197C5.00441 32.3484 4.43264 31.6201 3.93176 30.8439V31.8361ZM5.63979 7.28816V9.67547L5.45787 9.56466C5.31637 9.49415 5.24057 9.41861 5.24057 9.38336C5.24057 9.3481 5.27595 9.34809 5.27595 9.31284L5.31637 9.23729C5.31637 9.20204 5.35175 9.20203 5.35175 9.16677C5.35175 9.15742 5.34802 9.14846 5.34139 9.14184C5.33475 9.13523 5.32575 9.13153 5.31637 9.13153C5.307 9.12554 5.29641 9.12167 5.28537 9.12022C5.27432 9.11877 5.2631 9.11977 5.25248 9.12314C5.24187 9.1265 5.23213 9.13215 5.22396 9.13969C5.21578 9.14724 5.20938 9.15648 5.2052 9.16677V9.16677L5.05866 9.4186L5.02328 9.49416L4.95253 9.59992L4.77061 9.85677C4.75572 9.86978 4.74426 9.88622 4.73721 9.90465C4.73017 9.92309 4.72775 9.94297 4.73019 9.96255L4.77061 9.99781C4.80598 10.0381 4.84136 9.99781 4.84136 9.96255C4.88086 9.90536 4.93053 9.85586 4.98791 9.81649C5.02328 9.78123 5.09403 9.78123 5.27595 9.89203L5.63979 10.0734V10.9094L5.56904 10.9447C4.80599 11.126 3.96713 11.267 3.96713 11.267L3.93176 11.3073V9.56466C4.44692 8.77647 5.0177 8.02582 5.63979 7.31838V7.28816ZM5.63979 11.4181V12.1937C5.27595 11.9721 4.73019 11.6498 4.65944 11.6145H4.69481L5.63979 11.4282V11.4181ZM5.63979 12.5815V17.9857C5.53973 18.6339 5.49241 19.2891 5.49829 19.9449C5.49 20.5991 5.53734 21.2528 5.63979 21.8991V30.7835C5.47198 30.9025 5.31475 31.0356 5.16983 31.1814C5.16983 31.1814 5.38712 31.403 5.63979 31.7253V32.6722C4.99998 31.9775 4.42806 31.2237 3.93176 30.4209V25.2887C4.0658 25.2607 4.18611 25.1876 4.27247 25.0817C4.35882 24.9758 4.40596 24.8434 4.40596 24.7069C4.40596 24.5705 4.35882 24.4381 4.27247 24.3322C4.18611 24.2263 4.0658 24.1532 3.93176 24.1252V18.7412L4.2956 18.7765C4.36635 18.7765 4.44215 18.8117 4.44215 18.8822V18.993L4.47752 19.0635L4.51289 19.1038L4.54827 19.0635C4.5695 19.0454 4.58378 19.0205 4.58869 18.993V18.993V18.7059L4.62407 18.5196V18.3383L4.65944 17.9807V17.8699H4.62407C4.58869 17.8699 4.54827 17.8699 4.54827 17.9404L4.51289 18.1217C4.51289 18.1972 4.44215 18.2325 4.33097 18.2325L3.96713 18.1973H3.93176V16.4546C4.24974 16.4476 4.5568 16.3377 4.80657 16.1414C5.05635 15.9452 5.23529 15.6732 5.31637 15.3667V15.3667C5.38794 15.1751 5.4182 14.9706 5.40517 14.7666C5.39215 14.5625 5.33614 14.3635 5.24079 14.1824C5.14544 14.0014 5.01289 13.8424 4.85177 13.7158C4.69066 13.5893 4.50459 13.4979 4.30571 13.4478C4.18112 13.3896 4.04382 13.3636 3.90649 13.3723V11.5239L5.61452 12.6117L5.63979 12.5815ZM3.93176 15.8452C4.1856 15.8829 4.44467 15.831 4.66425 15.6986C4.88383 15.5662 5.05013 15.3615 5.13445 15.1199V15.1199C5.19221 14.9284 5.17784 14.7225 5.09403 14.5407C4.89894 14.2569 4.59925 14.0614 4.26023 13.9968C4.156 13.9527 4.04483 13.9271 3.93176 13.9212V15.8452ZM3.93176 8.15445C1.38106 11.5769 0.00378418 15.7269 0.00378418 19.9903C0.00378418 24.2536 1.38106 28.4036 3.93176 31.8261V30.849C1.71601 27.6519 0.53457 23.8557 0.546022 19.9701V19.9701C0.540679 16.0854 1.72157 12.291 3.93176 9.09123V8.16451V8.15445ZM3.93176 9.53445V11.2771C3.86101 11.2771 3.78521 11.2771 3.78521 11.3123C3.78521 11.3217 3.78149 11.3307 3.77485 11.3373C3.76822 11.3439 3.75922 11.3476 3.74984 11.3476C3.75108 11.3766 3.76319 11.4041 3.78377 11.4246C3.80436 11.4451 3.83193 11.4572 3.86101 11.4584L3.93176 11.4936V13.342C3.69504 13.304 3.4523 13.3428 3.23945 13.4529C2.87699 13.67 2.61541 14.0213 2.51177 14.4299C2.44152 14.6243 2.412 14.8309 2.42503 15.0371C2.43807 15.2433 2.49339 15.4446 2.58757 15.6286C2.77928 15.9676 3.08824 16.2254 3.45674 16.3539C3.61149 16.3972 3.77108 16.4208 3.93176 16.4244V18.167L3.67909 18.1267C3.5534 18.1417 3.42617 18.117 3.31525 18.0562C2.93407 17.8155 2.56942 17.5496 2.22373 17.2605C2.16887 17.1907 2.11986 17.1166 2.07718 17.0389C2.04905 16.9975 2.03652 16.9475 2.04181 16.8978C2.04181 16.8223 2.00138 16.787 1.96601 16.787H1.93064V16.8978L1.89526 17.2605L1.85989 17.6231C1.85989 17.6583 1.81946 17.6936 1.89526 17.7289C1.97106 17.7641 1.96601 17.6583 1.96601 17.6231C1.96601 17.5878 2.00138 17.5828 2.04181 17.5828C2.10559 17.5997 2.16678 17.6251 2.22373 17.6583C2.2591 17.6936 2.4764 17.8397 2.69369 17.9857C2.848 18.0691 2.99505 18.1651 3.13333 18.2728C3.09455 18.2782 3.05696 18.2902 3.02216 18.3081C2.72906 18.4541 2.11256 18.711 2.04181 18.7462C1.99825 18.7739 1.94669 18.7863 1.89526 18.7815C1.88588 18.7815 1.87688 18.7778 1.87025 18.7712C1.86362 18.7646 1.85989 18.7556 1.85989 18.7462V18.7462C1.85989 18.6757 1.85989 18.6354 1.81946 18.6354L1.78409 18.6757L1.74872 18.711L1.71334 18.9981V19.1089L1.67797 19.3959V19.5773C1.67196 19.5866 1.66809 19.5972 1.66663 19.6082C1.66518 19.6192 1.66617 19.6304 1.66955 19.6409C1.67293 19.6515 1.6786 19.6612 1.68617 19.6694C1.69374 19.6775 1.70302 19.6839 1.71334 19.6881C1.73211 19.6881 1.7501 19.6806 1.76337 19.6674C1.77663 19.6542 1.78409 19.6362 1.78409 19.6175C1.79146 19.5615 1.81828 19.5099 1.85989 19.4715C1.92531 19.38 2.01201 19.3057 2.11256 19.2549C2.32985 19.1441 3.1687 18.711 3.23945 18.711C3.35306 18.6579 3.48155 18.6454 3.60329 18.6757H3.93176V24.1101H3.8408C3.76406 24.1101 3.68807 24.1253 3.61724 24.1547C3.5464 24.1841 3.48211 24.2272 3.42808 24.2815C3.37405 24.3359 3.33135 24.4003 3.30244 24.4712C3.27354 24.542 3.259 24.6179 3.25966 24.6944C3.25693 24.7719 3.26998 24.8491 3.29802 24.9215C3.32606 24.9938 3.36852 25.0597 3.42283 25.1153C3.47714 25.1708 3.54217 25.2148 3.61401 25.2446C3.68584 25.2744 3.76299 25.2894 3.8408 25.2887H3.95197V30.4259C1.9083 27.3242 0.81603 23.696 0.808794 19.9852V19.9852C0.813461 16.2747 1.90022 12.6456 3.93681 9.53949L3.93176 9.53445ZM3.93176 13.9212V15.8452C3.79528 15.8435 3.66016 15.8179 3.53254 15.7697V15.7697C2.58757 15.4826 2.62295 14.9034 2.69369 14.6112C2.78061 14.3695 2.94834 14.165 3.1687 14.0321C3.40647 13.9207 3.67253 13.8838 3.93176 13.9263V13.9212Z" fill="var(--fill-0, #BBBBBB)"/>
<path id="Vector_11" d="M30.0573 10.7731C29.1047 10.7747 28.154 10.6888 27.2173 10.5162V14.0418C27.269 14.0088 27.318 13.9717 27.3638 13.931C27.47 13.8605 27.5104 13.8958 27.5104 13.931C27.4935 14.1403 27.5587 14.3479 27.6923 14.5102C27.8579 14.6414 27.9838 14.8157 28.0561 15.0139C28.0686 15.0932 28.0617 15.1744 28.0362 15.2507C28.0107 15.3269 27.9673 15.3959 27.9096 15.452C27.701 15.5772 27.4607 15.6401 27.2173 15.6333V15.8147H27.945C27.945 15.8147 28.0157 15.8146 27.9803 15.8852L27.8742 16.1017C27.8742 16.1017 27.8742 16.142 27.7984 16.142H27.2173V16.3183H27.6923C27.6923 16.3183 27.7631 16.3183 27.7277 16.3939L27.6519 16.5399C27.6519 16.5399 27.6519 16.5752 27.5811 16.5752H27.2173V16.7263H27.5104C27.5104 16.7263 27.5811 16.7263 27.5458 16.832L27.3638 17.1947V17.6681C27.3638 17.7386 27.3285 17.7739 27.288 17.7739H27.2173V21.1483C28.0915 21.2591 28.9253 21.4002 29.744 21.5815C29.9577 20.373 30.0558 19.1469 30.0371 17.9199V10.7731H30.0573ZM27.2173 10.5162C24.622 10.1595 22.1647 9.13534 20.087 7.54469V10.6271C20.7141 10.6065 21.339 10.7119 21.9244 10.9369C22.5098 11.1619 23.0439 11.5019 23.4948 11.9368C23.9457 12.3717 24.3042 12.8925 24.5491 13.4682C24.794 14.044 24.9202 14.663 24.9202 15.2883C24.9202 15.9137 24.794 16.5327 24.5491 17.1084C24.3042 17.6842 23.9457 18.205 23.4948 18.6399C23.0439 19.0748 22.5098 19.4148 21.9244 19.6398C21.339 19.8648 20.7141 19.9702 20.087 19.9496V20.6346C22.4727 20.6357 24.8553 20.804 27.2173 21.1383V17.7638H27.1819C27.1061 17.7638 27.0707 17.7285 27.0707 17.658V17.1846L26.8888 16.822C26.8535 16.7162 26.9646 16.7162 26.9646 16.7162H27.2173V16.5701H26.8534C26.8181 16.5701 26.7827 16.4946 26.7827 16.4946L26.7069 16.3888C26.6715 16.3133 26.7827 16.3133 26.7827 16.3133H27.2173V16.137H26.6362C26.6073 16.1317 26.5808 16.1176 26.5604 16.0967V16.0967L26.4896 15.9154C26.4542 15.8096 26.525 15.8096 26.525 15.8096H27.2173V15.6283H27.1465C27.0285 15.6243 26.9124 15.5963 26.8056 15.5461C26.6987 15.4958 26.6032 15.4244 26.525 15.3362C26.433 15.2027 26.3935 15.0401 26.414 14.8794C26.4345 14.7187 26.5135 14.5712 26.6362 14.4649C26.7069 14.4296 26.7069 14.4649 26.7069 14.4649C26.6443 14.5643 26.6141 14.6806 26.6205 14.7978C26.6268 14.915 26.6694 15.0274 26.7423 15.1196C26.7129 14.9122 26.7417 14.7008 26.8255 14.5088C26.9094 14.3167 27.045 14.1516 27.2173 14.0317V10.5062V10.5162ZM20.087 17.6631V12.9136C20.4091 12.8988 20.7309 12.9493 21.0329 13.062C21.3349 13.1746 21.6109 13.3472 21.8441 13.5691C22.0773 13.7911 22.2629 14.0579 22.3898 14.3534C22.5166 14.6489 22.582 14.9669 22.582 15.2883C22.582 15.6097 22.5166 15.9278 22.3898 16.2233C22.2629 16.5188 22.0773 16.7856 21.8441 17.0075C21.6109 17.2295 21.3349 17.402 21.0329 17.5147C20.7309 17.6274 20.4091 17.6778 20.087 17.6631ZM20.087 7.54469C18.1328 9.05303 15.831 10.0503 13.3914 10.4457V14.7117C13.5025 14.7469 13.6844 14.7822 13.8259 14.8174C13.846 14.8174 13.8653 14.8254 13.8795 14.8396C13.8938 14.8537 13.9017 14.8729 13.9017 14.893V14.893V16.0514C13.9017 16.0514 13.9371 16.1622 13.8259 16.1622C13.6748 16.1565 13.5266 16.1188 13.3914 16.0514V16.2679H13.4419C13.6158 16.3355 13.8064 16.3479 13.9876 16.3032C14.0988 16.3032 14.0634 16.1974 14.0634 16.1974V15.034C14.0582 15.0298 14.0539 15.0244 14.051 15.0183C14.0481 15.0122 14.0465 15.0055 14.0465 14.9987C14.0465 14.992 14.0481 14.9853 14.051 14.9792C14.0539 14.9731 14.0582 14.9677 14.0634 14.9635H14.0988C14.1375 15.0097 14.1729 15.0585 14.2049 15.1095C14.2184 15.1236 14.2289 15.1402 14.2358 15.1584C14.2428 15.1765 14.246 15.1959 14.2454 15.2153V15.2153L14.3161 16.4845C14.3161 16.4845 14.3161 16.6306 14.2049 16.6306L13.4065 16.5248V21.0577C15.6262 20.7639 17.863 20.6175 20.1022 20.6195V20.6195V19.9496C19.4751 19.9702 18.8502 19.8648 18.2648 19.6398C17.6794 19.4148 17.1453 19.0748 16.6944 18.6399C16.2435 18.205 15.885 17.6842 15.6401 17.1084C15.3952 16.5327 15.269 15.9137 15.269 15.2883C15.269 14.663 15.3952 14.044 15.6401 13.4682C15.885 12.8925 16.2435 12.3717 16.6944 11.9368C17.1453 11.5019 17.6794 11.1619 18.2648 10.9369C18.8502 10.7119 19.4751 10.6065 20.1022 10.6271V10.6271V7.54469H20.087ZM20.087 12.9136V17.6631C19.7649 17.6778 19.4431 17.6274 19.1411 17.5147C18.8391 17.402 18.5632 17.2295 18.33 17.0075C18.0968 16.7856 17.9111 16.5188 17.7843 16.2233C17.6575 15.9278 17.5921 15.6097 17.5921 15.2883C17.5921 14.9669 17.6575 14.6489 17.7843 14.3534C17.9111 14.0579 18.0968 13.7911 18.33 13.5691C18.5632 13.3472 18.8391 13.1746 19.1411 13.062C19.4431 12.9493 19.7649 12.8988 20.087 12.9136V12.9136ZM13.3914 10.4457C12.9921 10.5162 12.5929 10.5918 12.2291 10.6271V14.7117C12.2724 14.6874 12.3209 14.6736 12.3706 14.6714C12.5929 14.5656 12.699 14.5656 12.7344 14.6361V15.9809C12.6283 15.8348 12.411 15.9809 12.2645 16.0514H12.2291V16.2679C12.2998 16.2327 12.411 16.1974 12.4817 16.1622C12.5109 16.1408 12.5451 16.1274 12.581 16.1233C12.617 16.1192 12.6533 16.1246 12.6866 16.1388C12.7198 16.1531 12.7487 16.1757 12.7704 16.2046C12.792 16.2334 12.8058 16.2674 12.8102 16.3032C12.8192 16.266 12.837 16.2315 12.8622 16.2027C12.8875 16.1739 12.9193 16.1516 12.9551 16.1378C12.9909 16.1239 13.0295 16.1189 13.0676 16.1231C13.1057 16.1274 13.1423 16.1408 13.1741 16.1622C13.2094 16.1974 13.356 16.2327 13.3914 16.2679V16.0514C13.2448 15.9809 13.0275 15.8348 12.886 15.9809V14.6361C12.9618 14.5656 13.0679 14.5656 13.2852 14.6714C13.325 14.6758 13.3631 14.6897 13.3964 14.7117V10.4306L13.3914 10.4457ZM12.2291 21.2591C12.6283 21.1836 13.0275 21.1131 13.3914 21.0778V16.545L13.1741 16.5047C13.1741 16.5047 13.0275 16.4694 12.9921 16.545C12.9766 16.5792 12.9507 16.6078 12.9181 16.6267C12.8855 16.6457 12.8478 16.6541 12.8102 16.6507V16.6507C12.7726 16.6541 12.7349 16.6457 12.7023 16.6267C12.6697 16.6078 12.6439 16.5792 12.6283 16.545C12.6283 16.4694 12.4817 16.5047 12.4817 16.5047L12.2291 16.545V21.2591ZM12.2291 10.6321C11.528 10.7171 10.8229 10.7658 10.1168 10.7781V17.9199C10.098 19.1469 10.1962 20.373 10.4099 21.5815C11.0096 21.4396 11.617 21.3319 12.2291 21.2591V16.545L11.461 16.6507C11.3549 16.6507 11.3549 16.5047 11.3549 16.5047L11.4205 15.2153C11.4189 15.1769 11.4315 15.1393 11.4559 15.1095C11.4901 15.0588 11.5272 15.01 11.5671 14.9635H11.6025V15.034L11.5721 16.2226C11.5721 16.2226 11.5721 16.3284 11.6429 16.3284C11.8377 16.3721 12.041 16.3599 12.2291 16.2931V16.2931V16.0766C12.1053 16.1456 11.9666 16.1837 11.8248 16.1874V16.1874C11.7187 16.1874 11.7541 16.0766 11.7541 16.0766V14.9182C11.7534 14.9085 11.7547 14.8988 11.7579 14.8896C11.7612 14.8805 11.7663 14.8721 11.7729 14.865C11.7796 14.8579 11.7876 14.8523 11.7965 14.8484C11.8055 14.8446 11.8151 14.8426 11.8248 14.8426C11.9714 14.8074 12.1179 14.7721 12.2291 14.7368V10.6321Z" fill="var(--fill-0, #BBBBBB)"/>
<path id="Vector_12" d="M10.516 22.1598C10.9984 24.4143 11.9809 26.5327 13.3913 28.3598V28.3598L20.0516 21.6864L26.7423 28.3598C28.1841 26.5475 29.1809 24.4243 29.653 22.1598C23.3369 20.8973 16.8321 20.8973 10.516 22.1598V22.1598Z" fill="var(--fill-0, #BBBBBB)"/>
<path id="Vector_13" d="M21.977 32.5316C23.1138 31.8462 24.1757 31.0444 25.1454 30.1392V30.1392L21.977 26.9813V29.1218H22.3762C22.452 29.1218 22.452 29.1571 22.452 29.1923L22.4166 29.4492C22.4166 29.4845 22.3762 29.4845 22.3762 29.4845C22.3762 29.4845 22.3055 29.4845 22.3055 29.4492C22.3055 29.414 22.3055 29.3737 22.1589 29.3737H21.977V29.5953C22.2701 29.701 22.4823 29.8824 22.4823 30.1745C22.4723 30.3125 22.4176 30.4436 22.3265 30.548C22.2354 30.6524 22.1128 30.7246 21.977 30.7537V32.5316V32.5316ZM21.977 30.5723V29.9176C22.0329 29.9521 22.079 30.0003 22.1108 30.0576C22.1427 30.1149 22.1592 30.1795 22.1589 30.245C22.1589 30.4263 22.0882 30.5371 21.977 30.5723ZM20.6328 33.2568C21.0958 33.0437 21.5448 32.8015 21.977 32.5316V30.7537C21.9063 30.7537 21.8305 30.7889 21.7597 30.7889C21.6828 30.7823 21.6085 30.7581 21.5424 30.7184C21.507 30.7184 21.507 30.6832 21.507 30.6076V30.3558C21.507 30.3558 21.507 30.2802 21.5778 30.2802C21.5967 30.3015 21.609 30.3277 21.6132 30.3558C21.6132 30.5371 21.689 30.6076 21.8709 30.6076C21.8901 30.6099 21.9095 30.6079 21.9279 30.6018C21.9462 30.5957 21.963 30.5856 21.977 30.5723V29.9176C21.8922 29.8573 21.7928 29.8207 21.689 29.8118C21.6132 29.7766 21.6132 29.7413 21.6132 29.7413L21.6485 29.1923C21.6509 29.1736 21.6597 29.1563 21.6736 29.1434C21.6875 29.1305 21.7054 29.1229 21.7243 29.1218H21.977V26.9813L20.6328 25.6416V29.0866H20.6682C20.9613 29.0866 21.1432 29.2326 21.1432 29.4492C21.1395 29.5329 21.1091 29.6132 21.0564 29.6785C21.0036 29.7437 20.9314 29.7904 20.8501 29.8118C20.9967 29.9176 21.2139 30.0284 21.2139 30.2802C21.2139 30.5321 21.032 30.7537 20.6328 30.7839V33.2518V33.2568ZM21.977 29.3737V29.5953C21.9174 29.5775 21.8566 29.564 21.7951 29.555C21.79 29.4924 21.8022 29.4297 21.8305 29.3737H21.977ZM20.6328 30.6076V29.9931C20.7794 30.0637 20.9209 30.1745 20.9209 30.3205C20.9248 30.3592 20.9201 30.3983 20.907 30.4349C20.8939 30.4715 20.8728 30.5048 20.8452 30.5322C20.8177 30.5597 20.7843 30.5808 20.7475 30.5938C20.7108 30.6068 20.6716 30.6115 20.6328 30.6076V30.6076ZM20.6328 29.701V29.2326H20.6682C20.7794 29.2326 20.8501 29.3032 20.8501 29.4492C20.8602 29.5116 20.8474 29.5755 20.814 29.6292C20.7805 29.6829 20.7288 29.7227 20.6682 29.7413L20.6328 29.701ZM19.2128 33.1108L20.087 33.5489C20.2751 33.4634 20.4574 33.3658 20.6328 33.2568V30.7889C20.3043 30.7889 20.087 30.6076 20.087 30.3558C20.0867 30.2529 20.118 30.1523 20.1767 30.0677C20.2355 29.9831 20.3188 29.9184 20.4155 29.8823C20.3406 29.8453 20.2772 29.7887 20.2318 29.7187C20.1864 29.6487 20.1609 29.5677 20.1578 29.4845V29.4845C20.1578 29.3384 20.3043 29.1218 20.6328 29.0866V25.6416L20.0517 25.0977L19.2128 25.9287V29.0866H19.2482C19.5059 29.0866 19.6878 29.2326 19.6878 29.4492C19.6905 29.5294 19.6667 29.6083 19.6202 29.6737C19.5736 29.7392 19.5069 29.7877 19.4301 29.8118C19.5767 29.9176 19.7586 30.0284 19.7586 30.2802C19.7586 30.5321 19.5767 30.7537 19.2128 30.7839V33.1057V33.1108ZM20.6328 29.2326V29.701C20.4863 29.6305 20.4509 29.555 20.4509 29.4492C20.4509 29.3737 20.4863 29.2326 20.6328 29.2326ZM20.6328 29.9931V30.6076C20.5963 30.6079 20.5601 30.6004 20.5266 30.5856C20.4932 30.5709 20.4633 30.5492 20.439 30.522C20.4146 30.4949 20.3963 30.4629 20.3853 30.4281C20.3743 30.3934 20.3708 30.3567 20.3751 30.3205V30.3205C20.3768 30.2459 20.3982 30.1731 20.4373 30.1094C20.4763 30.0457 20.5316 29.9934 20.5974 29.9579L20.6328 29.9931ZM19.2128 30.6076V29.9931C19.2819 30.0179 19.3425 30.0619 19.3873 30.12C19.432 30.178 19.4592 30.2476 19.4655 30.3205C19.4706 30.3564 19.4678 30.393 19.4574 30.4277C19.4471 30.4625 19.4292 30.4946 19.4053 30.5219C19.3813 30.5491 19.3517 30.5709 19.3184 30.5857C19.2852 30.6005 19.2492 30.608 19.2128 30.6076ZM19.2128 29.701V29.2326C19.2417 29.2312 19.2706 29.2358 19.2977 29.2462C19.3247 29.2566 19.3492 29.2725 19.3697 29.2929C19.3902 29.3133 19.4061 29.3377 19.4165 29.3646C19.4269 29.3916 19.4316 29.4204 19.4301 29.4492C19.4332 29.5106 19.4174 29.5714 19.3849 29.6236C19.3524 29.6758 19.3047 29.7168 19.2482 29.7413C19.2431 29.7414 19.238 29.7403 19.2334 29.7382C19.2287 29.7362 19.2246 29.7331 19.2212 29.7293C19.2178 29.7255 19.2154 29.7209 19.2139 29.7161C19.2125 29.7112 19.2121 29.7061 19.2128 29.701ZM17.9394 32.3855C18.3386 32.6373 18.7782 32.8589 19.2128 33.1108V30.7889H19.1775C18.849 30.7889 18.6317 30.6076 18.6317 30.3558C18.6395 30.2501 18.6781 30.149 18.7427 30.0649C18.8073 29.9808 18.8952 29.9174 18.9955 29.8823C18.9206 29.8453 18.8572 29.7887 18.8118 29.7187C18.7665 29.6487 18.7409 29.5677 18.7378 29.4845V29.4845C18.7378 29.3384 18.849 29.1218 19.2128 29.0866V25.9287L17.9394 27.1979V29.2125L18.0101 29.142L18.0859 29.1067C18.1213 29.1067 18.1567 29.1067 18.1567 29.1772V29.2125L18.1213 29.7161V30.114L18.1567 30.5522C18.1567 30.6227 18.1567 30.6227 18.192 30.658H18.3386C18.374 30.658 18.374 30.6983 18.374 30.6983C18.374 30.6983 18.374 30.7688 18.3386 30.7688H17.9394V32.4006V32.3855ZM19.2128 29.2326V29.701C19.0663 29.6305 18.9955 29.555 18.9955 29.4492C18.998 29.3926 19.0217 29.3389 19.0619 29.2988C19.1021 29.2587 19.156 29.2351 19.2128 29.2326V29.2326ZM19.2128 29.9931V30.6076C19.1744 30.609 19.1361 30.6025 19.1002 30.5887C19.0644 30.5748 19.0317 30.5538 19.0043 30.5269C18.9769 30.5 18.9552 30.4679 18.9407 30.4324C18.9261 30.3969 18.919 30.3588 18.9197 30.3205C18.928 30.2476 18.9522 30.1773 18.9907 30.1147C19.0291 30.0521 19.0807 29.9985 19.1421 29.9579C19.1774 29.9579 19.1774 29.9931 19.2128 29.9931ZM14.9933 30.1392C15.9108 30.9685 16.8963 31.7198 17.9394 32.3855V30.7537H17.6109C17.5755 30.7537 17.5755 30.7184 17.5755 30.6831C17.5755 30.6479 17.5755 30.6429 17.6109 30.6429H17.7575C17.7928 30.6076 17.8282 30.6076 17.8282 30.5371V29.4845V29.4492C17.7644 29.4638 17.7032 29.4875 17.6463 29.5197H17.6109L17.5755 29.555C17.5572 29.5538 17.5399 29.546 17.5268 29.533C17.5138 29.52 17.506 29.5028 17.5048 29.4845L17.5402 29.4492C17.5755 29.4492 17.7928 29.2679 17.9394 29.1923V27.1777L14.9933 30.1191V30.1392Z" fill="var(--fill-0, #BBBBBB)"/>
</g>
<defs>
<clipPath id="clip0_0_98">
<rect width="198" height="40" fill="white"/>
</clipPath>
</defs>
</svg>
